G04*
G04 #@! TF.GenerationSoftware,Altium Limited,Altium Designer,20.2.6 (244)*
G04*
G04 Layer_Physical_Order=1*
G04 Layer_Color=255*
%FSLAX23Y23*%
%MOIN*%
G70*
G04*
G04 #@! TF.SameCoordinates,73FAD0BF-AACC-46A3-90AC-D22ED7FD95C1*
G04*
G04*
G04 #@! TF.FilePolarity,Positive*
G04*
G01*
G75*
%ADD11C,0.008*%
%ADD12C,0.010*%
%ADD13C,0.010*%
%ADD20R,0.079X0.020*%
G04:AMPARAMS|DCode=21|XSize=21mil|YSize=10mil|CornerRadius=1mil|HoleSize=0mil|Usage=FLASHONLY|Rotation=0.000|XOffset=0mil|YOffset=0mil|HoleType=Round|Shape=RoundedRectangle|*
%AMROUNDEDRECTD21*
21,1,0.021,0.007,0,0,0.0*
21,1,0.018,0.010,0,0,0.0*
1,1,0.003,0.009,-0.003*
1,1,0.003,-0.009,-0.003*
1,1,0.003,-0.009,0.003*
1,1,0.003,0.009,0.003*
%
%ADD21ROUNDEDRECTD21*%
G04:AMPARAMS|DCode=22|XSize=21mil|YSize=10mil|CornerRadius=1mil|HoleSize=0mil|Usage=FLASHONLY|Rotation=270.000|XOffset=0mil|YOffset=0mil|HoleType=Round|Shape=RoundedRectangle|*
%AMROUNDEDRECTD22*
21,1,0.021,0.007,0,0,270.0*
21,1,0.018,0.010,0,0,270.0*
1,1,0.003,-0.003,-0.009*
1,1,0.003,-0.003,0.009*
1,1,0.003,0.003,0.009*
1,1,0.003,0.003,-0.009*
%
%ADD22ROUNDEDRECTD22*%
%ADD23R,0.038X0.032*%
%ADD24R,0.134X0.134*%
%ADD25R,0.010X0.026*%
%ADD26R,0.026X0.010*%
G04:AMPARAMS|DCode=27|XSize=23mil|YSize=19mil|CornerRadius=5mil|HoleSize=0mil|Usage=FLASHONLY|Rotation=270.000|XOffset=0mil|YOffset=0mil|HoleType=Round|Shape=RoundedRectangle|*
%AMROUNDEDRECTD27*
21,1,0.023,0.009,0,0,270.0*
21,1,0.013,0.019,0,0,270.0*
1,1,0.009,-0.005,-0.007*
1,1,0.009,-0.005,0.007*
1,1,0.009,0.005,0.007*
1,1,0.009,0.005,-0.007*
%
%ADD27ROUNDEDRECTD27*%
G04:AMPARAMS|DCode=29|XSize=23mil|YSize=19mil|CornerRadius=5mil|HoleSize=0mil|Usage=FLASHONLY|Rotation=0.000|XOffset=0mil|YOffset=0mil|HoleType=Round|Shape=RoundedRectangle|*
%AMROUNDEDRECTD29*
21,1,0.023,0.009,0,0,0.0*
21,1,0.013,0.019,0,0,0.0*
1,1,0.009,0.007,-0.005*
1,1,0.009,-0.007,-0.005*
1,1,0.009,-0.007,0.005*
1,1,0.009,0.007,0.005*
%
%ADD29ROUNDEDRECTD29*%
%ADD30R,0.012X0.008*%
%ADD31R,0.014X0.008*%
%ADD33R,0.043X0.055*%
%ADD34R,0.116X0.120*%
%ADD35R,0.209X0.209*%
G04:AMPARAMS|DCode=36|XSize=11mil|YSize=47mil|CornerRadius=3mil|HoleSize=0mil|Usage=FLASHONLY|Rotation=0.000|XOffset=0mil|YOffset=0mil|HoleType=Round|Shape=RoundedRectangle|*
%AMROUNDEDRECTD36*
21,1,0.011,0.042,0,0,0.0*
21,1,0.006,0.047,0,0,0.0*
1,1,0.006,0.003,-0.021*
1,1,0.006,-0.003,-0.021*
1,1,0.006,-0.003,0.021*
1,1,0.006,0.003,0.021*
%
%ADD36ROUNDEDRECTD36*%
G04:AMPARAMS|DCode=37|XSize=47mil|YSize=11mil|CornerRadius=3mil|HoleSize=0mil|Usage=FLASHONLY|Rotation=0.000|XOffset=0mil|YOffset=0mil|HoleType=Round|Shape=RoundedRectangle|*
%AMROUNDEDRECTD37*
21,1,0.047,0.006,0,0,0.0*
21,1,0.042,0.011,0,0,0.0*
1,1,0.006,0.021,-0.003*
1,1,0.006,-0.021,-0.003*
1,1,0.006,-0.021,0.003*
1,1,0.006,0.021,0.003*
%
%ADD37ROUNDEDRECTD37*%
%ADD38R,0.010X0.028*%
%ADD39R,0.028X0.010*%
%ADD40R,0.057X0.057*%
%ADD41R,0.055X0.043*%
G04:AMPARAMS|DCode=42|XSize=24mil|YSize=24mil|CornerRadius=9mil|HoleSize=0mil|Usage=FLASHONLY|Rotation=0.000|XOffset=0mil|YOffset=0mil|HoleType=Round|Shape=RoundedRectangle|*
%AMROUNDEDRECTD42*
21,1,0.024,0.005,0,0,0.0*
21,1,0.005,0.024,0,0,0.0*
1,1,0.019,0.002,-0.002*
1,1,0.019,-0.002,-0.002*
1,1,0.019,-0.002,0.002*
1,1,0.019,0.002,0.002*
%
%ADD42ROUNDEDRECTD42*%
G04:AMPARAMS|DCode=43|XSize=28mil|YSize=67mil|CornerRadius=7mil|HoleSize=0mil|Usage=FLASHONLY|Rotation=180.000|XOffset=0mil|YOffset=0mil|HoleType=Round|Shape=RoundedRectangle|*
%AMROUNDEDRECTD43*
21,1,0.028,0.053,0,0,180.0*
21,1,0.014,0.067,0,0,180.0*
1,1,0.014,-0.007,0.027*
1,1,0.014,0.007,0.027*
1,1,0.014,0.007,-0.027*
1,1,0.014,-0.007,-0.027*
%
%ADD43ROUNDEDRECTD43*%
G04:AMPARAMS|DCode=48|XSize=17mil|YSize=17mil|CornerRadius=7mil|HoleSize=0mil|Usage=FLASHONLY|Rotation=270.000|XOffset=0mil|YOffset=0mil|HoleType=Round|Shape=RoundedRectangle|*
%AMROUNDEDRECTD48*
21,1,0.017,0.003,0,0,270.0*
21,1,0.003,0.017,0,0,270.0*
1,1,0.013,-0.002,-0.002*
1,1,0.013,-0.002,0.002*
1,1,0.013,0.002,0.002*
1,1,0.013,0.002,-0.002*
%
%ADD48ROUNDEDRECTD48*%
%ADD49R,0.053X0.039*%
%ADD50R,0.091X0.058*%
G04:AMPARAMS|DCode=51|XSize=24mil|YSize=10mil|CornerRadius=2mil|HoleSize=0mil|Usage=FLASHONLY|Rotation=180.000|XOffset=0mil|YOffset=0mil|HoleType=Round|Shape=RoundedRectangle|*
%AMROUNDEDRECTD51*
21,1,0.024,0.005,0,0,180.0*
21,1,0.019,0.010,0,0,180.0*
1,1,0.005,-0.009,0.002*
1,1,0.005,0.009,0.002*
1,1,0.005,0.009,-0.002*
1,1,0.005,-0.009,-0.002*
%
%ADD51ROUNDEDRECTD51*%
%ADD52R,0.094X0.065*%
G04:AMPARAMS|DCode=53|XSize=24mil|YSize=9mil|CornerRadius=2mil|HoleSize=0mil|Usage=FLASHONLY|Rotation=90.000|XOffset=0mil|YOffset=0mil|HoleType=Round|Shape=RoundedRectangle|*
%AMROUNDEDRECTD53*
21,1,0.024,0.005,0,0,90.0*
21,1,0.019,0.009,0,0,90.0*
1,1,0.005,0.002,0.009*
1,1,0.005,0.002,-0.009*
1,1,0.005,-0.002,-0.009*
1,1,0.005,-0.002,0.009*
%
%ADD53ROUNDEDRECTD53*%
G04:AMPARAMS|DCode=54|XSize=31mil|YSize=31mil|CornerRadius=8mil|HoleSize=0mil|Usage=FLASHONLY|Rotation=180.000|XOffset=0mil|YOffset=0mil|HoleType=Round|Shape=RoundedRectangle|*
%AMROUNDEDRECTD54*
21,1,0.031,0.015,0,0,180.0*
21,1,0.015,0.031,0,0,180.0*
1,1,0.015,-0.008,0.008*
1,1,0.015,0.008,0.008*
1,1,0.015,0.008,-0.008*
1,1,0.015,-0.008,-0.008*
%
%ADD54ROUNDEDRECTD54*%
%ADD55R,0.033X0.039*%
%ADD56R,0.033X0.039*%
%ADD57C,0.035*%
%ADD65C,0.063*%
%ADD67C,0.039*%
%ADD69C,0.028*%
%ADD70C,0.031*%
%ADD71C,0.024*%
G04:AMPARAMS|DCode=72|XSize=10mil|YSize=87mil|CornerRadius=3mil|HoleSize=0mil|Usage=FLASHONLY|Rotation=90.000|XOffset=0mil|YOffset=0mil|HoleType=Round|Shape=RoundedRectangle|*
%AMROUNDEDRECTD72*
21,1,0.010,0.081,0,0,90.0*
21,1,0.005,0.087,0,0,90.0*
1,1,0.005,0.041,0.003*
1,1,0.005,0.041,-0.003*
1,1,0.005,-0.041,-0.003*
1,1,0.005,-0.041,0.003*
%
%ADD72ROUNDEDRECTD72*%
G04:AMPARAMS|DCode=73|XSize=71mil|YSize=87mil|CornerRadius=18mil|HoleSize=0mil|Usage=FLASHONLY|Rotation=90.000|XOffset=0mil|YOffset=0mil|HoleType=Round|Shape=RoundedRectangle|*
%AMROUNDEDRECTD73*
21,1,0.071,0.051,0,0,90.0*
21,1,0.035,0.087,0,0,90.0*
1,1,0.035,0.026,0.018*
1,1,0.035,0.026,-0.018*
1,1,0.035,-0.026,-0.018*
1,1,0.035,-0.026,0.018*
%
%ADD73ROUNDEDRECTD73*%
%ADD74R,0.063X0.079*%
G04:AMPARAMS|DCode=75|XSize=47mil|YSize=47mil|CornerRadius=12mil|HoleSize=0mil|Usage=FLASHONLY|Rotation=180.000|XOffset=0mil|YOffset=0mil|HoleType=Round|Shape=RoundedRectangle|*
%AMROUNDEDRECTD75*
21,1,0.047,0.024,0,0,180.0*
21,1,0.024,0.047,0,0,180.0*
1,1,0.024,-0.012,0.012*
1,1,0.024,0.012,0.012*
1,1,0.024,0.012,-0.012*
1,1,0.024,-0.012,-0.012*
%
%ADD75ROUNDEDRECTD75*%
%ADD76R,0.047X0.022*%
%ADD77O,0.035X0.010*%
%ADD78O,0.010X0.035*%
G04:AMPARAMS|DCode=79|XSize=134mil|YSize=134mil|CornerRadius=13mil|HoleSize=0mil|Usage=FLASHONLY|Rotation=180.000|XOffset=0mil|YOffset=0mil|HoleType=Round|Shape=RoundedRectangle|*
%AMROUNDEDRECTD79*
21,1,0.134,0.107,0,0,180.0*
21,1,0.107,0.134,0,0,180.0*
1,1,0.027,-0.054,0.054*
1,1,0.027,0.054,0.054*
1,1,0.027,0.054,-0.054*
1,1,0.027,-0.054,-0.054*
%
%ADD79ROUNDEDRECTD79*%
%ADD80R,0.035X0.010*%
%ADD81R,0.022X0.070*%
%ADD82R,0.032X0.070*%
%ADD83C,0.005*%
%ADD84C,0.020*%
%ADD85C,0.016*%
%ADD86C,0.012*%
%ADD87R,0.059X0.059*%
%ADD88C,0.063*%
%ADD89C,0.055*%
%ADD90C,0.157*%
%ADD91C,0.087*%
G04:AMPARAMS|DCode=92|XSize=51mil|YSize=51mil|CornerRadius=20mil|HoleSize=0mil|Usage=FLASHONLY|Rotation=0.000|XOffset=0mil|YOffset=0mil|HoleType=Round|Shape=RoundedRectangle|*
%AMROUNDEDRECTD92*
21,1,0.051,0.010,0,0,0.0*
21,1,0.010,0.051,0,0,0.0*
1,1,0.041,0.005,-0.005*
1,1,0.041,-0.005,-0.005*
1,1,0.041,-0.005,0.005*
1,1,0.041,0.005,0.005*
%
%ADD92ROUNDEDRECTD92*%
%ADD93C,0.236*%
G36*
X4943Y365D02*
Y670D01*
X4580D01*
Y605D01*
X4660D01*
Y430D01*
X4580D01*
Y365D01*
X4943D01*
D02*
G37*
D11*
X378Y1181D02*
X382Y1177D01*
X911Y210D02*
X976D01*
X1969Y1528D02*
X2018Y1478D01*
X59Y2439D02*
Y2476D01*
X126Y2439D02*
Y2476D01*
X524Y2472D02*
X563Y2512D01*
X804Y2425D02*
X930D01*
X3496Y1774D02*
X3569D01*
X4476Y453D02*
Y455D01*
X4504Y410D02*
Y433D01*
Y410D02*
X4531D01*
X4437Y492D02*
X4441Y496D01*
X3424Y1858D02*
X3450Y1833D01*
X4476Y492D02*
X4499Y470D01*
X4544Y520D02*
X4547Y523D01*
X4543Y520D02*
X4544D01*
X2883Y1613D02*
Y1678D01*
X2928Y1613D02*
Y1679D01*
X378Y736D02*
X382Y732D01*
X39Y2079D02*
Y2160D01*
Y1915D02*
Y2079D01*
Y2160D02*
Y2244D01*
Y1783D02*
Y1838D01*
Y1701D02*
Y1783D01*
Y1838D02*
Y1888D01*
X4273Y2076D02*
X4276Y2079D01*
X4249Y2076D02*
X4273D01*
X4219Y650D02*
X4220Y650D01*
X4165Y650D02*
X4219D01*
X4148Y582D02*
X4181D01*
X4146Y583D02*
X4148Y582D01*
X4118Y602D02*
X4165Y650D01*
X4369Y522D02*
X4408D01*
X4413Y528D01*
X4441Y512D02*
X4448Y520D01*
X4441Y496D02*
Y512D01*
X4448Y520D02*
Y532D01*
X4118Y571D02*
Y602D01*
Y571D02*
X4134Y555D01*
X4158D01*
X4163Y560D02*
X4181D01*
X4158Y555D02*
X4163Y560D01*
X4246Y606D02*
Y630D01*
X4260Y645D01*
Y650D01*
X4389Y741D02*
X4427D01*
X4448Y719D01*
X4244Y678D02*
X4303D01*
X4308Y609D02*
Y624D01*
X4305Y606D02*
X4308Y609D01*
X4303Y641D02*
Y681D01*
X4286Y624D02*
X4303Y641D01*
X4286Y607D02*
Y624D01*
X4308Y624D02*
X4352Y668D01*
X4244Y725D02*
Y744D01*
Y717D02*
Y725D01*
X4352Y707D02*
X4390Y744D01*
X4352Y668D02*
Y707D01*
X4285Y606D02*
X4286Y607D01*
X4304Y418D02*
X4305Y419D01*
X4181Y560D02*
X4182Y561D01*
X4324Y383D02*
Y419D01*
X4369Y581D02*
X4369Y581D01*
X4334Y571D02*
X4344Y581D01*
X4182Y522D02*
X4183Y524D01*
X4385Y543D02*
X4394Y552D01*
X4285Y378D02*
Y384D01*
X4344Y443D02*
X4369D01*
X4285Y384D02*
X4304Y403D01*
X4232Y524D02*
X4264D01*
X4370Y543D02*
X4385D01*
X4320Y379D02*
X4324Y383D01*
X4344Y581D02*
X4369D01*
X4322Y502D02*
X4369D01*
X4181Y582D02*
X4182Y581D01*
X4320Y379D02*
X4320D01*
X4264Y524D02*
X4275Y512D01*
X4324Y571D02*
Y606D01*
X4183Y524D02*
X4232D01*
X4394Y552D02*
X4413Y571D01*
X4369Y542D02*
X4370Y543D01*
X4279Y378D02*
X4285D01*
X4313Y512D02*
X4322Y502D01*
X4394Y552D02*
Y552D01*
X4369Y443D02*
X4369Y443D01*
X4285Y378D02*
X4285Y378D01*
X4304Y403D02*
Y418D01*
X4413Y571D02*
Y575D01*
X4369Y463D02*
X4424D01*
X4448Y650D02*
Y678D01*
X4369Y483D02*
X4403D01*
X4244Y744D02*
X4244Y744D01*
X4303Y678D02*
X4303Y678D01*
X4575Y581D02*
X4605D01*
X4558Y599D02*
X4575Y581D01*
X4547Y599D02*
X4558D01*
X4543Y604D02*
X4547Y599D01*
X4299Y339D02*
X4299Y339D01*
X4244Y339D02*
X4299D01*
X4532Y452D02*
X4602D01*
X4515Y470D02*
X4532Y452D01*
X4499Y470D02*
X4515D01*
X4468Y367D02*
X4468Y366D01*
X4468Y367D02*
X4468Y367D01*
X4468Y339D02*
Y366D01*
Y339D02*
X4469Y339D01*
X4244Y339D02*
X4244Y339D01*
X4245Y418D02*
X4246Y419D01*
X4245Y379D02*
Y418D01*
X4244Y378D02*
X4245Y379D01*
X4370Y406D02*
X4397D01*
X4354D02*
X4370D01*
X4366Y343D02*
X4370Y347D01*
Y406D01*
X4539Y339D02*
Y366D01*
Y339D02*
X4539Y339D01*
X4504Y367D02*
X4538D01*
X4504Y366D02*
X4504Y367D01*
X4397Y367D02*
X4397Y367D01*
X4433D01*
X4433Y366D01*
X4433Y367D01*
X4468D01*
X4468Y367D01*
X4468Y367D02*
X4504D01*
X4504Y366D01*
X4432Y407D02*
Y425D01*
X4441Y433D02*
Y453D01*
X4432Y425D02*
X4441Y433D01*
X4432Y407D02*
X4433Y406D01*
X4504Y406D02*
Y410D01*
X4480Y453D02*
X4496D01*
X4504Y445D01*
X4433Y406D02*
X4433Y406D01*
X4468D01*
X4468Y406D01*
X4349Y406D02*
X4354D01*
X4354Y406D01*
X4344Y411D02*
Y419D01*
Y411D02*
X4349Y406D01*
X4531Y410D02*
X4531Y410D01*
X4441Y453D02*
X4441Y453D01*
X4441Y492D02*
X4442D01*
X4437D02*
X4441D01*
X4442D02*
X4448Y487D01*
Y482D02*
Y487D01*
X4471Y458D02*
X4473D01*
X4448Y482D02*
X4471Y458D01*
X4473D02*
X4476Y455D01*
X4424Y463D02*
X4434Y453D01*
X4437D01*
X4437Y492D02*
X4437Y492D01*
X4413Y492D02*
X4437D01*
X4403Y483D02*
X4413Y492D01*
X4543Y481D02*
X4546Y484D01*
X4543Y481D02*
X4543Y481D01*
X4602Y452D02*
X4605Y455D01*
X4602Y484D02*
X4605Y487D01*
X4546Y484D02*
X4602D01*
X4492Y532D02*
X4543Y481D01*
X4543D01*
X4471Y532D02*
X4492D01*
X4595Y559D02*
X4605Y550D01*
X4556Y559D02*
X4595D01*
X4527Y559D02*
X4555D01*
X4556Y559D01*
X4514Y571D02*
X4527Y559D01*
X4511Y552D02*
X4539Y524D01*
X4543D01*
X4472Y571D02*
X4514D01*
X4472Y552D02*
X4511D01*
X4448Y571D02*
Y607D01*
X4448Y607D01*
X4448Y571D02*
X4448D01*
X4448Y678D02*
X4448Y678D01*
Y650D02*
X4448Y650D01*
X4448Y717D02*
Y719D01*
X4547Y523D02*
X4604D01*
X4605Y522D01*
X1783Y539D02*
Y544D01*
X1752Y536D02*
Y591D01*
X1756Y543D02*
X1759Y539D01*
X1756Y543D02*
Y546D01*
X1771Y556D02*
X1783Y544D01*
X1771Y556D02*
Y590D01*
X4031Y1673D02*
Y1675D01*
Y1675D01*
X3986Y1713D02*
X3990Y1717D01*
X4224Y2009D02*
Y2051D01*
X4249Y2076D01*
X3752Y2035D02*
X3752Y2035D01*
X4114Y1508D02*
X4276D01*
X4065Y1545D02*
X4077D01*
X4085Y1538D01*
Y1538D02*
Y1538D01*
Y1538D02*
X4114Y1508D01*
X3850Y1505D02*
X3882D01*
X2337Y177D02*
X2337Y177D01*
X2398D01*
X3756Y1929D02*
X3756Y1929D01*
Y2012D02*
Y2035D01*
X3374Y2126D02*
X3375Y2125D01*
X3421D01*
X3569Y2187D02*
X3571Y2189D01*
X3911Y1826D02*
X3927Y1843D01*
X3795Y1795D02*
X3795D01*
X3139Y1406D02*
Y1459D01*
X1669Y955D02*
X1674D01*
X2215Y1614D02*
X2217Y1612D01*
X2509Y1406D02*
Y1459D01*
X1811Y536D02*
X1812Y535D01*
X1811Y536D02*
Y590D01*
X1665Y225D02*
X1687D01*
X1665Y205D02*
X1687D01*
X599Y2439D02*
X605Y2445D01*
X2718Y1409D02*
Y1463D01*
X1084Y85D02*
X1094Y95D01*
X1642Y955D02*
X1642Y955D01*
X2931Y1406D02*
Y1459D01*
X2169Y1721D02*
Y1724D01*
Y1721D02*
X2170Y1720D01*
X2171Y1721D01*
X2283Y1748D02*
X2283Y1748D01*
Y1720D02*
Y1748D01*
X2171Y1721D02*
X2200D01*
X2171Y1681D02*
X2200D01*
X3345Y1907D02*
X3349Y1910D01*
X3373D01*
X3429Y1756D02*
X3431Y1754D01*
X3500D01*
X3419Y1793D02*
X3481D01*
X3385Y1828D02*
X3419Y1793D01*
X3386Y2012D02*
X3414Y2040D01*
X3386Y2008D02*
Y2012D01*
X3367Y1942D02*
Y1946D01*
X3398Y1888D02*
X3399Y1887D01*
X3383Y1918D02*
X3401D01*
X3376Y1914D02*
X3379D01*
X3399Y1887D02*
X3404Y1892D01*
X3391Y1888D02*
X3398D01*
X3373Y1910D02*
X3376Y1914D01*
X3367Y1946D02*
X3398Y1977D01*
X3379Y1914D02*
X3383Y1918D01*
X3415Y2148D02*
X3500D01*
X3409Y2154D02*
X3415Y2148D01*
X3422Y2126D02*
X3498D01*
X3421Y2125D02*
X3422Y2126D01*
X3498D02*
X3500Y2128D01*
X3244Y1828D02*
X3385D01*
X3426Y1813D02*
X3500D01*
X3369Y1870D02*
X3426Y1813D01*
X3244Y1870D02*
X3369D01*
X3244Y1870D02*
X3244Y1870D01*
X3424Y1858D02*
X3424Y1858D01*
X3450Y1833D02*
X3488D01*
X3424Y1858D02*
X3429D01*
X3404Y1892D02*
X3500D01*
X3401Y1918D02*
X3408Y1911D01*
X3500D01*
X3409Y1949D02*
X3498D01*
X3500Y1951D01*
X3425Y1973D02*
X3497D01*
X3421Y1977D02*
X3425Y1973D01*
X3398Y1977D02*
X3421D01*
X3362Y2074D02*
X3387Y2099D01*
X3360Y2074D02*
X3362D01*
X3440Y2099D02*
X3451Y2089D01*
X3387Y2099D02*
X3440D01*
X3500Y1931D02*
X3565D01*
X3500Y2187D02*
X3569D01*
X3500Y2167D02*
X3553D01*
X3553D02*
X3571Y2150D01*
X3561Y2108D02*
X3571Y2098D01*
X3500Y2108D02*
X3561D01*
X3565Y1990D02*
X3567Y1988D01*
X3500Y1734D02*
X3559D01*
X3564Y1728D01*
X3571D01*
X3500Y1715D02*
X3551D01*
X3564Y1728D01*
X3500Y1872D02*
X3562D01*
X3500Y1852D02*
X3562D01*
X3569Y1774D02*
X3571Y1772D01*
X3575Y1768D01*
X3571Y1772D02*
Y1772D01*
X1059Y1201D02*
Y1220D01*
Y1182D02*
Y1201D01*
X1035Y1201D02*
X1059D01*
X1059Y1201D01*
X1079Y1200D02*
Y1218D01*
X1075Y1177D02*
X1075Y1177D01*
X1064Y1177D02*
X1075D01*
X1059Y1182D02*
X1064Y1177D01*
X437Y1323D02*
X535D01*
X91Y1118D02*
X102Y1130D01*
X346D01*
X535Y1323D02*
X587Y1272D01*
X642Y1029D02*
Y1031D01*
X641Y1028D02*
X642Y1029D01*
X684Y1008D02*
X684Y1008D01*
X642Y921D02*
Y949D01*
X661Y953D02*
X661Y953D01*
X661Y953D02*
Y985D01*
Y919D02*
Y953D01*
X661Y949D02*
X720D01*
X642Y949D02*
Y985D01*
X720Y1008D02*
X720Y1008D01*
X518Y776D02*
X661Y919D01*
X598Y1028D02*
X641D01*
X606Y949D02*
X642D01*
X547Y827D02*
X642Y921D01*
X516Y827D02*
X547D01*
X728Y1110D02*
X728Y1110D01*
X815D01*
X728Y1272D02*
X768Y1311D01*
X925D01*
X949Y1335D02*
Y1343D01*
X925Y1311D02*
X949Y1335D01*
X697Y1272D02*
X697Y1272D01*
X728D01*
X587Y1272D02*
X622D01*
X610Y1150D02*
Y1169D01*
X618Y1177D02*
X659D01*
X610Y1169D02*
X618Y1177D01*
X673Y1110D02*
X673Y1110D01*
X610Y1110D02*
X673D01*
X610Y1110D02*
X610Y1110D01*
X886Y1272D02*
X917D01*
X988Y1343D01*
Y1342D02*
Y1343D01*
X1870Y1275D02*
X1873Y1272D01*
X1874D01*
X1891Y1398D02*
X1896Y1403D01*
X1919Y1375D02*
Y1427D01*
X1915Y1370D02*
X1919Y1375D01*
X1896Y1370D02*
X1915D01*
X1896Y1370D02*
X1896Y1370D01*
X1878Y1370D02*
X1896D01*
X1863Y1385D02*
X1878Y1370D01*
X1776Y1051D02*
Y1468D01*
X1681Y1562D02*
X1776Y1468D01*
Y1051D02*
X1810Y1016D01*
X1939Y1372D02*
Y1427D01*
X1955Y1395D02*
X1958Y1398D01*
X1955Y1341D02*
Y1395D01*
X1978Y1388D02*
X1983Y1383D01*
X1998Y1408D02*
X2024Y1382D01*
X1978Y1388D02*
Y1427D01*
X1863Y1385D02*
Y1429D01*
X1622Y1638D02*
X1630D01*
X1760Y1043D02*
Y1461D01*
X1665Y1555D02*
X1760Y1461D01*
X1696Y1569D02*
X1806Y1459D01*
X1696Y1569D02*
Y1643D01*
X1810Y999D02*
Y1016D01*
X1806Y1459D02*
X1868D01*
X1760Y1043D02*
X1783Y1020D01*
X1899Y1626D02*
X1900Y1627D01*
X1838Y1626D02*
Y1632D01*
X1878Y1626D02*
X1899D01*
X1900Y1627D02*
Y1628D01*
X1838Y1632D02*
X1867Y1661D01*
X1900Y1414D02*
Y1427D01*
X1896Y1403D02*
Y1410D01*
X1900Y1414D01*
X1917Y1335D02*
Y1350D01*
X1939Y1372D01*
X1665Y1775D02*
X1759Y1681D01*
X1654Y1775D02*
X1665D01*
X1759Y1595D02*
Y1681D01*
X1651Y1815D02*
X1775Y1691D01*
X1654Y1835D02*
X1791Y1698D01*
X1598Y1835D02*
X1654D01*
X1618Y1754D02*
X1654D01*
X1617Y1756D02*
X1618Y1754D01*
X1598Y1756D02*
X1617D01*
X1743Y1588D02*
Y1665D01*
X1654Y1754D02*
X1743Y1665D01*
X1313Y638D02*
X1315D01*
X1325Y647D01*
X1325D01*
X1406Y728D01*
Y1040D01*
X1325Y675D02*
X1394Y743D01*
Y1046D01*
X1598Y1250D01*
X1381Y759D02*
Y1051D01*
X1355Y788D02*
Y1062D01*
X1315Y776D02*
X1343Y803D01*
X1368Y774D02*
Y1056D01*
X1315Y748D02*
X1355Y788D01*
X1368Y1056D02*
X1559Y1247D01*
X1315Y720D02*
X1368Y774D01*
X1315Y693D02*
X1381Y759D01*
X1343Y803D02*
Y1067D01*
X1520Y1244D01*
Y1362D01*
X1381Y1051D02*
X1579Y1249D01*
X1355Y1062D02*
X1539Y1246D01*
X1406Y1040D02*
X1634Y1268D01*
X1313Y665D02*
X1315D01*
X1325Y675D01*
X1325D01*
X1500Y1327D02*
Y1335D01*
X1181Y992D02*
X1183Y994D01*
Y1010D01*
X1500Y1327D01*
X1461Y1307D02*
Y1335D01*
X1159Y1005D02*
X1461Y1307D01*
X1159Y997D02*
Y1005D01*
X1441Y1307D02*
Y1362D01*
X1146Y1012D02*
X1441Y1307D01*
X1135Y1004D02*
X1143Y1012D01*
X1126Y992D02*
Y995D01*
X1135Y1004D01*
Y1004D01*
X1143Y1012D02*
X1146D01*
X1112Y1019D02*
X1129D01*
X1421Y1311D01*
Y1335D01*
X1075Y1031D02*
X1118D01*
X1402Y1315D01*
Y1335D01*
X1154Y992D02*
X1159Y997D01*
X1098Y992D02*
Y1005D01*
X1071Y992D02*
Y1027D01*
X1075Y1031D01*
X1070Y1044D02*
X1107D01*
X1043Y992D02*
Y1017D01*
X1070Y1044D01*
X1098Y1005D02*
X1112Y1019D01*
X1107Y1044D02*
X1382Y1319D01*
X1362Y1319D02*
Y1335D01*
X1100Y1057D02*
X1362Y1319D01*
X1055Y1057D02*
X1100D01*
X1382Y1319D02*
Y1335D01*
X1038Y1070D02*
X1090D01*
X1339Y1319D02*
Y1335D01*
X1090Y1070D02*
X1339Y1319D01*
X1323Y1324D02*
Y1334D01*
X1082Y1083D02*
X1323Y1324D01*
X1031Y1083D02*
X1082D01*
X1016Y1018D02*
X1055Y1057D01*
X961Y1012D02*
X1031Y1083D01*
X988Y1020D02*
X1038Y1070D01*
X1016Y992D02*
Y1018D01*
X988Y992D02*
X988Y992D01*
Y1020D01*
X961Y992D02*
X961Y992D01*
Y1012D01*
X933Y126D02*
X933Y124D01*
X969D02*
Y126D01*
X933Y85D02*
X969D01*
X909Y209D02*
X911Y210D01*
X909Y195D02*
Y209D01*
Y195D02*
X914Y191D01*
X933D01*
X957Y167D02*
X957Y150D01*
X911Y250D02*
X933D01*
X909Y232D02*
X912Y230D01*
X933D01*
Y230D01*
X909Y232D02*
Y248D01*
X936Y355D02*
Y361D01*
X936Y354D02*
X936Y355D01*
X936Y348D02*
Y354D01*
X972Y305D02*
Y325D01*
X976Y330D01*
Y348D01*
X976Y348D01*
X974D02*
X976D01*
X972Y305D02*
X976Y300D01*
X941Y394D02*
X942Y394D01*
X948Y388D01*
X980Y394D02*
Y394D01*
X921Y581D02*
X937Y565D01*
X978D01*
X978Y922D02*
Y926D01*
X961Y953D02*
X966Y948D01*
X961Y953D02*
X961D01*
X1004Y124D02*
Y126D01*
X1039Y126D02*
X1039Y124D01*
X1004Y85D02*
X1039D01*
X1016Y150D02*
Y167D01*
X1039Y210D02*
X1039Y211D01*
X1061D01*
X1039Y230D02*
X1039Y230D01*
X1039Y250D02*
X1059D01*
X1023Y354D02*
Y355D01*
X1017Y348D02*
X1023Y354D01*
X1016Y348D02*
X1017D01*
X1016Y330D02*
X1016Y348D01*
X1016Y330D02*
X1020Y325D01*
Y305D02*
Y325D01*
X1016Y300D02*
X1020Y305D01*
X1046Y394D02*
X1047D01*
X1040Y388D02*
X1046Y394D01*
X1022Y524D02*
X1034Y512D01*
X993Y943D02*
Y948D01*
X1016Y950D02*
X1022Y944D01*
X1016Y950D02*
Y953D01*
X909Y209D02*
Y232D01*
X969Y126D02*
X976Y134D01*
X976Y167D01*
X933Y126D02*
X957Y150D01*
X948Y375D02*
Y388D01*
X976Y300D02*
X976Y273D01*
X957D02*
Y295D01*
X929Y323D02*
X957Y295D01*
X948Y375D02*
X974Y348D01*
X921Y581D02*
Y642D01*
X966Y938D02*
Y948D01*
Y938D02*
X978Y926D01*
X996Y134D02*
Y167D01*
Y134D02*
X1004Y126D01*
X1016Y150D02*
X1039Y126D01*
X996Y273D02*
Y315D01*
X1016Y300D02*
X1016Y273D01*
X1040Y373D02*
Y388D01*
X1023Y355D02*
X1040Y373D01*
X993Y943D02*
X1002Y935D01*
Y900D02*
Y935D01*
X1022Y900D02*
Y944D01*
Y524D02*
Y600D01*
X906Y248D02*
X909D01*
X906Y283D02*
X906Y248D01*
Y323D02*
X929D01*
X906D02*
Y354D01*
X906Y323D02*
X906D01*
Y392D02*
Y394D01*
X1039Y85D02*
X1084D01*
X1061Y211D02*
X1063Y209D01*
X1059Y250D02*
X1067Y248D01*
X1063Y232D02*
Y246D01*
X1061Y230D02*
X1063Y232D01*
Y246D02*
X1067Y248D01*
X1039Y230D02*
X1061D01*
X980Y394D02*
X1008Y394D01*
X982Y570D02*
Y600D01*
X978Y565D02*
X982Y570D01*
Y900D02*
Y918D01*
X978Y922D02*
X982Y918D01*
X988Y953D02*
X993Y948D01*
X988Y953D02*
X988D01*
X906Y392D02*
X936Y361D01*
X976Y210D02*
X986Y220D01*
X1063Y209D02*
Y232D01*
X1783Y998D02*
Y1020D01*
X1810Y999D02*
X1811Y998D01*
X1744Y1035D02*
Y1453D01*
Y1035D02*
X1756Y1024D01*
Y998D02*
Y1024D01*
X1591Y998D02*
Y1020D01*
X1650Y1079D01*
X1665Y1075D02*
Y1425D01*
X1618Y998D02*
Y1028D01*
X1665Y1075D01*
X1650Y1079D02*
Y1421D01*
X1630Y1441D02*
X1650Y1421D01*
X1598Y1441D02*
X1630D01*
X1681Y1067D02*
Y1433D01*
X1646Y998D02*
Y1031D01*
X1681Y1067D01*
X1630Y1461D02*
X1665Y1425D01*
X1626Y1461D02*
X1630D01*
X1697Y1063D02*
Y1439D01*
X1673Y1039D02*
X1697Y1063D01*
X1673Y998D02*
Y1039D01*
X1698Y998D02*
Y1044D01*
X1713Y1058D01*
Y1445D01*
X1634Y1480D02*
X1681Y1433D01*
X1673Y998D02*
X1673Y998D01*
X1591Y998D02*
X1591Y998D01*
X1728Y998D02*
X1731Y1000D01*
X1728Y1000D02*
Y1447D01*
X1634Y1542D02*
X1728Y1447D01*
X1598Y1559D02*
X1713Y1445D01*
X1616Y1520D02*
X1697Y1439D01*
X1651Y1546D02*
X1744Y1453D01*
X1634Y1268D02*
Y1413D01*
X1626Y1421D02*
X1634Y1413D01*
X1598Y1250D02*
Y1362D01*
X1579Y1249D02*
Y1335D01*
X1539Y1246D02*
Y1335D01*
X1559Y1247D02*
Y1362D01*
X1126Y1265D02*
Y1362D01*
X1079Y1218D02*
X1126Y1265D01*
X1106Y1268D02*
Y1338D01*
X1059Y1220D02*
X1106Y1268D01*
X1771Y591D02*
X1771Y590D01*
X1811Y591D02*
X1811Y590D01*
X1884Y652D02*
X1907Y628D01*
X1927D01*
X1852Y652D02*
X1884D01*
X1892Y671D02*
X1907Y656D01*
X1900Y691D02*
X1907Y683D01*
X1852Y711D02*
X1882D01*
X1882Y711D02*
X1927D01*
X1882Y711D02*
X1882Y711D01*
X1896Y738D02*
X1927D01*
X1888Y730D02*
X1896Y738D01*
X1876Y770D02*
X1898D01*
X1902Y766D02*
X1927D01*
X1898Y770D02*
X1902Y766D01*
X1894Y793D02*
X1927D01*
X1890Y789D02*
X1894Y793D01*
X1897Y819D02*
X1920D01*
X1885Y829D02*
X1905Y849D01*
X1920Y819D02*
X1923Y822D01*
X1905Y849D02*
X1926D01*
X1852Y829D02*
X1885D01*
X1887Y809D02*
X1897Y819D01*
X1926Y849D02*
X1927Y848D01*
X1906Y873D02*
X1920D01*
X1852Y848D02*
X1882D01*
X1920Y873D02*
X1925Y878D01*
X1882Y848D02*
X1906Y873D01*
X1852Y809D02*
X1887D01*
X1988Y878D02*
X1988Y878D01*
X1965Y878D02*
X1988D01*
X1992Y894D02*
Y906D01*
X1988Y909D02*
X1992Y906D01*
X1965Y909D02*
X1988D01*
X1965Y878D02*
X1965Y878D01*
X1965Y909D02*
X1965Y909D01*
X1925Y909D02*
X1925Y909D01*
Y878D02*
Y909D01*
Y878D02*
X1925Y878D01*
X1674Y955D02*
X1678Y951D01*
X1706Y939D02*
Y954D01*
X1678Y944D02*
Y951D01*
X1692Y890D02*
Y930D01*
X1712Y890D02*
Y932D01*
X1706Y939D02*
X1712Y932D01*
X1701Y959D02*
X1706Y954D01*
X1678Y944D02*
X1692Y930D01*
X1728Y998D02*
X1728Y998D01*
X1618D02*
X1618Y998D01*
X1811Y959D02*
X1811Y959D01*
Y938D02*
Y959D01*
X1792Y920D02*
X1811Y938D01*
X1783Y933D02*
Y959D01*
X1771Y921D02*
X1783Y933D01*
X1791Y890D02*
X1792Y891D01*
Y920D01*
X1783Y959D02*
X1783Y959D01*
X1771Y890D02*
Y921D01*
X1756Y959D02*
X1756Y959D01*
X1756Y929D02*
Y959D01*
X1752Y890D02*
Y925D01*
X1756Y929D01*
X1728Y959D02*
X1728Y959D01*
X1728Y937D02*
Y959D01*
X1732Y890D02*
Y933D01*
X1728Y937D02*
X1732Y933D01*
X1618Y937D02*
Y959D01*
X1633Y890D02*
Y922D01*
X1618Y937D02*
X1633Y922D01*
X1614Y890D02*
X1614Y890D01*
X1614Y890D02*
Y918D01*
X1591Y940D02*
X1614Y918D01*
X1591Y940D02*
Y958D01*
X1591Y959D02*
X1591Y958D01*
X1653Y890D02*
Y933D01*
X1646Y941D02*
Y959D01*
Y941D02*
X1653Y933D01*
X1907Y656D02*
X1927D01*
X1852Y671D02*
X1892D01*
X1907Y683D02*
X1927D01*
X1852Y691D02*
X1900D01*
X1852Y730D02*
X1888D01*
X1876Y789D02*
X1890D01*
X1852Y691D02*
X1854Y689D01*
X1852Y711D02*
X1854Y712D01*
X1852Y730D02*
X1854Y732D01*
X1852Y770D02*
X1852Y770D01*
X1927Y766D02*
X1927Y766D01*
X1752Y890D02*
X1752Y890D01*
X1559Y118D02*
Y120D01*
X1535Y190D02*
Y203D01*
X1540Y185D02*
X1559D01*
X1535Y190D02*
X1540Y185D01*
X1537Y205D02*
X1559D01*
X1535Y203D02*
X1537Y205D01*
X1535Y226D02*
Y242D01*
X1531D02*
X1535D01*
X1538Y224D02*
X1559D01*
X1535Y226D02*
X1538Y224D01*
X1537Y244D02*
X1559D01*
X1531Y242D02*
Y278D01*
X1562Y343D02*
Y348D01*
X1562Y349D01*
Y355D01*
X1531Y317D02*
Y348D01*
Y317D02*
X1555D01*
X1567Y388D02*
X1568D01*
X1531Y386D02*
Y388D01*
X1622Y128D02*
X1630Y121D01*
Y118D02*
Y121D01*
X1594Y118D02*
Y121D01*
X1602Y128D01*
X1583Y144D02*
Y161D01*
X1642D02*
X1642Y161D01*
Y144D02*
Y161D01*
X1583Y267D02*
Y289D01*
X1600Y343D02*
X1602D01*
Y324D02*
Y343D01*
X1598Y319D02*
X1602Y324D01*
X1598Y299D02*
Y319D01*
X1646Y299D02*
Y319D01*
X1642Y324D02*
X1646Y319D01*
X1642Y324D02*
Y343D01*
X1643D01*
X1606Y388D02*
X1634Y388D01*
X1665Y118D02*
Y120D01*
Y79D02*
X1710D01*
X1665Y205D02*
Y205D01*
Y185D02*
X1716D01*
X1665Y224D02*
Y225D01*
X1685Y244D02*
X1693Y242D01*
X1665Y244D02*
X1685D01*
X1666Y382D02*
X1672Y388D01*
X1673D01*
X1535Y203D02*
Y226D01*
X1531Y386D02*
X1562Y355D01*
X1602Y128D02*
Y161D01*
Y205D02*
X1612Y214D01*
X1622Y128D02*
Y161D01*
X1598Y299D02*
X1602Y294D01*
Y267D02*
Y294D01*
X1642Y267D02*
Y294D01*
X1646Y299D01*
X1622Y267D02*
Y309D01*
X1666Y367D02*
Y382D01*
X1559Y79D02*
X1594D01*
X1559Y205D02*
X1602D01*
X1574Y369D02*
X1600Y343D01*
X1568Y388D02*
X1574Y382D01*
X1634Y33D02*
X1720D01*
X1630Y79D02*
X1665D01*
X1643Y343D02*
X1649Y348D01*
Y350D01*
X1666Y367D01*
X1559Y120D02*
X1583Y144D01*
X1574Y369D02*
Y382D01*
X1555Y317D02*
X1583Y289D01*
X1642Y144D02*
X1665Y120D01*
X1441Y1362D02*
X1441Y1362D01*
X1598Y1520D02*
X1616D01*
X1598Y1480D02*
X1634D01*
X1651Y1546D02*
Y1617D01*
X1634Y1542D02*
Y1606D01*
X1665Y1555D02*
Y1626D01*
X1622Y1736D02*
X1650D01*
X1728Y1658D01*
Y1582D02*
Y1658D01*
X1598Y1717D02*
X1646D01*
X1712Y1575D02*
Y1650D01*
X1646Y1717D02*
X1712Y1650D01*
X1622Y1697D02*
X1642D01*
X1696Y1643D01*
X1622Y1677D02*
X1638D01*
X1681Y1562D02*
Y1634D01*
X1638Y1677D02*
X1681Y1634D01*
X1634Y1657D02*
X1665Y1626D01*
X1622Y1657D02*
X1634D01*
X1622Y1618D02*
X1634Y1606D01*
X1630Y1638D02*
X1651Y1617D01*
X1728Y1582D02*
X1811Y1498D01*
X1775Y1601D02*
Y1691D01*
X1791Y1608D02*
Y1698D01*
X1656Y1854D02*
X1806Y1704D01*
Y1614D02*
Y1704D01*
X1743Y1588D02*
X1814Y1518D01*
X1712Y1575D02*
X1809Y1478D01*
X1791Y1608D02*
X1822Y1577D01*
X1759Y1595D02*
X1816Y1537D01*
X1806Y1614D02*
X1824Y1596D01*
X1775Y1601D02*
X1819Y1557D01*
X2268Y1614D02*
Y1657D01*
X2251Y1674D02*
X2268Y1657D01*
X2250Y1674D02*
X2251D01*
X2244Y1680D02*
X2250Y1674D01*
X2244Y1680D02*
Y1681D01*
X2318Y1614D02*
X2320Y1616D01*
Y1679D01*
X2323Y1681D01*
Y1683D01*
X2361Y1721D01*
Y1824D01*
X2282Y1840D02*
X2345D01*
X2361Y1824D01*
X2317Y1713D02*
X2317D01*
X2289Y1688D02*
X2292D01*
X2317Y1713D01*
X2317D02*
X2323Y1719D01*
X2283Y1681D02*
Y1683D01*
X2289Y1688D01*
X2323Y1719D02*
Y1720D01*
X2244Y1719D02*
Y1720D01*
Y1719D02*
X2275Y1688D01*
X2278D01*
X2283Y1683D01*
X2204Y1761D02*
Y1840D01*
Y1761D02*
X2222Y1743D01*
Y1705D02*
Y1743D01*
Y1705D02*
X2244Y1683D01*
Y1681D02*
Y1683D01*
X2217Y1460D02*
Y1464D01*
Y1460D02*
X2218Y1459D01*
X2217Y1563D02*
X2217Y1563D01*
X2217Y1614D02*
X2218Y1614D01*
X2201Y1681D02*
X2201Y1681D01*
X2201Y1677D02*
X2217Y1661D01*
X2366Y1464D02*
X2368Y1463D01*
X2218Y1409D02*
Y1459D01*
X2217Y1563D02*
Y1612D01*
X2217Y1614D02*
Y1661D01*
X2368Y1409D02*
Y1463D01*
X2200Y1721D02*
X2201Y1720D01*
X2165Y1878D02*
X2204Y1840D01*
X1598Y1874D02*
X1659D01*
X1622Y1894D02*
X1662D01*
X1856Y1677D02*
X1919D01*
X1662Y1894D02*
X1862Y1693D01*
X1650Y1972D02*
X1882Y1740D01*
X1945D01*
X1664Y1913D02*
X1869Y1709D01*
X1862Y1693D02*
X1925D01*
X1598Y1913D02*
X1664D01*
X1869Y1709D02*
X1932D01*
X1875Y1724D02*
X1938D01*
X1622Y1972D02*
X1650D01*
X1622Y1854D02*
X1656D01*
X1667Y1933D02*
X1875Y1724D01*
X1622Y1933D02*
X1667D01*
X1659Y1874D02*
X1856Y1677D01*
X1598Y1756D02*
X1598Y1756D01*
X1598Y1717D02*
X1598Y1717D01*
X2244Y1878D02*
X2282Y1840D01*
X2795Y1764D02*
Y1799D01*
Y1764D02*
X2839Y1720D01*
X2909D01*
X2925Y1685D02*
Y1705D01*
X2909Y1720D02*
X2925Y1705D01*
X2717Y1878D02*
X2757Y1837D01*
Y1755D02*
Y1837D01*
X2827Y1685D02*
X2886D01*
X2757Y1755D02*
X2827Y1685D01*
X2506Y1685D02*
X2559Y1738D01*
Y1799D01*
X2504Y1685D02*
X2506D01*
X2480Y1878D02*
X2520Y1839D01*
Y1768D02*
Y1839D01*
X2465Y1685D02*
Y1713D01*
X2520Y1768D01*
X2598Y1758D02*
X2671Y1685D01*
X2598Y1758D02*
Y1839D01*
X2713Y1685D02*
Y1724D01*
X2638Y1799D02*
X2713Y1724D01*
X2559Y1878D02*
X2598Y1839D01*
X2671Y1685D02*
X2673D01*
X3406Y2071D02*
X3498D01*
X3500Y2069D01*
X3497Y1973D02*
X3500Y1970D01*
X3451Y2089D02*
X3500D01*
X3425Y2011D02*
X3426Y2011D01*
X3414Y2040D02*
X3437D01*
X3448Y2030D02*
X3500D01*
X3437Y2040D02*
X3448Y2030D01*
X3500Y1990D02*
X3565D01*
X3438Y2010D02*
X3500D01*
X3096Y1617D02*
Y1682D01*
X3140Y1617D02*
Y1682D01*
X2669Y1681D02*
X2673Y1685D01*
X2668Y1614D02*
X2669Y1616D01*
Y1681D01*
X2713Y1685D02*
X2715Y1682D01*
Y1617D02*
Y1682D01*
Y1617D02*
X2718Y1614D01*
X2504Y1685D02*
X2506Y1682D01*
Y1617D02*
Y1682D01*
Y1617D02*
X2509Y1614D01*
X2462Y1682D02*
X2465Y1685D01*
X2462Y1617D02*
Y1682D01*
X2459Y1614D02*
X2462Y1617D01*
X1867Y1661D02*
X1912D01*
X1824Y1596D02*
X1868D01*
X1822Y1577D02*
X1868D01*
X1819Y1557D02*
X1868D01*
X1816Y1537D02*
X1868D01*
X1814Y1518D02*
X1868D01*
X1811Y1498D02*
X1868D01*
X1809Y1478D02*
X1868D01*
X2818Y1618D02*
X2818Y1618D01*
X3239Y1614D02*
X3240Y1614D01*
X3030Y1614D02*
X3031Y1614D01*
X2609Y1614D02*
X2610Y1614D01*
X2102Y1433D02*
Y1504D01*
X2069Y1518D02*
X2069Y1517D01*
X2089D01*
X2102Y1504D01*
Y1433D02*
X2111Y1424D01*
Y1423D02*
Y1424D01*
Y1423D02*
X2117Y1417D01*
X2118D01*
X1958Y1398D02*
Y1427D01*
X1959Y1427D01*
X1955Y1341D02*
X1961Y1335D01*
X1917Y1315D02*
Y1335D01*
X1917Y1335D01*
X1998Y1408D02*
Y1427D01*
X2052Y1390D02*
Y1398D01*
X2037Y1412D02*
X2052Y1398D01*
X2037Y1412D02*
Y1427D01*
X2052Y1390D02*
X2060Y1382D01*
X1998Y1427D02*
X1998Y1427D01*
X1874Y1272D02*
X1917Y1315D01*
X2060Y1382D02*
X2079D01*
X2069Y1426D02*
Y1459D01*
Y1426D02*
X2077Y1417D01*
X2079D01*
X2081D01*
X2116Y1382D01*
X2118D01*
X2018Y1478D02*
X2069D01*
X2037Y1459D02*
X2069D01*
X2018Y1478D02*
X2037Y1459D01*
X2018Y1478D02*
X2018D01*
X1998Y1628D02*
Y1665D01*
X1938Y1724D02*
X1998Y1665D01*
X1945Y1740D02*
X2037Y1648D01*
Y1628D02*
Y1648D01*
X1919Y1677D02*
X1939Y1657D01*
X1919Y1628D02*
Y1654D01*
X1932Y1709D02*
X1978Y1662D01*
Y1628D02*
Y1662D01*
X1925Y1693D02*
X1959Y1660D01*
Y1628D02*
Y1660D01*
X1912Y1661D02*
X1919Y1654D01*
X1939Y1628D02*
Y1657D01*
X1598Y1874D02*
X1598Y1874D01*
X2037Y1628D02*
X2037Y1628D01*
X3500Y2049D02*
X3565D01*
X126Y2476D02*
X126Y2476D01*
X59Y2476D02*
X59Y2476D01*
X1009Y2500D02*
X1013D01*
X1009Y2500D02*
X1009Y2500D01*
X969Y2500D02*
X1009D01*
X804Y2425D02*
X804Y2425D01*
X969Y2354D02*
X969Y2354D01*
X1013D01*
X769Y2461D02*
Y2500D01*
Y2461D02*
X804Y2425D01*
X869Y2354D02*
X869Y2354D01*
X914D01*
X769Y2354D02*
X769Y2354D01*
X812D01*
X524Y2441D02*
Y2472D01*
Y2343D02*
Y2441D01*
X524Y2441D02*
X524Y2441D01*
X354Y2441D02*
X389Y2475D01*
X622Y2287D02*
Y2323D01*
X602Y2343D02*
X622Y2323D01*
X641Y2287D02*
X642Y2287D01*
X641Y2264D02*
Y2287D01*
X622Y2245D02*
X641Y2264D01*
X622Y2244D02*
Y2245D01*
X602Y2264D02*
Y2287D01*
Y2264D02*
X622Y2244D01*
X520Y2193D02*
Y2205D01*
X583Y2268D01*
Y2287D01*
X39Y2343D02*
Y2350D01*
X39Y2324D02*
Y2343D01*
X39Y2343D01*
X524Y2287D02*
X563D01*
X659Y2488D02*
X661D01*
X635Y2512D02*
X659Y2488D01*
X634Y2512D02*
X635D01*
X602Y2488D02*
X605D01*
X628Y2512D01*
X634D01*
X661Y2421D02*
X705D01*
X724Y2402D01*
X626Y2421D02*
X661D01*
Y2441D01*
X622Y2417D02*
X626Y2421D01*
X622Y2398D02*
Y2417D01*
X586Y2466D02*
X638D01*
X563Y2445D02*
X565D01*
X586Y2466D01*
X583Y2398D02*
Y2423D01*
X600Y2441D01*
Y2445D02*
X602D01*
X563Y2398D02*
Y2437D01*
X638Y2466D02*
X659Y2445D01*
X701Y2488D02*
Y2512D01*
X701Y2512D02*
X701Y2512D01*
X605Y2445D02*
X606D01*
X661Y2488D02*
X663D01*
X694Y2458D01*
Y2450D02*
Y2458D01*
Y2450D02*
X699Y2445D01*
X701D01*
X563Y2398D02*
X563Y2398D01*
X602Y2343D02*
Y2398D01*
X687Y2333D02*
X709Y2311D01*
X657Y2352D02*
X696D01*
X702Y2358D01*
X602Y2398D02*
X602Y2398D01*
X657Y2333D02*
X687D01*
X702Y2358D02*
X709D01*
X39Y1888D02*
Y1915D01*
Y2298D02*
Y2324D01*
Y2244D02*
Y2272D01*
Y2298D01*
X39Y1646D02*
Y1650D01*
X39Y1650D02*
Y1673D01*
X39Y1650D02*
X39Y1650D01*
D12*
X3559Y1616D02*
X3561Y1614D01*
X3500Y1616D02*
X3559D01*
X3573Y1636D02*
X3579Y1642D01*
X3553Y1656D02*
X3553Y1656D01*
X3500Y1656D02*
X3553D01*
X3500Y1636D02*
X3573D01*
X3556Y1578D02*
Y1591D01*
X3579Y1555D02*
X3587D01*
X3556Y1578D02*
X3579Y1555D01*
X3500Y1596D02*
X3550D01*
X3556Y1591D01*
X3756Y1968D02*
X3756Y1969D01*
X3500Y1656D02*
X3500Y1656D01*
D13*
X887Y682D02*
X922D01*
X886Y683D02*
X887Y682D01*
Y662D02*
X922D01*
X881Y656D02*
X887Y662D01*
X878Y656D02*
X881D01*
X1517Y672D02*
X1552D01*
X1516Y673D02*
X1517Y672D01*
X1508Y646D02*
X1511D01*
X1517Y652D01*
X1552D01*
D20*
X4605Y455D02*
D03*
Y487D02*
D03*
Y518D02*
D03*
Y550D02*
D03*
Y581D02*
D03*
D21*
X684Y1008D02*
D03*
X638D02*
D03*
X1075Y1177D02*
D03*
X1121D02*
D03*
D22*
X681Y985D02*
D03*
X661D02*
D03*
X642D02*
D03*
Y1031D02*
D03*
X661D02*
D03*
X681D02*
D03*
X1118Y1200D02*
D03*
X1098D02*
D03*
X1079D02*
D03*
Y1154D02*
D03*
X1098D02*
D03*
X1118D02*
D03*
D23*
X850Y750D02*
D03*
Y806D02*
D03*
X4224Y1563D02*
D03*
Y1619D02*
D03*
Y1749D02*
D03*
Y1693D02*
D03*
Y1878D02*
D03*
Y1822D02*
D03*
Y2009D02*
D03*
Y1953D02*
D03*
X1488Y736D02*
D03*
Y792D02*
D03*
D24*
X4275Y512D02*
D03*
D25*
X4206Y606D02*
D03*
X4226D02*
D03*
X4246D02*
D03*
X4265D02*
D03*
X4285D02*
D03*
X4305D02*
D03*
X4324D02*
D03*
X4344D02*
D03*
Y419D02*
D03*
X4324D02*
D03*
X4305D02*
D03*
X4285D02*
D03*
X4265D02*
D03*
X4246D02*
D03*
X4226D02*
D03*
X4206D02*
D03*
D26*
X4369Y581D02*
D03*
Y561D02*
D03*
Y542D02*
D03*
Y522D02*
D03*
Y502D02*
D03*
Y483D02*
D03*
Y463D02*
D03*
Y443D02*
D03*
X4182D02*
D03*
Y463D02*
D03*
Y483D02*
D03*
Y502D02*
D03*
Y522D02*
D03*
Y542D02*
D03*
Y561D02*
D03*
Y581D02*
D03*
D27*
X4397Y406D02*
D03*
Y367D02*
D03*
X4448Y721D02*
D03*
Y681D02*
D03*
X4244Y725D02*
D03*
Y685D02*
D03*
X961Y992D02*
D03*
Y953D02*
D03*
X988Y992D02*
D03*
Y953D02*
D03*
X1016Y992D02*
D03*
Y953D02*
D03*
X1043Y992D02*
D03*
Y953D02*
D03*
X1071Y992D02*
D03*
Y953D02*
D03*
X1098Y992D02*
D03*
Y953D02*
D03*
X906Y283D02*
D03*
Y323D02*
D03*
X1126Y992D02*
D03*
Y953D02*
D03*
X1154Y992D02*
D03*
Y953D02*
D03*
X1181Y992D02*
D03*
Y953D02*
D03*
X1039Y124D02*
D03*
Y85D02*
D03*
X1004Y124D02*
D03*
Y85D02*
D03*
X969Y124D02*
D03*
Y85D02*
D03*
X933Y124D02*
D03*
Y85D02*
D03*
X906Y354D02*
D03*
Y394D02*
D03*
X1307Y496D02*
D03*
Y535D02*
D03*
X1151Y134D02*
D03*
Y94D02*
D03*
X906Y465D02*
D03*
Y504D02*
D03*
X851Y714D02*
D03*
Y675D02*
D03*
X1094Y87D02*
D03*
Y47D02*
D03*
X1032Y504D02*
D03*
Y465D02*
D03*
X878Y87D02*
D03*
Y47D02*
D03*
X969Y504D02*
D03*
Y465D02*
D03*
X1296Y937D02*
D03*
Y976D02*
D03*
X1236Y937D02*
D03*
Y976D02*
D03*
X890Y931D02*
D03*
Y970D02*
D03*
X1591Y959D02*
D03*
Y998D02*
D03*
X1618Y959D02*
D03*
Y998D02*
D03*
X1646Y959D02*
D03*
Y998D02*
D03*
X1673Y959D02*
D03*
Y998D02*
D03*
X1701Y959D02*
D03*
Y998D02*
D03*
X1728Y959D02*
D03*
Y998D02*
D03*
X1531Y317D02*
D03*
Y278D02*
D03*
X1756Y959D02*
D03*
Y998D02*
D03*
X1783Y959D02*
D03*
Y998D02*
D03*
X1811Y959D02*
D03*
Y998D02*
D03*
X1665Y79D02*
D03*
Y118D02*
D03*
X1630Y79D02*
D03*
Y118D02*
D03*
X1594Y79D02*
D03*
Y118D02*
D03*
X1559Y79D02*
D03*
Y118D02*
D03*
X1531Y388D02*
D03*
Y348D02*
D03*
X1933Y530D02*
D03*
Y490D02*
D03*
X1777Y89D02*
D03*
Y128D02*
D03*
X1532Y459D02*
D03*
Y498D02*
D03*
X1477Y708D02*
D03*
Y669D02*
D03*
X1720Y81D02*
D03*
Y41D02*
D03*
X1658Y498D02*
D03*
Y459D02*
D03*
X1504Y81D02*
D03*
Y41D02*
D03*
X1594Y498D02*
D03*
Y459D02*
D03*
X1516Y925D02*
D03*
Y965D02*
D03*
X2917Y2154D02*
D03*
Y2193D02*
D03*
X2846Y2154D02*
D03*
Y2193D02*
D03*
X2598Y2154D02*
D03*
Y2193D02*
D03*
X2882Y2153D02*
D03*
Y2192D02*
D03*
X2953Y2154D02*
D03*
Y2193D02*
D03*
X2776Y2154D02*
D03*
Y2193D02*
D03*
X2634Y2154D02*
D03*
Y2193D02*
D03*
X2705Y2154D02*
D03*
Y2193D02*
D03*
X2811Y2154D02*
D03*
Y2193D02*
D03*
X2669Y2154D02*
D03*
Y2193D02*
D03*
X2740Y2154D02*
D03*
Y2193D02*
D03*
X2126Y2055D02*
D03*
Y2094D02*
D03*
X2055Y2055D02*
D03*
Y2094D02*
D03*
X2303Y2055D02*
D03*
Y2094D02*
D03*
X2268Y2055D02*
D03*
Y2094D02*
D03*
X2161Y2055D02*
D03*
Y2094D02*
D03*
X2445Y2055D02*
D03*
Y2094D02*
D03*
X2197Y2055D02*
D03*
Y2094D02*
D03*
X2409Y2055D02*
D03*
Y2094D02*
D03*
X2339Y2055D02*
D03*
Y2094D02*
D03*
X2232Y2055D02*
D03*
Y2094D02*
D03*
X2374Y2055D02*
D03*
Y2094D02*
D03*
X2091Y2055D02*
D03*
Y2094D02*
D03*
X2701Y2283D02*
D03*
Y2323D02*
D03*
X2913Y2283D02*
D03*
Y2323D02*
D03*
X2630Y2283D02*
D03*
Y2323D02*
D03*
X2736Y2283D02*
D03*
Y2323D02*
D03*
X2949Y2283D02*
D03*
Y2323D02*
D03*
X2665Y2283D02*
D03*
Y2323D02*
D03*
X2772Y2283D02*
D03*
Y2323D02*
D03*
X2807Y2283D02*
D03*
Y2323D02*
D03*
X2843Y2283D02*
D03*
Y2323D02*
D03*
X2878Y2283D02*
D03*
Y2323D02*
D03*
X2594Y2283D02*
D03*
Y2323D02*
D03*
X2280Y2177D02*
D03*
Y2217D02*
D03*
X2031Y2177D02*
D03*
Y2217D02*
D03*
X2173Y2177D02*
D03*
Y2217D02*
D03*
X2209Y2177D02*
D03*
Y2217D02*
D03*
X2244Y2177D02*
D03*
Y2217D02*
D03*
X2138Y2177D02*
D03*
Y2217D02*
D03*
X2102Y2177D02*
D03*
Y2217D02*
D03*
X1996Y2177D02*
D03*
Y2217D02*
D03*
X2067Y2177D02*
D03*
Y2217D02*
D03*
X1961Y2177D02*
D03*
Y2217D02*
D03*
X1925Y2177D02*
D03*
Y2217D02*
D03*
X2031Y2280D02*
D03*
Y2319D02*
D03*
X2244Y2280D02*
D03*
Y2319D02*
D03*
X2173Y2280D02*
D03*
Y2319D02*
D03*
X2138Y2280D02*
D03*
Y2319D02*
D03*
X1996Y2280D02*
D03*
Y2319D02*
D03*
X1961Y2280D02*
D03*
Y2319D02*
D03*
X1925Y2280D02*
D03*
Y2319D02*
D03*
X2067Y2280D02*
D03*
Y2319D02*
D03*
X2102Y2280D02*
D03*
Y2319D02*
D03*
X2209Y2280D02*
D03*
Y2319D02*
D03*
X2280Y2280D02*
D03*
Y2319D02*
D03*
X2201Y1681D02*
D03*
Y1720D02*
D03*
X2323Y1681D02*
D03*
Y1720D02*
D03*
X2244D02*
D03*
Y1681D02*
D03*
X2283Y1681D02*
D03*
Y1720D02*
D03*
X2197Y1331D02*
D03*
Y1291D02*
D03*
X610Y1110D02*
D03*
Y1150D02*
D03*
X4504Y366D02*
D03*
Y406D02*
D03*
X4539Y366D02*
D03*
Y406D02*
D03*
X4433Y366D02*
D03*
Y406D02*
D03*
X2122Y1528D02*
D03*
Y1488D02*
D03*
X2122Y1563D02*
D03*
Y1602D02*
D03*
X4244Y339D02*
D03*
Y378D02*
D03*
X4468Y367D02*
D03*
Y406D02*
D03*
X1524Y2323D02*
D03*
Y2362D02*
D03*
D29*
X4441Y492D02*
D03*
X4480D02*
D03*
X3756Y2012D02*
D03*
X3795D02*
D03*
Y1535D02*
D03*
X3756D02*
D03*
X3795Y1622D02*
D03*
X3756D02*
D03*
X3795Y1709D02*
D03*
X3756D02*
D03*
X3795Y1665D02*
D03*
X3756D02*
D03*
X3795Y1752D02*
D03*
X3756D02*
D03*
X3795Y1795D02*
D03*
X3756D02*
D03*
X3795Y1839D02*
D03*
X3756D02*
D03*
X3795Y1882D02*
D03*
X3756D02*
D03*
X3795Y1929D02*
D03*
X3756D02*
D03*
X3795Y1579D02*
D03*
X3756D02*
D03*
X3795Y1969D02*
D03*
X3756D02*
D03*
X996Y1138D02*
D03*
X1035D02*
D03*
X996Y1201D02*
D03*
X1035D02*
D03*
X996Y1236D02*
D03*
X1035D02*
D03*
X996Y1173D02*
D03*
X1035D02*
D03*
X996Y1102D02*
D03*
X1035D02*
D03*
X760Y1008D02*
D03*
X720D02*
D03*
X760Y949D02*
D03*
X720D02*
D03*
X2185Y772D02*
D03*
X2146D02*
D03*
X2185Y803D02*
D03*
X2146D02*
D03*
Y843D02*
D03*
X2185D02*
D03*
Y886D02*
D03*
X2146D02*
D03*
X2185Y925D02*
D03*
X2146D02*
D03*
X2185Y965D02*
D03*
X2146D02*
D03*
X2146Y1004D02*
D03*
X2185D02*
D03*
X1313Y638D02*
D03*
X1274D02*
D03*
X843Y602D02*
D03*
X882D02*
D03*
X1008Y394D02*
D03*
X1047D02*
D03*
X980D02*
D03*
X941D02*
D03*
X1313Y858D02*
D03*
X1274D02*
D03*
X1313Y831D02*
D03*
X1274D02*
D03*
X1313Y803D02*
D03*
X1274D02*
D03*
X1313Y776D02*
D03*
X1274D02*
D03*
X969Y39D02*
D03*
X1008D02*
D03*
X1313Y748D02*
D03*
X1274D02*
D03*
X1313Y720D02*
D03*
X1274D02*
D03*
X1313Y693D02*
D03*
X1274D02*
D03*
X1313Y665D02*
D03*
X1274D02*
D03*
X1103Y323D02*
D03*
X1143D02*
D03*
X1102Y187D02*
D03*
X1142D02*
D03*
X1102Y250D02*
D03*
X1142D02*
D03*
X1016Y348D02*
D03*
X976D02*
D03*
X1103Y386D02*
D03*
X1143D02*
D03*
X1927Y656D02*
D03*
X1967D02*
D03*
X1927Y628D02*
D03*
X1967D02*
D03*
X1927Y711D02*
D03*
X1967D02*
D03*
X1927Y738D02*
D03*
X1967D02*
D03*
X1927Y793D02*
D03*
X1967D02*
D03*
X1927Y821D02*
D03*
X1967D02*
D03*
X1927Y683D02*
D03*
X1967D02*
D03*
X1927Y766D02*
D03*
X1967D02*
D03*
X1927Y848D02*
D03*
X1967D02*
D03*
X1508Y596D02*
D03*
X1469D02*
D03*
X1634Y388D02*
D03*
X1673D02*
D03*
X1606Y388D02*
D03*
X1567D02*
D03*
X1634Y33D02*
D03*
X1594D02*
D03*
X1729Y317D02*
D03*
X1769D02*
D03*
X1728Y181D02*
D03*
X1768D02*
D03*
X1728Y244D02*
D03*
X1768D02*
D03*
X1602Y343D02*
D03*
X1642D02*
D03*
X1925Y878D02*
D03*
X1965D02*
D03*
X1925Y909D02*
D03*
X1965D02*
D03*
X1729Y380D02*
D03*
X1769D02*
D03*
X1142Y2301D02*
D03*
X1181D02*
D03*
X1181Y2372D02*
D03*
X1142D02*
D03*
X1142Y2337D02*
D03*
X1181D02*
D03*
X2118Y1417D02*
D03*
X2079D02*
D03*
X2118Y1382D02*
D03*
X2079D02*
D03*
X563Y2488D02*
D03*
X602D02*
D03*
X661Y2445D02*
D03*
X701D02*
D03*
X39Y1701D02*
D03*
X79D02*
D03*
X39Y2324D02*
D03*
X79D02*
D03*
X602Y2445D02*
D03*
X563D02*
D03*
X79Y2024D02*
D03*
X39D02*
D03*
X39Y1996D02*
D03*
X79D02*
D03*
X39Y1969D02*
D03*
X79D02*
D03*
X39Y2298D02*
D03*
X79D02*
D03*
X39Y2051D02*
D03*
X79D02*
D03*
X39Y1756D02*
D03*
X79D02*
D03*
X39Y2272D02*
D03*
X79D02*
D03*
Y1888D02*
D03*
X39D02*
D03*
X39Y2134D02*
D03*
X79D02*
D03*
X39Y1941D02*
D03*
X79D02*
D03*
X39Y1862D02*
D03*
X79D02*
D03*
X701Y2488D02*
D03*
X661D02*
D03*
X39Y1728D02*
D03*
X79D02*
D03*
X39Y2160D02*
D03*
X79D02*
D03*
X39Y1838D02*
D03*
X79D02*
D03*
X39Y2189D02*
D03*
X79D02*
D03*
X39Y1673D02*
D03*
X79D02*
D03*
X39Y1811D02*
D03*
X79D02*
D03*
Y2217D02*
D03*
X39D02*
D03*
X79Y1783D02*
D03*
X39D02*
D03*
Y2244D02*
D03*
X79D02*
D03*
X39Y2106D02*
D03*
X79D02*
D03*
X39Y1915D02*
D03*
X79D02*
D03*
X39Y2079D02*
D03*
X79D02*
D03*
X3098Y1685D02*
D03*
X3138D02*
D03*
X2673Y1685D02*
D03*
X2713D02*
D03*
X2886Y1685D02*
D03*
X2925D02*
D03*
X2465Y1685D02*
D03*
X2504D02*
D03*
X598Y949D02*
D03*
X559D02*
D03*
X598Y988D02*
D03*
X559D02*
D03*
X598Y1028D02*
D03*
X559D02*
D03*
X2000Y1724D02*
D03*
X2039D02*
D03*
X2067Y1638D02*
D03*
X2106D02*
D03*
X2110Y1724D02*
D03*
X2071D02*
D03*
X4441Y453D02*
D03*
X4480D02*
D03*
D30*
X4448Y532D02*
D03*
Y552D02*
D03*
Y571D02*
D03*
X4472D02*
D03*
Y552D02*
D03*
D31*
X4471Y532D02*
D03*
D33*
X3927Y1976D02*
D03*
X3986D02*
D03*
X3927Y1843D02*
D03*
X3986D02*
D03*
X3927Y1579D02*
D03*
X3986D02*
D03*
Y1713D02*
D03*
X3927D02*
D03*
X2498Y2083D02*
D03*
X2557D02*
D03*
D34*
X79Y772D02*
D03*
X413D02*
D03*
Y1217D02*
D03*
X79D02*
D03*
D35*
X1071Y750D02*
D03*
X1702Y740D02*
D03*
D36*
X1002Y600D02*
D03*
X1022D02*
D03*
X1041D02*
D03*
X982D02*
D03*
X1179D02*
D03*
X1140D02*
D03*
X1061D02*
D03*
X1081D02*
D03*
X1159D02*
D03*
X1100D02*
D03*
X1120D02*
D03*
X963D02*
D03*
X1179Y900D02*
D03*
X982D02*
D03*
X1159D02*
D03*
X963D02*
D03*
X1061D02*
D03*
X1041D02*
D03*
X1022D02*
D03*
X1002D02*
D03*
X1140D02*
D03*
X1120D02*
D03*
X1100D02*
D03*
X1081D02*
D03*
X1633Y591D02*
D03*
X1653D02*
D03*
X1673D02*
D03*
X1614D02*
D03*
X1811D02*
D03*
X1771D02*
D03*
X1692D02*
D03*
X1712D02*
D03*
X1791D02*
D03*
X1732D02*
D03*
X1752D02*
D03*
X1594D02*
D03*
X1811Y890D02*
D03*
X1614D02*
D03*
X1791D02*
D03*
X1594D02*
D03*
X1692D02*
D03*
X1673D02*
D03*
X1653D02*
D03*
X1633D02*
D03*
X1771D02*
D03*
X1752D02*
D03*
X1732D02*
D03*
X1712D02*
D03*
D37*
X921Y701D02*
D03*
Y720D02*
D03*
Y799D02*
D03*
Y681D02*
D03*
Y760D02*
D03*
Y858D02*
D03*
Y661D02*
D03*
Y839D02*
D03*
Y819D02*
D03*
Y780D02*
D03*
Y740D02*
D03*
Y642D02*
D03*
X1220D02*
D03*
Y720D02*
D03*
Y780D02*
D03*
Y760D02*
D03*
Y799D02*
D03*
Y740D02*
D03*
Y701D02*
D03*
Y661D02*
D03*
Y681D02*
D03*
Y819D02*
D03*
Y858D02*
D03*
Y839D02*
D03*
X1553Y691D02*
D03*
Y711D02*
D03*
Y789D02*
D03*
Y671D02*
D03*
Y750D02*
D03*
Y848D02*
D03*
Y652D02*
D03*
Y829D02*
D03*
Y809D02*
D03*
Y770D02*
D03*
Y730D02*
D03*
Y632D02*
D03*
X1852D02*
D03*
Y711D02*
D03*
Y770D02*
D03*
Y750D02*
D03*
Y789D02*
D03*
Y730D02*
D03*
Y691D02*
D03*
Y652D02*
D03*
Y671D02*
D03*
Y809D02*
D03*
Y848D02*
D03*
Y829D02*
D03*
D38*
X957Y167D02*
D03*
X976D02*
D03*
X996D02*
D03*
X1016D02*
D03*
Y273D02*
D03*
X996D02*
D03*
X976D02*
D03*
X957D02*
D03*
X1583Y161D02*
D03*
X1602D02*
D03*
X1622D02*
D03*
X1642D02*
D03*
Y267D02*
D03*
X1622D02*
D03*
X1602D02*
D03*
X1583D02*
D03*
D39*
X1039Y191D02*
D03*
Y210D02*
D03*
Y230D02*
D03*
Y250D02*
D03*
X933D02*
D03*
Y230D02*
D03*
Y210D02*
D03*
Y191D02*
D03*
X1665Y185D02*
D03*
Y205D02*
D03*
Y224D02*
D03*
Y244D02*
D03*
X1559D02*
D03*
Y224D02*
D03*
Y205D02*
D03*
Y185D02*
D03*
D40*
X986Y220D02*
D03*
X1612Y214D02*
D03*
D41*
X55Y2382D02*
D03*
Y2441D02*
D03*
X122Y2441D02*
D03*
Y2382D02*
D03*
X2543Y2156D02*
D03*
Y2215D02*
D03*
X2000Y2055D02*
D03*
Y2114D02*
D03*
X2413Y2217D02*
D03*
Y2157D02*
D03*
X1803Y2057D02*
D03*
Y2116D02*
D03*
X2413Y2281D02*
D03*
Y2341D02*
D03*
X2756Y657D02*
D03*
Y598D02*
D03*
X1866Y2057D02*
D03*
Y2116D02*
D03*
X2539Y2278D02*
D03*
Y2337D02*
D03*
X1858Y2175D02*
D03*
Y2234D02*
D03*
X1858Y2281D02*
D03*
Y2341D02*
D03*
X1732Y2341D02*
D03*
Y2281D02*
D03*
X1736Y2116D02*
D03*
Y2057D02*
D03*
X2337Y118D02*
D03*
Y177D02*
D03*
D42*
X1244Y1717D02*
D03*
X1283D02*
D03*
X1323Y1677D02*
D03*
X1362Y1638D02*
D03*
X1441Y1402D02*
D03*
X1480D02*
D03*
X1520D02*
D03*
X1559D02*
D03*
X1441Y1362D02*
D03*
X1520D02*
D03*
X1559D02*
D03*
X1598D02*
D03*
X1362Y1835D02*
D03*
X1323Y1756D02*
D03*
X1362D02*
D03*
X1402D02*
D03*
Y1717D02*
D03*
X1283Y1677D02*
D03*
X1402D02*
D03*
X1480D02*
D03*
X1520D02*
D03*
X1559D02*
D03*
X1598D02*
D03*
X1283Y1638D02*
D03*
X1441D02*
D03*
X1480D02*
D03*
X1559D02*
D03*
X1598D02*
D03*
X1441Y1598D02*
D03*
X1480D02*
D03*
X1520D02*
D03*
X1559D02*
D03*
X1402Y1559D02*
D03*
X1441D02*
D03*
X1520D02*
D03*
X1559D02*
D03*
X1598D02*
D03*
X1402Y1520D02*
D03*
X1441D02*
D03*
X1480D02*
D03*
X1520D02*
D03*
X1598D02*
D03*
X1402Y1480D02*
D03*
X1480D02*
D03*
X1520D02*
D03*
X1559D02*
D03*
X1598D02*
D03*
X1441Y1441D02*
D03*
X1480D02*
D03*
X1559D02*
D03*
X1598D02*
D03*
X772Y2189D02*
D03*
X811D02*
D03*
X850D02*
D03*
X890D02*
D03*
X929D02*
D03*
X969D02*
D03*
X1008D02*
D03*
X1047D02*
D03*
X1087D02*
D03*
X1126D02*
D03*
X1165D02*
D03*
X1205D02*
D03*
X1244D02*
D03*
X1283D02*
D03*
X1323D02*
D03*
X1362D02*
D03*
X1402D02*
D03*
X1441D02*
D03*
X1480D02*
D03*
X1520D02*
D03*
X1559D02*
D03*
X1598D02*
D03*
X772Y2150D02*
D03*
X811D02*
D03*
X850D02*
D03*
X890D02*
D03*
X929D02*
D03*
X969D02*
D03*
X1008D02*
D03*
X1047D02*
D03*
X1087D02*
D03*
X1126D02*
D03*
X1165D02*
D03*
X1205D02*
D03*
X1244D02*
D03*
X1283D02*
D03*
X1323D02*
D03*
X1362D02*
D03*
X1402D02*
D03*
X1441D02*
D03*
X1480D02*
D03*
X1520D02*
D03*
X1559D02*
D03*
X1598D02*
D03*
X772Y2110D02*
D03*
X811D02*
D03*
X850D02*
D03*
X890D02*
D03*
X929D02*
D03*
X969D02*
D03*
X1008D02*
D03*
X1047D02*
D03*
X1087D02*
D03*
X1126D02*
D03*
X1165D02*
D03*
X1205D02*
D03*
X1244D02*
D03*
X1283D02*
D03*
X1323D02*
D03*
X1362D02*
D03*
X1402D02*
D03*
X1441D02*
D03*
X1480D02*
D03*
X1520D02*
D03*
X1559D02*
D03*
X1598D02*
D03*
X772Y2071D02*
D03*
X811D02*
D03*
X850D02*
D03*
X890D02*
D03*
X929D02*
D03*
X969D02*
D03*
X1008D02*
D03*
X1047D02*
D03*
X1087D02*
D03*
X1126D02*
D03*
X1165D02*
D03*
X1205D02*
D03*
X1244D02*
D03*
X1283D02*
D03*
X1323D02*
D03*
X1362D02*
D03*
X1402D02*
D03*
X1441D02*
D03*
X1480D02*
D03*
X1520D02*
D03*
X1559D02*
D03*
X1598D02*
D03*
X772Y2031D02*
D03*
X811D02*
D03*
X850D02*
D03*
X890D02*
D03*
X929D02*
D03*
X969D02*
D03*
X1008D02*
D03*
X1047D02*
D03*
X1087D02*
D03*
X1126D02*
D03*
X1165D02*
D03*
X1205D02*
D03*
X1244D02*
D03*
X1283D02*
D03*
X1323D02*
D03*
X1362D02*
D03*
X1402D02*
D03*
X1441D02*
D03*
X1480D02*
D03*
X1520D02*
D03*
X1559D02*
D03*
X1598D02*
D03*
X772Y1992D02*
D03*
X811D02*
D03*
X850D02*
D03*
X890D02*
D03*
X929D02*
D03*
X969D02*
D03*
X1008D02*
D03*
X1047D02*
D03*
X1087D02*
D03*
X1126D02*
D03*
X1165D02*
D03*
X1205D02*
D03*
X1244D02*
D03*
X1283D02*
D03*
X1323D02*
D03*
X1362D02*
D03*
X1402D02*
D03*
X1441D02*
D03*
X1480D02*
D03*
X1520D02*
D03*
X1559D02*
D03*
X1598D02*
D03*
X772Y1953D02*
D03*
X811D02*
D03*
X850D02*
D03*
X890D02*
D03*
X929D02*
D03*
X969D02*
D03*
X1008D02*
D03*
X1047D02*
D03*
X1087D02*
D03*
X1126D02*
D03*
X1165D02*
D03*
X1205D02*
D03*
X1244D02*
D03*
X1283D02*
D03*
X1323D02*
D03*
X1362D02*
D03*
X1402D02*
D03*
X1441D02*
D03*
X1480D02*
D03*
X1520D02*
D03*
X1559D02*
D03*
X1598D02*
D03*
X772Y1913D02*
D03*
X811D02*
D03*
X850D02*
D03*
X890D02*
D03*
X929D02*
D03*
X969D02*
D03*
X1008D02*
D03*
X1047D02*
D03*
X1087D02*
D03*
X1126D02*
D03*
X1165D02*
D03*
X1205D02*
D03*
X1244D02*
D03*
X1283D02*
D03*
X1323D02*
D03*
X1362D02*
D03*
X1402D02*
D03*
X1441D02*
D03*
X1480D02*
D03*
X1520D02*
D03*
X1559D02*
D03*
X1598D02*
D03*
X772Y1874D02*
D03*
X811D02*
D03*
X850D02*
D03*
X890D02*
D03*
X929D02*
D03*
X969D02*
D03*
X1008D02*
D03*
X1047D02*
D03*
X1087D02*
D03*
X1126D02*
D03*
X1165D02*
D03*
X1205D02*
D03*
X1244D02*
D03*
X1283D02*
D03*
X1323D02*
D03*
X1362D02*
D03*
X1402D02*
D03*
X1441D02*
D03*
X1480D02*
D03*
X1520D02*
D03*
X1559D02*
D03*
X1598D02*
D03*
X772Y1835D02*
D03*
X811D02*
D03*
X850D02*
D03*
X890D02*
D03*
X929D02*
D03*
X969D02*
D03*
X1008D02*
D03*
X1047D02*
D03*
X1087D02*
D03*
X1126D02*
D03*
X1165D02*
D03*
X1205D02*
D03*
X1244D02*
D03*
X1283D02*
D03*
X1323D02*
D03*
X1402D02*
D03*
X1441D02*
D03*
X1480D02*
D03*
X1520D02*
D03*
X1559D02*
D03*
X1598D02*
D03*
X772Y1795D02*
D03*
X811D02*
D03*
X850D02*
D03*
X890D02*
D03*
X929D02*
D03*
X969D02*
D03*
X1008D02*
D03*
X1047D02*
D03*
X1087D02*
D03*
X1126D02*
D03*
X1165D02*
D03*
X1205D02*
D03*
X1244D02*
D03*
X1283D02*
D03*
X1323D02*
D03*
X1362D02*
D03*
X1402D02*
D03*
X1441D02*
D03*
X1480D02*
D03*
X1520D02*
D03*
X1559D02*
D03*
X1598D02*
D03*
X772Y1756D02*
D03*
X811D02*
D03*
X850D02*
D03*
X890D02*
D03*
X929D02*
D03*
X969D02*
D03*
X1008D02*
D03*
X1047D02*
D03*
X1087D02*
D03*
X1126D02*
D03*
X1165D02*
D03*
X1205D02*
D03*
X1244D02*
D03*
X1283D02*
D03*
X1441D02*
D03*
X1480D02*
D03*
X1520D02*
D03*
X1559D02*
D03*
X1598D02*
D03*
X772Y1717D02*
D03*
X811D02*
D03*
X850D02*
D03*
X890D02*
D03*
X929D02*
D03*
X969D02*
D03*
X1008D02*
D03*
X1047D02*
D03*
X1087D02*
D03*
X1126D02*
D03*
X1165D02*
D03*
X1205D02*
D03*
X1323D02*
D03*
X1362D02*
D03*
X1441D02*
D03*
X1480D02*
D03*
X1520D02*
D03*
X1559D02*
D03*
X1598D02*
D03*
X772Y1677D02*
D03*
X811D02*
D03*
X850D02*
D03*
X890D02*
D03*
X929D02*
D03*
X969D02*
D03*
X1008D02*
D03*
X1047D02*
D03*
X1087D02*
D03*
X1126D02*
D03*
X1165D02*
D03*
X1205D02*
D03*
X1244D02*
D03*
X1362D02*
D03*
X1441D02*
D03*
X772Y1638D02*
D03*
X811D02*
D03*
X850D02*
D03*
X890D02*
D03*
X929D02*
D03*
X969D02*
D03*
X1008D02*
D03*
X1047D02*
D03*
X1087D02*
D03*
X1126D02*
D03*
X1165D02*
D03*
X1205D02*
D03*
X1244D02*
D03*
X1323D02*
D03*
X1402D02*
D03*
X1520D02*
D03*
X772Y1598D02*
D03*
X811D02*
D03*
X850D02*
D03*
X890D02*
D03*
X929D02*
D03*
X969D02*
D03*
X1008D02*
D03*
X1047D02*
D03*
X1087D02*
D03*
X1126D02*
D03*
X1165D02*
D03*
X1205D02*
D03*
X1244D02*
D03*
X1283D02*
D03*
X1323D02*
D03*
X1362D02*
D03*
X1402D02*
D03*
X1598D02*
D03*
X772Y1559D02*
D03*
X811D02*
D03*
X850D02*
D03*
X890D02*
D03*
X929D02*
D03*
X969D02*
D03*
X1008D02*
D03*
X1047D02*
D03*
X1087D02*
D03*
X1126D02*
D03*
X1165D02*
D03*
X1205D02*
D03*
X1244D02*
D03*
X1283D02*
D03*
X1323D02*
D03*
X1362D02*
D03*
X1480D02*
D03*
X772Y1520D02*
D03*
X811D02*
D03*
X850D02*
D03*
X890D02*
D03*
X929D02*
D03*
X969D02*
D03*
X1008D02*
D03*
X1047D02*
D03*
X1087D02*
D03*
X1126D02*
D03*
X1165D02*
D03*
X1205D02*
D03*
X1244D02*
D03*
X1283D02*
D03*
X1323D02*
D03*
X1362D02*
D03*
X1559D02*
D03*
X772Y1480D02*
D03*
X811D02*
D03*
X850D02*
D03*
X890D02*
D03*
X929D02*
D03*
X969D02*
D03*
X1008D02*
D03*
X1047D02*
D03*
X1087D02*
D03*
X1126D02*
D03*
X1165D02*
D03*
X1205D02*
D03*
X1244D02*
D03*
X1283D02*
D03*
X1323D02*
D03*
X1362D02*
D03*
X1441D02*
D03*
X772Y1441D02*
D03*
X811D02*
D03*
X850D02*
D03*
X890D02*
D03*
X929D02*
D03*
X969D02*
D03*
X1008D02*
D03*
X1047D02*
D03*
X1087D02*
D03*
X1126D02*
D03*
X1165D02*
D03*
X1205D02*
D03*
X1244D02*
D03*
X1283D02*
D03*
X1323D02*
D03*
X1362D02*
D03*
X1402D02*
D03*
X1520D02*
D03*
X772Y1402D02*
D03*
X811D02*
D03*
X850D02*
D03*
X890D02*
D03*
X929D02*
D03*
X969D02*
D03*
X1008D02*
D03*
X1047D02*
D03*
X1087D02*
D03*
X1126D02*
D03*
X1165D02*
D03*
X1205D02*
D03*
X1244D02*
D03*
X1283D02*
D03*
X1323D02*
D03*
X1362D02*
D03*
X1402D02*
D03*
X1598D02*
D03*
X772Y1362D02*
D03*
X811D02*
D03*
X850D02*
D03*
X890D02*
D03*
X929D02*
D03*
X969D02*
D03*
X1008D02*
D03*
X1047D02*
D03*
X1087D02*
D03*
X1126D02*
D03*
X1165D02*
D03*
X1205D02*
D03*
X1244D02*
D03*
X1283D02*
D03*
X1323D02*
D03*
X1362D02*
D03*
X1402D02*
D03*
X1480D02*
D03*
D43*
X2368Y1614D02*
D03*
X2318D02*
D03*
X2268D02*
D03*
X2218D02*
D03*
X2368Y1409D02*
D03*
X2318D02*
D03*
X2268D02*
D03*
X2218D02*
D03*
X2459Y1409D02*
D03*
X2509D02*
D03*
X2559D02*
D03*
X2609D02*
D03*
X2459Y1614D02*
D03*
X2509D02*
D03*
X2559D02*
D03*
X2609D02*
D03*
X3239D02*
D03*
X3189D02*
D03*
X3139D02*
D03*
X3089D02*
D03*
X3239Y1409D02*
D03*
X3189D02*
D03*
X3139D02*
D03*
X3089D02*
D03*
X2818Y1614D02*
D03*
X2768D02*
D03*
X2718D02*
D03*
X2668D02*
D03*
X2818Y1409D02*
D03*
X2768D02*
D03*
X2718D02*
D03*
X2668D02*
D03*
X3030Y1614D02*
D03*
X2980D02*
D03*
X2930D02*
D03*
X2880D02*
D03*
X3030Y1409D02*
D03*
X2980D02*
D03*
X2930D02*
D03*
X2880D02*
D03*
D48*
X677Y1764D02*
D03*
Y1732D02*
D03*
Y1701D02*
D03*
Y1575D02*
D03*
Y1543D02*
D03*
Y1512D02*
D03*
X646Y1764D02*
D03*
Y1732D02*
D03*
Y1701D02*
D03*
Y1575D02*
D03*
Y1543D02*
D03*
Y1512D02*
D03*
X614Y1764D02*
D03*
Y1732D02*
D03*
Y1701D02*
D03*
Y1575D02*
D03*
Y1543D02*
D03*
Y1512D02*
D03*
X583Y1764D02*
D03*
Y1732D02*
D03*
Y1701D02*
D03*
Y1575D02*
D03*
Y1543D02*
D03*
Y1512D02*
D03*
X551Y1764D02*
D03*
Y1732D02*
D03*
Y1701D02*
D03*
Y1575D02*
D03*
Y1543D02*
D03*
Y1512D02*
D03*
X520Y1764D02*
D03*
Y1732D02*
D03*
Y1701D02*
D03*
Y1575D02*
D03*
Y1543D02*
D03*
Y1512D02*
D03*
X488Y1764D02*
D03*
Y1732D02*
D03*
Y1701D02*
D03*
Y1575D02*
D03*
Y1543D02*
D03*
Y1512D02*
D03*
X457Y1764D02*
D03*
Y1732D02*
D03*
Y1701D02*
D03*
Y1575D02*
D03*
Y1543D02*
D03*
Y1512D02*
D03*
X425Y1764D02*
D03*
Y1732D02*
D03*
Y1701D02*
D03*
Y1575D02*
D03*
Y1543D02*
D03*
Y1512D02*
D03*
X394Y1764D02*
D03*
Y1732D02*
D03*
Y1701D02*
D03*
Y1575D02*
D03*
Y1543D02*
D03*
Y1512D02*
D03*
X362Y1764D02*
D03*
Y1732D02*
D03*
Y1701D02*
D03*
Y1575D02*
D03*
Y1543D02*
D03*
Y1512D02*
D03*
X331Y1764D02*
D03*
Y1732D02*
D03*
Y1701D02*
D03*
Y1575D02*
D03*
Y1543D02*
D03*
Y1512D02*
D03*
X299Y1764D02*
D03*
Y1732D02*
D03*
Y1701D02*
D03*
Y1575D02*
D03*
Y1543D02*
D03*
Y1512D02*
D03*
X268Y1764D02*
D03*
Y1732D02*
D03*
Y1701D02*
D03*
Y1575D02*
D03*
Y1543D02*
D03*
Y1512D02*
D03*
X236Y1764D02*
D03*
Y1732D02*
D03*
Y1701D02*
D03*
Y1575D02*
D03*
Y1543D02*
D03*
Y1512D02*
D03*
X205Y1764D02*
D03*
Y1732D02*
D03*
Y1701D02*
D03*
Y1575D02*
D03*
Y1543D02*
D03*
Y1512D02*
D03*
X205Y1937D02*
D03*
Y1969D02*
D03*
Y2000D02*
D03*
Y2126D02*
D03*
Y2157D02*
D03*
Y2189D02*
D03*
X236Y1937D02*
D03*
Y1969D02*
D03*
Y2000D02*
D03*
Y2126D02*
D03*
Y2157D02*
D03*
Y2189D02*
D03*
X268Y1937D02*
D03*
Y1969D02*
D03*
Y2000D02*
D03*
Y2126D02*
D03*
Y2157D02*
D03*
Y2189D02*
D03*
X299Y1937D02*
D03*
Y1969D02*
D03*
Y2000D02*
D03*
Y2126D02*
D03*
Y2157D02*
D03*
Y2189D02*
D03*
X331Y1937D02*
D03*
Y1969D02*
D03*
Y2000D02*
D03*
Y2126D02*
D03*
Y2157D02*
D03*
Y2189D02*
D03*
X362Y1937D02*
D03*
Y1969D02*
D03*
Y2000D02*
D03*
Y2126D02*
D03*
Y2157D02*
D03*
Y2189D02*
D03*
X394Y1937D02*
D03*
Y1969D02*
D03*
Y2000D02*
D03*
Y2126D02*
D03*
Y2157D02*
D03*
Y2189D02*
D03*
X425Y1937D02*
D03*
Y1969D02*
D03*
Y2000D02*
D03*
Y2126D02*
D03*
Y2157D02*
D03*
Y2189D02*
D03*
X457Y1937D02*
D03*
Y1969D02*
D03*
Y2000D02*
D03*
Y2126D02*
D03*
Y2157D02*
D03*
Y2189D02*
D03*
X488Y1937D02*
D03*
Y1969D02*
D03*
Y2000D02*
D03*
Y2126D02*
D03*
Y2157D02*
D03*
Y2189D02*
D03*
X520Y1937D02*
D03*
Y1969D02*
D03*
Y2000D02*
D03*
Y2126D02*
D03*
Y2157D02*
D03*
Y2189D02*
D03*
X551Y1937D02*
D03*
Y1969D02*
D03*
Y2000D02*
D03*
Y2126D02*
D03*
Y2157D02*
D03*
Y2189D02*
D03*
X583Y1937D02*
D03*
Y1969D02*
D03*
Y2000D02*
D03*
Y2126D02*
D03*
Y2157D02*
D03*
Y2189D02*
D03*
X614Y1937D02*
D03*
Y1969D02*
D03*
Y2000D02*
D03*
Y2126D02*
D03*
Y2157D02*
D03*
Y2189D02*
D03*
X646Y1937D02*
D03*
Y1969D02*
D03*
Y2000D02*
D03*
Y2126D02*
D03*
Y2157D02*
D03*
Y2189D02*
D03*
X677Y1937D02*
D03*
Y1969D02*
D03*
Y2000D02*
D03*
Y2126D02*
D03*
Y2157D02*
D03*
Y2189D02*
D03*
D49*
X969Y2500D02*
D03*
X869D02*
D03*
X769D02*
D03*
Y2354D02*
D03*
X869D02*
D03*
X969D02*
D03*
D50*
X869Y2427D02*
D03*
D51*
X547Y2333D02*
D03*
Y2352D02*
D03*
X657D02*
D03*
Y2333D02*
D03*
D52*
X602Y2343D02*
D03*
D53*
X563Y2398D02*
D03*
X583D02*
D03*
X602D02*
D03*
X622D02*
D03*
X642D02*
D03*
Y2287D02*
D03*
X622D02*
D03*
X602D02*
D03*
X583D02*
D03*
X563D02*
D03*
D54*
X673Y1110D02*
D03*
X728D02*
D03*
X2055Y1693D02*
D03*
X2110D02*
D03*
D55*
X659Y1177D02*
D03*
X697Y1272D02*
D03*
D56*
X622D02*
D03*
D57*
X2457Y1291D02*
D03*
X2551D02*
D03*
X2006Y1565D02*
D03*
Y1526D02*
D03*
Y1486D02*
D03*
X1966Y1565D02*
D03*
Y1526D02*
D03*
Y1486D02*
D03*
X1927D02*
D03*
Y1526D02*
D03*
Y1565D02*
D03*
D65*
X4719Y431D02*
D03*
Y605D02*
D03*
D67*
X4276Y2004D02*
D03*
Y2079D02*
D03*
X3969Y886D02*
D03*
X4917Y709D02*
D03*
X4276Y1598D02*
D03*
X3972Y1217D02*
D03*
X409Y685D02*
D03*
X173Y874D02*
D03*
X409Y1126D02*
D03*
X173Y1319D02*
D03*
X2291Y583D02*
D03*
X2429Y657D02*
D03*
X2291Y661D02*
D03*
X2862Y661D02*
D03*
X2358Y657D02*
D03*
X2362Y587D02*
D03*
X2429D02*
D03*
X4276Y1902D02*
D03*
Y1772D02*
D03*
Y1654D02*
D03*
Y1508D02*
D03*
X886Y1272D02*
D03*
X2354Y252D02*
D03*
X2748Y248D02*
D03*
X1453Y984D02*
D03*
Y933D02*
D03*
X1453Y882D02*
D03*
X917Y1181D02*
D03*
X949Y1114D02*
D03*
X945Y1063D02*
D03*
X4366Y331D02*
D03*
X4917Y827D02*
D03*
Y768D02*
D03*
X4622Y1354D02*
D03*
X2071Y1307D02*
D03*
X1831Y1390D02*
D03*
X4622Y1409D02*
D03*
X4606Y2530D02*
D03*
Y2352D02*
D03*
X4518Y2441D02*
D03*
X4695D02*
D03*
X4547Y2372D02*
D03*
X4675Y2382D02*
D03*
X4547Y2510D02*
D03*
X4675Y2500D02*
D03*
Y177D02*
D03*
X4547Y187D02*
D03*
X4675Y59D02*
D03*
X4547Y49D02*
D03*
X4695Y118D02*
D03*
X4518D02*
D03*
X4606Y30D02*
D03*
Y207D02*
D03*
X354D02*
D03*
Y30D02*
D03*
X266Y118D02*
D03*
X443D02*
D03*
X295Y49D02*
D03*
X423Y59D02*
D03*
X295Y187D02*
D03*
X423Y177D02*
D03*
Y2500D02*
D03*
X295Y2510D02*
D03*
X423Y2382D02*
D03*
X295Y2372D02*
D03*
X443Y2441D02*
D03*
X266D02*
D03*
X354Y2352D02*
D03*
Y2530D02*
D03*
D69*
X3850Y765D02*
D03*
Y797D02*
D03*
X3882D02*
D03*
Y765D02*
D03*
X3850Y2179D02*
D03*
Y2210D02*
D03*
X3882D02*
D03*
Y2179D02*
D03*
X3850Y1826D02*
D03*
Y1858D02*
D03*
X3882D02*
D03*
Y1826D02*
D03*
X3882Y1474D02*
D03*
Y1505D02*
D03*
X3850D02*
D03*
Y1474D02*
D03*
X3882Y1120D02*
D03*
Y1151D02*
D03*
X3850D02*
D03*
Y1120D02*
D03*
D70*
X4220Y650D02*
D03*
X4146Y583D02*
D03*
X4677Y1052D02*
D03*
X4823Y1201D02*
D03*
X4413Y528D02*
D03*
X4260Y650D02*
D03*
X4322Y502D02*
D03*
X4279Y378D02*
D03*
X4322Y559D02*
D03*
X4232Y524D02*
D03*
X4413Y575D02*
D03*
X4320Y379D02*
D03*
X3801Y886D02*
D03*
X4244Y744D02*
D03*
X3803Y925D02*
D03*
X3705Y677D02*
D03*
X3937Y713D02*
D03*
X4543Y604D02*
D03*
X4811Y406D02*
D03*
X4299Y339D02*
D03*
X4508Y433D02*
D03*
X4469Y339D02*
D03*
X4539Y339D02*
D03*
X4543Y481D02*
D03*
X4543Y524D02*
D03*
X4448Y607D02*
D03*
Y650D02*
D03*
X4425Y1248D02*
D03*
X4421Y1098D02*
D03*
X3949Y1413D02*
D03*
X3803Y1280D02*
D03*
X3801Y1228D02*
D03*
X3705Y1035D02*
D03*
X4820Y1305D02*
D03*
X4822Y1350D02*
D03*
X4823Y1449D02*
D03*
X4031Y1933D02*
D03*
Y1803D02*
D03*
Y1673D02*
D03*
X4063Y1713D02*
D03*
X4035Y1583D02*
D03*
X3756Y2035D02*
D03*
X3803Y2339D02*
D03*
X3972Y2276D02*
D03*
X4047Y2098D02*
D03*
X3705Y2091D02*
D03*
Y2327D02*
D03*
X3874Y2051D02*
D03*
X4264Y1701D02*
D03*
Y1555D02*
D03*
X3835Y1594D02*
D03*
X3705Y1386D02*
D03*
X4677Y1453D02*
D03*
X3661Y1583D02*
D03*
X3671Y1768D02*
D03*
X3705Y1740D02*
D03*
X2398Y177D02*
D03*
X3843Y1713D02*
D03*
X3661Y1929D02*
D03*
X3756Y2398D02*
D03*
X3839Y1976D02*
D03*
X3374Y2126D02*
D03*
X4024Y2382D02*
D03*
X3843D02*
D03*
X4823Y1504D02*
D03*
X3571Y2189D02*
D03*
X4264Y1823D02*
D03*
Y1953D02*
D03*
X4063Y1972D02*
D03*
X3937Y1067D02*
D03*
X2169Y1724D02*
D03*
X2283Y1748D02*
D03*
X2170Y1682D02*
D03*
X4425Y1150D02*
D03*
X4677Y1201D02*
D03*
Y1252D02*
D03*
X4823Y1402D02*
D03*
Y1051D02*
D03*
X4823Y1102D02*
D03*
X4677Y1500D02*
D03*
X3244Y1733D02*
D03*
X3345Y1907D02*
D03*
X3205Y1895D02*
D03*
X3429Y1756D02*
D03*
X3386Y2008D02*
D03*
X3391Y1888D02*
D03*
X3367Y1942D02*
D03*
X3409Y2154D02*
D03*
X3429Y1858D02*
D03*
X3409Y1949D02*
D03*
X3571Y1929D02*
D03*
X3571Y2150D02*
D03*
Y2098D02*
D03*
Y2047D02*
D03*
X3571Y1984D02*
D03*
Y1862D02*
D03*
X3571Y1772D02*
D03*
X124Y673D02*
D03*
X118Y787D02*
D03*
Y752D02*
D03*
X437Y878D02*
D03*
X244Y849D02*
D03*
X437Y1323D02*
D03*
X197Y571D02*
D03*
X370Y1016D02*
D03*
X161Y1016D02*
D03*
X197D02*
D03*
X465Y551D02*
D03*
X161Y571D02*
D03*
X268D02*
D03*
X319Y839D02*
D03*
X453Y776D02*
D03*
X374D02*
D03*
X220Y783D02*
D03*
X268Y736D02*
D03*
X220D02*
D03*
X268Y783D02*
D03*
X409Y571D02*
D03*
X370D02*
D03*
X413Y776D02*
D03*
X327Y571D02*
D03*
X268Y1016D02*
D03*
X516Y728D02*
D03*
Y827D02*
D03*
X126Y1016D02*
D03*
X516Y776D02*
D03*
Y976D02*
D03*
Y929D02*
D03*
Y878D02*
D03*
X220Y1228D02*
D03*
X244Y1294D02*
D03*
X319Y1283D02*
D03*
X374Y1220D02*
D03*
X453D02*
D03*
X220Y1181D02*
D03*
X327Y1016D02*
D03*
X91Y1118D02*
D03*
X118Y1232D02*
D03*
X268Y1228D02*
D03*
X118Y1197D02*
D03*
X346Y1130D02*
D03*
X413Y1220D02*
D03*
X268Y1181D02*
D03*
X409Y1016D02*
D03*
X807Y980D02*
D03*
Y1028D02*
D03*
X516D02*
D03*
X815Y1110D02*
D03*
X1559Y1051D02*
D03*
X1870Y1275D02*
D03*
X1865Y1429D02*
D03*
X1891Y1398D02*
D03*
X1811Y1429D02*
D03*
X1983Y1383D02*
D03*
X2024Y1382D02*
D03*
X1965Y1335D02*
D03*
X1878Y1626D02*
D03*
X1838Y1626D02*
D03*
X1248Y1012D02*
D03*
X1249Y893D02*
D03*
X1465Y835D02*
D03*
Y1031D02*
D03*
X1558Y1012D02*
D03*
Y894D02*
D03*
X2130Y1315D02*
D03*
X1992Y894D02*
D03*
X126Y2350D02*
D03*
X2319Y1460D02*
D03*
X2217D02*
D03*
X2217Y1563D02*
D03*
X2268Y1311D02*
D03*
Y1460D02*
D03*
X2366D02*
D03*
X3244Y1776D02*
D03*
Y1828D02*
D03*
Y1870D02*
D03*
X3571Y1728D02*
D03*
X3360Y2074D02*
D03*
X3406Y2071D02*
D03*
X3426Y2011D02*
D03*
X2819Y1567D02*
D03*
X3091Y1461D02*
D03*
X3240Y1563D02*
D03*
X3189Y1461D02*
D03*
X3118Y1528D02*
D03*
X3138Y1461D02*
D03*
X2882D02*
D03*
X3031Y1563D02*
D03*
X2980Y1461D02*
D03*
X2909Y1528D02*
D03*
X2929Y1461D02*
D03*
X2669Y1465D02*
D03*
X2768D02*
D03*
X2697Y1531D02*
D03*
X2717Y1465D02*
D03*
X2508Y1461D02*
D03*
X2488Y1528D02*
D03*
X2559Y1461D02*
D03*
X2610Y1563D02*
D03*
X2461Y1461D02*
D03*
X2131Y1451D02*
D03*
X126Y2476D02*
D03*
X59D02*
D03*
X1092Y2406D02*
D03*
Y2299D02*
D03*
X1052D02*
D03*
X1013Y2500D02*
D03*
X930Y2425D02*
D03*
X1013Y2354D02*
D03*
X804Y2425D02*
D03*
X966Y2303D02*
D03*
X914Y2354D02*
D03*
X812D02*
D03*
X622Y2244D02*
D03*
X39Y2350D02*
D03*
X524Y2287D02*
D03*
Y2343D02*
D03*
X634Y2512D02*
D03*
X701D02*
D03*
X563D02*
D03*
X724Y2402D02*
D03*
X709Y2358D02*
D03*
Y2311D02*
D03*
X39Y1646D02*
D03*
D71*
X878Y687D02*
D03*
X1752Y539D02*
D03*
X1783Y539D02*
D03*
X969Y1402D02*
D03*
Y1362D02*
D03*
X421Y1433D02*
D03*
X1441Y1913D02*
D03*
Y1717D02*
D03*
X1480Y1717D02*
D03*
X1441Y1756D02*
D03*
X1520Y1795D02*
D03*
X1480D02*
D03*
X1402Y1874D02*
D03*
X1441Y1795D02*
D03*
X1480Y1835D02*
D03*
X1441Y1835D02*
D03*
X1402D02*
D03*
X1638Y1795D02*
D03*
X1480Y1874D02*
D03*
X1520Y1835D02*
D03*
Y1874D02*
D03*
X2677Y984D02*
D03*
X2559D02*
D03*
X2520D02*
D03*
X2441Y866D02*
D03*
X2402Y748D02*
D03*
X2756Y1024D02*
D03*
X2717Y1063D02*
D03*
Y748D02*
D03*
X2677Y827D02*
D03*
Y787D02*
D03*
X2480D02*
D03*
X2559D02*
D03*
Y827D02*
D03*
X2520D02*
D03*
X2441D02*
D03*
X2480D02*
D03*
X2756Y906D02*
D03*
X2717D02*
D03*
Y945D02*
D03*
X2677D02*
D03*
Y906D02*
D03*
X2756Y866D02*
D03*
X2717D02*
D03*
X2677D02*
D03*
X2559D02*
D03*
X2598D02*
D03*
X2559Y906D02*
D03*
X2598D02*
D03*
X2638D02*
D03*
Y945D02*
D03*
X2598D02*
D03*
X2559D02*
D03*
X2520D02*
D03*
X2480D02*
D03*
X2520Y906D02*
D03*
X2480D02*
D03*
X2520Y866D02*
D03*
X2480D02*
D03*
X2638D02*
D03*
Y827D02*
D03*
X2598Y787D02*
D03*
Y748D02*
D03*
X2520D02*
D03*
X878Y656D02*
D03*
X996Y315D02*
D03*
X1205Y1402D02*
D03*
X1244Y1598D02*
D03*
X1508Y677D02*
D03*
X1508Y646D02*
D03*
X1815Y539D02*
D03*
X1480Y1677D02*
D03*
Y1638D02*
D03*
Y1598D02*
D03*
X1520Y1638D02*
D03*
X1402Y1598D02*
D03*
X1441Y1480D02*
D03*
X1480Y1559D02*
D03*
Y1520D02*
D03*
Y1480D02*
D03*
Y1441D02*
D03*
X1559Y1598D02*
D03*
X1520Y1677D02*
D03*
Y1598D02*
D03*
Y1559D02*
D03*
Y1520D02*
D03*
Y1480D02*
D03*
X1990Y656D02*
D03*
Y628D02*
D03*
Y683D02*
D03*
Y711D02*
D03*
Y737D02*
D03*
Y766D02*
D03*
Y792D02*
D03*
Y821D02*
D03*
Y848D02*
D03*
X1622Y309D02*
D03*
X1402Y1402D02*
D03*
X1480Y1362D02*
D03*
X1283Y1362D02*
D03*
X1480Y1913D02*
D03*
X909Y2244D02*
D03*
X870D02*
D03*
X969Y1441D02*
D03*
X1244Y1559D02*
D03*
X773Y2394D02*
D03*
X143Y2241D02*
D03*
X661Y2398D02*
D03*
X890Y1598D02*
D03*
Y1638D02*
D03*
X555Y2051D02*
D03*
X461D02*
D03*
X488Y2126D02*
D03*
X520Y2102D02*
D03*
X362Y2000D02*
D03*
Y1969D02*
D03*
X374Y2091D02*
D03*
X717Y1618D02*
D03*
X929Y1520D02*
D03*
X713Y1531D02*
D03*
X1205Y1520D02*
D03*
X1244Y1638D02*
D03*
X252Y1831D02*
D03*
X224Y1480D02*
D03*
X261Y1442D02*
D03*
X362Y1484D02*
D03*
X154Y1909D02*
D03*
X146Y1866D02*
D03*
X173Y1957D02*
D03*
X150Y1975D02*
D03*
X122Y1839D02*
D03*
X236Y1870D02*
D03*
X148Y2007D02*
D03*
X567Y1894D02*
D03*
X732Y1913D02*
D03*
X338Y1637D02*
D03*
X378Y1634D02*
D03*
X437Y1648D02*
D03*
X346Y1666D02*
D03*
X408Y1608D02*
D03*
X315Y1602D02*
D03*
X143Y1520D02*
D03*
X174Y1543D02*
D03*
X94Y1598D02*
D03*
X154Y1571D02*
D03*
X202Y1543D02*
D03*
X216Y1622D02*
D03*
X185Y1622D02*
D03*
X94Y1630D02*
D03*
X75Y1571D02*
D03*
X236Y1701D02*
D03*
X417Y1882D02*
D03*
X366Y1886D02*
D03*
X614Y2000D02*
D03*
X446Y1838D02*
D03*
X406Y2091D02*
D03*
X335Y1835D02*
D03*
X331Y1906D02*
D03*
X299Y1795D02*
D03*
X275Y1906D02*
D03*
X268Y2031D02*
D03*
X331Y2126D02*
D03*
X264Y2217D02*
D03*
X346D02*
D03*
X307Y2217D02*
D03*
X248Y2241D02*
D03*
X331Y2157D02*
D03*
X642Y2050D02*
D03*
X425Y2126D02*
D03*
X210Y2218D02*
D03*
X181Y2221D02*
D03*
X144Y2208D02*
D03*
X421Y2217D02*
D03*
X390D02*
D03*
X398Y1839D02*
D03*
X299Y1764D02*
D03*
X485Y1791D02*
D03*
X403Y1669D02*
D03*
X299Y1732D02*
D03*
X268Y1732D02*
D03*
X531Y1434D02*
D03*
X394Y1453D02*
D03*
X571D02*
D03*
X606D02*
D03*
X458Y1667D02*
D03*
X363Y1543D02*
D03*
X102Y1701D02*
D03*
X236Y1732D02*
D03*
X114Y1783D02*
D03*
X205Y1764D02*
D03*
X236D02*
D03*
X130Y2138D02*
D03*
X205Y1512D02*
D03*
X850Y1402D02*
D03*
X331Y1512D02*
D03*
X300Y1543D02*
D03*
X772Y1598D02*
D03*
X647Y1596D02*
D03*
X610D02*
D03*
X583Y1681D02*
D03*
X523Y1669D02*
D03*
X552Y1669D02*
D03*
X492Y1661D02*
D03*
X552Y1701D02*
D03*
X582Y1576D02*
D03*
X648Y1999D02*
D03*
X969Y1874D02*
D03*
X677Y1764D02*
D03*
X524Y1791D02*
D03*
X645Y1701D02*
D03*
X614Y1764D02*
D03*
X488Y1575D02*
D03*
X929Y1402D02*
D03*
X1126Y1992D02*
D03*
X551Y1732D02*
D03*
X330Y1969D02*
D03*
Y1937D02*
D03*
X487D02*
D03*
X520Y1512D02*
D03*
X551D02*
D03*
Y1543D02*
D03*
X890Y1362D02*
D03*
X929Y1441D02*
D03*
X677Y1512D02*
D03*
Y1543D02*
D03*
X646Y1512D02*
D03*
X614Y1543D02*
D03*
X582Y1544D02*
D03*
X646Y1733D02*
D03*
Y1764D02*
D03*
X520Y1701D02*
D03*
X488Y1701D02*
D03*
X583Y1512D02*
D03*
X331Y1543D02*
D03*
X457Y1763D02*
D03*
X677Y1937D02*
D03*
Y1969D02*
D03*
X646D02*
D03*
X583Y1764D02*
D03*
Y1937D02*
D03*
X551D02*
D03*
X488Y1512D02*
D03*
X487Y2000D02*
D03*
Y1969D02*
D03*
X520Y2000D02*
D03*
X488Y2157D02*
D03*
X520D02*
D03*
X551D02*
D03*
X520Y2189D02*
D03*
X488D02*
D03*
X552Y2189D02*
D03*
X457Y2189D02*
D03*
Y2157D02*
D03*
X425D02*
D03*
X583Y1732D02*
D03*
X457Y1731D02*
D03*
X550Y1969D02*
D03*
X156Y2161D02*
D03*
X520Y1968D02*
D03*
X677Y2189D02*
D03*
X583Y2157D02*
D03*
Y1969D02*
D03*
X646Y2189D02*
D03*
X488Y1543D02*
D03*
X109Y2112D02*
D03*
X118Y2185D02*
D03*
X394Y2157D02*
D03*
X299Y2126D02*
D03*
X1087Y1362D02*
D03*
X1008D02*
D03*
X850D02*
D03*
X890Y1559D02*
D03*
X969Y1480D02*
D03*
X890Y1441D02*
D03*
X850Y1480D02*
D03*
X811D02*
D03*
X890Y1480D02*
D03*
X772Y1520D02*
D03*
X811Y1598D02*
D03*
X850Y1638D02*
D03*
Y1677D02*
D03*
X890D02*
D03*
X811Y1638D02*
D03*
X772Y1717D02*
D03*
Y1756D02*
D03*
Y1795D02*
D03*
X811D02*
D03*
X811Y1835D02*
D03*
X929Y1835D02*
D03*
X811Y1874D02*
D03*
X850D02*
D03*
X890D02*
D03*
X811Y1913D02*
D03*
X772D02*
D03*
X811Y1953D02*
D03*
Y1992D02*
D03*
X772Y2031D02*
D03*
Y2071D02*
D03*
Y2110D02*
D03*
X772Y2189D02*
D03*
X811Y1402D02*
D03*
X890Y1913D02*
D03*
X850Y2031D02*
D03*
X929Y1638D02*
D03*
X850Y2189D02*
D03*
X811D02*
D03*
X929Y1677D02*
D03*
Y1717D02*
D03*
X969D02*
D03*
X929Y1756D02*
D03*
X969Y1677D02*
D03*
X1008D02*
D03*
X850Y1756D02*
D03*
X890D02*
D03*
X850Y1717D02*
D03*
X969Y1520D02*
D03*
X1008Y1402D02*
D03*
Y1598D02*
D03*
X969Y1756D02*
D03*
X890Y1795D02*
D03*
X929D02*
D03*
Y1913D02*
D03*
Y1953D02*
D03*
X850Y2071D02*
D03*
Y2110D02*
D03*
X1008Y1795D02*
D03*
Y1874D02*
D03*
X890Y2071D02*
D03*
X929Y1992D02*
D03*
Y2031D02*
D03*
X890D02*
D03*
X850Y2150D02*
D03*
X969Y1913D02*
D03*
Y1992D02*
D03*
Y2071D02*
D03*
X1047Y1598D02*
D03*
Y1677D02*
D03*
Y1756D02*
D03*
Y1835D02*
D03*
Y1913D02*
D03*
Y1992D02*
D03*
Y2071D02*
D03*
Y2150D02*
D03*
X1126Y1441D02*
D03*
Y1598D02*
D03*
Y1677D02*
D03*
Y1756D02*
D03*
Y1913D02*
D03*
Y2071D02*
D03*
Y2150D02*
D03*
X1205Y1598D02*
D03*
Y1677D02*
D03*
Y1835D02*
D03*
Y1913D02*
D03*
Y2071D02*
D03*
Y2150D02*
D03*
X1283Y1756D02*
D03*
X1362Y1520D02*
D03*
Y1913D02*
D03*
X1441Y1677D02*
D03*
Y2071D02*
D03*
X1520Y1441D02*
D03*
X1598Y1598D02*
D03*
Y1992D02*
D03*
X890Y2110D02*
D03*
X969D02*
D03*
Y2031D02*
D03*
Y1953D02*
D03*
X1047Y1480D02*
D03*
Y1717D02*
D03*
Y1559D02*
D03*
Y1638D02*
D03*
Y1795D02*
D03*
Y1953D02*
D03*
Y2110D02*
D03*
Y1874D02*
D03*
Y2031D02*
D03*
Y2189D02*
D03*
X1126Y1559D02*
D03*
Y1795D02*
D03*
Y1638D02*
D03*
Y1717D02*
D03*
Y2110D02*
D03*
Y1874D02*
D03*
Y1953D02*
D03*
Y2031D02*
D03*
Y2189D02*
D03*
X1205Y1638D02*
D03*
Y1953D02*
D03*
Y1874D02*
D03*
Y2110D02*
D03*
Y2189D02*
D03*
X1283Y1559D02*
D03*
Y1953D02*
D03*
X1362Y2110D02*
D03*
X1441Y1874D02*
D03*
X1520Y2031D02*
D03*
X1598Y1402D02*
D03*
Y1795D02*
D03*
Y2189D02*
D03*
X929Y2150D02*
D03*
X1165Y1520D02*
D03*
X1087Y1598D02*
D03*
X1165D02*
D03*
X1244Y1677D02*
D03*
X1087D02*
D03*
X1165D02*
D03*
X1087Y1756D02*
D03*
X1165D02*
D03*
X1008D02*
D03*
X1165Y1835D02*
D03*
X1087D02*
D03*
X1008D02*
D03*
X1087Y1913D02*
D03*
X1165D02*
D03*
X1008D02*
D03*
X1165Y1992D02*
D03*
X1087D02*
D03*
X1008D02*
D03*
X1087Y2071D02*
D03*
X1244D02*
D03*
X1165D02*
D03*
Y2150D02*
D03*
X1087D02*
D03*
X1008D02*
D03*
X1323Y1441D02*
D03*
X1559Y1520D02*
D03*
X1480Y1756D02*
D03*
X1559Y1913D02*
D03*
X1402Y1992D02*
D03*
X1480Y2150D02*
D03*
X929Y2189D02*
D03*
X1244Y1480D02*
D03*
X1165Y1638D02*
D03*
X1087D02*
D03*
Y1717D02*
D03*
Y1559D02*
D03*
Y1795D02*
D03*
X1165Y1717D02*
D03*
Y1795D02*
D03*
X1008Y1638D02*
D03*
Y1717D02*
D03*
X1087Y2031D02*
D03*
Y1874D02*
D03*
X1165Y2110D02*
D03*
X1244Y1874D02*
D03*
X1165Y2031D02*
D03*
X1087Y1953D02*
D03*
Y2110D02*
D03*
X1165Y1874D02*
D03*
X1008Y2031D02*
D03*
Y1953D02*
D03*
X1165Y2189D02*
D03*
X1087D02*
D03*
X1008D02*
D03*
X1402Y1795D02*
D03*
X1559Y1717D02*
D03*
X1323Y2031D02*
D03*
X1559Y2110D02*
D03*
X1480Y1953D02*
D03*
X1402Y2189D02*
D03*
D72*
X3500Y1537D02*
D03*
Y1577D02*
D03*
Y1616D02*
D03*
Y1695D02*
D03*
Y1774D02*
D03*
Y1813D02*
D03*
Y1892D02*
D03*
Y1931D02*
D03*
Y2010D02*
D03*
Y2089D02*
D03*
Y1656D02*
D03*
Y1734D02*
D03*
Y1852D02*
D03*
Y1970D02*
D03*
Y2049D02*
D03*
Y1557D02*
D03*
Y1596D02*
D03*
Y1636D02*
D03*
Y1675D02*
D03*
Y1754D02*
D03*
Y1793D02*
D03*
Y1833D02*
D03*
Y1872D02*
D03*
Y1911D02*
D03*
Y1951D02*
D03*
Y1990D02*
D03*
Y2030D02*
D03*
Y2069D02*
D03*
Y2108D02*
D03*
Y1715D02*
D03*
Y2128D02*
D03*
Y2148D02*
D03*
Y2167D02*
D03*
Y2187D02*
D03*
D73*
X3596Y2256D02*
D03*
Y1469D02*
D03*
D74*
X4838Y334D02*
D03*
Y706D02*
D03*
X4623Y707D02*
D03*
Y335D02*
D03*
D75*
X4390Y681D02*
D03*
X4303D02*
D03*
Y744D02*
D03*
X4390D02*
D03*
X1961Y1272D02*
D03*
X1874D02*
D03*
Y1335D02*
D03*
X1961D02*
D03*
D76*
X4154Y1935D02*
D03*
Y1972D02*
D03*
Y2010D02*
D03*
X4065D02*
D03*
Y1935D02*
D03*
X4154Y1675D02*
D03*
Y1713D02*
D03*
Y1750D02*
D03*
X4065D02*
D03*
Y1675D02*
D03*
X4065Y1545D02*
D03*
Y1620D02*
D03*
X4154D02*
D03*
Y1583D02*
D03*
Y1545D02*
D03*
X4154Y1805D02*
D03*
Y1843D02*
D03*
Y1880D02*
D03*
X4065D02*
D03*
Y1805D02*
D03*
D77*
X1868Y1596D02*
D03*
X2069D02*
D03*
X1868Y1459D02*
D03*
Y1478D02*
D03*
Y1498D02*
D03*
Y1518D02*
D03*
Y1537D02*
D03*
Y1557D02*
D03*
Y1577D02*
D03*
X2069D02*
D03*
Y1557D02*
D03*
Y1537D02*
D03*
Y1518D02*
D03*
Y1498D02*
D03*
Y1478D02*
D03*
D78*
X1900Y1628D02*
D03*
Y1427D02*
D03*
X2037D02*
D03*
X2018D02*
D03*
X1998D02*
D03*
X1978D02*
D03*
X1959D02*
D03*
X1939D02*
D03*
X1919D02*
D03*
Y1628D02*
D03*
X1939D02*
D03*
X1959D02*
D03*
X1978D02*
D03*
X1998D02*
D03*
X2018D02*
D03*
X2037D02*
D03*
D79*
X1969Y1528D02*
D03*
D80*
X2069Y1459D02*
D03*
D81*
X2466Y1291D02*
D03*
X2542D02*
D03*
D82*
X2504D02*
D03*
D83*
X551Y2189D02*
X583D01*
X91Y1784D02*
X115D01*
X299Y1542D02*
Y1543D01*
X79Y1701D02*
X102D01*
X83Y2138D02*
X157D01*
X425Y2115D02*
X425D01*
X248Y2244D02*
X252D01*
X362Y2091D02*
Y2126D01*
X143Y2029D02*
X270D01*
X910Y1461D02*
X929Y1480D01*
X78Y2106D02*
X80Y2109D01*
X389Y2212D02*
Y2217D01*
X205Y1543D02*
Y1543D01*
X204Y1542D02*
X205Y1543D01*
X202Y1543D02*
X204Y1542D01*
X182Y1520D02*
X204Y1542D01*
X143Y2244D02*
X147Y2240D01*
X121Y2244D02*
X143D01*
X170Y1957D02*
X197Y1984D01*
X441Y1717D02*
X457Y1732D01*
X771Y2031D02*
X772Y2032D01*
X771Y2031D02*
X772Y2031D01*
Y2032D02*
X776Y2028D01*
X988Y1421D02*
X1008Y1441D01*
X1559Y1835D02*
Y1838D01*
X421Y1433D02*
X440Y1414D01*
X949Y1343D02*
Y1418D01*
X953Y1421D01*
X988D01*
X988Y1343D02*
Y1374D01*
X996Y1382D01*
X1028D01*
X910Y1371D02*
Y1461D01*
Y1362D02*
Y1371D01*
X909Y1371D02*
X910Y1371D01*
X1559Y1480D02*
X1579Y1461D01*
X1626D01*
X1520Y1752D02*
X1527Y1745D01*
Y1745D02*
Y1745D01*
Y1745D02*
X1535Y1736D01*
X1520Y1752D02*
Y1756D01*
X1535Y1736D02*
X1622D01*
X1575Y1775D02*
X1654D01*
X1575Y1815D02*
X1651D01*
X1586Y1696D02*
X1588Y1694D01*
X1572Y1696D02*
X1586D01*
X1570Y1694D02*
X1572Y1696D01*
X1566Y1767D02*
X1575Y1776D01*
X1548Y1694D02*
X1570D01*
X1546Y1697D02*
X1548Y1694D01*
X1535Y1697D02*
X1546D01*
X1611D02*
X1622D01*
X1609Y1694D02*
X1611Y1697D01*
X1588Y1694D02*
X1609D01*
X1559Y1756D02*
Y1760D01*
X1566Y1767D01*
Y1767D01*
X1313Y720D02*
X1315D01*
X1313Y748D02*
X1315D01*
X1313Y693D02*
X1315D01*
X1313Y776D02*
X1315D01*
X1244Y1598D02*
X1244D01*
X1244Y1598D02*
X1244Y1598D01*
X1087Y1402D02*
X1106Y1382D01*
Y1339D02*
Y1382D01*
X1028Y1382D02*
X1047Y1402D01*
X1967Y656D02*
X1990D01*
X1967Y628D02*
X1990D01*
X1967Y683D02*
X1990D01*
X1967Y711D02*
X1990D01*
X1967Y737D02*
X1990D01*
X1967Y766D02*
X1990D01*
X1967Y792D02*
X1990D01*
X1967Y821D02*
X1990D01*
Y848D02*
X1990Y848D01*
X1967Y848D02*
X1990D01*
X1967Y848D02*
X1967Y848D01*
X126Y2350D02*
X126Y2350D01*
Y2380D01*
X1421Y1335D02*
Y1421D01*
X1441Y1441D01*
X1461Y1335D02*
Y1382D01*
X1441Y1402D02*
X1461Y1382D01*
X1480Y1402D02*
X1500Y1382D01*
Y1335D02*
Y1382D01*
X1539Y1335D02*
Y1382D01*
X1520Y1402D02*
X1539Y1382D01*
X1579Y1335D02*
Y1382D01*
X1559Y1402D02*
X1579Y1382D01*
X1579Y1421D02*
X1626D01*
X1559Y1441D02*
X1579Y1421D01*
Y1618D02*
X1622D01*
X1559Y1638D02*
X1579Y1618D01*
X1559Y1677D02*
X1579Y1657D01*
X1622D01*
X1602Y1638D02*
X1622D01*
X1598Y1677D02*
X1622D01*
X1566Y1806D02*
Y1807D01*
X1559Y1799D02*
X1566Y1806D01*
Y1807D02*
X1575Y1815D01*
X1559Y1795D02*
Y1799D01*
X1527Y1705D02*
X1535Y1697D01*
X1520Y1713D02*
Y1717D01*
X1527Y1705D02*
Y1705D01*
X1520Y1713D02*
X1527Y1705D01*
X1567Y1846D02*
Y1846D01*
X1575Y1854D02*
X1622D01*
X1559Y1838D02*
X1567Y1846D01*
Y1846D02*
X1575Y1854D01*
X1559Y1874D02*
Y1878D01*
X1566Y1885D02*
X1575Y1894D01*
X1622D01*
X1566Y1885D02*
Y1885D01*
X1559Y1878D02*
X1566Y1885D01*
X1535Y1933D02*
X1622D01*
X1520Y1913D02*
Y1917D01*
X1527Y1925D02*
X1535Y1933D01*
X1527Y1925D02*
Y1925D01*
X1520Y1917D02*
X1527Y1925D01*
X1535Y1972D02*
X1622D01*
X1520Y1953D02*
Y1957D01*
X1527Y1964D02*
X1535Y1972D01*
X1527Y1964D02*
Y1964D01*
X1520Y1957D02*
X1527Y1964D01*
X681Y1732D02*
Y1736D01*
X1244Y1559D02*
X1244Y1559D01*
X1244D01*
X630Y2220D02*
X678D01*
X736Y2169D02*
X791D01*
X678Y2220D02*
X729Y2169D01*
X701Y2150D02*
X772D01*
X693Y2157D02*
X701Y2150D01*
X677Y2157D02*
X693D01*
X143Y2241D02*
Y2244D01*
X642Y2398D02*
X661D01*
X746Y1638D02*
X772D01*
X732Y1652D02*
X746Y1638D01*
X772D02*
X772Y1638D01*
X553Y2022D02*
X600Y2069D01*
X479Y2022D02*
X553D01*
X600Y2069D02*
X659D01*
X469Y2032D02*
X488Y2051D01*
X555D01*
X445D02*
X461D01*
X457Y2032D02*
X469D01*
X425Y2000D02*
X457Y2032D01*
X504Y2079D02*
X665D01*
X457Y2126D02*
X504Y2079D01*
X457Y2000D02*
X479Y2022D01*
X520Y2102D02*
X520Y2102D01*
X520Y2102D02*
Y2126D01*
X378Y1953D02*
X394Y1969D01*
X378Y1930D02*
Y1953D01*
X394Y1886D02*
Y1937D01*
X425Y2079D02*
Y2115D01*
X407Y2061D02*
X425Y2079D01*
X579Y1618D02*
X717D01*
X839Y1827D02*
X839D01*
X830Y1786D02*
Y1804D01*
X841Y1815D02*
X870D01*
X827D02*
X839Y1827D01*
X839D02*
X847Y1835D01*
X575Y1815D02*
X827D01*
X830Y1804D02*
X841Y1815D01*
X847Y1835D02*
X850D01*
X546Y1855D02*
X886D01*
X539Y1862D02*
X546Y1855D01*
X421Y1862D02*
X539D01*
X886Y1854D02*
X945D01*
X886Y1855D02*
X886Y1854D01*
X791Y2169D02*
X811Y2150D01*
X622Y2220D02*
X630D01*
X618D02*
X622D01*
X598Y2201D02*
X618Y2220D01*
X732Y2169D02*
X736D01*
X729D02*
X732D01*
X665Y2079D02*
X752Y1992D01*
X772D01*
X754Y2012D02*
X831D01*
X675Y2091D02*
X754Y2012D01*
X587Y2091D02*
X675D01*
X659Y2069D02*
X755Y1973D01*
X830D01*
X614Y2189D02*
X633Y2208D01*
X658D02*
X676Y2190D01*
X633Y2208D02*
X658D01*
X598Y2174D02*
Y2201D01*
X949Y1657D02*
Y1850D01*
X945Y1854D02*
X949Y1850D01*
X378Y1819D02*
X398Y1839D01*
X421Y1862D01*
X906Y1579D02*
X909Y1582D01*
X697Y1591D02*
X709Y1579D01*
X909Y1582D02*
Y1697D01*
X709Y1579D02*
X906D01*
X890Y1717D02*
X909Y1697D01*
X949Y1657D02*
X969Y1638D01*
X551Y1590D02*
X579Y1618D01*
X689Y1713D02*
X689D01*
X713Y1736D02*
X791D01*
X689Y1713D02*
X713Y1736D01*
X713Y1531D02*
Y1540D01*
X678Y1575D02*
X713Y1540D01*
X929Y1559D02*
X929Y1559D01*
Y1559D02*
Y1559D01*
X79Y2160D02*
X81Y2162D01*
X79Y2189D02*
X84Y2195D01*
X79Y2134D02*
X83Y2138D01*
X79Y1915D02*
X84Y1920D01*
X1185Y1815D02*
Y2213D01*
X1197Y2224D01*
X1185Y1815D02*
X1205Y1795D01*
X1205Y1520D02*
X1205D01*
X1205Y1520D02*
X1205Y1520D01*
X1244Y1638D02*
X1244D01*
X1244Y1638D02*
X1244Y1638D01*
X185Y1803D02*
X256D01*
X339Y1886D02*
X366D01*
X256Y1803D02*
X339Y1886D01*
X262Y1793D02*
X327Y1858D01*
X366D01*
X195Y1793D02*
X262D01*
X294Y1873D02*
Y1919D01*
X252Y1831D02*
X294Y1873D01*
X114Y1756D02*
X189Y1831D01*
X252D01*
X79Y1728D02*
X110D01*
X185Y1803D01*
X102Y1701D02*
X195Y1793D01*
X79Y1756D02*
X114D01*
X224Y1480D02*
X236Y1492D01*
X224Y1480D02*
X224D01*
X182Y1494D02*
X274Y1402D01*
X172Y1490D02*
X270Y1392D01*
X162Y1486D02*
X266Y1382D01*
X143Y1491D02*
X262Y1372D01*
X122Y1498D02*
X258Y1362D01*
X110Y1496D02*
X256Y1350D01*
X110Y1496D02*
Y1535D01*
X256Y1350D02*
X720D01*
X122Y1498D02*
Y1571D01*
X258Y1362D02*
X723D01*
X143Y1491D02*
Y1520D01*
X262Y1372D02*
X727D01*
X162Y1486D02*
Y1528D01*
X266Y1382D02*
X732D01*
X172Y1490D02*
Y1541D01*
X270Y1392D02*
X746D01*
X182Y1494D02*
Y1520D01*
X274Y1402D02*
X752D01*
X172Y1541D02*
X174Y1543D01*
X261Y1442D02*
X262Y1441D01*
X173Y1544D02*
X174D01*
X205Y1575D01*
Y1575D01*
X262Y1441D02*
X352D01*
X394Y1483D01*
X362Y1484D02*
X378Y1500D01*
Y1528D01*
X280Y1492D02*
X299Y1512D01*
X236Y1492D02*
X280D01*
X236D02*
Y1512D01*
X236Y1512D02*
X236Y1512D01*
X155Y1535D02*
X162Y1528D01*
X150Y1933D02*
X177D01*
X122Y1905D02*
X150Y1933D01*
X122Y1839D02*
Y1905D01*
X160Y1957D02*
X170D01*
X112Y1909D02*
X160Y1957D01*
X112Y1881D02*
Y1909D01*
X177Y1909D02*
X205Y1937D01*
X154Y1909D02*
X177D01*
X169Y1866D02*
X220Y1917D01*
X146Y1866D02*
X169D01*
X220Y1917D02*
Y1953D01*
X146Y1835D02*
Y1866D01*
X122Y1811D02*
X146Y1835D01*
X166Y1953D02*
X170Y1957D01*
X173D01*
X177Y1933D02*
X192Y1949D01*
Y1956D02*
X205Y1969D01*
X192Y1949D02*
Y1956D01*
X255Y1862D02*
Y1878D01*
X234Y1841D02*
X255Y1862D01*
X171Y1841D02*
X234D01*
X150Y1975D02*
X174Y2000D01*
X96Y1865D02*
X109Y1879D01*
X109Y1879D02*
X112Y1881D01*
X109Y1879D02*
X109Y1879D01*
X79Y1838D02*
X121D01*
X122Y1839D01*
X91Y1811D02*
X122D01*
X102Y1915D02*
X150Y1963D01*
X102Y1896D02*
Y1915D01*
X94Y1888D02*
X102Y1896D01*
X79Y1888D02*
X94D01*
X236Y1870D02*
Y1870D01*
X220Y1953D02*
X236Y1969D01*
X150Y1963D02*
Y1966D01*
X174Y2000D02*
X205D01*
X197Y1984D02*
X220D01*
X126Y1953D02*
Y1980D01*
X94Y1920D02*
X126Y1953D01*
Y1980D02*
X148Y2003D01*
Y2007D01*
X270Y2029D02*
X299Y2000D01*
X114Y2000D02*
X143Y2029D01*
X114Y1971D02*
Y2000D01*
X162Y2061D02*
X407D01*
X104Y2004D02*
X162Y2061D01*
X104Y1992D02*
Y2004D01*
X158Y2071D02*
X386D01*
X83Y1996D02*
X158Y2071D01*
X79Y1996D02*
X83D01*
X154Y2081D02*
X317D01*
X97Y2024D02*
X154Y2081D01*
X79Y2024D02*
X97D01*
X148Y2007D02*
X152D01*
X165Y2019D01*
X252Y1881D02*
X255Y1878D01*
X236Y1871D02*
Y1937D01*
X252Y1881D02*
Y1953D01*
X236Y1870D02*
X236Y1871D01*
X84Y1920D02*
X94D01*
X165Y2019D02*
X249D01*
X79Y1969D02*
X81D01*
X104Y1992D01*
X205Y1969D02*
X205D01*
X504Y1799D02*
X539Y1835D01*
X772D01*
X909Y1894D02*
X929Y1874D01*
X567Y1894D02*
X909D01*
X646Y1913D02*
X732D01*
X394Y1732D02*
X409Y1717D01*
X441D01*
X445Y1838D02*
X446D01*
X394Y1787D02*
X445Y1838D01*
X394Y1764D02*
Y1787D01*
X362Y1732D02*
X378Y1748D01*
Y1819D01*
X389Y2217D02*
X390Y2217D01*
X333Y2274D02*
X389Y2217D01*
X301Y1669D02*
X334Y1637D01*
X338D01*
X301Y1669D02*
Y1699D01*
X378Y1591D02*
Y1634D01*
X437Y1648D02*
X437Y1648D01*
X362Y1677D02*
X406Y1633D01*
X346Y1666D02*
Y1669D01*
X406Y1611D02*
X408Y1608D01*
X404Y1587D02*
X413D01*
X394Y1577D02*
X404Y1587D01*
X457Y1630D02*
Y1665D01*
X413Y1587D02*
X457Y1630D01*
X425Y1585D02*
X492Y1652D01*
X362Y1677D02*
Y1701D01*
X362Y1701D02*
X362Y1701D01*
X315Y1593D02*
Y1602D01*
X299Y1577D02*
X315Y1593D01*
X299Y1575D02*
Y1577D01*
X75Y1571D02*
X110Y1535D01*
X94Y1598D02*
X122Y1571D01*
X142Y1521D02*
X143Y1520D01*
X155Y1535D02*
Y1570D01*
X142Y1521D02*
Y1537D01*
X154Y1571D02*
X155Y1570D01*
X75Y1571D02*
Y1637D01*
X154Y1571D02*
X154Y1571D01*
Y1618D01*
X134Y1545D02*
X142Y1537D01*
X202Y1543D02*
Y1543D01*
X220Y1559D02*
X236Y1543D01*
X220Y1559D02*
Y1587D01*
X220Y1528D02*
X252D01*
X205Y1512D02*
X220Y1528D01*
X134Y1545D02*
Y1616D01*
X169Y1652D01*
X223Y1642D02*
X252Y1613D01*
Y1559D02*
Y1613D01*
X268Y1575D02*
Y1611D01*
X169Y1652D02*
X227D01*
X268Y1611D01*
X236Y1575D02*
X236Y1575D01*
X216Y1618D02*
X236Y1598D01*
Y1575D02*
Y1598D01*
X177Y1642D02*
X223D01*
X154Y1618D02*
X177Y1642D01*
X216Y1618D02*
Y1622D01*
X185Y1622D02*
X201Y1606D01*
X185Y1622D02*
X185D01*
X162Y1661D02*
X228D01*
X268Y1701D02*
Y1701D01*
X228Y1661D02*
X268Y1701D01*
X99Y1598D02*
X162Y1661D01*
X94Y1598D02*
X99D01*
X75Y1637D02*
X102Y1665D01*
X116Y1630D02*
X187Y1701D01*
X94Y1630D02*
X116D01*
X236Y1701D02*
Y1701D01*
X236Y1701D02*
X236Y1701D01*
Y1693D02*
Y1701D01*
X236Y1693D02*
X236Y1693D01*
X248Y1783D02*
X268Y1764D01*
X224Y1783D02*
X248D01*
X205Y1764D02*
X224Y1783D01*
X115Y1786D02*
X171Y1841D01*
X115Y1784D02*
Y1786D01*
X409Y1890D02*
X417Y1882D01*
X409Y1890D02*
Y1953D01*
X366Y1858D02*
X394Y1886D01*
X354Y1906D02*
X378Y1930D01*
X331Y1906D02*
X354D01*
X646Y2000D02*
X648Y1999D01*
X646Y2000D02*
X646D01*
X425D02*
Y2000D01*
X394Y2000D02*
X445Y2051D01*
X362Y2157D02*
X378Y2173D01*
X394Y2189D02*
X421Y2217D01*
X614Y2126D02*
X630Y2111D01*
X551Y2000D02*
X571Y2020D01*
X268Y1921D02*
Y1937D01*
X488D02*
X520D01*
X646D02*
X677D01*
X331Y2189D02*
X344Y2202D01*
X394Y2098D02*
Y2126D01*
X425Y2115D02*
Y2126D01*
X425Y2115D02*
Y2126D01*
X299Y1937D02*
X331Y1906D01*
X457Y1921D02*
Y1937D01*
X551Y1921D02*
Y1937D01*
X583D02*
X614D01*
X331Y2157D02*
X331Y2157D01*
X583Y2126D02*
X608Y2100D01*
X614Y1968D02*
X630Y1952D01*
X551Y2126D02*
X587Y2091D01*
X680Y1997D02*
X688D01*
X677Y2126D02*
X728D01*
X520Y2000D02*
X520Y2000D01*
X409Y1953D02*
X425Y1969D01*
X361Y2001D02*
X362Y2000D01*
X362Y2000D01*
X386Y2071D02*
X406Y2091D01*
X394Y2098D02*
X402Y2091D01*
X331Y1906D02*
X331D01*
X299Y1795D02*
X331Y1764D01*
X284Y1930D02*
X294Y1919D01*
X268Y1921D02*
X277Y1912D01*
X275Y1906D02*
Y1910D01*
X277Y1912D01*
X284Y1930D02*
Y1953D01*
X299Y1937D02*
X299D01*
X284Y1953D02*
X299Y1969D01*
X90Y1947D02*
X114Y1971D01*
X79Y2024D02*
X79Y2024D01*
X79Y2051D02*
X108D01*
X147Y2091D01*
X295D01*
X112Y2079D02*
X134Y2100D01*
X79Y2079D02*
X112D01*
X134Y2100D02*
X274D01*
X317Y2081D02*
X362Y2126D01*
X295Y2091D02*
X331Y2126D01*
X274Y2100D02*
X299Y2126D01*
X161Y2264D02*
X299D01*
X313Y2250D01*
X313D01*
X326Y2236D01*
Y2209D02*
Y2236D01*
X315Y2197D02*
X326Y2209D01*
X315Y2173D02*
Y2197D01*
Y2173D02*
X331Y2157D01*
Y2157D01*
X344Y2214D02*
X346Y2217D01*
X344Y2202D02*
Y2214D01*
X307Y2212D02*
Y2217D01*
X264Y2217D02*
X268Y2213D01*
X263Y2244D02*
X283Y2224D01*
Y2193D02*
Y2224D01*
X252Y2244D02*
X263D01*
X252Y2244D02*
X252Y2244D01*
X248Y2241D02*
Y2244D01*
X129Y2324D02*
X169Y2283D01*
X165Y2274D02*
X333D01*
X169Y2283D02*
X358D01*
X421Y2220D01*
X141Y2298D02*
X165Y2274D01*
X457Y2126D02*
Y2126D01*
X601Y2050D02*
X642D01*
X571Y2020D02*
X601Y2050D01*
X520Y2126D02*
X520Y2126D01*
X299Y2205D02*
X307Y2212D01*
X299Y2189D02*
Y2205D01*
X153Y2272D02*
X161Y2264D01*
X421Y2217D02*
Y2220D01*
X97Y2324D02*
X97Y2324D01*
X129D01*
X79Y2324D02*
X97D01*
X230Y2244D02*
X248D01*
X115Y2260D02*
X151D01*
X98Y2244D02*
X115Y2260D01*
X225Y2250D02*
X230Y2244D01*
X161Y2250D02*
X225D01*
X144Y2208D02*
X144Y2208D01*
X79Y2272D02*
X153D01*
X147Y2240D02*
X220D01*
X91Y2298D02*
X141D01*
X181Y2213D02*
X181Y2213D01*
X220Y2240D02*
X232Y2228D01*
X248Y2244D02*
X248Y2244D01*
X106Y2208D02*
X144D01*
X98Y2244D02*
Y2244D01*
X181Y2213D02*
Y2221D01*
X151Y2260D02*
X161Y2250D01*
X181Y2213D02*
X205Y2189D01*
X252Y2173D02*
Y2196D01*
X232Y2216D02*
X252Y2196D01*
X232Y2216D02*
Y2228D01*
X268Y2189D02*
Y2213D01*
X378Y2201D02*
X389Y2212D01*
X378Y2173D02*
Y2201D01*
X421Y2217D02*
X421D01*
X394Y2189D02*
Y2189D01*
X268Y1969D02*
X268D01*
X252Y1953D02*
X268Y1969D01*
X110Y2110D02*
X252D01*
X268Y2126D01*
X346Y1748D02*
Y1831D01*
X205Y1764D02*
X205D01*
X331Y1732D02*
X346Y1748D01*
X488Y1764D02*
Y1788D01*
X236Y1693D02*
X236Y1693D01*
X236Y1693D02*
X236Y1693D01*
X236Y1693D02*
Y1693D01*
X531Y1434D02*
X531Y1433D01*
Y1433D02*
Y1433D01*
X433Y1453D02*
X453Y1472D01*
X394Y1453D02*
X433D01*
X421Y1433D02*
X421D01*
X440Y1414D02*
X733D01*
X453Y1472D02*
X717D01*
X720Y1350D02*
X748Y1323D01*
X906D01*
X723Y1362D02*
X752Y1333D01*
X889D01*
X727Y1372D02*
X756Y1343D01*
X792D01*
X732Y1382D02*
X752Y1362D01*
X772D01*
X746Y1392D02*
X755Y1382D01*
X871D01*
X752Y1402D02*
X752Y1402D01*
X772D01*
X394Y1483D02*
X703D01*
X531Y1433D02*
X541Y1424D01*
X729D01*
X733Y1414D02*
X740Y1421D01*
X571Y1453D02*
X590Y1434D01*
X725D01*
X703Y1483D02*
X760Y1539D01*
X532Y1493D02*
X551Y1512D01*
X480Y1493D02*
X532D01*
X717Y1472D02*
X744Y1500D01*
X606Y1453D02*
X724D01*
X752Y1480D01*
X729Y1424D02*
X746Y1441D01*
X725Y1434D02*
X751Y1460D01*
X406Y1611D02*
Y1633D01*
X457Y1665D02*
X458Y1667D01*
X437Y1648D02*
Y1652D01*
X362Y1575D02*
X378Y1591D01*
X146Y1673D02*
X205Y1732D01*
X102Y1673D02*
X146D01*
X331Y1685D02*
X346Y1669D01*
X331Y1685D02*
Y1701D01*
X79D02*
X79Y1701D01*
X102Y1665D02*
Y1673D01*
X187Y1701D02*
X205D01*
X79Y1673D02*
X102D01*
X132Y2132D02*
Y2135D01*
X130Y2138D02*
Y2138D01*
Y2138D02*
X134Y2134D01*
X205Y1543D02*
X205Y1543D01*
X746Y1441D02*
X772D01*
X751Y1460D02*
X831D01*
X740Y1421D02*
X791D01*
X811Y1441D01*
X871Y1382D02*
X890Y1402D01*
X906Y1323D02*
X929Y1346D01*
X792Y1343D02*
X811Y1362D01*
X889Y1333D02*
X909Y1353D01*
X252Y1528D02*
X268Y1512D01*
X252Y1559D02*
X268Y1543D01*
X201Y1606D02*
X220Y1587D01*
X378Y1528D02*
X394Y1543D01*
Y1484D02*
X394Y1484D01*
X394Y1484D02*
Y1512D01*
X460D02*
X480Y1493D01*
X457Y1512D02*
X460D01*
X472Y1528D02*
X488Y1543D01*
X425Y1543D02*
X441Y1528D01*
X472D01*
X744Y1500D02*
X870D01*
X760Y1539D02*
X791D01*
X929Y1362D02*
X929Y1362D01*
X929Y1346D02*
Y1362D01*
X752Y1480D02*
X772D01*
X441Y1571D02*
Y1582D01*
X449Y1590D02*
X465Y1606D01*
X449Y1590D02*
X449D01*
X489Y1606D02*
X531Y1649D01*
X441Y1582D02*
X449Y1590D01*
X465Y1606D02*
X489D01*
X531Y1649D02*
X531D01*
X474Y1593D02*
X476Y1594D01*
X511D02*
X578Y1661D01*
X476Y1594D02*
X511D01*
X599Y1693D02*
X621Y1671D01*
X580Y1661D02*
X580Y1661D01*
X729Y1677D02*
X772D01*
X578Y1661D02*
X580D01*
X582Y1652D02*
X732D01*
X621Y1671D02*
X724D01*
X728Y1642D02*
X751Y1619D01*
X580Y1661D02*
X736D01*
X740Y1658D01*
X724Y1671D02*
X729Y1677D01*
X536Y1589D02*
X589Y1642D01*
X728D01*
X520Y1589D02*
X582Y1652D01*
X646Y1575D02*
Y1595D01*
X647Y1596D01*
X612Y1577D02*
Y1594D01*
X610Y1596D02*
X612Y1594D01*
X646Y1575D02*
X646Y1575D01*
X583Y1701D02*
X583Y1701D01*
Y1681D02*
X583Y1681D01*
X583Y1681D02*
Y1701D01*
X599Y1693D02*
Y1717D01*
X614Y1732D01*
X612Y1577D02*
X614Y1575D01*
X552Y1669D02*
Y1669D01*
X531Y1649D02*
X552Y1669D01*
X492Y1652D02*
Y1661D01*
X475Y1682D02*
X499D01*
X457Y1700D02*
X475Y1682D01*
X499D02*
X511Y1669D01*
X614Y1696D02*
X628Y1682D01*
X614Y1696D02*
Y1701D01*
X551Y1575D02*
Y1590D01*
X670Y1591D02*
X697D01*
X661Y1582D02*
X670Y1591D01*
X751Y1619D02*
X820D01*
X792Y1658D02*
X799Y1665D01*
X740Y1658D02*
X792D01*
X720Y1682D02*
X735Y1697D01*
X628Y1682D02*
X720D01*
X520Y1575D02*
Y1589D01*
X536Y1559D02*
Y1589D01*
X820Y1619D02*
X831Y1629D01*
X394Y1682D02*
Y1701D01*
Y1682D02*
X402Y1674D01*
X425Y1664D02*
X437Y1652D01*
X425Y1664D02*
Y1701D01*
X831Y1629D02*
Y1773D01*
X480Y1874D02*
X772D01*
X441Y1913D02*
X480Y1874D01*
X457Y1921D02*
X467Y1911D01*
X541D01*
X694Y2100D02*
X743Y2051D01*
X608Y2100D02*
X694D01*
X658Y2111D02*
X658Y2110D01*
X736D02*
X756Y2091D01*
X630Y2111D02*
X658D01*
X658Y2110D02*
X736D01*
X614Y2000D02*
X614Y2000D01*
X614Y2000D02*
Y2008D01*
X630Y1929D02*
X638Y1921D01*
X646Y1913D01*
X870Y1815D02*
X890Y1835D01*
X535Y1775D02*
X575Y1815D01*
X681Y1736D02*
X720Y1776D01*
X831Y1773D02*
X850Y1792D01*
X820Y1776D02*
X830Y1786D01*
X850Y1792D02*
Y1795D01*
X720Y1776D02*
X820D01*
X677Y1701D02*
X689Y1713D01*
X791Y1736D02*
X811Y1756D01*
X441Y1913D02*
Y1953D01*
X571Y2020D02*
Y2020D01*
X589Y2024D02*
X681D01*
X583Y2000D02*
Y2018D01*
X589Y2024D01*
X681D02*
X752Y1953D01*
X830Y1973D02*
X850Y1953D01*
X752D02*
X772D01*
X735Y1697D02*
X791D01*
X811Y1717D01*
X504Y1748D02*
Y1799D01*
X485Y1791D02*
X488Y1788D01*
X524Y1768D02*
Y1791D01*
X520Y1764D02*
X524Y1768D01*
X430Y1791D02*
X485D01*
X488Y1732D02*
X504Y1748D01*
X799Y1665D02*
X811Y1677D01*
X661Y1560D02*
Y1582D01*
X457Y1576D02*
X474Y1593D01*
X474D01*
X870Y1500D02*
X890Y1520D01*
X791Y1539D02*
X811Y1520D01*
X831Y1460D02*
X850Y1441D01*
X909Y1353D02*
Y1371D01*
X394Y1575D02*
Y1577D01*
X425Y1575D02*
Y1585D01*
X520Y1543D02*
X536Y1559D01*
X535Y1748D02*
Y1775D01*
X79Y1862D02*
X94D01*
X284Y2173D02*
X299Y2157D01*
X792Y2130D02*
X811Y2110D01*
X732Y2130D02*
X792D01*
X728Y2126D02*
X732Y2130D01*
X752Y1933D02*
X831D01*
X688Y1997D02*
X752Y1933D01*
X791Y2051D02*
X811Y2031D01*
X743Y2051D02*
X791D01*
X756Y2091D02*
X791D01*
X831Y2012D02*
X850Y1992D01*
X791Y2091D02*
X811Y2071D01*
X520Y1732D02*
X535Y1748D01*
X410Y1771D02*
X430Y1791D01*
X410Y1748D02*
Y1771D01*
Y1748D02*
X425Y1732D01*
X457Y1700D02*
Y1701D01*
X630Y1929D02*
Y1952D01*
X646Y1544D02*
X661Y1560D01*
X541Y1911D02*
X551Y1921D01*
X646Y1543D02*
Y1544D01*
X677Y1575D02*
X678D01*
X929Y1717D02*
Y1717D01*
X583Y1512D02*
X614D01*
X831Y1933D02*
X850Y1913D01*
X457Y1575D02*
Y1576D01*
X441Y1571D02*
X441Y1571D01*
X457Y1543D02*
Y1544D01*
X441Y1560D02*
X457Y1544D01*
X441Y1560D02*
Y1571D01*
X441Y1953D02*
X457Y1969D01*
X156Y2161D02*
X157D01*
X154D02*
X156D01*
X153Y2162D02*
X154Y2161D01*
X157D02*
X177Y2142D01*
X94Y1862D02*
X96Y1865D01*
X598Y2174D02*
X614Y2158D01*
Y2157D02*
Y2158D01*
X677Y2000D02*
X680Y1997D01*
X776Y2028D02*
Y2028D01*
X630Y2173D02*
X646Y2189D01*
X630Y2142D02*
Y2173D01*
X772Y2189D02*
X776Y2185D01*
X772Y2031D02*
Y2031D01*
X630Y2142D02*
X646Y2126D01*
X772Y2068D02*
Y2071D01*
X646Y2157D02*
X647D01*
X677Y2188D01*
X109Y2112D02*
Y2112D01*
X81Y2162D02*
X153D01*
X118Y2185D02*
X166D01*
X249Y2019D02*
X268Y2000D01*
X551Y1764D02*
X583D01*
X551Y1732D02*
Y1764D01*
X80Y2109D02*
X106D01*
X109Y2112D01*
X169Y2126D02*
X205D01*
X157Y2138D02*
X169Y2126D01*
X177Y2142D02*
X220D01*
X205Y2157D02*
X205Y2157D01*
X166Y2185D02*
X194Y2157D01*
X205D01*
X163Y2208D02*
X197Y2173D01*
X144Y2208D02*
X163D01*
X197Y2173D02*
X220D01*
X92Y2195D02*
X106Y2208D01*
X84Y2195D02*
X92D01*
X94Y2217D02*
X121Y2244D01*
X79Y2217D02*
X94D01*
X79Y2217D02*
X79Y2217D01*
X79Y2244D02*
X98D01*
X79Y2298D02*
X79Y2298D01*
X220Y2173D02*
X236Y2157D01*
X283Y2193D02*
X284Y2173D01*
X213Y2213D02*
X236Y2189D01*
X252Y2173D02*
X268Y2157D01*
X614Y1968D02*
Y1969D01*
X520Y2157D02*
Y2157D01*
X488Y2157D02*
Y2157D01*
X299Y1701D02*
X301Y1699D01*
X220Y1984D02*
X236Y2000D01*
X79Y1783D02*
X79Y1784D01*
X220Y2142D02*
X236Y2126D01*
D84*
X2818Y1568D02*
Y1618D01*
X2319Y1409D02*
Y1460D01*
Y1464D01*
X2268Y1460D02*
Y1464D01*
Y1409D02*
Y1460D01*
X2818Y1568D02*
X2819Y1567D01*
X3089Y1409D02*
X3091Y1411D01*
Y1461D01*
X3189Y1409D02*
Y1461D01*
X3240Y1564D02*
X3240Y1563D01*
X3240Y1564D02*
Y1614D01*
X2880Y1409D02*
X2882Y1411D01*
Y1461D01*
X2980Y1409D02*
Y1461D01*
X3031Y1564D02*
X3031Y1563D01*
X3031Y1564D02*
Y1614D01*
X2668Y1413D02*
X2669Y1415D01*
Y1465D01*
X2768Y1413D02*
Y1465D01*
X2610Y1564D02*
Y1614D01*
Y1564D02*
X2610Y1563D01*
X2559Y1409D02*
Y1461D01*
X2461Y1411D02*
Y1461D01*
X2459Y1409D02*
X2461Y1411D01*
D85*
X3843Y1713D02*
X3939D01*
X3839Y1976D02*
X3935D01*
X4158Y1620D02*
X4227D01*
X4110Y1880D02*
Y2008D01*
Y1551D02*
Y1673D01*
X4031Y1675D02*
X4064D01*
X4029D02*
X4031D01*
X4028Y1933D02*
X4063D01*
X4029Y1804D02*
X4064D01*
X4020Y1665D02*
X4029Y1675D01*
X3988Y1665D02*
X4020D01*
X4033Y1751D02*
X4068D01*
X4020Y1764D02*
X4033Y1751D01*
X3830Y1764D02*
X4020D01*
X3819Y1752D02*
X3830Y1764D01*
X3797Y1752D02*
X3819D01*
X4024Y1632D02*
X4032Y1623D01*
X3825Y1632D02*
X4024D01*
X3815Y1622D02*
X3825Y1632D01*
X3799Y1622D02*
X3815D01*
X4032Y1623D02*
X4068D01*
X3799Y1622D02*
X3799Y1622D01*
X4068Y1623D02*
X4072Y1619D01*
X3795Y1622D02*
X3799D01*
X3795Y1665D02*
Y1709D01*
X4043Y2098D02*
X4047D01*
X4035Y2106D02*
X4043Y2098D01*
X3972Y2165D02*
Y2276D01*
X4031Y2106D02*
X4035D01*
X4047Y2098D02*
X4110Y2035D01*
X3972Y2165D02*
X4031Y2106D01*
X4112Y2010D02*
X4154D01*
X4110Y2008D02*
Y2035D01*
X4238Y1701D02*
X4264D01*
X4230Y1693D02*
X4238Y1701D01*
Y1555D02*
X4264D01*
X4230Y1563D02*
X4238Y1555D01*
X3988Y1535D02*
Y1581D01*
X4110Y1551D02*
X4116Y1545D01*
X4154D01*
X3835Y1594D02*
X3850Y1579D01*
X3927D01*
X3988Y1535D02*
X4020D01*
X4029Y1545D01*
X4064D01*
X3795Y1535D02*
Y1579D01*
X3795Y1535D02*
X3988D01*
X3701Y1622D02*
X3756D01*
X3661Y1583D02*
X3701Y1622D01*
X3756Y1776D02*
Y1795D01*
Y1752D02*
Y1776D01*
X3639Y1702D02*
Y1781D01*
X3696Y1839D01*
X3579Y1642D02*
X3639Y1702D01*
X3671Y1768D02*
X3677D01*
X3696Y1839D02*
X3756D01*
X3685Y1776D02*
X3756D01*
X3677Y1768D02*
X3685Y1776D01*
X3720Y1709D02*
X3753D01*
X3626Y1614D02*
X3720Y1709D01*
X3561Y1614D02*
X3626D01*
X3795Y1665D02*
X3988D01*
X4112Y1620D02*
X4154D01*
X4154Y1972D02*
X4181D01*
X4154Y2010D02*
X4223D01*
X4110Y1807D02*
Y1880D01*
Y1750D02*
Y1807D01*
Y1673D02*
Y1750D01*
X4154D01*
X4110Y1880D02*
X4154D01*
X3988Y1665D02*
Y1711D01*
X3553Y1656D02*
X3554D01*
X3614Y1717D01*
Y1929D02*
X3654Y1968D01*
X3614Y1717D02*
Y1929D01*
X3793Y1882D02*
X3815D01*
X4181Y1972D02*
X4201Y1953D01*
X3661Y1929D02*
X3756D01*
X3654Y1968D02*
X3756D01*
X3935Y1976D02*
X3935Y1976D01*
X4154Y1750D02*
X4223D01*
X4154Y1880D02*
X4223D01*
X4154Y1583D02*
X4154Y1583D01*
X4181D02*
X4201Y1563D01*
X4224D01*
X4154Y1583D02*
X4181D01*
X4154Y1713D02*
X4154Y1713D01*
X4181D02*
X4201Y1693D01*
X4224D01*
X4154Y1713D02*
X4181D01*
X4154Y1843D02*
X4154Y1843D01*
X4181D02*
X4201Y1823D01*
X4224D01*
X4154Y1843D02*
X4181D01*
X4230Y1823D02*
X4264D01*
X4110Y2008D02*
X4112Y2010D01*
X4112Y1805D02*
X4154D01*
X4110Y1807D02*
X4112Y1805D01*
X4112Y1675D02*
X4154D01*
X4110Y1673D02*
X4112Y1675D01*
X4230Y1953D02*
X4264D01*
X4201D02*
X4224D01*
X4154Y1972D02*
X4154Y1972D01*
X4112Y1935D02*
X4154D01*
X4223Y2010D02*
X4224Y2009D01*
X4016Y1894D02*
X4029Y1881D01*
X3815Y1882D02*
X3826Y1894D01*
X4016D01*
X3988Y1795D02*
Y1841D01*
Y1795D02*
Y1795D01*
X3986Y1843D02*
X3988Y1841D01*
Y1795D02*
X4020D01*
X3795D02*
X3988D01*
X4064Y1804D02*
X4065Y1805D01*
X4020Y1795D02*
X4029Y1804D01*
X3882Y1826D02*
X3911D01*
X3850D02*
X3882D01*
Y1858D02*
X3912D01*
X3850D02*
X3882D01*
X4029Y2011D02*
X4064D01*
X4016Y2024D02*
X4029Y2011D01*
X3898Y2024D02*
X4016D01*
X4024Y1929D02*
X4028Y1933D01*
X3992Y1929D02*
X4024D01*
X3795Y1929D02*
X3795Y1929D01*
X3992D01*
X4029Y1881D02*
X4064D01*
X3992Y1929D02*
Y1974D01*
X4063Y1933D02*
X4065Y1935D01*
X4064Y2011D02*
X4065Y2010D01*
X3886Y2012D02*
X3898Y2024D01*
X3795Y2012D02*
X3799D01*
X3799Y2012D01*
X3886D01*
X3756Y1882D02*
Y1929D01*
X3795Y1795D02*
Y1839D01*
X3795Y1839D02*
X3795Y1839D01*
X3795Y1929D02*
Y1968D01*
Y1929D02*
X3795Y1929D01*
X3795Y1968D02*
X3795Y1969D01*
D86*
X3933Y713D02*
X3937D01*
X3933Y713D02*
X3933Y713D01*
X3756Y1795D02*
X3756Y1795D01*
X3756Y1929D02*
X3756Y1929D01*
X3933Y1067D02*
X3933Y1067D01*
X3937D01*
X3756Y1622D02*
Y1665D01*
D87*
X1539Y2492D02*
D03*
D88*
X1461D02*
D03*
X1224D02*
D03*
X1303D02*
D03*
X1382D02*
D03*
X1146D02*
D03*
D89*
X3024Y252D02*
D03*
X3310Y695D02*
D03*
X3210D02*
D03*
X3010D02*
D03*
X3060Y795D02*
D03*
X3110Y695D02*
D03*
X3160Y795D02*
D03*
X3260D02*
D03*
X3346Y252D02*
D03*
X2924D02*
D03*
X3360Y795D02*
D03*
X3446Y252D02*
D03*
D90*
X2960Y445D02*
D03*
X3410D02*
D03*
D91*
X3506Y565D02*
D03*
X2864D02*
D03*
D92*
X3031Y1799D02*
D03*
Y1878D02*
D03*
X1929Y1799D02*
D03*
X2008D02*
D03*
X2087D02*
D03*
X2165D02*
D03*
X2244D02*
D03*
X2323D02*
D03*
X1929Y1878D02*
D03*
X2008D02*
D03*
X2087D02*
D03*
X2165D02*
D03*
X2244D02*
D03*
X2323D02*
D03*
X2402Y1799D02*
D03*
X2480D02*
D03*
X2559D02*
D03*
X2638D02*
D03*
X2402Y1878D02*
D03*
X2480D02*
D03*
X2559D02*
D03*
X2638D02*
D03*
X2717Y1799D02*
D03*
X2795D02*
D03*
X2874D02*
D03*
X2953D02*
D03*
X2717Y1878D02*
D03*
X2795D02*
D03*
X2874D02*
D03*
X2953D02*
D03*
D93*
X4606Y2439D02*
D03*
Y117D02*
D03*
X354D02*
D03*
Y2439D02*
D03*
M02*
