G04*
G04 #@! TF.GenerationSoftware,Altium Limited,Altium Designer,20.2.6 (244)*
G04*
G04 Layer_Physical_Order=4*
G04 Layer_Color=8388736*
%FSLAX23Y23*%
%MOIN*%
G70*
G04*
G04 #@! TF.SameCoordinates,639FE5A6-2B3C-4C9F-8317-67482E68A1A7*
G04*
G04*
G04 #@! TF.FilePolarity,Positive*
G04*
G01*
G75*
%ADD12C,0.008*%
%ADD24C,0.024*%
%ADD51C,0.035*%
%ADD67C,0.028*%
%ADD68C,0.039*%
%ADD72C,0.063*%
%ADD77C,0.020*%
%ADD78C,0.005*%
%ADD96C,0.039*%
%ADD97C,0.012*%
%ADD98C,0.020*%
%ADD99C,0.016*%
%ADD100C,0.217*%
G04:AMPARAMS|DCode=101|XSize=51mil|YSize=51mil|CornerRadius=20mil|HoleSize=0mil|Usage=FLASHONLY|Rotation=270.000|XOffset=0mil|YOffset=0mil|HoleType=Round|Shape=RoundedRectangle|*
%AMROUNDEDRECTD101*
21,1,0.051,0.010,0,0,270.0*
21,1,0.010,0.051,0,0,270.0*
1,1,0.041,-0.005,-0.005*
1,1,0.041,-0.005,0.005*
1,1,0.041,0.005,0.005*
1,1,0.041,0.005,-0.005*
%
%ADD101ROUNDEDRECTD101*%
%ADD102C,0.063*%
%ADD103R,0.059X0.059*%
%ADD104C,0.055*%
%ADD105C,0.087*%
%ADD106C,0.157*%
G04:AMPARAMS|DCode=107|XSize=51mil|YSize=51mil|CornerRadius=20mil|HoleSize=0mil|Usage=FLASHONLY|Rotation=0.000|XOffset=0mil|YOffset=0mil|HoleType=Round|Shape=RoundedRectangle|*
%AMROUNDEDRECTD107*
21,1,0.051,0.010,0,0,0.0*
21,1,0.010,0.051,0,0,0.0*
1,1,0.041,0.005,-0.005*
1,1,0.041,-0.005,-0.005*
1,1,0.041,-0.005,0.005*
1,1,0.041,0.005,0.005*
%
%ADD107ROUNDEDRECTD107*%
%ADD108C,0.031*%
%ADD109C,0.012*%
%ADD110C,0.018*%
D12*
X1205Y2110D02*
X1207Y2112D01*
Y2139D01*
X1205Y2141D02*
Y2144D01*
Y2141D02*
X1207Y2139D01*
X1124Y1376D02*
Y1435D01*
X1124Y1370D02*
Y1376D01*
X1203Y1876D02*
Y1911D01*
Y1955D02*
Y1990D01*
X598Y2290D02*
X673Y2365D01*
X598Y2183D02*
Y2290D01*
X673Y2365D02*
Y2394D01*
X1106Y1972D02*
X1107D01*
X322Y1646D02*
X323Y1645D01*
X1224Y2012D02*
X1224D01*
X1307Y1657D02*
X1307D01*
X248Y1657D02*
X260Y1646D01*
X736Y1487D02*
X737Y1486D01*
X732Y1420D02*
X736Y1424D01*
X983Y1776D02*
X983Y1776D01*
X332Y1427D02*
Y1450D01*
Y1427D02*
X339Y1420D01*
X297Y1484D02*
X332Y1450D01*
X1242Y1754D02*
Y1797D01*
X1245Y1800D01*
X1028Y2091D02*
X1028Y2091D01*
X1245Y1807D02*
Y1835D01*
X1224Y1854D02*
X1225D01*
X1245Y1835D01*
Y1807D02*
X1245Y1807D01*
Y1800D02*
Y1807D01*
X260Y1646D02*
X322D01*
X701Y1969D02*
X703Y1971D01*
X1067Y1579D02*
Y1579D01*
X421Y2217D02*
X421Y2217D01*
X370Y2051D02*
X370Y2051D01*
X370Y2051D02*
X370D01*
X1145Y1657D02*
X1146D01*
X1106Y1618D02*
X1106D01*
X1067Y1657D02*
Y1657D01*
X1106Y1618D02*
Y1618D01*
Y1618D02*
Y1618D01*
X327Y1016D02*
Y1020D01*
X409Y685D02*
X411D01*
X413D01*
D24*
X1704Y880D02*
D03*
X1892Y906D02*
D03*
X1047Y880D02*
D03*
X1209Y2260D02*
D03*
X2260Y890D02*
D03*
X2260Y920D02*
D03*
X2260Y984D02*
D03*
X2260Y953D02*
D03*
Y858D02*
D03*
Y827D02*
D03*
X1236Y909D02*
D03*
X1177Y2291D02*
D03*
Y2260D02*
D03*
X989Y1121D02*
D03*
X1933Y700D02*
D03*
X1276D02*
D03*
X1091Y1121D02*
D03*
X1744Y976D02*
D03*
X1839D02*
D03*
X1714D02*
D03*
X1807D02*
D03*
X1776D02*
D03*
X1870D02*
D03*
X661Y701D02*
D03*
X664Y752D02*
D03*
X1681Y261D02*
D03*
Y346D02*
D03*
X1024Y261D02*
D03*
Y346D02*
D03*
D51*
X1927Y1534D02*
D03*
Y1494D02*
D03*
Y1455D02*
D03*
X1966D02*
D03*
Y1494D02*
D03*
Y1534D02*
D03*
X2006Y1455D02*
D03*
Y1494D02*
D03*
Y1534D02*
D03*
X4606Y2530D02*
D03*
Y2352D02*
D03*
X4518Y2441D02*
D03*
X4695D02*
D03*
X4547Y2372D02*
D03*
X4675Y2382D02*
D03*
X4547Y2510D02*
D03*
X4675Y2500D02*
D03*
X4537Y59D02*
D03*
X4665Y49D02*
D03*
X4537Y177D02*
D03*
X4665Y187D02*
D03*
X4518Y118D02*
D03*
X4695D02*
D03*
X4606Y207D02*
D03*
Y30D02*
D03*
X354D02*
D03*
Y207D02*
D03*
X443Y118D02*
D03*
X266D02*
D03*
X413Y187D02*
D03*
X285Y177D02*
D03*
X413Y49D02*
D03*
X285Y59D02*
D03*
X423Y2500D02*
D03*
X295Y2510D02*
D03*
X423Y2382D02*
D03*
X295Y2372D02*
D03*
X443Y2441D02*
D03*
X266D02*
D03*
X354Y2352D02*
D03*
Y2530D02*
D03*
D67*
X3850Y1120D02*
D03*
Y1151D02*
D03*
X3882D02*
D03*
Y1120D02*
D03*
X3882Y765D02*
D03*
Y797D02*
D03*
X3850D02*
D03*
Y765D02*
D03*
X3850Y1474D02*
D03*
Y1506D02*
D03*
X3882D02*
D03*
Y1474D02*
D03*
X3850Y2179D02*
D03*
Y2210D02*
D03*
X3882D02*
D03*
Y2179D02*
D03*
X3850Y1827D02*
D03*
Y1858D02*
D03*
X3882D02*
D03*
Y1827D02*
D03*
D68*
X1650Y2335D02*
D03*
X2835Y547D02*
D03*
X2614D02*
D03*
X2669D02*
D03*
X2724D02*
D03*
X2780D02*
D03*
X2961Y728D02*
D03*
X4622Y1646D02*
D03*
X4110Y118D02*
D03*
X3232Y1293D02*
D03*
X4236Y1622D02*
D03*
Y1972D02*
D03*
X4559Y1646D02*
D03*
X4496D02*
D03*
X4843Y2248D02*
D03*
X2961Y882D02*
D03*
Y831D02*
D03*
Y780D02*
D03*
X1807Y1598D02*
D03*
X4705Y1378D02*
D03*
X2071Y1307D02*
D03*
X3969Y886D02*
D03*
X3972Y1217D02*
D03*
X173Y1319D02*
D03*
Y894D02*
D03*
X4705Y1299D02*
D03*
X4028Y118D02*
D03*
X4366Y331D02*
D03*
X409Y685D02*
D03*
X4685Y1646D02*
D03*
X411Y1130D02*
D03*
X4193Y118D02*
D03*
X1874Y433D02*
D03*
X1512Y370D02*
D03*
D72*
X4719Y431D02*
D03*
Y605D02*
D03*
D77*
X909Y2091D02*
D03*
X1224Y1815D02*
D03*
X1264D02*
D03*
X341Y1791D02*
D03*
X303Y1792D02*
D03*
X2563Y1004D02*
D03*
X433Y1724D02*
D03*
X424Y1677D02*
D03*
X1625Y1792D02*
D03*
X1006Y1303D02*
D03*
X1343Y1894D02*
D03*
X1343Y1697D02*
D03*
X1343Y1854D02*
D03*
X1442Y1330D02*
D03*
X1439Y1223D02*
D03*
X1303Y1894D02*
D03*
X1583Y1268D02*
D03*
X1224Y1500D02*
D03*
X1185D02*
D03*
X1223Y1287D02*
D03*
X1272Y1248D02*
D03*
X909Y1579D02*
D03*
Y1618D02*
D03*
Y2220D02*
D03*
X850D02*
D03*
X273Y1673D02*
D03*
X297Y1602D02*
D03*
X333Y1484D02*
D03*
X169Y1594D02*
D03*
X260Y1602D02*
D03*
X323Y1645D02*
D03*
X307Y1823D02*
D03*
X303Y2051D02*
D03*
X299Y2217D02*
D03*
X264D02*
D03*
X2039Y669D02*
D03*
X831Y2130D02*
D03*
X1028Y2244D02*
D03*
X942Y1270D02*
D03*
X850D02*
D03*
X1644Y1835D02*
D03*
X1224Y1894D02*
D03*
X2049Y731D02*
D03*
X2921Y1043D02*
D03*
X2480Y1043D02*
D03*
X2520Y1091D02*
D03*
X1756Y1878D02*
D03*
X578Y2217D02*
D03*
X486D02*
D03*
X521D02*
D03*
X551D02*
D03*
X1030Y1272D02*
D03*
X370Y2098D02*
D03*
X370Y2024D02*
D03*
X343Y1626D02*
D03*
X398Y1650D02*
D03*
X398Y1625D02*
D03*
X398Y1677D02*
D03*
X483Y1492D02*
D03*
X677Y2108D02*
D03*
X266Y1791D02*
D03*
X370Y1457D02*
D03*
X358Y1823D02*
D03*
X1461Y1201D02*
D03*
X173Y1717D02*
D03*
X488Y2051D02*
D03*
X124Y2170D02*
D03*
X339Y2244D02*
D03*
X669Y1327D02*
D03*
X161Y1693D02*
D03*
X147Y2161D02*
D03*
X701Y1524D02*
D03*
X736Y1518D02*
D03*
X701Y1599D02*
D03*
X582Y1679D02*
D03*
X232Y2020D02*
D03*
X542Y1600D02*
D03*
X176Y1670D02*
D03*
X205Y1791D02*
D03*
X705D02*
D03*
X583Y1791D02*
D03*
X567Y1600D02*
D03*
X184Y1483D02*
D03*
X260Y1480D02*
D03*
X457Y1492D02*
D03*
X421Y1476D02*
D03*
X744Y1772D02*
D03*
X647Y1911D02*
D03*
X2488Y630D02*
D03*
X2575D02*
D03*
X2579Y720D02*
D03*
X2555Y697D02*
D03*
X2559Y807D02*
D03*
X2756Y807D02*
D03*
X2874Y768D02*
D03*
X2559D02*
D03*
X2598Y807D02*
D03*
X437Y1787D02*
D03*
X496Y1791D02*
D03*
X411Y1854D02*
D03*
X308Y1673D02*
D03*
X231Y1791D02*
D03*
X267Y2019D02*
D03*
X252Y2098D02*
D03*
X206Y1909D02*
D03*
X185Y1969D02*
D03*
X498Y1686D02*
D03*
X181Y1512D02*
D03*
X398Y1461D02*
D03*
X740Y1362D02*
D03*
X2925Y925D02*
D03*
X2441Y807D02*
D03*
X2874Y886D02*
D03*
X2835Y846D02*
D03*
X1724Y1902D02*
D03*
X1697D02*
D03*
X1756Y1811D02*
D03*
X1756Y1850D02*
D03*
X1776Y1831D02*
D03*
X1811Y1776D02*
D03*
X1783Y1776D02*
D03*
Y1803D02*
D03*
Y1327D02*
D03*
X1303Y1815D02*
D03*
X1343Y1776D02*
D03*
X1539Y1618D02*
D03*
X1421Y1815D02*
D03*
X1382D02*
D03*
X1343D02*
D03*
X1539Y1736D02*
D03*
X1472Y1268D02*
D03*
X2756Y1004D02*
D03*
Y1043D02*
D03*
X1461Y1854D02*
D03*
Y1815D02*
D03*
X1539Y1697D02*
D03*
X1500Y1579D02*
D03*
X1539D02*
D03*
Y1500D02*
D03*
X1539Y1539D02*
D03*
X1500Y1539D02*
D03*
X1343Y1461D02*
D03*
Y1500D02*
D03*
X1343Y1539D02*
D03*
X1303Y1461D02*
D03*
X1461Y1894D02*
D03*
X1539Y1854D02*
D03*
X1539Y1894D02*
D03*
X1559Y1287D02*
D03*
X1579Y1894D02*
D03*
X1579Y1933D02*
D03*
X1539D02*
D03*
Y1815D02*
D03*
X1500Y1240D02*
D03*
X1479Y1332D02*
D03*
X1441Y1303D02*
D03*
X2835Y1083D02*
D03*
X2835Y1043D02*
D03*
Y1004D02*
D03*
X2795Y965D02*
D03*
X2520Y1004D02*
D03*
Y965D02*
D03*
X2480D02*
D03*
X2441D02*
D03*
X2776Y724D02*
D03*
X2717Y807D02*
D03*
X2441Y768D02*
D03*
X2480Y768D02*
D03*
X2717Y965D02*
D03*
X2835Y886D02*
D03*
Y925D02*
D03*
Y965D02*
D03*
X2677D02*
D03*
X2717Y1004D02*
D03*
X2638Y807D02*
D03*
Y768D02*
D03*
X2520D02*
D03*
X2795Y925D02*
D03*
Y886D02*
D03*
X2756D02*
D03*
Y925D02*
D03*
Y965D02*
D03*
X2717Y886D02*
D03*
Y925D02*
D03*
X2677D02*
D03*
Y886D02*
D03*
Y807D02*
D03*
X2480Y807D02*
D03*
X2520D02*
D03*
X2638Y965D02*
D03*
X2598D02*
D03*
X2638Y886D02*
D03*
Y925D02*
D03*
X2598D02*
D03*
Y886D02*
D03*
X2520Y925D02*
D03*
Y886D02*
D03*
X2441Y925D02*
D03*
Y886D02*
D03*
X1303Y1854D02*
D03*
X1461Y1736D02*
D03*
X1224Y1933D02*
D03*
X1283Y1336D02*
D03*
X1622Y2110D02*
D03*
X378Y1484D02*
D03*
X1303Y1539D02*
D03*
X1579Y1736D02*
D03*
X831Y1697D02*
D03*
X1106Y1303D02*
D03*
X268Y1421D02*
D03*
X1087Y1272D02*
D03*
X1067Y1303D02*
D03*
X882Y1270D02*
D03*
X913D02*
D03*
X518Y1492D02*
D03*
X1185Y1736D02*
D03*
X1185Y1697D02*
D03*
X1579Y1382D02*
D03*
X1500Y1500D02*
D03*
Y1461D02*
D03*
X1087Y1341D02*
D03*
X1004Y1272D02*
D03*
X969Y1272D02*
D03*
X1224Y1539D02*
D03*
X1224Y1854D02*
D03*
X1303Y1776D02*
D03*
X1500Y1697D02*
D03*
X1461D02*
D03*
X1303Y1500D02*
D03*
X1421Y1382D02*
D03*
X1382Y1579D02*
D03*
X1303D02*
D03*
X1382Y1618D02*
D03*
X1343D02*
D03*
Y1657D02*
D03*
X1421Y1618D02*
D03*
X1539Y1461D02*
D03*
X1264Y1776D02*
D03*
X1382Y2012D02*
D03*
X1264Y1579D02*
D03*
X1028Y2051D02*
D03*
Y2091D02*
D03*
Y2169D02*
D03*
X1146Y1421D02*
D03*
X1224Y1579D02*
D03*
X1224Y1618D02*
D03*
X1028Y1421D02*
D03*
X1028Y1461D02*
D03*
Y1500D02*
D03*
X1303Y1421D02*
D03*
X1185Y1461D02*
D03*
X1264Y1500D02*
D03*
X1224Y1461D02*
D03*
X1224Y1421D02*
D03*
X1382Y1461D02*
D03*
X295Y1457D02*
D03*
X297Y1484D02*
D03*
X224Y1480D02*
D03*
X118Y1732D02*
D03*
X169Y2217D02*
D03*
X177Y2020D02*
D03*
X149Y2126D02*
D03*
X614Y2018D02*
D03*
X488Y2106D02*
D03*
X508Y2087D02*
D03*
X453Y2098D02*
D03*
X748Y2031D02*
D03*
Y2067D02*
D03*
X717Y1878D02*
D03*
X736Y1701D02*
D03*
X750Y1632D02*
D03*
X618Y1599D02*
D03*
X648D02*
D03*
X673D02*
D03*
X677Y2217D02*
D03*
X553Y2106D02*
D03*
X646Y2217D02*
D03*
X748Y1909D02*
D03*
X677Y2018D02*
D03*
X646D02*
D03*
X717Y1909D02*
D03*
X744Y1798D02*
D03*
X531Y1791D02*
D03*
X472Y1614D02*
D03*
X453Y1598D02*
D03*
X517Y1600D02*
D03*
X593D02*
D03*
X528Y1681D02*
D03*
X555Y1681D02*
D03*
X492Y1598D02*
D03*
X646Y1492D02*
D03*
X709Y1701D02*
D03*
X791Y1736D02*
D03*
X736Y1736D02*
D03*
X677Y1791D02*
D03*
X646Y1791D02*
D03*
X949Y1736D02*
D03*
X831Y1933D02*
D03*
X677Y1911D02*
D03*
X870Y1815D02*
D03*
X949D02*
D03*
X791Y1697D02*
D03*
X909Y1815D02*
D03*
X553Y1492D02*
D03*
X614D02*
D03*
X583D02*
D03*
X870Y1539D02*
D03*
X831Y1736D02*
D03*
X791Y1657D02*
D03*
X425Y1622D02*
D03*
X437Y1815D02*
D03*
X390Y1909D02*
D03*
X496D02*
D03*
X335Y1673D02*
D03*
X215Y1598D02*
D03*
X909Y1697D02*
D03*
X772Y2217D02*
D03*
X791Y2130D02*
D03*
X600Y2106D02*
D03*
X646Y2108D02*
D03*
X555Y2024D02*
D03*
X613Y1911D02*
D03*
X831Y1854D02*
D03*
X870Y1933D02*
D03*
X703Y1971D02*
D03*
X493Y2025D02*
D03*
X1185Y1657D02*
D03*
X1264Y1539D02*
D03*
X1185Y1539D02*
D03*
X949Y1697D02*
D03*
X909Y1657D02*
D03*
X870D02*
D03*
X531Y1909D02*
D03*
X559Y1909D02*
D03*
X181Y1539D02*
D03*
X189Y1622D02*
D03*
X791Y1854D02*
D03*
X949Y1500D02*
D03*
X791Y1618D02*
D03*
X831Y1618D02*
D03*
X831Y1657D02*
D03*
X949Y1579D02*
D03*
X614Y1791D02*
D03*
X142Y2236D02*
D03*
X870Y1382D02*
D03*
X247Y1630D02*
D03*
X376Y1791D02*
D03*
X269Y1909D02*
D03*
X231D02*
D03*
X217Y1823D02*
D03*
X266D02*
D03*
X302Y2020D02*
D03*
X305Y1909D02*
D03*
X223Y1882D02*
D03*
X268Y1882D02*
D03*
X453Y2043D02*
D03*
X427Y2043D02*
D03*
X340Y1909D02*
D03*
X949Y1618D02*
D03*
X870Y1697D02*
D03*
X909Y1736D02*
D03*
X909Y1776D02*
D03*
X205Y2020D02*
D03*
X283Y2098D02*
D03*
X831Y1776D02*
D03*
X791D02*
D03*
X870D02*
D03*
X870Y1736D02*
D03*
X421Y2217D02*
D03*
X752Y2130D02*
D03*
X909Y2169D02*
D03*
X870D02*
D03*
X831D02*
D03*
X311Y2098D02*
D03*
X370Y2051D02*
D03*
X189Y2244D02*
D03*
X217D02*
D03*
X398Y2098D02*
D03*
X425D02*
D03*
X433Y2244D02*
D03*
X504D02*
D03*
X949Y1657D02*
D03*
X587Y1909D02*
D03*
X949Y1933D02*
D03*
X909Y2051D02*
D03*
X949Y2091D02*
D03*
X909Y2130D02*
D03*
X949Y2130D02*
D03*
Y1972D02*
D03*
Y2012D02*
D03*
Y2051D02*
D03*
X244Y2244D02*
D03*
X397Y2244D02*
D03*
X366Y2244D02*
D03*
X311D02*
D03*
X280D02*
D03*
X870Y1894D02*
D03*
X791Y1972D02*
D03*
X909Y1933D02*
D03*
X870Y1972D02*
D03*
X831Y2012D02*
D03*
X791D02*
D03*
X1500Y1854D02*
D03*
X1421Y1697D02*
D03*
X1382Y1697D02*
D03*
X1382Y1736D02*
D03*
X1421D02*
D03*
X1343D02*
D03*
X1622Y2189D02*
D03*
Y2150D02*
D03*
X1579Y2012D02*
D03*
X1539Y2051D02*
D03*
X1500Y1894D02*
D03*
X1303Y2169D02*
D03*
X1421D02*
D03*
X1343D02*
D03*
X1461Y2091D02*
D03*
X1539Y2091D02*
D03*
X1579Y2130D02*
D03*
X1500Y1933D02*
D03*
X1461D02*
D03*
X1579Y1579D02*
D03*
X1500Y1815D02*
D03*
X1500Y2130D02*
D03*
X1382Y2169D02*
D03*
X1461D02*
D03*
X1500D02*
D03*
X1539D02*
D03*
X1579D02*
D03*
X1008Y2217D02*
D03*
X1382Y2091D02*
D03*
X1067Y1815D02*
D03*
X1028Y1854D02*
D03*
X1067Y1894D02*
D03*
X1106Y1972D02*
D03*
X1224Y2012D02*
D03*
Y1972D02*
D03*
Y1736D02*
D03*
X1185Y1776D02*
D03*
X1382Y1500D02*
D03*
X1500Y1736D02*
D03*
X1382Y1894D02*
D03*
X1343Y2012D02*
D03*
X1303Y2130D02*
D03*
X1146Y2091D02*
D03*
X1106D02*
D03*
X1028Y2130D02*
D03*
X1106D02*
D03*
X1185D02*
D03*
X1028Y1382D02*
D03*
X870Y1461D02*
D03*
X1028Y1618D02*
D03*
Y1579D02*
D03*
X1067D02*
D03*
X1185Y1618D02*
D03*
X1067Y1657D02*
D03*
X1106Y1618D02*
D03*
X1146Y1657D02*
D03*
Y1736D02*
D03*
X1106D02*
D03*
X1028Y1697D02*
D03*
Y1776D02*
D03*
X1067Y1736D02*
D03*
X1106Y1776D02*
D03*
Y1815D02*
D03*
X1185Y1854D02*
D03*
X1146Y1894D02*
D03*
Y2051D02*
D03*
X1028Y1972D02*
D03*
X1067Y2012D02*
D03*
Y1933D02*
D03*
X1028Y1894D02*
D03*
Y1933D02*
D03*
X870Y2012D02*
D03*
Y2051D02*
D03*
Y2091D02*
D03*
D78*
X437Y1787D02*
X437Y1787D01*
D96*
X1695Y890D02*
X1765Y820D01*
X1048Y882D02*
X1111Y819D01*
X810Y885D02*
X938D01*
X4430Y1019D02*
Y1020D01*
X4885Y275D02*
X4927Y317D01*
X4132Y578D02*
X4350Y796D01*
X4134Y425D02*
X4284Y275D01*
X1606Y484D02*
X1736D01*
X1284Y1336D02*
X1375D01*
X411Y685D02*
Y774D01*
X1165Y1281D02*
Y1335D01*
X1527Y874D02*
X1542Y890D01*
X1695D01*
X1111Y819D02*
X1228D01*
X413Y1220D02*
X453D01*
X1299Y874D02*
Y988D01*
X374Y1220D02*
X413D01*
X2461Y1380D02*
X2669D01*
X756Y102D02*
X3551D01*
X3886Y437D01*
X441Y327D02*
X665Y102D01*
X756D01*
X205Y327D02*
X441D01*
X756Y831D02*
X810Y885D01*
X866Y1161D02*
X1551D01*
X1112Y1228D02*
X1165Y1281D01*
X642Y1228D02*
X1112D01*
X1421Y1382D02*
X1524D01*
X2088Y1420D02*
X2190D01*
X2843Y1380D02*
X3323D01*
X2669D02*
X2843D01*
X4350Y936D02*
X4350D01*
X4236Y1050D02*
Y1299D01*
Y1050D02*
X4350Y936D01*
X4350Y796D02*
Y936D01*
X4416D01*
X1933Y700D02*
Y768D01*
X1882Y819D02*
X1933Y768D01*
X756Y701D02*
Y831D01*
X2843Y1244D02*
X3322D01*
X2285D02*
X2843D01*
X2172Y1131D02*
X2285Y1244D01*
X3322D02*
X3408Y1331D01*
X3453D01*
X3356Y1413D02*
X3453D01*
X3323Y1380D02*
X3356Y1413D01*
X1929Y1673D02*
X1937D01*
X2004Y1606D02*
X3673D01*
X1937Y1673D02*
X2004Y1606D01*
X2058Y1391D02*
X2088Y1420D01*
X2190D02*
X2230Y1380D01*
X2031Y1391D02*
X2058D01*
X1871D02*
X2031D01*
X2230Y1380D02*
X2461D01*
X1756Y1070D02*
X1817Y1131D01*
X1949D01*
X1299Y1209D02*
X1319Y1228D01*
X1551Y1161D02*
X1736Y1346D01*
X1319Y1228D02*
Y1335D01*
X850Y1145D02*
X866Y1161D01*
X2598Y350D02*
X2685Y437D01*
X1848Y300D02*
X1898Y350D01*
X2598Y350D01*
X1941Y1957D02*
X3145D01*
X3378Y1713D02*
Y1723D01*
X3145Y1957D02*
X3378Y1723D01*
X1949Y1131D02*
X2172D01*
X1949D02*
Y1185D01*
X4439Y959D02*
Y1010D01*
X4416Y936D02*
X4439Y959D01*
X4430Y1019D02*
X4439Y1010D01*
X4429Y1020D02*
Y1154D01*
X4284Y275D02*
X4885D01*
X3705Y2091D02*
Y2146D01*
Y1803D02*
Y2091D01*
X3673Y1772D02*
X3705Y1803D01*
X3673Y1665D02*
Y1772D01*
X3642Y815D02*
Y1016D01*
X3673Y1047D01*
Y1417D01*
X3937Y1181D02*
X3972Y1217D01*
X3937Y1076D02*
Y1181D01*
X3754Y809D02*
Y893D01*
X3935Y1074D01*
X3680Y735D02*
X3754Y809D01*
X3547Y177D02*
X4020Y650D01*
X2224Y177D02*
X3547D01*
X3587Y735D02*
X3680D01*
X3482Y631D02*
X3587Y735D01*
X3014Y665D02*
X3048Y631D01*
X2930Y665D02*
X3014D01*
X3048Y631D02*
X3244D01*
Y329D02*
Y631D01*
X3482D01*
X3470Y327D02*
X3541Y256D01*
X3241Y327D02*
X3470D01*
X3090D02*
X3241D01*
X3019Y256D02*
X3090Y327D01*
X1765Y820D02*
X1881D01*
X1228Y819D02*
X1276D01*
Y818D02*
X1276D01*
X1299Y841D01*
Y874D01*
X1527D01*
X1276Y700D02*
Y814D01*
X1276Y814D01*
X465Y1051D02*
X642Y1228D01*
X736Y1424D02*
Y1487D01*
X339Y1420D02*
X457D01*
X732D02*
X830D01*
X614D02*
X732D01*
X583D02*
X614D01*
X553D02*
X583D01*
X457D02*
X553D01*
X292Y1374D02*
X339Y1420D01*
X140Y1374D02*
X292D01*
X71D02*
X140D01*
X67Y1370D02*
X71Y1374D01*
X67Y465D02*
X130Y402D01*
X67Y465D02*
Y1370D01*
X1736Y1346D02*
Y1610D01*
X1264Y1355D02*
X1283Y1336D01*
X4134Y425D02*
Y579D01*
X1264Y1355D02*
Y1382D01*
X1929Y1799D02*
Y1878D01*
X3673Y1417D02*
Y1606D01*
Y1661D01*
X130Y402D02*
X130D01*
X1375Y1336D02*
X1421Y1382D01*
X465Y965D02*
Y1051D01*
X3909Y2350D02*
X4469D01*
X4705Y2114D01*
Y1780D02*
Y2114D01*
Y1780D02*
X4862Y1622D01*
Y1535D02*
Y1622D01*
Y1457D02*
Y1535D01*
X3705Y2146D02*
X3909Y2350D01*
X4075Y626D02*
Y882D01*
X3890Y441D02*
X4075Y626D01*
X4020Y650D02*
Y1752D01*
Y1925D01*
X4646Y1047D02*
Y1165D01*
X1799Y1673D02*
X1929D01*
X1736Y1610D02*
X1799Y1673D01*
X1488Y748D02*
X1606Y630D01*
X409Y776D02*
Y909D01*
X409D02*
X465Y965D01*
X2008Y1799D02*
X2013Y1794D01*
X1929Y1799D02*
X2008D01*
X1929Y1673D02*
Y1799D01*
X327Y1043D02*
X408Y1125D01*
X413Y776D02*
X453D01*
X409Y776D02*
X409Y776D01*
X374Y776D02*
X409D01*
X130Y402D02*
X205Y327D01*
X1929Y1878D02*
X2008D01*
X756Y102D02*
X756Y102D01*
X4075Y882D02*
Y917D01*
X2008Y1799D02*
Y1878D01*
X1606Y482D02*
Y630D01*
X756Y535D02*
Y701D01*
Y102D02*
Y276D01*
X413Y1130D02*
Y1220D01*
X756Y276D02*
Y535D01*
X327Y1020D02*
Y1043D01*
X130Y402D02*
Y402D01*
D97*
X1384Y1813D02*
X1402Y1831D01*
X1087Y1407D02*
Y1559D01*
X1295Y1929D02*
X1318Y1952D01*
X1382D01*
X1114Y2276D02*
X1205Y2185D01*
Y2144D02*
Y2185D01*
Y2031D02*
Y2110D01*
Y2031D02*
X1224Y2012D01*
X1126Y1437D02*
Y1588D01*
X1137Y1598D02*
X1165D01*
X1126Y1588D02*
X1137Y1598D01*
X1124Y1435D02*
X1126Y1437D01*
X1224Y1736D02*
X1242Y1754D01*
X1193Y1659D02*
X1224Y1690D01*
Y1736D01*
X1185Y1657D02*
X1187Y1659D01*
X1193D01*
X1203Y1876D02*
X1224Y1854D01*
X1203Y1911D02*
X1224Y1933D01*
X1203Y1955D02*
X1224Y1933D01*
X1203Y1990D02*
X1224Y2012D01*
Y1972D02*
X1251Y1999D01*
Y2027D01*
X1244Y2033D02*
X1251Y2027D01*
X1244Y2033D02*
Y2189D01*
X1244Y2192D02*
X1246Y2190D01*
X1166Y1794D02*
Y1836D01*
X1087Y1874D02*
X1126D01*
Y1913D02*
Y1954D01*
X1126Y2150D02*
X1165D01*
X1067Y2276D02*
X1114D01*
X1224Y1894D02*
X1260Y1929D01*
X1295D01*
X1382Y1894D02*
Y1952D01*
X1283Y1682D02*
X1307Y1657D01*
X1244Y1638D02*
X1287D01*
X1307Y1657D01*
X1283Y1682D02*
Y1757D01*
X1382Y1952D02*
X1441D01*
X889Y1480D02*
X928D01*
X870Y1894D02*
X890Y1874D01*
X983D01*
X1402Y1831D02*
Y1874D01*
X1441Y1952D02*
X1461Y1933D01*
X1382Y1894D02*
X1402Y1874D01*
X1264Y1776D02*
X1283Y1757D01*
X1224Y1618D02*
X1244Y1638D01*
X1165Y1598D02*
X1185Y1618D01*
X1067Y1579D02*
X1087Y1559D01*
X1146Y1657D02*
X1185Y1697D01*
D98*
X2489Y703D02*
X2497Y711D01*
X2441Y703D02*
X2489D01*
X1933Y700D02*
X2238D01*
X3937Y850D02*
X3977Y890D01*
X553Y1420D02*
Y1492D01*
X304Y1765D02*
Y1792D01*
X2560Y1004D02*
X2717D01*
X2560D02*
Y1005D01*
X1868Y1394D02*
X1870Y1392D01*
X964Y1318D02*
X1000Y1354D01*
X339Y1941D02*
Y2189D01*
X244D02*
X339D01*
X983Y1534D02*
Y1776D01*
X244Y1764D02*
X370D01*
X949Y1500D02*
X983Y1534D01*
X1124Y1376D02*
X1165Y1335D01*
X1124Y1376D02*
X1124Y1376D01*
X1185Y1382D02*
X1264D01*
X1146Y1421D02*
X1185Y1382D01*
X1244Y2192D02*
Y2272D01*
X492Y1598D02*
X492Y1598D01*
Y1578D02*
Y1598D01*
Y1578D02*
X553Y1517D01*
X2562Y1005D02*
X2563Y1004D01*
X2560Y1005D02*
X2562D01*
X2559Y1004D02*
X2560D01*
Y926D02*
Y1004D01*
X2594Y1079D02*
X2807D01*
X2520Y1004D02*
X2594Y1079D01*
X2520Y1004D02*
Y1004D01*
X2520Y886D02*
X2560Y926D01*
X2559Y1004D02*
X2560Y1005D01*
X2559Y1004D02*
X2559Y1004D01*
X2717D02*
X2717Y1004D01*
X1047Y880D02*
Y882D01*
X1047Y883D01*
X1048Y882D01*
X2904Y799D02*
Y901D01*
X2882Y922D02*
Y957D01*
Y922D02*
X2904Y901D01*
Y799D02*
X2906D01*
X2803D02*
X2904D01*
X2835Y1004D02*
X2882Y957D01*
X2669Y1380D02*
Y1464D01*
X817Y1182D02*
X853D01*
X814Y1142D02*
X816D01*
X89Y2050D02*
X302D01*
X303Y2051D01*
X299Y2189D02*
Y2217D01*
X2238Y700D02*
X2239Y701D01*
X758Y2461D02*
X949D01*
X992Y2417D02*
X1079D01*
X949Y2461D02*
X992Y2417D01*
X1079D02*
X1081Y2415D01*
X1101D01*
X1244Y2272D01*
X1303Y2051D02*
Y2130D01*
Y2051D02*
X1343Y2012D01*
X743Y2446D02*
X758Y2461D01*
X1650Y2221D02*
Y2272D01*
X2480Y807D02*
Y839D01*
Y843D02*
X2520D01*
X1812Y433D02*
X1892D01*
X1892Y433D02*
X2276D01*
X1892Y433D02*
X1892Y433D01*
X697Y535D02*
X756D01*
X323Y571D02*
X325Y569D01*
Y553D02*
Y569D01*
X1723Y407D02*
X1786D01*
X1210Y441D02*
X1689D01*
X1723Y407D01*
X815Y1094D02*
X1610D01*
X738Y1318D02*
X964D01*
X920Y1061D02*
X1747D01*
X547Y688D02*
X920Y1061D01*
X1610Y1094D02*
X1870Y1354D01*
X1747Y1061D02*
X1756Y1070D01*
X1870Y1354D02*
Y1390D01*
X1869Y1391D02*
X1870Y1390D01*
X1083Y1030D02*
X1854D01*
X2012Y872D01*
X938Y885D02*
X1083Y1030D01*
X2520Y843D02*
X2598D01*
X2520Y807D02*
Y843D01*
X1579Y1579D02*
Y1626D01*
Y1500D02*
Y1579D01*
X1461Y1657D02*
X1547D01*
X1579Y1626D01*
X1461Y1563D02*
Y1657D01*
X1524Y1382D02*
X1618Y1476D01*
X1500Y1780D02*
X1583D01*
X1402D02*
X1500D01*
X1500Y1815D02*
X1500Y1815D01*
Y1780D02*
Y1815D01*
X1382Y1799D02*
X1402Y1780D01*
X1382Y1799D02*
Y1815D01*
X1583Y1780D02*
X1618Y1744D01*
Y1697D02*
Y1744D01*
Y1476D02*
Y1697D01*
X1539D02*
X1618D01*
X1307Y1657D02*
X1343D01*
X1484Y1539D02*
X1500D01*
X1461Y1563D02*
X1484Y1539D01*
X1421Y1657D02*
X1461D01*
X1421D02*
Y1697D01*
X1343Y1657D02*
X1421D01*
X3091Y1382D02*
Y1461D01*
X2842Y1293D02*
X2843Y1293D01*
Y1380D01*
X331Y1220D02*
X374D01*
X244Y1294D02*
X246Y1291D01*
X260D01*
X331Y1220D01*
X1720Y1953D02*
X1805Y1868D01*
X1690Y1953D02*
X1720D01*
X1805Y1868D02*
X1852D01*
X1735Y1986D02*
X1820Y1902D01*
X1823D01*
X515Y688D02*
X547D01*
X2843Y1193D02*
Y1195D01*
X2807Y1157D02*
X2843Y1193D01*
X1868Y1394D02*
Y1592D01*
X2031Y1355D02*
Y1391D01*
X2110Y1421D02*
Y1513D01*
X2461Y1460D02*
Y1512D01*
Y1380D02*
Y1460D01*
X865Y748D02*
X949Y664D01*
X831Y748D02*
X865D01*
X949Y484D02*
Y664D01*
X1630Y343D02*
Y358D01*
X1672Y300D02*
X1848D01*
X1630Y343D02*
X1672Y300D01*
X1582Y407D02*
X1630Y358D01*
X2923Y672D02*
X2930Y665D01*
X2923Y672D02*
Y758D01*
X2906Y776D02*
Y799D01*
X2906Y776D02*
X2923Y758D01*
X3241Y327D02*
X3244Y329D01*
X2776Y772D02*
X2803Y799D01*
X1617Y2026D02*
X1690Y1953D01*
X1650Y2039D02*
X1703Y1986D01*
X1735D01*
X1617Y2026D02*
Y2052D01*
X1579Y2091D02*
X1617Y2052D01*
X1245Y2221D02*
X1650D01*
Y2039D02*
Y2221D01*
X740Y2446D02*
X743D01*
X458Y2195D02*
Y2243D01*
Y2195D02*
X469Y2183D01*
X598D01*
X136Y2282D02*
X439D01*
X458Y2243D02*
Y2264D01*
X439Y2282D02*
X458Y2264D01*
X434Y2243D02*
X458D01*
X433Y2244D02*
X434Y2243D01*
X229Y1676D02*
Y1717D01*
Y1676D02*
X248Y1657D01*
X177Y1769D02*
X229Y1717D01*
X371Y1854D02*
X410Y1815D01*
X177Y1854D02*
X371D01*
X410Y1815D02*
X437D01*
X177Y1854D02*
Y1870D01*
Y1769D02*
Y1854D01*
X89Y2050D02*
Y2238D01*
Y1958D02*
Y2050D01*
X122Y2272D02*
X125D01*
X136Y2282D01*
X89Y1958D02*
X177Y1870D01*
X89Y2238D02*
X122Y2272D01*
X709Y1288D02*
X738Y1318D01*
X521Y1288D02*
X709D01*
X453Y1220D02*
X521Y1288D01*
X340Y2051D02*
X370D01*
X614Y1760D02*
X677D01*
X614Y1728D02*
Y1760D01*
X547D02*
X614D01*
Y1728D02*
X733Y1610D01*
X553Y1492D02*
Y1517D01*
X736Y1518D02*
X737Y1517D01*
Y1486D02*
Y1517D01*
X469Y1775D02*
Y1882D01*
X339Y1941D02*
X409D01*
X469Y1882D01*
X307Y1911D02*
Y1941D01*
X244D02*
X307D01*
X305Y1909D02*
X307Y1911D01*
Y1941D02*
X339D01*
Y2189D02*
X394D01*
X421Y2217D01*
X217Y2217D02*
X244Y2189D01*
X217Y2217D02*
Y2244D01*
X437Y1764D02*
X457D01*
X370D02*
X437D01*
Y1787D01*
X370Y1594D02*
Y1764D01*
X231Y1777D02*
X244Y1764D01*
X457D02*
X469Y1775D01*
X231Y1928D02*
X244Y1941D01*
X231Y1909D02*
Y1928D01*
X231Y1777D02*
Y1791D01*
X531Y1776D02*
Y1791D01*
Y1776D02*
X547Y1760D01*
X457Y1492D02*
Y1508D01*
Y1420D02*
Y1492D01*
X370Y1594D02*
X457Y1508D01*
X559Y1909D02*
Y1959D01*
X493Y2025D02*
X559Y1959D01*
X531Y1792D02*
Y1823D01*
X559Y1850D02*
Y1909D01*
X531Y1791D02*
X531Y1792D01*
Y1823D02*
X559Y1850D01*
X642Y1969D02*
X701D01*
X613Y1911D02*
Y1939D01*
X642Y1969D01*
X614Y1791D02*
Y1909D01*
Y1764D02*
Y1791D01*
X677Y1764D02*
Y1791D01*
X983Y1874D02*
Y1899D01*
Y1776D02*
Y1874D01*
X949Y1657D02*
X974D01*
X909Y1776D02*
X983D01*
X949Y1933D02*
X983Y1899D01*
X614Y1420D02*
Y1491D01*
X736Y1559D02*
Y1607D01*
Y1518D02*
Y1559D01*
X797D01*
X831Y1593D01*
Y1618D01*
X140Y1488D02*
X163Y1512D01*
X140Y1374D02*
Y1488D01*
X163Y1512D02*
X181D01*
X583Y1420D02*
Y1492D01*
X1786Y407D02*
X1812Y433D01*
X1209Y441D02*
X1210Y441D01*
X2239Y701D02*
X2241Y703D01*
X2598Y843D02*
X2720D01*
X2598Y807D02*
Y843D01*
X2520D02*
Y886D01*
X2720Y843D02*
X2756Y807D01*
X2497Y711D02*
X2502D01*
X2559Y768D01*
X2638D01*
X1539Y1461D02*
X1579Y1500D01*
X2012Y870D02*
Y872D01*
X1852Y1868D02*
X1941Y1957D01*
X2807Y1079D02*
Y1157D01*
X2520Y1004D02*
Y1004D01*
X2480D02*
X2520D01*
X2807Y1031D02*
Y1079D01*
Y1031D02*
X2835Y1004D01*
X2835D01*
X2441Y965D02*
X2480Y1004D01*
X2441Y703D02*
Y768D01*
X2241Y703D02*
X2441D01*
X2638Y768D02*
Y807D01*
X2776Y772D02*
Y772D01*
X2717Y768D02*
X2772D01*
X2638D02*
X2717D01*
X2717Y768D02*
Y807D01*
X2717Y768D02*
X2717Y768D01*
X2776Y724D02*
Y772D01*
X2772Y768D02*
X2776Y772D01*
X887Y407D02*
X1512D01*
X854Y374D02*
X887Y407D01*
X700Y276D02*
X756D01*
X700Y276D02*
X700Y276D01*
X2878Y1382D02*
Y1461D01*
X1264Y1382D02*
Y1500D01*
X1382Y1500D02*
X1402D01*
X1421Y1480D01*
Y1382D02*
X1421Y1382D01*
X1421Y1382D02*
Y1480D01*
X1303Y2130D02*
X1421D01*
X791Y2012D02*
Y2091D01*
X705Y1969D02*
X748D01*
X791Y2012D01*
X1461Y2091D02*
X1539D01*
X1539Y2091D01*
X1303Y2130D02*
X1303Y2130D01*
X1421D02*
X1461Y2091D01*
X1421Y2130D02*
Y2169D01*
X1539Y2091D02*
X1579D01*
X1539Y2091D02*
X1539Y2091D01*
X173Y811D02*
X327Y965D01*
X949Y484D02*
X1079D01*
X224Y654D02*
X362D01*
X504Y531D02*
Y594D01*
X661Y701D02*
X756D01*
X413Y685D02*
X504Y594D01*
X480Y508D02*
X504Y531D01*
X325Y553D02*
X370Y508D01*
X173Y705D02*
X224Y654D01*
X2417Y1555D02*
X2461Y1512D01*
X2417Y1555D02*
Y1556D01*
X2110Y1513D02*
X2111Y1514D01*
Y1514D01*
X2030Y1354D02*
X2031Y1355D01*
X1866Y1594D02*
X1868Y1592D01*
X1866Y1594D02*
Y1594D01*
X1512Y407D02*
X1582D01*
X816Y1142D02*
Y1144D01*
Y1142D02*
X849D01*
X814Y1145D02*
X816Y1144D01*
X327Y965D02*
X382D01*
X343Y917D02*
X398D01*
X370Y508D02*
X480D01*
X409Y571D02*
Y606D01*
X3937Y713D02*
Y850D01*
X1512Y370D02*
X1512Y370D01*
X1512Y370D02*
Y407D01*
X850Y1161D02*
Y1181D01*
X814Y1145D02*
Y1181D01*
X756Y701D02*
X756Y701D01*
X407Y1013D02*
X409Y1016D01*
X407Y990D02*
Y1013D01*
X362Y654D02*
X409Y606D01*
X173Y705D02*
Y811D01*
X1606Y482D02*
X1607Y481D01*
X949Y484D02*
X949Y484D01*
X850Y1145D02*
Y1161D01*
X814Y1142D02*
Y1145D01*
X382Y965D02*
X407Y990D01*
X398Y917D02*
X406Y909D01*
D99*
X1000Y1354D02*
X1033D01*
X1087Y1407D01*
X870Y1382D02*
X893Y1359D01*
X834Y1418D02*
X870Y1382D01*
X962Y1359D02*
X984Y1382D01*
X893Y1359D02*
X962D01*
X984Y1382D02*
X1028D01*
X1166Y1836D02*
X1185Y1854D01*
X1166Y1794D02*
X1185Y1776D01*
X1067Y1894D02*
X1087Y1874D01*
X1126D02*
X1146Y1894D01*
X1107Y1972D02*
X1126Y1954D01*
X950Y2090D02*
X961D01*
X984Y2000D02*
Y2067D01*
X961Y2090D02*
X984Y2067D01*
X1028Y1972D02*
X1028Y1972D01*
X984Y2000D02*
X1012Y1972D01*
X1028D01*
X949Y2091D02*
X950Y2090D01*
X1079Y2130D02*
X1083D01*
X1028D02*
X1079D01*
Y2226D02*
X1079Y2226D01*
X1079Y2130D02*
Y2226D01*
X413Y1130D02*
X415Y1132D01*
X412Y1129D02*
X413Y1130D01*
X1126Y1913D02*
X1146Y1894D01*
X1083Y2130D02*
X1106D01*
X1001Y2156D02*
X1026Y2130D01*
X935Y2156D02*
X1001D01*
X909Y2130D02*
X935Y2156D01*
X1026Y2130D02*
X1028D01*
X1128Y1994D02*
Y2033D01*
X1028Y1972D02*
X1067Y2012D01*
X928Y1480D02*
X949Y1500D01*
X870Y1461D02*
X889Y1480D01*
X713Y1760D02*
X736Y1736D01*
X681Y1760D02*
X713D01*
X830Y1420D02*
X870Y1461D01*
X1028Y1854D02*
X1067Y1815D01*
X1165Y2150D02*
X1185Y2130D01*
X1106D02*
X1126Y2150D01*
X1028Y2091D02*
Y2130D01*
X1185Y1618D02*
Y1657D01*
X1128Y2033D02*
X1146Y2051D01*
X1106Y1972D02*
X1128Y1994D01*
X1067Y2012D02*
X1106Y1972D01*
X1146Y1894D02*
X1185Y1854D01*
X1028Y1854D02*
X1067Y1894D01*
X1028Y1776D02*
X1067Y1815D01*
X1028Y1776D02*
X1067Y1736D01*
X1028Y1697D02*
X1067Y1736D01*
X1028Y1697D02*
X1067Y1657D01*
X1106Y1618D02*
X1145Y1657D01*
X1067Y1657D02*
X1106Y1618D01*
X1028Y1618D02*
X1067Y1657D01*
Y1579D02*
X1106Y1618D01*
X411Y774D02*
X413Y776D01*
D100*
X4606Y2441D02*
D03*
Y118D02*
D03*
X354D02*
D03*
Y2441D02*
D03*
D101*
X4783Y827D02*
D03*
Y906D02*
D03*
Y984D02*
D03*
Y1063D02*
D03*
X4862Y827D02*
D03*
Y906D02*
D03*
Y984D02*
D03*
Y1063D02*
D03*
X4783Y1142D02*
D03*
Y1220D02*
D03*
Y1299D02*
D03*
Y1378D02*
D03*
Y1457D02*
D03*
Y1535D02*
D03*
X4862Y1142D02*
D03*
Y1220D02*
D03*
Y1299D02*
D03*
Y1378D02*
D03*
Y1457D02*
D03*
Y1535D02*
D03*
D102*
X1114Y2492D02*
D03*
X1350D02*
D03*
X1272D02*
D03*
X1193D02*
D03*
X1429D02*
D03*
D103*
X1508D02*
D03*
D104*
X3541Y256D02*
D03*
X3455Y799D02*
D03*
X3019Y256D02*
D03*
X3441D02*
D03*
X3355Y799D02*
D03*
X3255D02*
D03*
X3205Y699D02*
D03*
X3155Y799D02*
D03*
X3105Y699D02*
D03*
X3305D02*
D03*
X3405D02*
D03*
X3119Y256D02*
D03*
D105*
X2959Y569D02*
D03*
X3601D02*
D03*
D106*
X3505Y449D02*
D03*
X3055D02*
D03*
D107*
X3031Y1799D02*
D03*
Y1878D02*
D03*
X1929Y1799D02*
D03*
X2008D02*
D03*
X2087D02*
D03*
X2165D02*
D03*
X2244D02*
D03*
X2323D02*
D03*
X1929Y1878D02*
D03*
X2008D02*
D03*
X2087D02*
D03*
X2165D02*
D03*
X2244D02*
D03*
X2323D02*
D03*
X2402Y1799D02*
D03*
X2480D02*
D03*
X2559D02*
D03*
X2638D02*
D03*
X2402Y1878D02*
D03*
X2480D02*
D03*
X2559D02*
D03*
X2638D02*
D03*
X2717Y1799D02*
D03*
X2795D02*
D03*
X2874D02*
D03*
X2953D02*
D03*
X2717Y1878D02*
D03*
X2795D02*
D03*
X2874D02*
D03*
X2953D02*
D03*
D108*
X4543Y524D02*
D03*
X2760Y1315D02*
D03*
X691Y2310D02*
D03*
X1488Y930D02*
D03*
X1079Y2226D02*
D03*
X2079Y902D02*
D03*
X875Y583D02*
D03*
Y622D02*
D03*
X1532D02*
D03*
Y583D02*
D03*
X1299Y988D02*
D03*
X1488Y677D02*
D03*
X516Y1028D02*
D03*
X2717Y1464D02*
D03*
X2819Y1555D02*
D03*
X2669Y1464D02*
D03*
X2768D02*
D03*
X1976Y524D02*
D03*
X2071Y646D02*
D03*
X1177Y2417D02*
D03*
X1378Y2324D02*
D03*
X1067Y2276D02*
D03*
X1079Y2417D02*
D03*
X1008Y2354D02*
D03*
Y2500D02*
D03*
X815Y2421D02*
D03*
X927Y2423D02*
D03*
X909Y2313D02*
D03*
X909Y2354D02*
D03*
X807D02*
D03*
X720D02*
D03*
X673Y2394D02*
D03*
X525Y2382D02*
D03*
X526Y2343D02*
D03*
X1650Y2272D02*
D03*
X1594Y2343D02*
D03*
X3543Y1413D02*
D03*
X2358Y594D02*
D03*
X2240D02*
D03*
X2441Y465D02*
D03*
Y421D02*
D03*
X2398Y55D02*
D03*
X935Y195D02*
D03*
X1094Y194D02*
D03*
X1154Y46D02*
D03*
X871Y37D02*
D03*
X2276Y433D02*
D03*
Y488D02*
D03*
X2181Y484D02*
D03*
X575Y508D02*
D03*
X697Y413D02*
D03*
X697Y497D02*
D03*
X697Y457D02*
D03*
X698Y362D02*
D03*
X697Y535D02*
D03*
X698Y319D02*
D03*
X575Y276D02*
D03*
X516Y878D02*
D03*
X126Y1016D02*
D03*
X161D02*
D03*
X268D02*
D03*
X197D02*
D03*
X319Y839D02*
D03*
X463Y551D02*
D03*
X575Y414D02*
D03*
Y461D02*
D03*
X268Y571D02*
D03*
X323Y571D02*
D03*
X896Y948D02*
D03*
X832Y884D02*
D03*
X831Y843D02*
D03*
X935Y986D02*
D03*
X815Y1094D02*
D03*
X2941Y1193D02*
D03*
X118Y1130D02*
D03*
X4299Y913D02*
D03*
X2046Y593D02*
D03*
X2020Y618D02*
D03*
X1823Y1835D02*
D03*
X1823Y1902D02*
D03*
X2842Y1293D02*
D03*
X2843Y1195D02*
D03*
X2157Y1354D02*
D03*
X1299Y1209D02*
D03*
X2313Y262D02*
D03*
X3339Y1831D02*
D03*
X3323Y1713D02*
D03*
X1899Y1186D02*
D03*
X4492Y939D02*
D03*
X4241Y748D02*
D03*
X3709Y913D02*
D03*
X3791Y709D02*
D03*
X3642Y815D02*
D03*
X1228Y819D02*
D03*
X625Y2252D02*
D03*
X4322Y378D02*
D03*
X4508Y433D02*
D03*
X1370Y941D02*
D03*
X740Y2446D02*
D03*
X539Y2249D02*
D03*
X122Y2272D02*
D03*
X55Y2268D02*
D03*
X122Y2390D02*
D03*
X1843Y374D02*
D03*
X1209Y441D02*
D03*
X1173Y488D02*
D03*
X1130D02*
D03*
X1319Y528D02*
D03*
X1753Y194D02*
D03*
X2191Y701D02*
D03*
X2239D02*
D03*
X2488Y665D02*
D03*
X2591Y488D02*
D03*
X2681Y618D02*
D03*
X2488Y705D02*
D03*
X2705Y681D02*
D03*
X1488Y815D02*
D03*
X1882Y819D02*
D03*
X3411Y1650D02*
D03*
X4185Y224D02*
D03*
X2551Y1315D02*
D03*
X67Y1484D02*
D03*
Y1370D02*
D03*
X3898Y614D02*
D03*
X4067Y551D02*
D03*
X4244Y224D02*
D03*
Y315D02*
D03*
X2303Y795D02*
D03*
X2752Y327D02*
D03*
X2874Y618D02*
D03*
Y689D02*
D03*
X1980Y1280D02*
D03*
X1894D02*
D03*
X1827Y1394D02*
D03*
X1869Y1391D02*
D03*
X1949Y1185D02*
D03*
X2075D02*
D03*
X2012D02*
D03*
Y870D02*
D03*
X2055Y866D02*
D03*
X2028Y1283D02*
D03*
X2049Y783D02*
D03*
X2252Y1311D02*
D03*
X3240Y1480D02*
D03*
X3311D02*
D03*
X3242Y1557D02*
D03*
X3382Y1948D02*
D03*
X2697Y1556D02*
D03*
X3453Y1331D02*
D03*
X3803Y1284D02*
D03*
X4236Y1299D02*
D03*
X854Y374D02*
D03*
X902Y370D02*
D03*
X700Y276D02*
D03*
X369Y571D02*
D03*
X2909Y1555D02*
D03*
X2681Y437D02*
D03*
X4134Y579D02*
D03*
X197Y571D02*
D03*
X1531Y46D02*
D03*
X1812D02*
D03*
X2224Y177D02*
D03*
X3832Y899D02*
D03*
X3343Y1008D02*
D03*
X2980Y1461D02*
D03*
X2929D02*
D03*
X2878D02*
D03*
X3803Y1200D02*
D03*
X3673Y1047D02*
D03*
X3484Y1106D02*
D03*
X3287Y1193D02*
D03*
X3177Y1189D02*
D03*
X3024Y1299D02*
D03*
X2976D02*
D03*
X2843Y1244D02*
D03*
X2165Y1311D02*
D03*
X118Y1197D02*
D03*
Y1232D02*
D03*
X122Y681D02*
D03*
X119Y752D02*
D03*
Y787D02*
D03*
X516Y976D02*
D03*
X3531Y1107D02*
D03*
X4512Y1126D02*
D03*
X3075Y1106D02*
D03*
X3393Y1106D02*
D03*
X3350D02*
D03*
X4024Y2394D02*
D03*
X4638Y2110D02*
D03*
X4882Y1878D02*
D03*
Y1732D02*
D03*
X3705Y2091D02*
D03*
X3673Y1772D02*
D03*
Y1417D02*
D03*
X3661Y1941D02*
D03*
X3787Y1772D02*
D03*
X3799Y1563D02*
D03*
X3934Y1571D02*
D03*
X4526Y1531D02*
D03*
X4589D02*
D03*
X4652D02*
D03*
X4720D02*
D03*
X3858Y1709D02*
D03*
X4366Y1220D02*
D03*
X4020Y1752D02*
D03*
X3937Y1076D02*
D03*
X4299Y1079D02*
D03*
Y1177D02*
D03*
Y1130D02*
D03*
X4646Y1165D02*
D03*
X4390Y988D02*
D03*
X4429Y1020D02*
D03*
X4512Y1075D02*
D03*
Y1220D02*
D03*
X4429Y1154D02*
D03*
X4646Y1047D02*
D03*
X4594Y957D02*
D03*
X4500Y2047D02*
D03*
Y1917D02*
D03*
Y1787D02*
D03*
Y2173D02*
D03*
Y1724D02*
D03*
Y1850D02*
D03*
Y2110D02*
D03*
Y1984D02*
D03*
X4638Y1850D02*
D03*
Y1980D02*
D03*
X3934Y1415D02*
D03*
X4882Y2130D02*
D03*
Y2000D02*
D03*
X4020Y1925D02*
D03*
X4024Y2276D02*
D03*
Y2051D02*
D03*
X3799Y2122D02*
D03*
X3839Y1988D02*
D03*
X3571Y1559D02*
D03*
X3453Y1413D02*
D03*
X3799Y862D02*
D03*
X3091Y1461D02*
D03*
X3138Y1461D02*
D03*
X3189Y1461D02*
D03*
X319Y1283D02*
D03*
X55Y2390D02*
D03*
X3403Y2038D02*
D03*
X3419Y1971D02*
D03*
X3432Y2011D02*
D03*
X3354Y2071D02*
D03*
X3421Y2097D02*
D03*
X563Y2513D02*
D03*
X701D02*
D03*
X634D02*
D03*
X1496Y2350D02*
D03*
X1453Y2394D02*
D03*
X2929Y413D02*
D03*
X3075Y854D02*
D03*
X2961Y1067D02*
D03*
Y937D02*
D03*
Y1024D02*
D03*
X2961Y980D02*
D03*
X3075Y760D02*
D03*
Y949D02*
D03*
Y1043D02*
D03*
X2559Y1461D02*
D03*
X2508Y1460D02*
D03*
X2232Y1559D02*
D03*
X2231Y1456D02*
D03*
X2154Y1496D02*
D03*
X3890Y437D02*
D03*
X3402Y2181D02*
D03*
X3341Y1906D02*
D03*
X3398Y1862D02*
D03*
X3421Y1898D02*
D03*
X3429Y1756D02*
D03*
X3378Y1713D02*
D03*
X3429Y1713D02*
D03*
X3276Y1713D02*
D03*
X3031Y1555D02*
D03*
X3343Y1047D02*
D03*
X3484D02*
D03*
X3579Y1016D02*
D03*
X3436Y1018D02*
D03*
X3493Y1005D02*
D03*
X2606Y1556D02*
D03*
X2480Y1556D02*
D03*
X2358D02*
D03*
X2417Y1556D02*
D03*
X3101Y1556D02*
D03*
X2091Y1657D02*
D03*
X2134Y1657D02*
D03*
X929Y839D02*
D03*
X228Y457D02*
D03*
X213Y402D02*
D03*
X130Y402D02*
D03*
X161Y571D02*
D03*
X4075Y882D02*
D03*
Y917D02*
D03*
X2929Y374D02*
D03*
X2193Y614D02*
D03*
X2020Y815D02*
D03*
X2030Y1354D02*
D03*
X2209Y1311D02*
D03*
X2125Y1312D02*
D03*
X2282Y1457D02*
D03*
X2331Y1457D02*
D03*
X2381Y1457D02*
D03*
X2181Y1734D02*
D03*
X2048Y1692D02*
D03*
X1866Y1594D02*
D03*
X2287Y1748D02*
D03*
X2111Y1514D02*
D03*
X4925Y315D02*
D03*
X4232Y524D02*
D03*
X343Y917D02*
D03*
X2461Y1460D02*
D03*
X3571Y1772D02*
D03*
X1587Y839D02*
D03*
X1248Y346D02*
D03*
X1205Y528D02*
D03*
X454Y882D02*
D03*
X409Y1016D02*
D03*
X858Y681D02*
D03*
X831Y748D02*
D03*
X891Y287D02*
D03*
X949Y484D02*
D03*
X1736D02*
D03*
X1607Y481D02*
D03*
X1878Y484D02*
D03*
X1079D02*
D03*
X1602Y205D02*
D03*
X575Y323D02*
D03*
X831Y799D02*
D03*
X3571Y1984D02*
D03*
Y1929D02*
D03*
X3571Y2047D02*
D03*
X575Y367D02*
D03*
X515Y729D02*
D03*
X3701Y2398D02*
D03*
X3402Y2138D02*
D03*
X4811Y405D02*
D03*
X4469Y339D02*
D03*
X4413Y528D02*
D03*
X4543Y605D02*
D03*
X2681Y488D02*
D03*
X814Y1181D02*
D03*
Y1145D02*
D03*
X850D02*
D03*
Y1181D02*
D03*
X1488Y748D02*
D03*
X1835Y483D02*
D03*
X1559Y330D02*
D03*
X1787Y346D02*
D03*
X1787Y484D02*
D03*
X2020Y559D02*
D03*
Y756D02*
D03*
X1542Y293D02*
D03*
X1558Y371D02*
D03*
X1772Y441D02*
D03*
X902Y330D02*
D03*
X515Y688D02*
D03*
X516Y832D02*
D03*
X516Y792D02*
D03*
X1114Y441D02*
D03*
X1107Y322D02*
D03*
X1138Y370D02*
D03*
X409Y571D02*
D03*
X4279Y378D02*
D03*
X4322Y559D02*
D03*
X4413Y575D02*
D03*
X3937Y713D02*
D03*
X4299Y339D02*
D03*
X4539Y339D02*
D03*
X4543Y481D02*
D03*
X4448Y607D02*
D03*
Y650D02*
D03*
X3803Y2339D02*
D03*
X3972Y2276D02*
D03*
X3705Y2327D02*
D03*
X3756Y2398D02*
D03*
X3843Y2382D02*
D03*
X3571Y2189D02*
D03*
Y2150D02*
D03*
Y2098D02*
D03*
X3571Y1862D02*
D03*
X370Y1016D02*
D03*
X453Y776D02*
D03*
X374D02*
D03*
X220Y783D02*
D03*
X268Y736D02*
D03*
X220D02*
D03*
X268Y783D02*
D03*
X413Y776D02*
D03*
X516Y929D02*
D03*
X220Y1228D02*
D03*
X244Y1294D02*
D03*
X374Y1220D02*
D03*
X453D02*
D03*
X220Y1181D02*
D03*
X327Y1016D02*
D03*
X268Y1228D02*
D03*
X346Y1130D02*
D03*
X413Y1220D02*
D03*
X268Y1181D02*
D03*
X3571Y1728D02*
D03*
D109*
X1048Y1339D02*
D03*
X909Y1894D02*
D03*
Y1854D02*
D03*
X870Y1854D02*
D03*
X949Y1382D02*
D03*
X909D02*
D03*
X831D02*
D03*
X831Y1461D02*
D03*
X870Y1421D02*
D03*
X909D02*
D03*
X949D02*
D03*
X909Y1461D02*
D03*
X909Y1500D02*
D03*
X949Y1461D02*
D03*
X870Y1500D02*
D03*
X831D02*
D03*
X988D02*
D03*
X949Y1539D02*
D03*
X1106Y1854D02*
D03*
X1146Y1815D02*
D03*
X1185Y1894D02*
D03*
X1028Y1657D02*
D03*
Y1736D02*
D03*
Y1815D02*
D03*
X1421Y1854D02*
D03*
X1382Y1854D02*
D03*
X1264Y1894D02*
D03*
X1146Y1461D02*
D03*
Y1500D02*
D03*
X1421Y1972D02*
D03*
X1461D02*
D03*
X1421Y1894D02*
D03*
X1343Y1933D02*
D03*
X1421Y1933D02*
D03*
X1303Y1697D02*
D03*
X1106Y1894D02*
D03*
Y2012D02*
D03*
X1185Y1933D02*
D03*
X1067Y1421D02*
D03*
X1185Y1815D02*
D03*
X1303Y1972D02*
D03*
X1264Y1618D02*
D03*
X1224Y1657D02*
D03*
X1264D02*
D03*
X709Y1736D02*
D03*
X1185Y1579D02*
D03*
X1146D02*
D03*
X1303Y1736D02*
D03*
X1264D02*
D03*
X1579Y2051D02*
D03*
X1264Y2169D02*
D03*
X1106Y1461D02*
D03*
Y1421D02*
D03*
X1067Y1500D02*
D03*
X1146Y2169D02*
D03*
X1224D02*
D03*
X1185D02*
D03*
X1146Y1776D02*
D03*
X1264Y2051D02*
D03*
X1224D02*
D03*
Y2091D02*
D03*
X1185D02*
D03*
X1146Y2130D02*
D03*
X1224D02*
D03*
X1067Y1461D02*
D03*
Y1539D02*
D03*
X1106D02*
D03*
X1146D02*
D03*
X1106Y1579D02*
D03*
X1146Y1618D02*
D03*
X1067D02*
D03*
X1106Y1657D02*
D03*
X1146Y1697D02*
D03*
X1106D02*
D03*
X1067D02*
D03*
Y1776D02*
D03*
X1146Y1854D02*
D03*
Y1933D02*
D03*
Y1972D02*
D03*
X1185D02*
D03*
Y2012D02*
D03*
Y2051D02*
D03*
X1106D02*
D03*
X1028Y2012D02*
D03*
X1067Y1972D02*
D03*
X1106Y1933D02*
D03*
X1067Y1854D02*
D03*
D110*
X705Y1969D02*
Y2134D01*
X721Y2260D02*
Y2354D01*
X720Y2354D02*
X721Y2354D01*
X720Y2366D02*
Y2409D01*
X697Y2433D02*
X720Y2409D01*
X634Y2433D02*
X697D01*
X575Y2374D02*
X634Y2433D01*
X677Y2217D02*
X721Y2260D01*
X522Y2222D02*
X526Y2227D01*
X521Y2217D02*
X522Y2217D01*
Y2222D01*
X526Y2227D02*
Y2227D01*
X535Y2236D01*
X678Y2161D02*
Y2216D01*
Y2161D02*
X705Y2134D01*
X677Y2217D02*
X678Y2216D01*
X575Y2323D02*
Y2374D01*
X539Y2249D02*
Y2287D01*
X575Y2323D01*
X752Y2130D02*
X791Y2091D01*
M02*
