M48
;Layer_Color=9474304
;FILE_FORMAT=2:3
INCH,LZ
;TYPE=PLATED
T1F00S00C0.008
T2F00S00C0.012
T3F00S00C0.016
T4F00S00C0.020
T5F00S00C0.031
T6F00S00C0.035
T7F00S00C0.039
T8F00S00C0.067
T9F00S00C0.126
%
T01
X02488Y0063
X02575
X02555Y00697
X02579Y0072
X02559Y00768
X0252
X0248
X02441Y00768
X02441Y00807
X0248
X0252
X02559
X02598Y00807
X02638
Y00768
X02677Y00807
X02717Y00807
X02756Y00807
X02756Y00886
X02795
X02835
Y00846
X02874Y00886
X02835Y00925
X02795
X02756
Y00965
X02795Y00965
X02835Y00965
X02835Y01004
Y01043
X02835Y01083
X02756Y01043
Y01004
X02717
Y00965
X02677
Y00925
X02717
Y00886
X02677
X02638
X02598
Y00925
X02638
Y00965
X02598
X02559Y01004
X0252Y01004
Y00965
X0248
X02441
Y00925
Y00886
X0252
Y00925
X0248Y01043
X0252Y01091
X02921Y01043
X02925Y00925
X02874Y00768
X02776Y00724
X01783Y01327
X01579Y01382
X01559Y01287
X01583Y01268
X015Y0124
X01472Y01268
X01441Y01303
Y01331
X01479Y01332
X01421Y01382
X01439Y01223
X01461Y01201
X01268Y01248
X01223Y01287
X01283Y01336
X01087Y01341
X01048Y01339
X01067Y01303
X01106Y01303
X01087Y01272
X0103Y01272
X01004
X01006Y01303
X00969Y01272
X00942Y0127
X00913
X00882
X0085
X00831Y01382
X0087Y01382
X00909Y01382
X00949
X01028
X0074Y01362
X00669Y01327
X00518Y01492
X00483
X00457
X00421Y01476
X00398Y01461
X0037Y01457
X00378Y01484
X00333
X00297Y01484
X00295Y01457
X0026Y0148
X00224Y0148
X00184Y01483
X00181Y01512
X00181Y01539
X00169Y01594
X00189Y01622
X00215Y01598
X0026Y01602
X00297Y01602
X00323Y01645
X00343Y01626
X00335Y01673
X00308Y01673
X00273
X00247Y0163
X00176Y0167
X00161Y01693
X00173Y01717
X00118Y01732
X00205Y01791
X00231Y01791
X00266Y01791
Y01823
X00307
X00303Y01792
X00341Y01791
X00376Y01791
X00358Y01823
X00411Y01854
X00437Y01815
Y01787
X00496Y01791
X00531Y01791
X00528Y01681
X00498Y01686
X00424Y01677
X00398
Y0165
X00398Y01625
X00425Y01622
X00453Y01598
X00472Y01614
X00492Y01598
X00517Y016
X00542
X00433Y01724
X0039Y01909
X0034Y01909
X00305
X00269
X00268Y01882
X00223Y01882
X00231Y01909
X00206Y01909
X00185Y01969
X00177Y0202
X00205
X00232Y0202
X00267Y02019
X00302Y0202
X00303Y02051
X00311Y02098
X00283Y02098
X00252
X0037
X00398Y02098
X00425
X00453Y02098
X00488Y02106
X00508Y02087
X00488Y02051
X00493Y02025
X00453Y02043
X00427Y02043
X0037Y02051
X0037Y02024
X00366Y02244
X00339
X00311
X0028
X00244
X00217Y02244
X00189
X00169Y02217
X00142Y02236
X00147Y02161
X00124Y0217
X00149Y02126
X00264Y02217
X00299
X00421
X00433Y02244
X00397Y02244
X00504Y02244
X00521Y02217
X00486
X00496Y01909
X00531
X00217Y01823
X00268Y01421
X00553Y01492
X00583
X00614
X00646
X00701Y01524
X00736Y01518
X00831Y015
X00831Y01461
X0087Y01461
X00909
X00949
Y015
X00988
X01028Y015
Y01461
X01067Y01461
Y01421
X01106Y01421
X01146
Y01461
Y015
Y01539
X01185Y01539
X01185Y015
X01224
X01224Y01539
Y01579
X01185
X01146
X01106Y01579
Y01539
X01067
Y015
X01106Y01461
X01185Y01461
X01224
X01224Y01421
X01303Y01421
X01303Y01461
Y015
X01264
X01264Y01539
X01303Y01539
X01343
X01343Y015
Y01461
X01382Y01461
Y015
Y01579
Y01618
X01343
Y01657
X01343Y01697
X01303
X01303Y01736
X01343
X01382
X01421
X01421Y01697
X01382Y01697
X01461Y01697
Y01736
X015
X01539
X01579
X01539Y01697
X015
X01539Y01618
Y01579
X015
Y01539
Y015
X01539
X01539Y01539
X01579Y01579
X01539Y01461
X015
X01421Y01618
X01264
X01264Y01579
X01303Y01579
X01224Y01618
Y01657
X01264
Y01736
X01264Y01776
Y01815
X01224
X01185Y01815
X01185Y01854
X01146
Y01894
X01185
X01224Y01894
X01224Y01854
X01264Y01894
X01303Y01894
X01343Y01894
Y01854
X01343Y01815
X01303
X01303Y01854
Y01776
X01343
X01382Y01815
Y01854
X01382Y01894
X01421
X01421Y01854
X01421Y01815
X01461Y01815
X015
X01539Y01815
X01539Y01854
X015Y01854
Y01894
X01539
X01579Y01894
X01579Y01933
X01539
X015Y01933
X01461
X01421Y01933
Y01972
X01461
X01461Y01894
X01461Y01854
X01343Y01933
X01303Y01972
X01343Y02012
X01382Y02012
X01382Y02091
Y02169
X01421
X01461
X015
X01539
X01579
Y0213
X01622Y0211
Y0215
Y02189
X015Y0213
X01461Y02091
X01539Y02091
X01539Y02051
X01579Y02051
X01579Y02012
X01697Y01902
X01724
X01756Y01878
Y0185
X01756Y01811
X01783Y01803
Y01776
X01811Y01776
X01776Y01831
X01644Y01835
X01625Y01792
X01224Y01736
X01185Y01736
X01146Y01736
Y01776
X01185
X01106
Y01736
Y01697
Y01657
X01067
Y01697
X01028
Y01657
Y01618
Y01579
X01067
Y01618
X01106Y01618
X01146Y01618
X01185
X01185Y01657
X01146
Y01697
X01185
X01067Y01736
X01028
Y01776
X01067
Y01815
Y01854
X01028
Y01815
Y01894
X01067
X01106
X01106Y01854
X01106Y01815
X01146
X01146Y01933
X01185
Y01972
X01146
Y02012
X01185
Y02051
X01146
Y02091
X01185
X01224
Y02051
Y02012
Y01972
Y01933
X01106Y01933
Y01972
Y02012
Y02051
Y02091
Y0213
X01146
X01185
Y02169
X01146
X01224
X01264
X01303
X01343
X01303Y0213
X01224
X01264Y02051
X01067Y02012
X01028
X01028Y02051
Y02091
X01028Y0213
X01028Y02169
X01067
X01047Y02217
X01008
X01091
X00909Y02169
X0087
X00831
X00791Y0213
X00752
X00748Y02067
Y02031
X00791Y02012
Y01972
X00831Y01933
X0087
X00909
X00949
Y01972
Y02012
Y02051
X00909
X0087Y02051
Y02012
Y01972
Y01894
X00909
Y01854
Y01815
X00949Y01815
X00909Y01776
X00909Y01736
X00949
Y01697
X00909Y01697
Y01657
X0087
Y01697
X00831Y01697
Y01736
X00791
Y01697
Y01657
Y01618
X00831Y01618
X00831Y01657
X0075Y01632
X00701Y01599
X00673
X00648
X00618
X00593Y016
X00567
X00555Y01681
X00582Y01679
X00583Y01791
X00614
X00646
X00677Y01791
X00705
X00744Y01798
X00744Y01772
X00736Y01736
X00709Y01736
Y01701
X00736Y01701
X00791Y01776
X00831
X0087
Y01815
Y01854
X00831
X00791Y01854
X00748Y01909
X00717Y01909
Y01878
X00677Y01911
X00647
X00613
X00587Y01909
X00559Y01909
X00555Y02024
X00614Y02018
X00646
X00677
X00703Y01971
X00677Y02108
X00646Y02108
X006Y02106
X00553Y02106
X00551Y02217
X00578
X00646
X00677
X00772
X0087Y0213
X00909
X00909Y02094
X00949Y02091
Y0213
X0087Y02091
X00831Y02012
X01028Y01972
X01067
Y01933
X01028
X00949Y01657
X00949Y01618
X00909
Y01579
X00949
X00949Y01539
X00909Y015
X0087Y015
X0087Y01539
Y01421
X00909
X00949
X01028
X0087Y01736
T02
X0385Y00765
Y00797
X03882
Y00765
X03882Y0112
Y01151
X0385
Y0112
X0226Y00984
X0226Y00953
X0226Y0092
X0226Y0089
X0226Y00858
Y00827
X0189Y00905
X0187Y00976
X01839
X01807
X01776
X01744
X01714
X01704Y00882
X01933Y007
X01681Y00346
Y00261
X01024
Y00346
X01047Y00882
X01236Y00909
X01276Y007
X01091Y01121
X00989
X00664Y00752
X00661Y00701
Y02396
X0087Y02245
X00909
X01067Y02323
X01102
X01209Y02323
X01209Y02291
Y0226
X01598Y02344
X0385Y0221
Y02179
X03882
Y0221
X03882Y01858
X0385
Y01827
X03882
X03882Y01506
X0385
Y01474
X03882
T03
X0389Y00437
X03898Y00614
X03937Y00713
X03791Y00709
X03799Y00862
X03832Y00899
X03709Y00913
X03673Y01047
X03803Y012
X03803Y01284
X03934Y01415
X03673Y01417
X03937Y01076
X04075Y00917
Y00882
X04299Y00913
Y01079
Y0113
Y01177
X04366Y0122
X04429Y01154
X04512Y01126
Y01075
X04429Y0102
X0439Y00988
X04492Y00939
X04594Y00957
X04646Y01047
Y01165
X04512Y0122
X04236Y01299
X04241Y00748
X04232Y00524
X04322Y00559
X04413Y00575
X04413Y00528
X04448Y00607
Y0065
X04543Y00605
X04543Y00524
X04543Y00481
X04508Y00433
X04539Y00339
X04469Y00339
X04299Y00339
X04279Y00378
X04322Y00378
X04244Y00315
Y00224
X04185
X04547Y00187
X04606Y00207
X04675Y00177
X04695Y00118
X04675Y00059
X04606Y0003
X04547Y00049
X04518Y00118
X04811Y00405
X04925Y00315
X04134Y00579
X04067Y00551
X03642Y00815
X03579Y01016
X03493Y01005
X03484Y01047
X03484Y01106
X03531Y01107
X03393Y01106
X0335
X03343Y01047
Y01008
X03436Y01018
X03287Y01193
X03177Y01189
X03075Y01106
Y01043
Y00949
Y00854
Y0076
X02874Y00689
Y00618
X02681
X02705Y00681
X02681Y00488
Y00437
X02591Y00488
X02441Y00465
Y00421
X02276Y00433
Y00488
X02181Y00484
X02193Y00614
X0224Y00594
X02239Y00701
X02191
X02303Y00795
X02358Y00594
X02488Y00665
Y00705
X02313Y00262
X02224Y00177
X02398Y00055
X02752Y00327
X02929Y00374
Y00413
X02961Y00937
X02961Y0098
X02961Y01024
Y01067
X02941Y01193
X02843Y01195
Y01244
X02842Y01293
X0276Y01315
X02551
X02252Y01311
X02209
X02165
X02125Y01312
X02157Y01354
X02976Y01299
X03024
X03453Y01331
Y01413
X03543
X0203Y01354
X02028Y01283
X0198Y0128
X01894
X01899Y01186
X01949Y01185
X02012
X02075
X02079Y00902
X02055Y00866
X02012Y0087
X0202Y00815
Y00756
X02049Y00731
Y00783
Y00646
X02046Y00593
X0202Y00618
X0202Y00673
Y00559
X01974Y00525
X01878Y00484
X01835Y00483
X01787Y00484
X01736Y00484
X01772Y00441
X01787Y00346
X01843Y00374
X01753Y00194
X01602Y00205
X01542Y00293
X01559Y0033
X01558Y00371
X01607Y00481
X01532Y00583
Y00622
X01488Y00677
Y00748
X01488Y00815
Y0093
X0137Y00941
X01299Y00988
Y01209
X01228Y00819
X01205Y00528
X01173Y00488
X0113
X01079Y00484
X01114Y00441
X01138Y0037
X01107Y00322
X01094Y00194
X00935Y00195
X00891Y00287
X00902Y0033
X00902Y0037
X00854Y00374
X00698Y00362
Y00319
X007Y00276
X00575Y00276
Y00323
X00575Y00367
X00575Y00414
Y00461
Y00508
X00697Y00497
X00697Y00535
X00697Y00457
X00697Y00413
X00949Y00484
X00875Y00583
Y00622
X00858Y00681
X00831Y00748
X00831Y00799
Y00843
X00832Y00884
X00896Y00948
X00935Y00986
X00929Y00839
X00815Y01094
X00814Y01145
Y01181
X0085
Y01145
X01587Y00839
X01882Y00819
X01869Y01391
X01827Y01394
X01812Y00046
X01531
X01154
X00871Y00037
X01248Y00346
X01209Y00441
X01319Y00528
X00463Y00551
X00409Y00571
X00369Y00571
X00323Y00571
X00268Y00571
X00197
X00161
X00122Y00681
X00119Y00752
Y00787
X0022Y00783
Y00736
X00268
Y00783
X00319Y00839
X00343Y00917
X00327Y01016
X0037
X00409
X00516Y01028
Y00976
Y00929
Y00878
X00516Y00832
X00516Y00792
X00515Y00729
X00515Y00688
X00453Y00776
X00413
X00374
X00454Y00882
X00268Y01016
X00197
X00161
X00126
X00118Y0113
X00118Y01197
Y01232
X0022Y01228
Y01181
X00268
Y01228
X00244Y01294
X00319Y01283
X00374Y0122
X00413
X00453
X00346Y0113
X00067Y0137
X0013Y00402
X00213Y00402
X00228Y00457
X00295Y00187
X00354Y00207
X00423Y00177
X00443Y00118
X00423Y00059
X00354Y0003
X00295Y00049
X00266Y00118
X00067Y01484
X00055Y02268
X00122Y02272
Y0239
X00055
X00295Y02372
X00354Y02352
X00423Y02382
X00443Y02441
X00423Y025
X00354Y0253
X00295Y0251
X00266Y02441
X00524Y02391
X00524Y02344
X00539Y02249
X00625Y02252
X00709Y02312
Y02359
X0074Y02399
Y02446
X00811Y02425
X00812Y02355
X00914
X0093Y02426
X01013Y02355
X00966Y02304
X01083Y02403
X01013Y02501
X01233Y02437
X0139Y02355
Y023
X01453
Y02355
X0165Y02284
X01823Y01902
X01823Y01835
X01866Y01594
X02048Y01692
X02091Y01657
X00701Y02513
X00634
X00563
X02181Y01734
X02287Y01748
X02134Y01657
X02111Y01514
X02154Y01496
X02231Y01456
X02282Y01457
X02331Y01457
X02381Y01457
X02461Y0146
X02508Y0146
X02559Y01461
X02669Y01464
X02717
X02768
X02878Y01461
X02929
X0298
X03091
X03138Y01461
X03189Y01461
X0324Y0148
X03311
X03242Y01557
X03101Y01556
X03031Y01555
X02909Y01555
X02819Y01555
X02697Y01556
X02606Y01556
X0248Y01556
X02417Y01556
X02358Y01556
X02232Y01559
X03276Y01713
X03323
X03378
X03429Y01713
X03429Y01756
X03411Y0165
X03398Y01862
X03421Y01898
X03419Y01971
X03432Y02011
X03403Y02038
X03421Y02097
X03402Y02138
X03402Y02181
X03354Y02071
X03382Y01948
X03341Y01906
X03339Y01831
X03571Y01862
Y01929
Y01984
X03571Y02047
Y02098
Y0215
Y02189
X03661Y01941
X03571Y01772
X03571Y01728
Y01559
X03799Y01563
X03934Y01571
X03858Y01709
X03787Y01772
X03673
X03705Y02091
X03799Y02122
X03839Y01988
X0402Y01925
X04024Y02051
Y02276
X03972
X04024Y02394
X03843Y02382
X03803Y02339
X03756Y02398
X03701
X03705Y02327
X04547Y02372
X04606Y02352
X04675Y02382
X04695Y02441
X04675Y025
X04606Y0253
X04547Y0251
X04518Y02441
X045Y02173
Y0211
Y02047
Y01984
Y01917
Y0185
Y01787
Y01724
X04526Y01531
X04589
X04652
X0472
X04882Y01732
Y01878
Y02
Y0213
X04638Y0211
Y0198
Y0185
X0402Y01752
T04
X04028Y00118
X0411
X04193
X04366Y00331
X03969Y00886
X03972Y01217
X04705Y01299
Y01378
X03232Y01293
X02961Y00882
Y00831
Y0078
Y00728
X02835Y00547
X0278
X02724
X02669
X02614
X01874Y00433
X01512Y0037
X02071Y01307
X00409Y01126
X00173Y01319
Y00894
X00409Y00685
X01927Y01455
X01966
Y01494
X02006
Y01455
Y01534
X01966
X01927
Y01494
X01807Y01598
X04236Y01622
X04496Y01646
X04559
X04622
X04685
X04843Y02248
X04236Y01972
T05
X04783Y00827
Y00906
Y00984
Y01063
Y01142
Y0122
Y01299
Y01378
X04862
Y01299
Y0122
Y01142
Y01063
Y00984
Y00906
Y00827
X02087Y01799
X02008
X01929
Y01878
X02008
X02087
X01508Y02492
X01429
X0135
X01272
X01193
X01114
X02165Y01878
X02244
Y01799
X02165
X02323
X02402
X0248
X02559
X02638
Y01878
X02559
X0248
X02402
X02323
X02717
Y01799
X02795
X02874
X02953
X03031
Y01878
X02953
X02874
X02795
X04783Y01535
Y01457
X04862
Y01535
T06
X03019Y00256
X03119
X03441
X03541
X03405Y00699
X03305
X03205
X03105
X03155Y00799
X03255
X03355
X03455
T07
X04719Y00431
Y00605
T08
X02959Y00569
X03601
T09
X04606Y00117
X03505Y00449
X03055
X00354Y00117
Y02439
X04606
M30
