G04*
G04 #@! TF.GenerationSoftware,Altium Limited,Altium Designer,20.2.6 (244)*
G04*
G04 Layer_Physical_Order=6*
G04 Layer_Color=16711680*
%FSLAX23Y23*%
%MOIN*%
G70*
G04*
G04 #@! TF.SameCoordinates,73FAD0BF-AACC-46A3-90AC-D22ED7FD95C1*
G04*
G04*
G04 #@! TF.FilePolarity,Positive*
G04*
G01*
G75*
%ADD11C,0.008*%
%ADD12C,0.010*%
%ADD13C,0.010*%
G04:AMPARAMS|DCode=21|XSize=21mil|YSize=10mil|CornerRadius=1mil|HoleSize=0mil|Usage=FLASHONLY|Rotation=0.000|XOffset=0mil|YOffset=0mil|HoleType=Round|Shape=RoundedRectangle|*
%AMROUNDEDRECTD21*
21,1,0.021,0.007,0,0,0.0*
21,1,0.018,0.010,0,0,0.0*
1,1,0.003,0.009,-0.003*
1,1,0.003,-0.009,-0.003*
1,1,0.003,-0.009,0.003*
1,1,0.003,0.009,0.003*
%
%ADD21ROUNDEDRECTD21*%
G04:AMPARAMS|DCode=22|XSize=21mil|YSize=10mil|CornerRadius=1mil|HoleSize=0mil|Usage=FLASHONLY|Rotation=270.000|XOffset=0mil|YOffset=0mil|HoleType=Round|Shape=RoundedRectangle|*
%AMROUNDEDRECTD22*
21,1,0.021,0.007,0,0,270.0*
21,1,0.018,0.010,0,0,270.0*
1,1,0.003,-0.003,-0.009*
1,1,0.003,-0.003,0.009*
1,1,0.003,0.003,0.009*
1,1,0.003,0.003,-0.009*
%
%ADD22ROUNDEDRECTD22*%
%ADD23R,0.038X0.032*%
G04:AMPARAMS|DCode=27|XSize=23mil|YSize=19mil|CornerRadius=5mil|HoleSize=0mil|Usage=FLASHONLY|Rotation=270.000|XOffset=0mil|YOffset=0mil|HoleType=Round|Shape=RoundedRectangle|*
%AMROUNDEDRECTD27*
21,1,0.023,0.009,0,0,270.0*
21,1,0.013,0.019,0,0,270.0*
1,1,0.009,-0.005,-0.007*
1,1,0.009,-0.005,0.007*
1,1,0.009,0.005,0.007*
1,1,0.009,0.005,-0.007*
%
%ADD27ROUNDEDRECTD27*%
G04:AMPARAMS|DCode=29|XSize=23mil|YSize=19mil|CornerRadius=5mil|HoleSize=0mil|Usage=FLASHONLY|Rotation=0.000|XOffset=0mil|YOffset=0mil|HoleType=Round|Shape=RoundedRectangle|*
%AMROUNDEDRECTD29*
21,1,0.023,0.009,0,0,0.0*
21,1,0.013,0.019,0,0,0.0*
1,1,0.009,0.007,-0.005*
1,1,0.009,-0.007,-0.005*
1,1,0.009,-0.007,0.005*
1,1,0.009,0.007,0.005*
%
%ADD29ROUNDEDRECTD29*%
%ADD33R,0.043X0.055*%
%ADD41R,0.055X0.043*%
G04:AMPARAMS|DCode=54|XSize=31mil|YSize=31mil|CornerRadius=8mil|HoleSize=0mil|Usage=FLASHONLY|Rotation=180.000|XOffset=0mil|YOffset=0mil|HoleType=Round|Shape=RoundedRectangle|*
%AMROUNDEDRECTD54*
21,1,0.031,0.015,0,0,180.0*
21,1,0.015,0.031,0,0,180.0*
1,1,0.015,-0.008,0.008*
1,1,0.015,0.008,0.008*
1,1,0.015,0.008,-0.008*
1,1,0.015,-0.008,-0.008*
%
%ADD54ROUNDEDRECTD54*%
%ADD57C,0.035*%
%ADD65C,0.063*%
%ADD67C,0.039*%
%ADD69C,0.028*%
%ADD70C,0.031*%
%ADD71C,0.024*%
G04:AMPARAMS|DCode=79|XSize=134mil|YSize=134mil|CornerRadius=13mil|HoleSize=0mil|Usage=FLASHONLY|Rotation=180.000|XOffset=0mil|YOffset=0mil|HoleType=Round|Shape=RoundedRectangle|*
%AMROUNDEDRECTD79*
21,1,0.134,0.107,0,0,180.0*
21,1,0.107,0.134,0,0,180.0*
1,1,0.027,-0.054,0.054*
1,1,0.027,0.054,0.054*
1,1,0.027,0.054,-0.054*
1,1,0.027,-0.054,-0.054*
%
%ADD79ROUNDEDRECTD79*%
%ADD83C,0.005*%
%ADD84C,0.020*%
%ADD85C,0.016*%
%ADD86C,0.012*%
%ADD87R,0.059X0.059*%
%ADD88C,0.063*%
%ADD89C,0.055*%
%ADD90C,0.157*%
%ADD91C,0.087*%
G04:AMPARAMS|DCode=92|XSize=51mil|YSize=51mil|CornerRadius=20mil|HoleSize=0mil|Usage=FLASHONLY|Rotation=0.000|XOffset=0mil|YOffset=0mil|HoleType=Round|Shape=RoundedRectangle|*
%AMROUNDEDRECTD92*
21,1,0.051,0.010,0,0,0.0*
21,1,0.010,0.051,0,0,0.0*
1,1,0.041,0.005,-0.005*
1,1,0.041,-0.005,-0.005*
1,1,0.041,-0.005,0.005*
1,1,0.041,0.005,0.005*
%
%ADD92ROUNDEDRECTD92*%
%ADD93C,0.236*%
%ADD94C,0.019*%
G04:AMPARAMS|DCode=95|XSize=31mil|YSize=102mil|CornerRadius=8mil|HoleSize=0mil|Usage=FLASHONLY|Rotation=90.000|XOffset=0mil|YOffset=0mil|HoleType=Round|Shape=RoundedRectangle|*
%AMROUNDEDRECTD95*
21,1,0.031,0.087,0,0,90.0*
21,1,0.016,0.102,0,0,90.0*
1,1,0.016,0.043,0.008*
1,1,0.016,0.043,-0.008*
1,1,0.016,-0.043,-0.008*
1,1,0.016,-0.043,0.008*
%
%ADD95ROUNDEDRECTD95*%
G04:AMPARAMS|DCode=96|XSize=69mil|YSize=69mil|CornerRadius=3mil|HoleSize=0mil|Usage=FLASHONLY|Rotation=90.000|XOffset=0mil|YOffset=0mil|HoleType=Round|Shape=RoundedRectangle|*
%AMROUNDEDRECTD96*
21,1,0.069,0.062,0,0,90.0*
21,1,0.062,0.069,0,0,90.0*
1,1,0.007,0.031,0.031*
1,1,0.007,0.031,-0.031*
1,1,0.007,-0.031,-0.031*
1,1,0.007,-0.031,0.031*
%
%ADD96ROUNDEDRECTD96*%
G04:AMPARAMS|DCode=97|XSize=31mil|YSize=12mil|CornerRadius=3mil|HoleSize=0mil|Usage=FLASHONLY|Rotation=90.000|XOffset=0mil|YOffset=0mil|HoleType=Round|Shape=RoundedRectangle|*
%AMROUNDEDRECTD97*
21,1,0.031,0.006,0,0,90.0*
21,1,0.026,0.012,0,0,90.0*
1,1,0.006,0.003,0.013*
1,1,0.006,0.003,-0.013*
1,1,0.006,-0.003,-0.013*
1,1,0.006,-0.003,0.013*
%
%ADD97ROUNDEDRECTD97*%
G04:AMPARAMS|DCode=98|XSize=31mil|YSize=12mil|CornerRadius=3mil|HoleSize=0mil|Usage=FLASHONLY|Rotation=180.000|XOffset=0mil|YOffset=0mil|HoleType=Round|Shape=RoundedRectangle|*
%AMROUNDEDRECTD98*
21,1,0.031,0.006,0,0,180.0*
21,1,0.026,0.012,0,0,180.0*
1,1,0.006,-0.013,0.003*
1,1,0.006,0.013,0.003*
1,1,0.006,0.013,-0.003*
1,1,0.006,-0.013,-0.003*
%
%ADD98ROUNDEDRECTD98*%
%ADD99R,0.087X0.059*%
G04:AMPARAMS|DCode=100|XSize=31mil|YSize=31mil|CornerRadius=8mil|HoleSize=0mil|Usage=FLASHONLY|Rotation=270.000|XOffset=0mil|YOffset=0mil|HoleType=Round|Shape=RoundedRectangle|*
%AMROUNDEDRECTD100*
21,1,0.031,0.015,0,0,270.0*
21,1,0.015,0.031,0,0,270.0*
1,1,0.015,-0.008,-0.008*
1,1,0.015,-0.008,0.008*
1,1,0.015,0.008,0.008*
1,1,0.015,0.008,-0.008*
%
%ADD100ROUNDEDRECTD100*%
%ADD101R,0.011X0.033*%
%ADD102R,0.033X0.011*%
%ADD103R,0.081X0.081*%
G04:AMPARAMS|DCode=104|XSize=47mil|YSize=47mil|CornerRadius=12mil|HoleSize=0mil|Usage=FLASHONLY|Rotation=270.000|XOffset=0mil|YOffset=0mil|HoleType=Round|Shape=RoundedRectangle|*
%AMROUNDEDRECTD104*
21,1,0.047,0.024,0,0,270.0*
21,1,0.024,0.047,0,0,270.0*
1,1,0.024,-0.012,-0.012*
1,1,0.024,-0.012,0.012*
1,1,0.024,0.012,0.012*
1,1,0.024,0.012,-0.012*
%
%ADD104ROUNDEDRECTD104*%
%ADD105O,0.059X0.011*%
%ADD106R,0.059X0.011*%
%ADD107R,0.032X0.038*%
%ADD108R,0.008X0.012*%
%ADD109R,0.008X0.014*%
%ADD110R,0.203X0.189*%
%ADD111R,0.032X0.017*%
%ADD112R,0.039X0.087*%
%ADD113R,0.130X0.087*%
G04:AMPARAMS|DCode=114|XSize=28mil|YSize=67mil|CornerRadius=7mil|HoleSize=0mil|Usage=FLASHONLY|Rotation=270.000|XOffset=0mil|YOffset=0mil|HoleType=Round|Shape=RoundedRectangle|*
%AMROUNDEDRECTD114*
21,1,0.028,0.053,0,0,270.0*
21,1,0.014,0.067,0,0,270.0*
1,1,0.014,-0.027,-0.007*
1,1,0.014,-0.027,0.007*
1,1,0.014,0.027,0.007*
1,1,0.014,0.027,-0.007*
%
%ADD114ROUNDEDRECTD114*%
%ADD115R,0.020X0.024*%
G36*
X4008Y890D02*
X3894Y890D01*
X3890Y894D01*
X3874Y894D01*
Y878D01*
X3894D01*
X3929Y843D01*
X4055Y843D01*
X4102Y890D01*
X4146Y890D01*
Y937D01*
X3988Y937D01*
Y913D01*
X4008D01*
X4008Y890D01*
D02*
G37*
G36*
X4059Y819D02*
X4035Y819D01*
X3957D01*
X3953Y815D01*
X3953Y772D01*
X3961Y764D01*
X4051Y764D01*
X4118Y697D01*
X4118Y642D01*
X4181Y642D01*
Y697D01*
X4059Y819D01*
D02*
G37*
G36*
X4008Y1244D02*
X3894Y1244D01*
X3890Y1248D01*
X3874Y1248D01*
Y1232D01*
X3894D01*
X3929Y1197D01*
X4055Y1197D01*
X4102Y1244D01*
X4146Y1244D01*
Y1291D01*
X3988Y1291D01*
Y1268D01*
X4008D01*
X4008Y1244D01*
D02*
G37*
G36*
X4059Y1173D02*
X4035Y1173D01*
X3957D01*
X3953Y1169D01*
X3953Y1126D01*
X3961Y1118D01*
X4051Y1118D01*
X4118Y1051D01*
X4118Y996D01*
X4181Y996D01*
Y1051D01*
X4059Y1173D01*
D02*
G37*
G36*
X4059Y1528D02*
X4035Y1528D01*
X3957D01*
X3953Y1524D01*
X3953Y1480D01*
X3961Y1472D01*
X4051Y1472D01*
X4118Y1406D01*
X4118Y1350D01*
X4181Y1350D01*
Y1406D01*
X4059Y1528D01*
D02*
G37*
G36*
X4008Y1598D02*
X3894Y1598D01*
X3890Y1602D01*
X3874Y1602D01*
Y1587D01*
X3894D01*
X3929Y1551D01*
X4055Y1551D01*
X4102Y1598D01*
X4146Y1598D01*
Y1646D01*
X3988Y1646D01*
Y1622D01*
X4008D01*
X4008Y1598D01*
D02*
G37*
G36*
X4059Y1880D02*
X4035Y1880D01*
X3957D01*
X3953Y1876D01*
X3953Y1833D01*
X3961Y1825D01*
X4051Y1825D01*
X4118Y1758D01*
X4118Y1703D01*
X4181Y1703D01*
Y1758D01*
X4059Y1880D01*
D02*
G37*
G36*
X4008Y1951D02*
X3894Y1951D01*
X3890Y1955D01*
X3874Y1955D01*
Y1939D01*
X3894D01*
X3929Y1904D01*
X4055Y1904D01*
X4102Y1951D01*
X4146Y1951D01*
Y1998D01*
X3988Y1998D01*
Y1974D01*
X4008D01*
X4008Y1951D01*
D02*
G37*
G36*
X4008Y2303D02*
X3894Y2303D01*
X3890Y2307D01*
X3874Y2307D01*
Y2291D01*
X3894D01*
X3929Y2256D01*
X4055Y2256D01*
X4102Y2303D01*
X4146Y2303D01*
Y2350D01*
X3988Y2350D01*
Y2327D01*
X4008D01*
X4008Y2303D01*
D02*
G37*
G36*
X4059Y2232D02*
X4035Y2232D01*
X3957D01*
X3953Y2228D01*
X3953Y2185D01*
X3961Y2177D01*
X4051Y2177D01*
X4118Y2110D01*
X4118Y2055D01*
X4181Y2055D01*
Y2110D01*
X4059Y2232D01*
D02*
G37*
D11*
X3863Y1233D02*
X3872D01*
X1963Y1416D02*
Y1522D01*
X1964Y1523D02*
X1969Y1528D01*
X3713Y864D02*
X3728Y880D01*
X2268Y1318D02*
X2272Y1315D01*
X2268Y1318D02*
Y1350D01*
X3713Y1219D02*
X3728Y1234D01*
X3915Y925D02*
X3919Y929D01*
X4677Y1052D02*
X4747D01*
X4823Y1052D02*
X4889D01*
X4819Y1103D02*
X4889D01*
X3915Y1280D02*
X3919Y1283D01*
X4678Y1201D02*
X4748D01*
X4678Y1453D02*
X4748D01*
X4823Y1201D02*
X4889D01*
X4678Y1500D02*
X4748D01*
X3713Y1925D02*
X3728Y1941D01*
X3915Y1634D02*
X3919Y1638D01*
X3915Y2339D02*
X3919Y2343D01*
X4165Y1606D02*
X4280D01*
X1858Y1701D02*
Y1770D01*
X517Y727D02*
X591D01*
X517Y774D02*
X591D01*
X517Y877D02*
X591D01*
X517Y826D02*
X591D01*
X3244Y1777D02*
X3283D01*
X4678Y1252D02*
X4748D01*
X3149Y1753D02*
X3164D01*
X3156Y1847D02*
X3164D01*
X618Y2248D02*
X642Y2272D01*
X3863Y2292D02*
X3872D01*
X4220Y1994D02*
X4280D01*
X3863Y1940D02*
X3872D01*
X4223Y654D02*
X4228D01*
X4220Y650D02*
X4223Y654D01*
X4507Y433D02*
X4508Y433D01*
X4146Y583D02*
X4189Y541D01*
Y428D02*
Y541D01*
X4747Y1052D02*
X4748Y1052D01*
X4677Y1052D02*
X4677Y1052D01*
X4889Y1201D02*
X4890Y1202D01*
X4823Y1201D02*
X4823Y1201D01*
X4189Y428D02*
X4276Y341D01*
X4438Y552D02*
X4583D01*
X4413Y528D02*
X4438Y552D01*
X4342Y394D02*
X4350D01*
X4320Y379D02*
X4327D01*
X4311Y410D02*
X4343D01*
X4457Y524D01*
X4543D01*
X4327Y379D02*
X4342Y394D01*
X4350D02*
X4436Y481D01*
X4543D01*
X4358Y377D02*
X4415Y433D01*
X4507D01*
X4358Y377D02*
Y377D01*
X4266Y645D02*
X4310Y689D01*
X4228Y654D02*
X4280Y705D01*
X4310Y689D02*
X4838D01*
X4917Y768D01*
X4795Y705D02*
X4917Y827D01*
X4280Y705D02*
X4795D01*
X4279Y378D02*
X4285D01*
X4413Y575D02*
X4582D01*
X3760Y748D02*
X3763Y752D01*
X3760Y783D02*
Y791D01*
Y811D02*
X3760Y811D01*
X3760Y846D02*
X3760Y846D01*
Y811D02*
Y846D01*
Y811D02*
X3760Y811D01*
X3760Y803D02*
Y811D01*
Y791D02*
Y803D01*
X3760Y886D02*
X3760Y886D01*
X3733Y886D02*
X3760D01*
X3728Y880D02*
Y881D01*
X3733Y886D01*
X3799Y813D02*
X3801Y811D01*
X3807D01*
X3831Y925D02*
X3831Y925D01*
X3803Y925D02*
X3803Y925D01*
X3899Y670D02*
X3903D01*
X3896Y679D02*
X3898Y677D01*
X3933Y638D02*
Y640D01*
X3903Y670D02*
X3933Y640D01*
X3895Y674D02*
X3899Y670D01*
X3896Y840D02*
Y850D01*
X3872Y879D02*
Y883D01*
X3870Y925D02*
X3870Y925D01*
Y886D02*
X3870Y886D01*
X3976Y677D02*
X3976Y677D01*
X3969Y731D02*
X3976Y723D01*
X3977Y867D02*
X3978Y868D01*
X3977Y867D02*
X3997D01*
X3969Y886D02*
X3973Y890D01*
X3978Y868D02*
Y925D01*
X4146Y909D02*
X4150Y913D01*
X3760Y783D02*
X3772Y771D01*
X3856Y840D02*
Y872D01*
X3896Y679D02*
Y702D01*
X3976Y677D02*
Y723D01*
X3705Y677D02*
X3705Y677D01*
X3705Y709D02*
X3705Y709D01*
X3763Y752D02*
X3807D01*
X3705Y813D02*
X3705Y813D01*
X3705Y803D02*
Y813D01*
X3760Y811D02*
X3801D01*
X3760Y791D02*
X3807D01*
X3856Y872D02*
X3863Y879D01*
X3870Y886D02*
X3949D01*
X3997Y867D02*
X4039Y909D01*
X3863Y879D02*
X3872D01*
X3949Y886D02*
X3972Y862D01*
X3772Y771D02*
X3807D01*
X4039Y909D02*
X4146D01*
X173Y874D02*
X217D01*
X4297Y341D02*
X4299Y339D01*
X4276Y341D02*
X4297D01*
X4606Y552D02*
X4765D01*
X4582Y575D02*
X4606Y552D01*
X4583Y552D02*
X4599Y536D01*
X4765D01*
X4765Y552D02*
X4813Y599D01*
X4765Y536D02*
X4809Y492D01*
X4590Y351D02*
X4905D01*
X4508Y433D02*
X4590Y351D01*
X4811Y378D02*
X4811Y378D01*
X4811Y378D02*
Y406D01*
X4811Y406D02*
X4811Y406D01*
X4850Y378D02*
X4850Y378D01*
X4889D01*
X4889Y378D01*
X4809Y492D02*
X4811D01*
X4850D02*
X4850Y492D01*
X4889D01*
X4889Y492D01*
X4854Y599D02*
X4854Y599D01*
X4889D01*
X4889Y599D01*
Y433D02*
X4921D01*
X4889Y654D02*
X4916D01*
X4813Y599D02*
X4815D01*
X4299Y339D02*
X4303Y343D01*
X4325D01*
X4358Y377D01*
X4285Y378D02*
X4285Y378D01*
Y384D01*
X4311Y410D01*
X4543Y481D02*
X4543Y481D01*
X4905Y351D02*
X4921Y367D01*
Y433D01*
Y544D01*
X4921Y433D02*
X4921Y433D01*
Y544D02*
Y649D01*
X4889Y548D02*
X4893Y544D01*
X4921D01*
X4916Y654D02*
X4921Y649D01*
X4366Y1248D02*
X4425D01*
X4425Y1248D01*
X4366Y1098D02*
X4366Y1098D01*
X4421D01*
X4421Y1098D01*
X3969Y1440D02*
X3977Y1431D01*
Y1402D02*
Y1431D01*
X3976Y1401D02*
X3977Y1402D01*
X3976Y1386D02*
Y1401D01*
X3949Y1413D02*
X3949D01*
X3803Y1280D02*
X3803Y1280D01*
X3795Y1228D02*
X3801D01*
X3783Y1240D02*
X3795Y1228D01*
X3937Y1384D02*
Y1386D01*
X4366Y1148D02*
X4367Y1149D01*
X4425D01*
X4425Y1150D01*
X3705Y1063D02*
X3705Y1063D01*
X4820Y1305D02*
X4822Y1304D01*
X4884D02*
X4886Y1302D01*
X4822Y1304D02*
X4884D01*
X4823Y1449D02*
X4824Y1450D01*
X4884D01*
X4366Y1248D02*
X4366Y1248D01*
X4134Y1969D02*
X4138Y1972D01*
X4150Y1974D02*
X4169Y1994D01*
X3976Y1700D02*
X3989Y1713D01*
X4063D01*
X4063Y1713D01*
X4020Y1634D02*
X4035Y1619D01*
X3978Y1634D02*
X4020D01*
X4035Y1613D02*
Y1619D01*
X3937Y1384D02*
X3967Y1353D01*
X3971D01*
X3976Y1348D01*
Y1346D02*
Y1348D01*
X4035Y1613D02*
X4039Y1618D01*
X4035Y1583D02*
Y1613D01*
X4169Y1994D02*
X4220D01*
Y2354D01*
X3701Y2366D02*
X3701Y2366D01*
X3760Y2161D02*
X3763Y2165D01*
X3760Y2197D02*
X3772Y2185D01*
X3760Y2197D02*
Y2204D01*
X3760Y2224D02*
Y2260D01*
X3760Y2260D02*
X3760Y2260D01*
X3760Y2224D02*
X3760Y2224D01*
X3760Y2224D01*
X3760Y2299D02*
X3760Y2299D01*
X3733Y2299D02*
X3760D01*
X3756Y2341D02*
Y2366D01*
X3799Y2226D02*
Y2252D01*
X3801Y2224D02*
X3807D01*
X3799Y2226D02*
X3801Y2224D01*
X3856Y2254D02*
Y2285D01*
X3832Y2282D02*
X3837Y2278D01*
Y2254D02*
Y2278D01*
X3795Y2303D02*
X3831D01*
X3795Y2303D02*
X3795Y2303D01*
X3803Y2339D02*
X3803Y2339D01*
X3831D02*
X3831Y2339D01*
X3795Y2299D02*
Y2301D01*
X3896Y2093D02*
X3898Y2091D01*
X3896Y2093D02*
Y2116D01*
X3937Y2089D02*
Y2091D01*
X3896Y2254D02*
Y2263D01*
X3870Y2299D02*
X3870Y2299D01*
X3870Y2339D02*
X3870Y2339D01*
X3977Y2280D02*
X3978Y2281D01*
X3972Y2276D02*
X3977Y2280D01*
X3997D01*
X3978Y2339D02*
X3980Y2341D01*
X4146Y2323D02*
X4150Y2327D01*
X3713Y2278D02*
X3728Y2293D01*
X3760Y2204D02*
Y2217D01*
Y2224D01*
X3728Y2295D02*
X3733Y2299D01*
X3728Y2293D02*
Y2295D01*
X3831Y2299D02*
X3832Y2298D01*
Y2282D02*
Y2298D01*
X3898Y2051D02*
X3898Y2051D01*
X3898Y2051D02*
X3898D01*
X3874Y2051D02*
X3874Y2051D01*
X3898D01*
X3872Y2292D02*
Y2296D01*
X3901Y2293D02*
X3906Y2289D01*
X3976Y2051D02*
Y2053D01*
X3971Y2058D02*
X3976Y2053D01*
X3969Y2058D02*
X3971D01*
X3978Y2281D02*
Y2339D01*
X3705Y2091D02*
X3705Y2091D01*
X3705Y2122D02*
X3705Y2122D01*
X3763Y2165D02*
X3807D01*
X3772Y2185D02*
X3807D01*
X3760Y2204D02*
X3807D01*
X3760Y2224D02*
X3801D01*
X3705Y2226D02*
X3705Y2226D01*
X3756Y2341D02*
X3795Y2301D01*
X3701Y2366D02*
X3705D01*
X3937Y2089D02*
X3942Y2084D01*
X3944D01*
X3870Y2299D02*
X3949D01*
X3705Y2217D02*
Y2226D01*
X3949Y2299D02*
X3972Y2276D01*
X3997Y2280D02*
X4039Y2323D01*
X3856Y2285D02*
X3863Y2292D01*
X4039Y2323D02*
X4146D01*
X4150Y1622D02*
X4165Y1606D01*
X3856Y1549D02*
X3858Y1551D01*
Y1568D01*
X3868Y1577D01*
Y1592D01*
X3870Y1594D01*
X3870Y1594D02*
X3949D01*
X3895Y1029D02*
X3899Y1025D01*
X3705Y1386D02*
X3705Y1386D01*
X3760Y1240D02*
X3783D01*
X4748Y1453D02*
X4748Y1454D01*
X4677Y1453D02*
X4678Y1453D01*
X3571Y2366D02*
X3701D01*
X3756Y2366D02*
Y2398D01*
X3756Y2398D01*
X3283Y2012D02*
X3331Y2059D01*
Y2126D02*
X3571Y2366D01*
X3331Y2059D02*
Y2126D01*
X1787Y2012D02*
X3283D01*
X1720Y1945D02*
X1787Y2012D01*
X4157Y2413D02*
X4163Y2408D01*
X4166D01*
X4220Y2354D01*
X4079Y2413D02*
X4079Y2413D01*
X4118D01*
X4118Y2413D01*
X4024Y2382D02*
Y2386D01*
X4024Y2386D02*
Y2413D01*
X4024Y2386D02*
X4024Y2386D01*
X3843Y2413D02*
X3843Y2413D01*
X3843Y2382D02*
Y2413D01*
X3941Y2413D02*
X3941Y2413D01*
X3898Y2413D02*
X3941D01*
X3898Y2413D02*
X3898Y2413D01*
X3980Y2341D02*
Y2413D01*
X3937Y1736D02*
X3967Y1706D01*
X3937Y1736D02*
Y1738D01*
X3967Y1706D02*
X3971D01*
X3976Y1700D01*
Y1699D02*
Y1700D01*
X4058Y1968D02*
X4063Y1972D01*
X4037Y1968D02*
X4058D01*
X3997Y1928D02*
X4037Y1968D01*
X3976Y1738D02*
Y1784D01*
X3969Y1792D02*
X3976Y1784D01*
X3760Y1844D02*
X3772Y1832D01*
X3760Y1844D02*
Y1852D01*
X3760Y1872D02*
X3760Y1872D01*
X3760Y1872D02*
X3760Y1872D01*
X3760Y1864D02*
Y1872D01*
Y1852D02*
Y1864D01*
X3760Y1947D02*
X3760Y1947D01*
X3728Y1942D02*
X3733Y1947D01*
X3728Y1941D02*
Y1942D01*
X3760Y1907D02*
X3760Y1907D01*
X3799Y1874D02*
X3801Y1872D01*
X3807D01*
X3856Y1901D02*
Y1933D01*
X3933Y1699D02*
Y1701D01*
X3901Y1811D02*
X3906Y1806D01*
X3896Y1740D02*
Y1763D01*
X3870Y1947D02*
X3870Y1947D01*
X3872Y1940D02*
Y1944D01*
X3896Y1901D02*
Y1911D01*
X3870Y1986D02*
X3870Y1986D01*
X3977Y1928D02*
X3978Y1929D01*
X3972Y1923D02*
X3977Y1928D01*
X3997D01*
X3760Y1809D02*
X3763Y1813D01*
X3760Y1872D02*
Y1907D01*
X3903Y1731D02*
X3933Y1701D01*
X3896Y1740D02*
X3898Y1738D01*
X3899Y1731D02*
X3903D01*
X3895Y1735D02*
X3899Y1731D01*
X3976Y1738D02*
X3976Y1738D01*
X3978Y1929D02*
Y1986D01*
X3760Y1852D02*
X3807D01*
X3772Y1832D02*
X3807D01*
X3760Y1872D02*
X3801D01*
X3705Y1874D02*
X3705Y1874D01*
X3705Y1864D02*
Y1874D01*
X3870Y1947D02*
X3949D01*
X3972Y1923D01*
X3856Y1933D02*
X3863Y1940D01*
X3763Y1813D02*
X3807D01*
X3705Y1417D02*
X3705Y1417D01*
X3705Y1512D02*
Y1522D01*
X3705Y1522D01*
X3760Y1500D02*
Y1512D01*
Y1520D01*
X3760Y1520D01*
X3760Y1492D02*
Y1500D01*
X3760Y1520D02*
X3760Y1519D01*
X3760Y1555D02*
X3760Y1555D01*
X3713Y1573D02*
X3728Y1589D01*
Y1590D01*
X3733Y1594D01*
X3760D01*
X3760Y1594D01*
X3801Y1519D02*
X3807D01*
X3799Y1521D02*
X3801Y1519D01*
X3896Y1388D02*
Y1411D01*
Y1549D02*
Y1559D01*
X3870Y1634D02*
X3870Y1634D01*
X3949Y1594D02*
X3972Y1571D01*
X3972Y1571D02*
X3978Y1577D01*
X3760Y1457D02*
X3763Y1460D01*
X3760Y1520D02*
Y1555D01*
X3895Y1383D02*
X3899Y1379D01*
X3903D01*
X3896Y1388D02*
X3898Y1386D01*
X3976Y1386D02*
X3976Y1386D01*
X3978Y1577D02*
Y1634D01*
X3760Y1492D02*
X3772Y1480D01*
X3760Y1519D02*
X3801D01*
X3933Y1346D02*
Y1348D01*
X3903Y1379D02*
X3933Y1348D01*
X3760Y1500D02*
X3807D01*
X3772Y1480D02*
X3807D01*
X4039Y1618D02*
X4146D01*
X3763Y1460D02*
X3807D01*
X3705Y1157D02*
Y1167D01*
X3705Y1167D01*
X3760Y1145D02*
Y1157D01*
Y1165D01*
X3760Y1165D01*
X3760Y1201D02*
X3760Y1201D01*
X3760Y1138D02*
Y1145D01*
X3760Y1165D02*
X3760Y1165D01*
X3760Y1165D02*
Y1201D01*
X3728Y1234D02*
Y1236D01*
X3733Y1240D01*
X3760D01*
X3760Y1240D01*
X3772Y1126D02*
X3807D01*
X3801Y1165D02*
X3807D01*
X3799Y1167D02*
X3801Y1165D01*
X3831Y1280D02*
X3831Y1280D01*
X3899Y1025D02*
X3903D01*
X3896Y1033D02*
X3898Y1031D01*
X3896Y1194D02*
Y1204D01*
X3856Y1226D02*
X3863Y1233D01*
X3870Y1240D02*
X3870Y1240D01*
X3872Y1233D02*
Y1237D01*
X3870Y1280D02*
X3870Y1280D01*
X3976Y1031D02*
X3976Y1031D01*
X3933Y992D02*
Y994D01*
X3969Y1086D02*
X3976Y1078D01*
X3977Y1221D02*
X3997D01*
X3977D02*
X3978Y1222D01*
Y1280D01*
X3896Y1033D02*
Y1057D01*
X3856Y1194D02*
Y1226D01*
X3976Y1031D02*
Y1078D01*
X3949Y1240D02*
X3972Y1217D01*
X3972Y1217D02*
X3977Y1221D01*
X3760Y1102D02*
X3763Y1106D01*
X3760Y1165D02*
X3801D01*
X3903Y1025D02*
X3933Y994D01*
X3997Y1221D02*
X4039Y1264D01*
X3870Y1240D02*
X3949D01*
X3760Y1138D02*
X3772Y1126D01*
X3763Y1106D02*
X3807D01*
X3760Y1145D02*
X3807D01*
X4039Y1264D02*
X4146D01*
X3323Y1807D02*
Y1870D01*
X177Y1150D02*
Y1165D01*
X522Y2286D02*
X634Y2398D01*
X4677Y1201D02*
X4678Y1201D01*
X4748D02*
X4748Y1202D01*
X4748Y1252D02*
X4748Y1253D01*
X4677Y1252D02*
X4678Y1252D01*
X4622Y1350D02*
X4743D01*
X4744Y1352D01*
X4740Y1406D02*
X4744Y1402D01*
X4626Y1406D02*
X4740D01*
X4622Y1409D02*
X4626Y1406D01*
X4823Y1051D02*
X4823Y1052D01*
X4889D02*
X4890Y1052D01*
X4819Y1102D02*
X4823D01*
X4819Y1102D02*
X4819Y1102D01*
X4819Y1102D02*
X4819Y1103D01*
X4677Y1500D02*
X4678Y1500D01*
X4748D02*
X4748Y1501D01*
X4889Y1103D02*
X4890Y1103D01*
X3244Y1733D02*
X3244Y1733D01*
X3208Y1733D02*
X3244D01*
X124Y673D02*
X126Y675D01*
Y713D01*
X437Y876D02*
Y878D01*
Y876D02*
X457Y857D01*
Y854D02*
Y857D01*
X254Y874D02*
X256D01*
X244Y855D02*
X249Y860D01*
X244Y849D02*
Y855D01*
X249Y869D02*
X254Y874D01*
X249Y860D02*
Y869D01*
X437Y1321D02*
X457Y1302D01*
X437Y1321D02*
Y1323D01*
X457Y1299D02*
Y1302D01*
X176Y1319D02*
X217D01*
X216Y1274D02*
Y1318D01*
Y829D02*
Y873D01*
X98Y854D02*
X98Y854D01*
X87Y854D02*
X98D01*
X216Y873D02*
X217Y874D01*
X268Y644D02*
Y646D01*
X232Y608D02*
X268Y644D01*
X384Y874D02*
X390Y880D01*
X339Y874D02*
X384D01*
X337Y873D02*
X339Y874D01*
X337Y853D02*
Y873D01*
X323Y839D02*
X337Y853D01*
X319Y839D02*
X323D01*
X455Y813D02*
X457Y815D01*
X396Y821D02*
X402Y815D01*
X453Y776D02*
X455Y778D01*
X453Y776D02*
X453Y776D01*
X374Y805D02*
X390Y821D01*
X396D01*
X374Y783D02*
X374Y783D01*
X374Y783D02*
X374Y783D01*
X374Y776D02*
Y783D01*
X215Y828D02*
X216Y829D01*
X176Y799D02*
X176Y799D01*
X154Y799D02*
X176D01*
X126Y827D02*
Y850D01*
Y827D02*
X154Y799D01*
X114Y756D02*
X118Y752D01*
X87Y854D02*
X87Y854D01*
X87Y768D02*
Y854D01*
Y768D02*
X98Y756D01*
X114D01*
X176Y740D02*
X176Y740D01*
X153Y740D02*
X176D01*
X126Y713D02*
X153Y740D01*
X177Y705D02*
Y720D01*
X161Y689D02*
X177Y705D01*
X161Y646D02*
Y689D01*
X232Y646D02*
X232Y646D01*
X215Y648D02*
Y692D01*
X213Y646D02*
X232D01*
X213D02*
X215Y648D01*
X197Y646D02*
X213D01*
X197Y646D02*
X197Y646D01*
X297Y874D02*
X299D01*
X283Y860D02*
X297Y874D01*
X281Y860D02*
X283D01*
X274Y852D02*
X281Y860D01*
X274Y828D02*
Y852D01*
X91Y1051D02*
Y1053D01*
Y1091D02*
X91Y1091D01*
X87Y1213D02*
X98Y1201D01*
X87Y1299D02*
X87Y1299D01*
X98D02*
X98Y1299D01*
X87Y1299D02*
X98D01*
X126Y1089D02*
Y1091D01*
X161Y1134D02*
X177Y1150D01*
X176Y1244D02*
X176Y1244D01*
X154Y1244D02*
X176D01*
X114Y1201D02*
X118Y1197D01*
X176Y1185D02*
X176Y1185D01*
X153Y1185D02*
X176D01*
X126Y1272D02*
Y1295D01*
X232Y1091D02*
X232Y1091D01*
X197Y1091D02*
X197Y1091D01*
X213D01*
X232D01*
X215Y1273D02*
X216Y1274D01*
Y1318D02*
X217Y1319D01*
X256Y1298D02*
Y1319D01*
X297Y1319D02*
X299D01*
X283Y1305D02*
X297Y1319D01*
X281Y1305D02*
X283D01*
X274Y1297D02*
X281Y1305D01*
X274Y1273D02*
Y1297D01*
X337Y1318D02*
X339Y1319D01*
X337Y1298D02*
Y1318D01*
X319Y1283D02*
X323D01*
X337Y1298D01*
X409Y1091D02*
X409Y1091D01*
X374Y1228D02*
X374Y1228D01*
X374Y1220D02*
Y1228D01*
Y1228D02*
X374Y1228D01*
X390Y1266D02*
X396D01*
X402Y1260D01*
X384Y1319D02*
X390Y1325D01*
X453Y1220D02*
X453Y1220D01*
X455Y1222D01*
X91Y1091D02*
Y1118D01*
X126Y1091D02*
Y1157D01*
X161Y1091D02*
Y1134D01*
X126Y1157D02*
X153Y1185D01*
X126Y1272D02*
X154Y1244D01*
X213Y1091D02*
X215Y1093D01*
Y1137D01*
X374Y1250D02*
X390Y1266D01*
X455Y1258D02*
X457Y1260D01*
X87Y1213D02*
Y1299D01*
X268Y1089D02*
Y1091D01*
X232Y1053D02*
X268Y1089D01*
X91Y1053D02*
X126Y1089D01*
X98Y1201D02*
X114D01*
X339Y1319D02*
X384D01*
X517Y928D02*
X591D01*
X590Y1028D02*
X591Y1028D01*
X516Y1028D02*
X516Y1028D01*
X1835Y1949D02*
X3051D01*
X1791Y1906D02*
X1835Y1949D01*
X1756Y1892D02*
X1758Y1894D01*
X1773Y1911D02*
X1827Y1965D01*
X1772Y1878D02*
X1773Y1880D01*
X1741Y1923D02*
X1814Y1996D01*
X1758Y1894D02*
Y1918D01*
X1741Y1899D02*
Y1923D01*
X1773Y1880D02*
Y1911D01*
X1758Y1918D02*
X1820Y1980D01*
X1814Y1996D02*
X3071D01*
X1756Y1886D02*
Y1892D01*
X1638Y1795D02*
X1665Y1823D01*
Y1854D01*
X1638Y1795D02*
Y1795D01*
X1665Y1894D02*
Y1895D01*
X1622Y1933D02*
X1626D01*
X1658Y1901D01*
X1660D01*
X1665Y1895D01*
X1788Y1090D02*
X2406D01*
X2421Y1075D01*
X1794Y1102D02*
X2441D01*
X2461Y1083D01*
X2452Y1115D02*
X2480Y1087D01*
Y1063D02*
Y1087D01*
X1799Y1115D02*
X2452D01*
X2464Y1131D02*
X2500Y1094D01*
Y1079D02*
Y1094D01*
X2471Y1147D02*
X2520Y1098D01*
X1812Y1147D02*
X2471D01*
X2520Y1063D02*
Y1098D01*
X1806Y1131D02*
X2464D01*
X2585Y1250D02*
X2756Y1079D01*
Y1063D02*
Y1079D01*
X2776Y1079D02*
Y1081D01*
X2606Y1251D02*
X2776Y1081D01*
X2565Y1250D02*
X2736Y1079D01*
X1549Y1122D02*
X1727Y944D01*
X1549Y1122D02*
Y1122D01*
X1559Y1130D02*
X1732Y957D01*
X1559Y1130D02*
Y1146D01*
X1575Y1136D02*
Y1137D01*
Y1136D02*
X1739Y972D01*
X1560Y1170D02*
X1609Y1121D01*
Y1121D02*
X1744Y985D01*
X1609Y1121D02*
Y1121D01*
X1561Y1187D02*
X1749Y999D01*
X1561Y1187D02*
Y1187D01*
X1562Y1205D02*
X1755Y1012D01*
X1560Y1205D02*
X1562D01*
X1749Y999D02*
X2251D01*
X1570Y1215D02*
X1760Y1025D01*
X1605Y1235D02*
X1775Y1064D01*
X1605Y1235D02*
Y1235D01*
X1583Y1220D02*
Y1220D01*
Y1220D02*
X1765Y1038D01*
X1595Y1226D02*
X1770Y1051D01*
X1570Y1226D02*
X1572Y1229D01*
Y1256D01*
X1595Y1226D02*
Y1226D01*
X1570Y1215D02*
Y1226D01*
X1770Y1051D02*
X2271D01*
X1512Y1051D02*
X1559D01*
X1559Y1051D01*
X1512Y1051D02*
X1512Y1051D01*
X1727Y944D02*
X2229D01*
X1732Y957D02*
X2235D01*
X1739Y972D02*
X2241D01*
X1744Y985D02*
X2246D01*
X1755Y1012D02*
X2256D01*
X1760Y1025D02*
X2261D01*
X1765Y1038D02*
X2266D01*
X1775Y1064D02*
X2318D01*
X1645Y1213D02*
Y1215D01*
Y1213D02*
X1781Y1077D01*
X2346D01*
X1603Y1276D02*
Y1377D01*
X1606Y1254D02*
X1645Y1215D01*
X1606Y1254D02*
Y1273D01*
X1603Y1276D02*
X1606Y1273D01*
X1677Y1282D02*
X1812Y1147D01*
X1646Y1268D02*
Y1512D01*
X1677Y1282D02*
Y1610D01*
X1632Y1264D02*
X1794Y1102D01*
X1632Y1264D02*
Y1502D01*
X1619Y1259D02*
X1788Y1090D01*
X1661Y1275D02*
Y1583D01*
Y1275D02*
X1806Y1131D01*
X1646Y1268D02*
X1799Y1115D01*
X1619Y1259D02*
Y1487D01*
X1690Y1616D02*
Y1621D01*
X1690Y1288D02*
Y1616D01*
Y1288D02*
X1819Y1159D01*
X2479D01*
X1690Y1616D02*
X1690Y1616D01*
X1833Y1199D02*
X2494D01*
X1756Y1313D02*
X1844Y1224D01*
X1741Y1309D02*
Y1642D01*
X1716Y1299D02*
Y1632D01*
X1828Y1186D02*
X2489D01*
X1703Y1293D02*
Y1626D01*
X1781Y1323D02*
Y1656D01*
X1849Y1237D02*
X2520D01*
X1769Y1318D02*
Y1651D01*
X1756Y1313D02*
Y1646D01*
X1716Y1299D02*
X1828Y1186D01*
X1703Y1293D02*
X1823Y1173D01*
X1728Y1304D02*
X1833Y1199D01*
X1844Y1224D02*
X2515D01*
X1781Y1323D02*
X1855Y1250D01*
X1769Y1318D02*
X1849Y1237D01*
X1728Y1304D02*
Y1637D01*
X1823Y1173D02*
X2484D01*
X1855Y1250D02*
X2526D01*
X1839Y1212D02*
X2500D01*
X1741Y1309D02*
X1839Y1212D01*
X2520Y1237D02*
X2675Y1082D01*
X2526Y1250D02*
X2697Y1079D01*
X2515Y1224D02*
X2657Y1082D01*
X2235Y957D02*
X2344Y848D01*
X2256Y1012D02*
X2303Y965D01*
X2251Y999D02*
X2305Y945D01*
X2241Y972D02*
X2328Y886D01*
X2246Y985D02*
X2306Y925D01*
X2229Y944D02*
X2346Y827D01*
X2362D01*
X2305Y945D02*
X2362D01*
X2303Y965D02*
X2339D01*
X2328Y886D02*
X2343D01*
X2261Y1025D02*
X2302Y984D01*
X2266Y1038D02*
X2300Y1004D01*
X2306Y925D02*
X2343D01*
X2271Y1051D02*
X2299Y1024D01*
X2302Y984D02*
X2362D01*
X2300Y1004D02*
X2339D01*
X2299Y1024D02*
X2362D01*
X2318Y1064D02*
X2339Y1043D01*
X2360Y1063D02*
X2362D01*
X2346Y1077D02*
X2360Y1063D01*
X2479Y1159D02*
X2537Y1102D01*
X2500Y1212D02*
X2502Y1210D01*
X2510D01*
X2496Y1197D02*
X2505D01*
X2489Y1186D02*
X2495Y1180D01*
X2494Y1199D02*
X2496Y1197D01*
X2484Y1173D02*
X2559Y1098D01*
X2495Y1180D02*
X2497D01*
X2579Y1098D01*
X2505Y1197D02*
X2618Y1083D01*
X2510Y1210D02*
X2636Y1084D01*
X1872Y1273D02*
X1896D01*
X1870Y1275D02*
X1872Y1273D01*
X1896D02*
X1898Y1272D01*
X2362Y984D02*
X2362Y984D01*
Y1024D02*
X2362Y1024D01*
X2339Y1043D02*
X2343D01*
X1606Y1501D02*
X1619Y1487D01*
X1599Y1501D02*
X1606D01*
X1598Y1500D02*
X1599Y1501D01*
X1579Y1500D02*
X1598D01*
X1594Y1539D02*
X1632Y1502D01*
X1618Y1618D02*
X1626D01*
X1661Y1583D01*
X1579Y1559D02*
X1598D01*
X1646Y1512D01*
X1579Y1539D02*
X1594D01*
X1630Y1657D02*
X1677Y1610D01*
X1627Y1684D02*
X1690Y1621D01*
X1632Y1697D02*
X1703Y1626D01*
X1638Y1710D02*
X1716Y1632D01*
X1641Y1724D02*
X1728Y1637D01*
X1646Y1737D02*
X1741Y1642D01*
X1661Y1777D02*
X1781Y1656D01*
X1651Y1750D02*
X1756Y1646D01*
X1656Y1764D02*
X1769Y1651D01*
X1807Y1520D02*
X1811Y1515D01*
X1863Y1520D02*
X1865Y1517D01*
Y1428D02*
Y1429D01*
X1899Y1351D02*
X1963Y1416D01*
X1983Y1383D02*
X2013Y1413D01*
X1965Y1335D02*
X1965Y1335D01*
X2579Y1079D02*
Y1098D01*
X2559Y1063D02*
Y1098D01*
X2537Y1079D02*
Y1102D01*
X2636Y1065D02*
X2638Y1063D01*
X2657Y1079D02*
Y1082D01*
X2618Y1079D02*
Y1083D01*
X2675Y1065D02*
Y1082D01*
X2636Y1065D02*
Y1084D01*
X2675Y1065D02*
X2677Y1063D01*
X1614Y1657D02*
X1630D01*
X1614Y1764D02*
X1656D01*
X1614Y1684D02*
X1627D01*
X1614Y1697D02*
X1632D01*
X1614Y1710D02*
X1638D01*
X1614Y1724D02*
X1641D01*
X1614Y1737D02*
X1646D01*
X1614Y1750D02*
X1651D01*
X1654Y1777D02*
X1661D01*
X1858Y1662D02*
Y1701D01*
Y1662D02*
X1875Y1646D01*
Y1629D02*
X1878Y1626D01*
X1875Y1629D02*
Y1646D01*
X1280Y1003D02*
Y1256D01*
X1249Y972D02*
X1280Y1003D01*
X1197Y972D02*
X1249D01*
X1295Y997D02*
Y1262D01*
X1236Y937D02*
X1295Y997D01*
X1231Y937D02*
X1236D01*
X1311Y990D02*
Y1272D01*
X1242Y921D02*
X1311Y990D01*
X1238Y921D02*
X1242D01*
X1227Y934D02*
X1231Y937D01*
X1197Y934D02*
X1227D01*
X1230Y914D02*
X1238Y921D01*
X1197Y914D02*
X1230D01*
X1197Y1012D02*
X1248D01*
X1197Y1012D02*
X1197Y1012D01*
X1180Y1377D02*
X1295Y1262D01*
X1327Y925D02*
Y1278D01*
X1343Y919D02*
Y1285D01*
X1273Y849D02*
X1343Y919D01*
X1266Y865D02*
X1327Y925D01*
X1238Y865D02*
X1266D01*
X1231Y849D02*
X1273D01*
X1197Y854D02*
X1197Y854D01*
X1226D02*
X1231Y849D01*
X1197Y854D02*
X1226D01*
X1249Y893D02*
X1249Y893D01*
X1229Y873D02*
X1238Y865D01*
X1197Y893D02*
X1249D01*
X1197Y894D02*
X1197Y893D01*
X1197Y874D02*
X1197Y873D01*
X1229D01*
X1197Y874D02*
X1197Y875D01*
X1197Y913D02*
X1197Y914D01*
X1197Y933D02*
X1197Y934D01*
X1234Y1348D02*
X1311Y1272D01*
X1465Y835D02*
X1512D01*
X1465Y1031D02*
X1512D01*
X1512Y1012D02*
X1558D01*
X1512Y894D02*
X1558D01*
X1511Y913D02*
X1512Y913D01*
X1483Y913D02*
X1511D01*
X1453Y883D02*
X1483Y913D01*
X1453Y882D02*
Y883D01*
X1472Y972D02*
X1512D01*
X1460Y984D02*
X1472Y972D01*
X1453Y984D02*
X1460D01*
X1512Y933D02*
X1512Y933D01*
X1453Y933D02*
X1512D01*
X1453Y933D02*
X1453Y933D01*
X932Y315D02*
X933D01*
X926Y310D02*
X932Y315D01*
X926Y308D02*
Y310D01*
X996Y315D02*
X1020Y315D01*
X909Y291D02*
X926Y308D01*
X1059Y260D02*
Y315D01*
X909Y252D02*
Y291D01*
X1059Y260D02*
X1067Y252D01*
X972Y315D02*
X996D01*
X2126Y1318D02*
X2130Y1315D01*
X2126Y1318D02*
Y1350D01*
X1346Y1428D02*
X1347Y1429D01*
X1390Y1198D02*
X1458Y1130D01*
X1511Y1268D02*
X1512Y1268D01*
X1469Y1319D02*
X1469Y1319D01*
X1358Y1185D02*
Y1291D01*
X1283Y1402D02*
X1308Y1377D01*
X1458Y1130D02*
X1512D01*
X1421Y1211D02*
Y1307D01*
Y1211D02*
X1443Y1189D01*
X1421Y1307D02*
Y1387D01*
X1437Y1220D02*
Y1306D01*
X1307Y1413D02*
X1324Y1396D01*
X1390Y1198D02*
Y1305D01*
X1382Y1416D02*
Y1429D01*
X1234Y1348D02*
Y1451D01*
X1340Y1391D02*
X1346Y1397D01*
X1323Y1484D02*
X1347Y1460D01*
X1361Y1418D02*
X1366Y1423D01*
X1377Y1412D02*
X1382Y1416D01*
X1426Y1391D02*
Y1444D01*
X1437Y1220D02*
X1449Y1209D01*
X1479Y1268D02*
X1511D01*
X1346Y1397D02*
Y1428D01*
X1406Y1205D02*
X1461Y1150D01*
X1366Y1423D02*
Y1469D01*
X1324Y1326D02*
X1358Y1291D01*
X1308Y1319D02*
Y1377D01*
X1377Y1339D02*
Y1412D01*
X1437Y1380D02*
X1442Y1385D01*
X1469Y1319D02*
Y1335D01*
X1417Y1453D02*
X1426Y1444D01*
X1453Y1374D02*
X1457Y1378D01*
X1374Y1192D02*
X1475Y1091D01*
X1347Y1429D02*
Y1460D01*
X1165Y1371D02*
Y1424D01*
X1374Y1192D02*
Y1298D01*
X1437Y1306D02*
X1437Y1306D01*
X1469Y1279D02*
Y1319D01*
X1377Y1339D02*
X1406Y1311D01*
X1453Y1266D02*
X1470Y1248D01*
X1406Y1205D02*
Y1311D01*
X1443Y1189D02*
X1512D01*
X1470Y1248D02*
X1512D01*
X1324Y1326D02*
Y1396D01*
X1256Y1349D02*
Y1433D01*
X1180Y1417D02*
X1193Y1429D01*
X1437Y1306D02*
Y1380D01*
X1449Y1209D02*
X1512D01*
X1453Y1323D02*
Y1374D01*
X1453Y1323D02*
X1453D01*
X1308Y1319D02*
X1343Y1285D01*
X1475Y1091D02*
X1512D01*
X1340Y1332D02*
X1374Y1298D01*
X1461Y1150D02*
X1512D01*
X1421Y1387D02*
X1426Y1391D01*
X1453Y1266D02*
Y1323D01*
X1217Y1469D02*
X1234Y1451D01*
X1340Y1332D02*
Y1391D01*
X1421Y1307D02*
X1421Y1307D01*
X1180Y1377D02*
Y1417D01*
X1361Y1333D02*
Y1418D01*
Y1333D02*
X1390Y1305D01*
X1165Y1424D02*
X1165Y1425D01*
X1442Y1385D02*
Y1445D01*
X1469Y1279D02*
X1479Y1268D01*
X1457Y1378D02*
Y1433D01*
X1256Y1349D02*
X1327Y1278D01*
X1358Y1185D02*
X1472Y1071D01*
X1512D01*
X1283Y1402D02*
Y1425D01*
X1165Y1371D02*
X1280Y1256D01*
X1535Y246D02*
Y285D01*
X1552Y302D02*
Y304D01*
X1558Y309D01*
X1559D01*
X1622D02*
X1646D01*
X1598D02*
X1622D01*
X1693Y242D02*
Y246D01*
X1685Y254D02*
X1693Y246D01*
X1535Y285D02*
X1552Y302D01*
X1685Y254D02*
Y309D01*
X2264Y1350D02*
X2268Y1354D01*
X2319Y1414D02*
X2320Y1413D01*
X3071Y1996D02*
X3142Y1925D01*
X3126Y1877D02*
Y1919D01*
X3064Y1980D02*
X3126Y1919D01*
X1820Y1980D02*
X3064D01*
X3110Y1823D02*
Y1912D01*
X1827Y1965D02*
X3058D01*
X3094Y1807D02*
Y1906D01*
X3058Y1965D02*
X3110Y1912D01*
X3142Y1900D02*
Y1925D01*
X3051Y1949D02*
X3094Y1906D01*
X3163Y1878D02*
X3165D01*
X3142Y1900D02*
X3163Y1878D01*
X3094Y1807D02*
X3149Y1753D01*
X3126Y1877D02*
X3156Y1847D01*
X3110Y1823D02*
X3149Y1784D01*
X3168D01*
X3184Y1756D02*
X3185Y1755D01*
X3184Y1756D02*
Y1769D01*
X3168Y1784D02*
X3184Y1769D01*
X3323Y1870D02*
X3323Y1870D01*
Y1807D02*
X3323Y1807D01*
X3323Y1744D02*
Y1776D01*
Y1713D02*
Y1744D01*
Y1713D02*
X3323Y1713D01*
X3250Y1733D02*
X3260Y1743D01*
X3282D01*
X3283Y1870D02*
X3283Y1870D01*
X3244Y1870D02*
X3283D01*
X3244Y1870D02*
X3244Y1870D01*
X3282Y1837D02*
X3283Y1839D01*
X3260Y1837D02*
X3282D01*
X3250Y1828D02*
X3260Y1837D01*
X3244Y1828D02*
X3250D01*
X3209Y1712D02*
X3221D01*
X3208Y1713D02*
X3209Y1712D01*
Y1753D02*
X3221D01*
X3208Y1752D02*
X3209Y1753D01*
X3221D02*
X3244Y1776D01*
X3282Y1711D02*
X3283Y1713D01*
X3266Y1711D02*
X3282D01*
X3208Y1732D02*
X3208Y1733D01*
X3260Y1705D02*
X3266Y1711D01*
X3221Y1712D02*
X3228Y1705D01*
X3260D01*
X3228Y1799D02*
X3260D01*
X3221Y1806D02*
X3228Y1799D01*
X3260D02*
X3266Y1805D01*
X3208Y1827D02*
X3208Y1827D01*
X3244D02*
X3244Y1828D01*
X3208Y1827D02*
X3244D01*
X3266Y1805D02*
X3282D01*
X3283Y1807D01*
X3221Y1847D02*
X3244Y1870D01*
X3208Y1846D02*
X3209Y1847D01*
X3221D01*
X3208Y1807D02*
X3209Y1806D01*
X3221D01*
X2126Y1445D02*
X2130Y1449D01*
Y1450D01*
X2131Y1451D01*
X2126Y1414D02*
Y1445D01*
Y1414D02*
X2126Y1413D01*
X2070Y1350D02*
X2071Y1350D01*
Y1307D02*
Y1350D01*
X2070Y1350D02*
Y1413D01*
X2070Y1350D02*
X2070Y1350D01*
X2013Y1413D02*
X2070D01*
X1898Y1311D02*
X1906Y1303D01*
X1898Y1311D02*
Y1335D01*
X1906Y1303D02*
X1925D01*
X1937Y1291D01*
Y1272D02*
Y1291D01*
X1898Y1335D02*
X1899Y1336D01*
Y1351D01*
X1963Y1522D02*
X1964Y1523D01*
X1927Y1486D02*
X1964Y1523D01*
X1964D01*
X1898Y1335D02*
X1898Y1335D01*
X1937Y1335D02*
X1937Y1335D01*
X1965D01*
X1091Y2370D02*
X1091Y2371D01*
Y2405D01*
X1092Y2406D01*
X1051Y2406D02*
X1051Y2406D01*
X1051Y2406D02*
X1092D01*
X1091Y2300D02*
Y2331D01*
Y2300D02*
X1092Y2299D01*
X1052D02*
Y2303D01*
X1051Y2304D02*
Y2331D01*
Y2304D02*
X1052Y2303D01*
X1051Y2370D02*
X1051Y2370D01*
X1091D01*
X1051Y2370D02*
Y2406D01*
Y2370D02*
X1051Y2370D01*
X1013Y2406D02*
Y2407D01*
X1043Y2438D01*
X1046D01*
X1051Y2443D01*
Y2445D01*
X1013Y2500D02*
X1013Y2500D01*
Y2445D02*
X1013Y2445D01*
X1013Y2445D02*
Y2500D01*
X930Y2425D02*
X934D01*
X954Y2445D01*
X973D01*
Y2406D02*
X1013D01*
X840Y2425D02*
X840Y2425D01*
X804Y2425D02*
X840D01*
X1013Y2406D02*
X1013Y2406D01*
X1013Y2354D02*
Y2406D01*
X1013Y2354D02*
X1013Y2354D01*
X962Y2303D02*
X966D01*
X954Y2311D02*
X962Y2303D01*
X930Y2311D02*
X954D01*
X930Y2311D02*
X930Y2311D01*
X891Y2311D02*
X891Y2311D01*
Y2335D02*
X910Y2354D01*
X891Y2311D02*
Y2335D01*
X910Y2354D02*
X914D01*
X812Y2311D02*
Y2354D01*
X812Y2311D02*
X812Y2311D01*
X634Y2398D02*
Y2512D01*
X618Y2248D02*
X622Y2244D01*
X642Y2272D02*
X685D01*
Y2311D02*
X685Y2311D01*
X709D01*
X709Y2311D01*
X362Y1969D02*
X362Y1969D01*
X402D01*
X363Y1543D02*
X402D01*
X441Y1969D02*
X441Y1969D01*
X487D01*
X487Y1969D01*
X402Y1969D02*
X402Y1969D01*
X441Y1543D02*
X441Y1543D01*
X488D01*
X488Y1543D01*
X402Y1543D02*
X402Y1543D01*
X363Y1543D02*
X363Y1543D01*
D12*
X346Y740D02*
Y740D01*
X346D02*
X346D01*
X342Y720D02*
X346Y725D01*
X339Y760D02*
X346Y752D01*
X342Y1165D02*
X346Y1170D01*
X346Y1185D02*
X346D01*
Y1185D02*
Y1185D01*
X339Y1205D02*
X346Y1197D01*
D13*
X4571Y1098D02*
X4573Y1100D01*
X4742D01*
X4744Y1102D01*
X4571Y1148D02*
X4573Y1150D01*
X4742D01*
X4744Y1152D01*
D21*
X3162Y1807D02*
D03*
Y1827D02*
D03*
Y1846D02*
D03*
X3208D02*
D03*
Y1827D02*
D03*
Y1807D02*
D03*
Y1713D02*
D03*
Y1732D02*
D03*
Y1752D02*
D03*
X3162D02*
D03*
Y1732D02*
D03*
Y1713D02*
D03*
D22*
X3185Y1850D02*
D03*
Y1804D02*
D03*
Y1709D02*
D03*
Y1755D02*
D03*
D23*
X2299Y437D02*
D03*
Y381D02*
D03*
X2366Y437D02*
D03*
Y381D02*
D03*
X2614Y437D02*
D03*
Y381D02*
D03*
X2681Y437D02*
D03*
Y381D02*
D03*
D27*
X3705Y709D02*
D03*
Y748D02*
D03*
X3760Y846D02*
D03*
Y886D02*
D03*
X3937Y677D02*
D03*
Y638D02*
D03*
X3898Y677D02*
D03*
Y638D02*
D03*
X3976Y677D02*
D03*
Y638D02*
D03*
X3870Y886D02*
D03*
Y925D02*
D03*
X3760Y748D02*
D03*
Y709D02*
D03*
X3705Y2122D02*
D03*
Y2161D02*
D03*
X3937Y2051D02*
D03*
Y2091D02*
D03*
X3795Y2260D02*
D03*
Y2299D02*
D03*
X3898Y2091D02*
D03*
Y2051D02*
D03*
X3760Y2299D02*
D03*
Y2260D02*
D03*
X3831Y2339D02*
D03*
Y2299D02*
D03*
X3976Y2051D02*
D03*
Y2091D02*
D03*
X3870Y2339D02*
D03*
Y2299D02*
D03*
X3760Y2122D02*
D03*
Y2161D02*
D03*
X3705Y1770D02*
D03*
Y1809D02*
D03*
X3898Y1699D02*
D03*
Y1738D02*
D03*
X3760Y1947D02*
D03*
Y1907D02*
D03*
X3976Y1699D02*
D03*
Y1738D02*
D03*
X3937Y1699D02*
D03*
Y1738D02*
D03*
X3870Y1986D02*
D03*
Y1947D02*
D03*
X3760Y1770D02*
D03*
Y1809D02*
D03*
X3705Y1417D02*
D03*
Y1457D02*
D03*
X3760Y1555D02*
D03*
Y1594D02*
D03*
X3898Y1346D02*
D03*
Y1386D02*
D03*
X3976Y1346D02*
D03*
Y1386D02*
D03*
X3937Y1386D02*
D03*
Y1346D02*
D03*
X3870Y1594D02*
D03*
Y1634D02*
D03*
X3760Y1457D02*
D03*
Y1417D02*
D03*
X3705Y1063D02*
D03*
Y1102D02*
D03*
X3760Y1201D02*
D03*
Y1240D02*
D03*
X3760Y1102D02*
D03*
Y1063D02*
D03*
X3870Y1240D02*
D03*
Y1280D02*
D03*
X3898Y1031D02*
D03*
Y992D02*
D03*
X3976Y1031D02*
D03*
Y992D02*
D03*
X3937Y992D02*
D03*
Y1031D02*
D03*
X303Y606D02*
D03*
Y646D02*
D03*
X232Y646D02*
D03*
Y606D02*
D03*
X339Y646D02*
D03*
Y606D02*
D03*
X409Y646D02*
D03*
Y606D02*
D03*
X457Y815D02*
D03*
Y854D02*
D03*
X268Y646D02*
D03*
Y606D02*
D03*
X197Y646D02*
D03*
Y606D02*
D03*
X161Y646D02*
D03*
Y606D02*
D03*
X374Y646D02*
D03*
Y606D02*
D03*
Y1091D02*
D03*
Y1051D02*
D03*
X409Y1051D02*
D03*
Y1091D02*
D03*
X303Y1091D02*
D03*
Y1051D02*
D03*
X232Y1051D02*
D03*
Y1091D02*
D03*
X339Y1051D02*
D03*
Y1091D02*
D03*
X457Y1260D02*
D03*
Y1299D02*
D03*
X268Y1091D02*
D03*
Y1051D02*
D03*
X197Y1051D02*
D03*
Y1091D02*
D03*
X161Y1051D02*
D03*
Y1091D02*
D03*
X126Y1051D02*
D03*
Y1091D02*
D03*
X91Y1051D02*
D03*
Y1091D02*
D03*
X2936Y1051D02*
D03*
Y1091D02*
D03*
X2938Y1016D02*
D03*
Y976D02*
D03*
X2938Y638D02*
D03*
Y598D02*
D03*
X2942Y799D02*
D03*
Y760D02*
D03*
X2938Y945D02*
D03*
Y906D02*
D03*
X3441Y1047D02*
D03*
Y1008D02*
D03*
X3126Y1047D02*
D03*
Y1008D02*
D03*
X3205Y1047D02*
D03*
Y1008D02*
D03*
X3087Y1047D02*
D03*
Y1008D02*
D03*
X3283Y1047D02*
D03*
Y1008D02*
D03*
X3323Y1047D02*
D03*
Y1008D02*
D03*
X3402Y1047D02*
D03*
Y1008D02*
D03*
X2161Y709D02*
D03*
Y669D02*
D03*
X2083Y713D02*
D03*
Y673D02*
D03*
X2122Y709D02*
D03*
Y669D02*
D03*
X3004Y1008D02*
D03*
Y1047D02*
D03*
X3043Y1008D02*
D03*
Y1047D02*
D03*
X2209Y705D02*
D03*
Y665D02*
D03*
X2940Y717D02*
D03*
Y677D02*
D03*
X2938Y831D02*
D03*
Y870D02*
D03*
X3480Y1008D02*
D03*
Y1047D02*
D03*
X3165Y1008D02*
D03*
Y1047D02*
D03*
X3244Y1008D02*
D03*
Y1047D02*
D03*
X3362Y1008D02*
D03*
Y1047D02*
D03*
X2406Y1303D02*
D03*
Y1343D02*
D03*
X1665Y1894D02*
D03*
Y1854D02*
D03*
X930Y2311D02*
D03*
Y2272D02*
D03*
X733Y2311D02*
D03*
Y2272D02*
D03*
X1013Y2445D02*
D03*
Y2406D02*
D03*
X851Y2272D02*
D03*
Y2311D02*
D03*
X773Y2272D02*
D03*
Y2311D02*
D03*
X1051Y2445D02*
D03*
Y2406D02*
D03*
X973Y2406D02*
D03*
Y2445D02*
D03*
X1051Y2370D02*
D03*
Y2331D02*
D03*
X840Y2386D02*
D03*
Y2425D02*
D03*
X1091Y2370D02*
D03*
Y2331D02*
D03*
X812Y2272D02*
D03*
Y2311D02*
D03*
X891D02*
D03*
Y2272D02*
D03*
X1626Y2280D02*
D03*
Y2319D02*
D03*
X685Y2398D02*
D03*
Y2358D02*
D03*
X685Y2272D02*
D03*
Y2311D02*
D03*
X950Y1567D02*
D03*
Y1606D02*
D03*
X2665Y1484D02*
D03*
Y1524D02*
D03*
X2878Y1528D02*
D03*
Y1488D02*
D03*
X3091Y1488D02*
D03*
Y1528D02*
D03*
X2461Y1488D02*
D03*
Y1528D02*
D03*
X2232Y429D02*
D03*
Y390D02*
D03*
X2543Y429D02*
D03*
Y390D02*
D03*
X1992Y1315D02*
D03*
Y1276D02*
D03*
D29*
X4118Y2413D02*
D03*
X4157D02*
D03*
X339Y874D02*
D03*
X299D02*
D03*
X217Y874D02*
D03*
X256D02*
D03*
X87Y854D02*
D03*
X126D02*
D03*
X299Y1319D02*
D03*
X339D02*
D03*
X256Y1319D02*
D03*
X217D02*
D03*
X126Y1299D02*
D03*
X87D02*
D03*
X2555Y575D02*
D03*
X2516D02*
D03*
X2083Y823D02*
D03*
X2043D02*
D03*
X2555Y622D02*
D03*
X2516D02*
D03*
Y665D02*
D03*
X2555D02*
D03*
X933Y315D02*
D03*
X972D02*
D03*
X1020Y315D02*
D03*
X1059D02*
D03*
X1598Y309D02*
D03*
X1559D02*
D03*
X1646D02*
D03*
X1685D02*
D03*
X3323Y1776D02*
D03*
X3283D02*
D03*
X3087Y1744D02*
D03*
X3126D02*
D03*
X3323Y1713D02*
D03*
X3283D02*
D03*
X3091Y1720D02*
D03*
X3130D02*
D03*
X3323Y1744D02*
D03*
X3283D02*
D03*
X3323Y1839D02*
D03*
X3283D02*
D03*
X3323Y1870D02*
D03*
X3283D02*
D03*
X3205Y1878D02*
D03*
X3165D02*
D03*
X3205Y1917D02*
D03*
X3165D02*
D03*
X3323Y1807D02*
D03*
X3283D02*
D03*
X1898Y1335D02*
D03*
X1937D02*
D03*
X1937Y1272D02*
D03*
X1898D02*
D03*
X1547Y2256D02*
D03*
X1587D02*
D03*
X1547Y2307D02*
D03*
X1587D02*
D03*
X1587Y2354D02*
D03*
X1547D02*
D03*
X1547Y2394D02*
D03*
X1587D02*
D03*
X1547Y2429D02*
D03*
X1587D02*
D03*
X528Y2051D02*
D03*
X488D02*
D03*
X441Y1543D02*
D03*
X402D02*
D03*
X402Y1969D02*
D03*
X441D02*
D03*
X3941Y2413D02*
D03*
X3980D02*
D03*
X4815Y599D02*
D03*
X4854D02*
D03*
X4811Y492D02*
D03*
X4850D02*
D03*
X4850Y378D02*
D03*
X4811D02*
D03*
D33*
X3978Y925D02*
D03*
X3919D02*
D03*
X3919Y2339D02*
D03*
X3978D02*
D03*
X3919Y1986D02*
D03*
X3978D02*
D03*
X3978Y1634D02*
D03*
X3919D02*
D03*
X3919Y1280D02*
D03*
X3978D02*
D03*
D41*
X3705Y813D02*
D03*
Y872D02*
D03*
X3705Y2285D02*
D03*
Y2226D02*
D03*
X3705Y1939D02*
D03*
Y1880D02*
D03*
X3705Y1522D02*
D03*
Y1581D02*
D03*
X3705Y1167D02*
D03*
Y1226D02*
D03*
X390Y821D02*
D03*
Y880D02*
D03*
Y1266D02*
D03*
Y1325D02*
D03*
X465Y648D02*
D03*
Y589D02*
D03*
D54*
X4079Y2413D02*
D03*
X4024D02*
D03*
X3898Y2413D02*
D03*
X3843D02*
D03*
D57*
X2006Y1565D02*
D03*
Y1526D02*
D03*
Y1486D02*
D03*
X1966Y1565D02*
D03*
Y1526D02*
D03*
Y1486D02*
D03*
X1927D02*
D03*
Y1526D02*
D03*
Y1565D02*
D03*
D65*
X4719Y431D02*
D03*
Y605D02*
D03*
D67*
X4276Y2004D02*
D03*
Y2079D02*
D03*
X3969Y886D02*
D03*
X4917Y709D02*
D03*
X4276Y1598D02*
D03*
X3972Y1217D02*
D03*
X409Y685D02*
D03*
X173Y874D02*
D03*
X409Y1126D02*
D03*
X173Y1319D02*
D03*
X2291Y583D02*
D03*
X2429Y657D02*
D03*
X2291Y661D02*
D03*
X2862Y661D02*
D03*
X2358Y657D02*
D03*
X2362Y587D02*
D03*
X2429D02*
D03*
X4276Y1902D02*
D03*
Y1772D02*
D03*
Y1654D02*
D03*
Y1508D02*
D03*
X886Y1272D02*
D03*
X2354Y252D02*
D03*
X2748Y248D02*
D03*
X1453Y984D02*
D03*
Y933D02*
D03*
X1453Y882D02*
D03*
X917Y1181D02*
D03*
X949Y1114D02*
D03*
X945Y1063D02*
D03*
X4366Y331D02*
D03*
X4917Y827D02*
D03*
Y768D02*
D03*
X4622Y1354D02*
D03*
X2071Y1307D02*
D03*
X1831Y1390D02*
D03*
X4622Y1409D02*
D03*
X4606Y2530D02*
D03*
Y2352D02*
D03*
X4518Y2441D02*
D03*
X4695D02*
D03*
X4547Y2372D02*
D03*
X4675Y2382D02*
D03*
X4547Y2510D02*
D03*
X4675Y2500D02*
D03*
Y177D02*
D03*
X4547Y187D02*
D03*
X4675Y59D02*
D03*
X4547Y49D02*
D03*
X4695Y118D02*
D03*
X4518D02*
D03*
X4606Y30D02*
D03*
Y207D02*
D03*
X354D02*
D03*
Y30D02*
D03*
X266Y118D02*
D03*
X443D02*
D03*
X295Y49D02*
D03*
X423Y59D02*
D03*
X295Y187D02*
D03*
X423Y177D02*
D03*
Y2500D02*
D03*
X295Y2510D02*
D03*
X423Y2382D02*
D03*
X295Y2372D02*
D03*
X443Y2441D02*
D03*
X266D02*
D03*
X354Y2352D02*
D03*
Y2530D02*
D03*
D69*
X3850Y765D02*
D03*
Y797D02*
D03*
X3882D02*
D03*
Y765D02*
D03*
X3850Y2179D02*
D03*
Y2210D02*
D03*
X3882D02*
D03*
Y2179D02*
D03*
X3850Y1826D02*
D03*
Y1858D02*
D03*
X3882D02*
D03*
Y1826D02*
D03*
X3882Y1474D02*
D03*
Y1505D02*
D03*
X3850D02*
D03*
Y1474D02*
D03*
X3882Y1120D02*
D03*
Y1151D02*
D03*
X3850D02*
D03*
Y1120D02*
D03*
D70*
X4220Y650D02*
D03*
X4146Y583D02*
D03*
X4677Y1052D02*
D03*
X4823Y1201D02*
D03*
X4413Y528D02*
D03*
X4260Y650D02*
D03*
X4322Y502D02*
D03*
X4279Y378D02*
D03*
X4322Y559D02*
D03*
X4232Y524D02*
D03*
X4413Y575D02*
D03*
X4320Y379D02*
D03*
X3801Y886D02*
D03*
X4244Y744D02*
D03*
X3803Y925D02*
D03*
X3705Y677D02*
D03*
X3937Y713D02*
D03*
X4543Y604D02*
D03*
X4811Y406D02*
D03*
X4299Y339D02*
D03*
X4508Y433D02*
D03*
X4469Y339D02*
D03*
X4539Y339D02*
D03*
X4543Y481D02*
D03*
X4543Y524D02*
D03*
X4448Y607D02*
D03*
Y650D02*
D03*
X4425Y1248D02*
D03*
X4421Y1098D02*
D03*
X3949Y1413D02*
D03*
X3803Y1280D02*
D03*
X3801Y1228D02*
D03*
X3705Y1035D02*
D03*
X4820Y1305D02*
D03*
X4822Y1350D02*
D03*
X4823Y1449D02*
D03*
X4031Y1933D02*
D03*
Y1803D02*
D03*
Y1673D02*
D03*
X4063Y1713D02*
D03*
X4035Y1583D02*
D03*
X3756Y2035D02*
D03*
X3803Y2339D02*
D03*
X3972Y2276D02*
D03*
X4047Y2098D02*
D03*
X3705Y2091D02*
D03*
Y2327D02*
D03*
X3874Y2051D02*
D03*
X4264Y1701D02*
D03*
Y1555D02*
D03*
X3835Y1594D02*
D03*
X3705Y1386D02*
D03*
X4677Y1453D02*
D03*
X3661Y1583D02*
D03*
X3671Y1768D02*
D03*
X3705Y1740D02*
D03*
X2398Y177D02*
D03*
X3843Y1713D02*
D03*
X3661Y1929D02*
D03*
X3756Y2398D02*
D03*
X3839Y1976D02*
D03*
X3374Y2126D02*
D03*
X4024Y2382D02*
D03*
X3843D02*
D03*
X4823Y1504D02*
D03*
X3571Y2189D02*
D03*
X4264Y1823D02*
D03*
Y1953D02*
D03*
X4063Y1972D02*
D03*
X3937Y1067D02*
D03*
X2169Y1724D02*
D03*
X2283Y1748D02*
D03*
X2170Y1682D02*
D03*
X4425Y1150D02*
D03*
X4677Y1201D02*
D03*
Y1252D02*
D03*
X4823Y1402D02*
D03*
Y1051D02*
D03*
X4823Y1102D02*
D03*
X4677Y1500D02*
D03*
X3244Y1733D02*
D03*
X3345Y1907D02*
D03*
X3205Y1895D02*
D03*
X3429Y1756D02*
D03*
X3386Y2008D02*
D03*
X3391Y1888D02*
D03*
X3367Y1942D02*
D03*
X3409Y2154D02*
D03*
X3429Y1858D02*
D03*
X3409Y1949D02*
D03*
X3571Y1929D02*
D03*
X3571Y2150D02*
D03*
Y2098D02*
D03*
Y2047D02*
D03*
X3571Y1984D02*
D03*
Y1862D02*
D03*
X3571Y1772D02*
D03*
X124Y673D02*
D03*
X118Y787D02*
D03*
Y752D02*
D03*
X437Y878D02*
D03*
X244Y849D02*
D03*
X437Y1323D02*
D03*
X197Y571D02*
D03*
X370Y1016D02*
D03*
X161Y1016D02*
D03*
X197D02*
D03*
X465Y551D02*
D03*
X161Y571D02*
D03*
X268D02*
D03*
X319Y839D02*
D03*
X453Y776D02*
D03*
X374D02*
D03*
X220Y783D02*
D03*
X268Y736D02*
D03*
X220D02*
D03*
X268Y783D02*
D03*
X409Y571D02*
D03*
X370D02*
D03*
X413Y776D02*
D03*
X327Y571D02*
D03*
X268Y1016D02*
D03*
X516Y728D02*
D03*
Y827D02*
D03*
X126Y1016D02*
D03*
X516Y776D02*
D03*
Y976D02*
D03*
Y929D02*
D03*
Y878D02*
D03*
X220Y1228D02*
D03*
X244Y1294D02*
D03*
X319Y1283D02*
D03*
X374Y1220D02*
D03*
X453D02*
D03*
X220Y1181D02*
D03*
X327Y1016D02*
D03*
X91Y1118D02*
D03*
X118Y1232D02*
D03*
X268Y1228D02*
D03*
X118Y1197D02*
D03*
X346Y1130D02*
D03*
X413Y1220D02*
D03*
X268Y1181D02*
D03*
X409Y1016D02*
D03*
X807Y980D02*
D03*
Y1028D02*
D03*
X516D02*
D03*
X815Y1110D02*
D03*
X1559Y1051D02*
D03*
X1870Y1275D02*
D03*
X1865Y1429D02*
D03*
X1891Y1398D02*
D03*
X1811Y1429D02*
D03*
X1983Y1383D02*
D03*
X2024Y1382D02*
D03*
X1965Y1335D02*
D03*
X1878Y1626D02*
D03*
X1838Y1626D02*
D03*
X1248Y1012D02*
D03*
X1249Y893D02*
D03*
X1465Y835D02*
D03*
Y1031D02*
D03*
X1558Y1012D02*
D03*
Y894D02*
D03*
X2130Y1315D02*
D03*
X1992Y894D02*
D03*
X126Y2350D02*
D03*
X2319Y1460D02*
D03*
X2217D02*
D03*
X2217Y1563D02*
D03*
X2268Y1311D02*
D03*
Y1460D02*
D03*
X2366D02*
D03*
X3244Y1776D02*
D03*
Y1828D02*
D03*
Y1870D02*
D03*
X3571Y1728D02*
D03*
X3360Y2074D02*
D03*
X3406Y2071D02*
D03*
X3426Y2011D02*
D03*
X2819Y1567D02*
D03*
X3091Y1461D02*
D03*
X3240Y1563D02*
D03*
X3189Y1461D02*
D03*
X3118Y1528D02*
D03*
X3138Y1461D02*
D03*
X2882D02*
D03*
X3031Y1563D02*
D03*
X2980Y1461D02*
D03*
X2909Y1528D02*
D03*
X2929Y1461D02*
D03*
X2669Y1465D02*
D03*
X2768D02*
D03*
X2697Y1531D02*
D03*
X2717Y1465D02*
D03*
X2508Y1461D02*
D03*
X2488Y1528D02*
D03*
X2559Y1461D02*
D03*
X2610Y1563D02*
D03*
X2461Y1461D02*
D03*
X2131Y1451D02*
D03*
X126Y2476D02*
D03*
X59D02*
D03*
X1092Y2406D02*
D03*
Y2299D02*
D03*
X1052D02*
D03*
X1013Y2500D02*
D03*
X930Y2425D02*
D03*
X1013Y2354D02*
D03*
X804Y2425D02*
D03*
X966Y2303D02*
D03*
X914Y2354D02*
D03*
X812D02*
D03*
X622Y2244D02*
D03*
X39Y2350D02*
D03*
X524Y2287D02*
D03*
Y2343D02*
D03*
X634Y2512D02*
D03*
X701D02*
D03*
X563D02*
D03*
X724Y2402D02*
D03*
X709Y2358D02*
D03*
Y2311D02*
D03*
X39Y1646D02*
D03*
D71*
X878Y687D02*
D03*
X1752Y539D02*
D03*
X1783Y539D02*
D03*
X969Y1402D02*
D03*
Y1362D02*
D03*
X421Y1433D02*
D03*
X1441Y1913D02*
D03*
Y1717D02*
D03*
X1480Y1717D02*
D03*
X1441Y1756D02*
D03*
X1520Y1795D02*
D03*
X1480D02*
D03*
X1402Y1874D02*
D03*
X1441Y1795D02*
D03*
X1480Y1835D02*
D03*
X1441Y1835D02*
D03*
X1402D02*
D03*
X1638Y1795D02*
D03*
X1480Y1874D02*
D03*
X1520Y1835D02*
D03*
Y1874D02*
D03*
X2677Y984D02*
D03*
X2559D02*
D03*
X2520D02*
D03*
X2441Y866D02*
D03*
X2402Y748D02*
D03*
X2756Y1024D02*
D03*
X2717Y1063D02*
D03*
Y748D02*
D03*
X2677Y827D02*
D03*
Y787D02*
D03*
X2480D02*
D03*
X2559D02*
D03*
Y827D02*
D03*
X2520D02*
D03*
X2441D02*
D03*
X2480D02*
D03*
X2756Y906D02*
D03*
X2717D02*
D03*
Y945D02*
D03*
X2677D02*
D03*
Y906D02*
D03*
X2756Y866D02*
D03*
X2717D02*
D03*
X2677D02*
D03*
X2559D02*
D03*
X2598D02*
D03*
X2559Y906D02*
D03*
X2598D02*
D03*
X2638D02*
D03*
Y945D02*
D03*
X2598D02*
D03*
X2559D02*
D03*
X2520D02*
D03*
X2480D02*
D03*
X2520Y906D02*
D03*
X2480D02*
D03*
X2520Y866D02*
D03*
X2480D02*
D03*
X2638D02*
D03*
Y827D02*
D03*
X2598Y787D02*
D03*
Y748D02*
D03*
X2520D02*
D03*
X878Y656D02*
D03*
X996Y315D02*
D03*
X1205Y1402D02*
D03*
X1244Y1598D02*
D03*
X1508Y677D02*
D03*
X1508Y646D02*
D03*
X1815Y539D02*
D03*
X1480Y1677D02*
D03*
Y1638D02*
D03*
Y1598D02*
D03*
X1520Y1638D02*
D03*
X1402Y1598D02*
D03*
X1441Y1480D02*
D03*
X1480Y1559D02*
D03*
Y1520D02*
D03*
Y1480D02*
D03*
Y1441D02*
D03*
X1559Y1598D02*
D03*
X1520Y1677D02*
D03*
Y1598D02*
D03*
Y1559D02*
D03*
Y1520D02*
D03*
Y1480D02*
D03*
X1990Y656D02*
D03*
Y628D02*
D03*
Y683D02*
D03*
Y711D02*
D03*
Y737D02*
D03*
Y766D02*
D03*
Y792D02*
D03*
Y821D02*
D03*
Y848D02*
D03*
X1622Y309D02*
D03*
X1402Y1402D02*
D03*
X1480Y1362D02*
D03*
X1283Y1362D02*
D03*
X1480Y1913D02*
D03*
X909Y2244D02*
D03*
X870D02*
D03*
X969Y1441D02*
D03*
X1244Y1559D02*
D03*
X773Y2394D02*
D03*
X143Y2241D02*
D03*
X661Y2398D02*
D03*
X890Y1598D02*
D03*
Y1638D02*
D03*
X555Y2051D02*
D03*
X461D02*
D03*
X488Y2126D02*
D03*
X520Y2102D02*
D03*
X362Y2000D02*
D03*
Y1969D02*
D03*
X374Y2091D02*
D03*
X717Y1618D02*
D03*
X929Y1520D02*
D03*
X713Y1531D02*
D03*
X1205Y1520D02*
D03*
X1244Y1638D02*
D03*
X252Y1831D02*
D03*
X224Y1480D02*
D03*
X261Y1442D02*
D03*
X362Y1484D02*
D03*
X154Y1909D02*
D03*
X146Y1866D02*
D03*
X173Y1957D02*
D03*
X150Y1975D02*
D03*
X122Y1839D02*
D03*
X236Y1870D02*
D03*
X148Y2007D02*
D03*
X567Y1894D02*
D03*
X732Y1913D02*
D03*
X338Y1637D02*
D03*
X378Y1634D02*
D03*
X437Y1648D02*
D03*
X346Y1666D02*
D03*
X408Y1608D02*
D03*
X315Y1602D02*
D03*
X143Y1520D02*
D03*
X174Y1543D02*
D03*
X94Y1598D02*
D03*
X154Y1571D02*
D03*
X202Y1543D02*
D03*
X216Y1622D02*
D03*
X185Y1622D02*
D03*
X94Y1630D02*
D03*
X75Y1571D02*
D03*
X236Y1701D02*
D03*
X417Y1882D02*
D03*
X366Y1886D02*
D03*
X614Y2000D02*
D03*
X446Y1838D02*
D03*
X406Y2091D02*
D03*
X335Y1835D02*
D03*
X331Y1906D02*
D03*
X299Y1795D02*
D03*
X275Y1906D02*
D03*
X268Y2031D02*
D03*
X331Y2126D02*
D03*
X264Y2217D02*
D03*
X346D02*
D03*
X307Y2217D02*
D03*
X248Y2241D02*
D03*
X331Y2157D02*
D03*
X642Y2050D02*
D03*
X425Y2126D02*
D03*
X210Y2218D02*
D03*
X181Y2221D02*
D03*
X144Y2208D02*
D03*
X421Y2217D02*
D03*
X390D02*
D03*
X398Y1839D02*
D03*
X299Y1764D02*
D03*
X485Y1791D02*
D03*
X403Y1669D02*
D03*
X299Y1732D02*
D03*
X268Y1732D02*
D03*
X531Y1434D02*
D03*
X394Y1453D02*
D03*
X571D02*
D03*
X606D02*
D03*
X458Y1667D02*
D03*
X363Y1543D02*
D03*
X102Y1701D02*
D03*
X236Y1732D02*
D03*
X114Y1783D02*
D03*
X205Y1764D02*
D03*
X236D02*
D03*
X130Y2138D02*
D03*
X205Y1512D02*
D03*
X850Y1402D02*
D03*
X331Y1512D02*
D03*
X300Y1543D02*
D03*
X772Y1598D02*
D03*
X647Y1596D02*
D03*
X610D02*
D03*
X583Y1681D02*
D03*
X523Y1669D02*
D03*
X552Y1669D02*
D03*
X492Y1661D02*
D03*
X552Y1701D02*
D03*
X582Y1576D02*
D03*
X648Y1999D02*
D03*
X969Y1874D02*
D03*
X677Y1764D02*
D03*
X524Y1791D02*
D03*
X645Y1701D02*
D03*
X614Y1764D02*
D03*
X488Y1575D02*
D03*
X929Y1402D02*
D03*
X1126Y1992D02*
D03*
X551Y1732D02*
D03*
X330Y1969D02*
D03*
Y1937D02*
D03*
X487D02*
D03*
X520Y1512D02*
D03*
X551D02*
D03*
Y1543D02*
D03*
X890Y1362D02*
D03*
X929Y1441D02*
D03*
X677Y1512D02*
D03*
Y1543D02*
D03*
X646Y1512D02*
D03*
X614Y1543D02*
D03*
X582Y1544D02*
D03*
X646Y1733D02*
D03*
Y1764D02*
D03*
X520Y1701D02*
D03*
X488Y1701D02*
D03*
X583Y1512D02*
D03*
X331Y1543D02*
D03*
X457Y1763D02*
D03*
X677Y1937D02*
D03*
Y1969D02*
D03*
X646D02*
D03*
X583Y1764D02*
D03*
Y1937D02*
D03*
X551D02*
D03*
X488Y1512D02*
D03*
X487Y2000D02*
D03*
Y1969D02*
D03*
X520Y2000D02*
D03*
X488Y2157D02*
D03*
X520D02*
D03*
X551D02*
D03*
X520Y2189D02*
D03*
X488D02*
D03*
X552Y2189D02*
D03*
X457Y2189D02*
D03*
Y2157D02*
D03*
X425D02*
D03*
X583Y1732D02*
D03*
X457Y1731D02*
D03*
X550Y1969D02*
D03*
X156Y2161D02*
D03*
X520Y1968D02*
D03*
X677Y2189D02*
D03*
X583Y2157D02*
D03*
Y1969D02*
D03*
X646Y2189D02*
D03*
X488Y1543D02*
D03*
X109Y2112D02*
D03*
X118Y2185D02*
D03*
X394Y2157D02*
D03*
X299Y2126D02*
D03*
X1087Y1362D02*
D03*
X1008D02*
D03*
X850D02*
D03*
X890Y1559D02*
D03*
X969Y1480D02*
D03*
X890Y1441D02*
D03*
X850Y1480D02*
D03*
X811D02*
D03*
X890Y1480D02*
D03*
X772Y1520D02*
D03*
X811Y1598D02*
D03*
X850Y1638D02*
D03*
Y1677D02*
D03*
X890D02*
D03*
X811Y1638D02*
D03*
X772Y1717D02*
D03*
Y1756D02*
D03*
Y1795D02*
D03*
X811D02*
D03*
X811Y1835D02*
D03*
X929Y1835D02*
D03*
X811Y1874D02*
D03*
X850D02*
D03*
X890D02*
D03*
X811Y1913D02*
D03*
X772D02*
D03*
X811Y1953D02*
D03*
Y1992D02*
D03*
X772Y2031D02*
D03*
Y2071D02*
D03*
Y2110D02*
D03*
X772Y2189D02*
D03*
X811Y1402D02*
D03*
X890Y1913D02*
D03*
X850Y2031D02*
D03*
X929Y1638D02*
D03*
X850Y2189D02*
D03*
X811D02*
D03*
X929Y1677D02*
D03*
Y1717D02*
D03*
X969D02*
D03*
X929Y1756D02*
D03*
X969Y1677D02*
D03*
X1008D02*
D03*
X850Y1756D02*
D03*
X890D02*
D03*
X850Y1717D02*
D03*
X969Y1520D02*
D03*
X1008Y1402D02*
D03*
Y1598D02*
D03*
X969Y1756D02*
D03*
X890Y1795D02*
D03*
X929D02*
D03*
Y1913D02*
D03*
Y1953D02*
D03*
X850Y2071D02*
D03*
Y2110D02*
D03*
X1008Y1795D02*
D03*
Y1874D02*
D03*
X890Y2071D02*
D03*
X929Y1992D02*
D03*
Y2031D02*
D03*
X890D02*
D03*
X850Y2150D02*
D03*
X969Y1913D02*
D03*
Y1992D02*
D03*
Y2071D02*
D03*
X1047Y1598D02*
D03*
Y1677D02*
D03*
Y1756D02*
D03*
Y1835D02*
D03*
Y1913D02*
D03*
Y1992D02*
D03*
Y2071D02*
D03*
Y2150D02*
D03*
X1126Y1441D02*
D03*
Y1598D02*
D03*
Y1677D02*
D03*
Y1756D02*
D03*
Y1913D02*
D03*
Y2071D02*
D03*
Y2150D02*
D03*
X1205Y1598D02*
D03*
Y1677D02*
D03*
Y1835D02*
D03*
Y1913D02*
D03*
Y2071D02*
D03*
Y2150D02*
D03*
X1283Y1756D02*
D03*
X1362Y1520D02*
D03*
Y1913D02*
D03*
X1441Y1677D02*
D03*
Y2071D02*
D03*
X1520Y1441D02*
D03*
X1598Y1598D02*
D03*
Y1992D02*
D03*
X890Y2110D02*
D03*
X969D02*
D03*
Y2031D02*
D03*
Y1953D02*
D03*
X1047Y1480D02*
D03*
Y1717D02*
D03*
Y1559D02*
D03*
Y1638D02*
D03*
Y1795D02*
D03*
Y1953D02*
D03*
Y2110D02*
D03*
Y1874D02*
D03*
Y2031D02*
D03*
Y2189D02*
D03*
X1126Y1559D02*
D03*
Y1795D02*
D03*
Y1638D02*
D03*
Y1717D02*
D03*
Y2110D02*
D03*
Y1874D02*
D03*
Y1953D02*
D03*
Y2031D02*
D03*
Y2189D02*
D03*
X1205Y1638D02*
D03*
Y1953D02*
D03*
Y1874D02*
D03*
Y2110D02*
D03*
Y2189D02*
D03*
X1283Y1559D02*
D03*
Y1953D02*
D03*
X1362Y2110D02*
D03*
X1441Y1874D02*
D03*
X1520Y2031D02*
D03*
X1598Y1402D02*
D03*
Y1795D02*
D03*
Y2189D02*
D03*
X929Y2150D02*
D03*
X1165Y1520D02*
D03*
X1087Y1598D02*
D03*
X1165D02*
D03*
X1244Y1677D02*
D03*
X1087D02*
D03*
X1165D02*
D03*
X1087Y1756D02*
D03*
X1165D02*
D03*
X1008D02*
D03*
X1165Y1835D02*
D03*
X1087D02*
D03*
X1008D02*
D03*
X1087Y1913D02*
D03*
X1165D02*
D03*
X1008D02*
D03*
X1165Y1992D02*
D03*
X1087D02*
D03*
X1008D02*
D03*
X1087Y2071D02*
D03*
X1244D02*
D03*
X1165D02*
D03*
Y2150D02*
D03*
X1087D02*
D03*
X1008D02*
D03*
X1323Y1441D02*
D03*
X1559Y1520D02*
D03*
X1480Y1756D02*
D03*
X1559Y1913D02*
D03*
X1402Y1992D02*
D03*
X1480Y2150D02*
D03*
X929Y2189D02*
D03*
X1244Y1480D02*
D03*
X1165Y1638D02*
D03*
X1087D02*
D03*
Y1717D02*
D03*
Y1559D02*
D03*
Y1795D02*
D03*
X1165Y1717D02*
D03*
Y1795D02*
D03*
X1008Y1638D02*
D03*
Y1717D02*
D03*
X1087Y2031D02*
D03*
Y1874D02*
D03*
X1165Y2110D02*
D03*
X1244Y1874D02*
D03*
X1165Y2031D02*
D03*
X1087Y1953D02*
D03*
Y2110D02*
D03*
X1165Y1874D02*
D03*
X1008Y2031D02*
D03*
Y1953D02*
D03*
X1165Y2189D02*
D03*
X1087D02*
D03*
X1008D02*
D03*
X1402Y1795D02*
D03*
X1559Y1717D02*
D03*
X1323Y2031D02*
D03*
X1559Y2110D02*
D03*
X1480Y1953D02*
D03*
X1402Y2189D02*
D03*
D79*
X1969Y1528D02*
D03*
D83*
X1571Y1933D02*
G03*
X1547Y1933I-12J-20D01*
G01*
X2776Y1004D02*
Y1079D01*
X2697Y1043D02*
Y1079D01*
X2736Y1004D02*
Y1079D01*
X2657Y1043D02*
Y1079D01*
X1571Y1933D02*
X1622D01*
X1547D02*
X1547D01*
X1500D02*
X1547D01*
X891Y2272D02*
X942D01*
X924Y2244D02*
X942Y2262D01*
X541Y2047D02*
Y2051D01*
X1480Y1913D02*
X1500Y1933D01*
X2382Y1043D02*
X2402Y1024D01*
X2343Y1043D02*
X2382D01*
X2421Y1004D02*
Y1075D01*
X2461Y1004D02*
Y1083D01*
Y1004D02*
X2480Y984D01*
X2500Y1043D02*
X2520Y1024D01*
X2500Y1043D02*
Y1079D01*
X2736D02*
Y1079D01*
X2756Y984D02*
X2776Y1004D01*
X2717Y984D02*
X2736Y1004D01*
X1382Y1661D02*
Y1886D01*
Y1661D02*
X1433Y1610D01*
X1559Y1205D02*
Y1231D01*
X1583Y1223D02*
X1584Y1224D01*
X1594Y1228D02*
Y1265D01*
Y1228D02*
X1595Y1226D01*
X1579Y1394D02*
X1592Y1381D01*
Y1266D02*
Y1381D01*
Y1266D02*
X1594Y1265D01*
X1582Y1262D02*
Y1377D01*
Y1262D02*
X1584Y1261D01*
Y1224D02*
Y1261D01*
X1583Y1220D02*
Y1223D01*
X1569Y1390D02*
X1582Y1377D01*
X1559Y1231D02*
X1561Y1233D01*
Y1384D01*
X1549Y1235D02*
X1549Y1235D01*
Y1313D01*
X1539Y1323D02*
X1549Y1313D01*
X1549Y1154D02*
Y1235D01*
X2344Y848D02*
X2345Y846D01*
X2382D01*
Y886D02*
X2402Y906D01*
X2343Y886D02*
X2382D01*
Y846D02*
X2402Y866D01*
X2339Y965D02*
X2421D01*
X2441Y945D01*
X2343Y925D02*
X2421D01*
X2382Y1004D02*
X2402Y984D01*
X2339Y1004D02*
X2382D01*
X1390Y1894D02*
X1421D01*
X1441Y1913D01*
X1382Y1886D02*
X1390Y1894D01*
X1415Y1652D02*
X1445Y1622D01*
X1415Y1652D02*
Y1677D01*
X1415Y1677D02*
Y1707D01*
Y1677D02*
X1415Y1677D01*
X1415Y1707D02*
X1421Y1713D01*
X1433Y1528D02*
Y1610D01*
Y1528D02*
X1461Y1500D01*
X1579D01*
X1539Y1323D02*
Y1453D01*
X1551Y1559D02*
X1579D01*
X1531Y1579D02*
X1551Y1559D01*
X1425Y1657D02*
Y1701D01*
X1441Y1717D01*
X1402Y1835D02*
X1421Y1815D01*
Y1713D02*
Y1815D01*
X1461Y1539D02*
X1579D01*
X1445Y1555D02*
X1461Y1539D01*
X1445Y1555D02*
Y1622D01*
X1461Y1587D02*
Y1622D01*
Y1587D02*
X1469Y1579D01*
X1425Y1657D02*
X1461Y1622D01*
X1469Y1579D02*
X1531D01*
X2537Y1011D02*
Y1079D01*
X2579Y1043D02*
Y1079D01*
X2618Y1004D02*
Y1079D01*
X1508Y1618D02*
X1618D01*
X1496Y1736D02*
X1548Y1684D01*
X1614D01*
X1549Y1697D02*
X1614D01*
X1601Y1710D02*
X1614D01*
X1549Y1736D02*
X1574D01*
X1601Y1710D01*
X1533Y1792D02*
X1549Y1775D01*
X1523Y1792D02*
X1533D01*
X1520Y1795D02*
X1523Y1792D01*
X1549Y1775D02*
Y1775D01*
Y1775D02*
X1600Y1724D01*
X1614D01*
X1499Y1786D02*
X1549Y1736D01*
X1499Y1786D02*
Y1808D01*
X1559Y1779D02*
Y1795D01*
Y1779D02*
X1601Y1737D01*
X1614D01*
X1569Y1783D02*
Y1821D01*
X1602Y1750D02*
X1614D01*
X1569Y1783D02*
X1602Y1750D01*
X1603Y1764D02*
X1614D01*
X1579Y1787D02*
X1603Y1764D01*
X1579Y1787D02*
Y1830D01*
X1626Y1776D02*
X1653D01*
X1618Y1783D02*
Y1811D01*
Y1783D02*
X1626Y1776D01*
X1535Y1711D02*
X1549Y1697D01*
X1480Y1791D02*
X1535Y1736D01*
Y1711D02*
Y1736D01*
X1539Y1815D02*
X1559Y1795D01*
X1535Y1854D02*
X1569Y1821D01*
X1536Y1873D02*
X1579Y1830D01*
X1421Y1854D02*
X1535D01*
X1512Y1815D02*
X1539D01*
X1653Y1776D02*
X1654Y1777D01*
X1536Y1893D02*
X1618Y1811D01*
X1461Y1665D02*
Y1732D01*
Y1665D02*
X1469Y1657D01*
X1492D01*
X1500Y1626D02*
Y1650D01*
X1492Y1657D02*
X1500Y1650D01*
Y1626D02*
X1508Y1618D01*
X1441Y1752D02*
X1461Y1732D01*
X1471Y1736D02*
X1496D01*
X1461Y1746D02*
X1471Y1736D01*
X1461Y1746D02*
Y1776D01*
X1441Y1752D02*
Y1756D01*
X1480Y1717D02*
X1500Y1697D01*
Y1665D02*
Y1697D01*
Y1665D02*
X1508Y1657D01*
X1614D01*
X1441Y1795D02*
X1441D01*
X1461Y1776D01*
X1480Y1791D02*
Y1795D01*
X1441Y1835D02*
X1461Y1815D01*
X1441Y1835D02*
X1441D01*
X1461Y1815D02*
X1492D01*
X1499Y1808D01*
X1488Y1792D02*
Y1795D01*
X1480Y1795D02*
X1488D01*
X1488Y1795D01*
X1500Y1893D02*
X1536D01*
X1520Y1873D02*
X1536D01*
X1520Y1874D02*
X1520Y1873D01*
X1480Y1835D02*
X1492D01*
X1480Y1835D02*
X1480Y1835D01*
X1492D02*
X1512Y1815D01*
X1402Y1874D02*
X1421Y1854D01*
X1480Y1874D02*
X1500Y1893D01*
X2638Y1024D02*
X2657Y1043D01*
X2421Y925D02*
X2441Y906D01*
X2677Y1024D02*
X2697Y1043D01*
X2618Y1004D02*
X2638Y984D01*
X2537Y1011D02*
X2543Y1004D01*
X2579D01*
X2598Y984D01*
X2579Y1043D02*
X2598Y1024D01*
X2361Y985D02*
X2362Y984D01*
X2421Y1004D02*
X2441Y984D01*
X909Y2244D02*
X924D01*
X942Y2262D02*
Y2272D01*
X839Y2244D02*
X870D01*
X812Y2271D02*
X839Y2244D01*
X889Y1598D02*
X890D01*
X858Y1567D02*
Y1568D01*
X889Y1598D01*
X840Y2366D02*
Y2386D01*
X851Y2311D02*
Y2354D01*
X840Y2366D02*
X851Y2354D01*
X785Y2386D02*
X836D01*
X777Y2394D02*
X785Y2386D01*
X773Y2394D02*
X777D01*
X773Y2311D02*
Y2394D01*
X773Y2394D01*
X773Y2272D02*
X812D01*
X733D02*
X773D01*
X812Y2271D02*
Y2272D01*
X851D02*
X891D01*
X891Y2272D01*
X669Y2398D02*
X685D01*
X661Y2398D02*
X669D01*
X669Y2398D01*
X858Y1606D02*
Y1607D01*
X889Y1638D01*
X890D01*
X537Y2051D02*
X555D01*
X537Y2051D02*
X541Y2047D01*
X537Y2051D02*
X537Y2051D01*
X537D02*
X537Y2051D01*
X537Y2051D02*
X541D01*
X537D02*
X537D01*
X528D02*
X537D01*
X461Y2051D02*
X488D01*
X488Y2051D01*
X528D02*
X528Y2051D01*
D84*
X1811Y1429D02*
Y1515D01*
X2268Y1354D02*
Y1460D01*
X3091Y1461D02*
Y1496D01*
X2669Y1465D02*
Y1500D01*
X2461Y1461D02*
Y1496D01*
X732Y1280D02*
X815D01*
X732Y1229D02*
X815D01*
X732Y1178D02*
X796D01*
X508Y1177D02*
X591D01*
X1865Y1429D02*
Y1517D01*
X588Y1131D02*
X591Y1128D01*
X508Y1142D02*
X519Y1131D01*
X508Y1142D02*
Y1177D01*
X519Y1131D02*
X588D01*
X732Y980D02*
X807D01*
X732Y1027D02*
X807D01*
X516Y977D02*
X590D01*
X516Y1028D02*
X590D01*
X795Y1319D02*
X815Y1299D01*
X528Y1319D02*
X795D01*
X508Y1299D02*
X528Y1319D01*
X508Y1177D02*
Y1228D01*
Y1299D01*
Y1228D02*
X591D01*
X815Y1280D02*
Y1299D01*
Y1229D02*
Y1280D01*
Y1197D02*
Y1229D01*
X796Y1178D02*
X815Y1197D01*
X2319Y1460D02*
Y1464D01*
Y1414D02*
Y1460D01*
X2320Y1350D02*
Y1413D01*
X2268Y1460D02*
Y1464D01*
X3091Y1461D02*
X3091Y1461D01*
Y1496D02*
X3091Y1496D01*
X3118Y1528D02*
X3118Y1528D01*
X3091Y1528D02*
X3118D01*
X3091Y1528D02*
X3091Y1528D01*
X2882Y1461D02*
X2882Y1461D01*
Y1496D02*
X2882Y1496D01*
X2909Y1528D02*
X2909Y1528D01*
X2882Y1528D02*
X2909D01*
X2882Y1528D02*
X2882Y1528D01*
X2882Y1461D02*
Y1496D01*
X2669Y1465D02*
X2669Y1465D01*
Y1500D02*
X2669Y1500D01*
X2697Y1531D02*
X2697Y1531D01*
X2669Y1531D02*
X2697D01*
X2669Y1531D02*
X2669Y1531D01*
X2461Y1528D02*
X2461Y1528D01*
X2488D01*
X2488Y1528D01*
X2461Y1496D02*
X2461Y1496D01*
X2461Y1461D02*
X2461Y1461D01*
D85*
X3937Y1386D02*
Y1413D01*
X3803Y925D02*
X3831D01*
X3870Y925D02*
X3915D01*
X3705Y748D02*
Y803D01*
X3705Y677D02*
Y709D01*
X3831Y925D02*
X3870D01*
X3937Y1413D02*
X3949D01*
X3803Y1280D02*
X3831D01*
X3705Y1035D02*
Y1063D01*
X3705Y1063D02*
X3705Y1063D01*
X3843Y1642D02*
Y1713D01*
Y1642D02*
X3850Y1634D01*
X3870D01*
X3803Y2339D02*
X3831D01*
X3705Y2091D02*
Y2122D01*
X3870Y2339D02*
X3915D01*
X3705Y2287D02*
Y2319D01*
Y2161D02*
Y2217D01*
X3831Y2339D02*
X3870D01*
X3705Y1386D02*
Y1417D01*
X3661Y1583D02*
X3677D01*
X3705Y1581D02*
Y1583D01*
X3705Y1740D02*
X3705Y1740D01*
X3705Y1740D02*
Y1770D01*
X3705Y1770D02*
X3705Y1770D01*
X3661Y1929D02*
X3701D01*
X3705Y1933D01*
X3839Y1985D02*
X3839Y1986D01*
X3870D02*
X3870Y1986D01*
X3839Y1986D02*
X3870D01*
X3733Y1947D02*
X3760D01*
X3870Y1986D02*
X3915D01*
X3705Y1809D02*
Y1864D01*
X3870Y1634D02*
X3915D01*
X3705Y1457D02*
Y1512D01*
X3870Y1280D02*
X3915D01*
X3705Y1102D02*
Y1157D01*
X3831Y1280D02*
X3870D01*
X346Y1170D02*
Y1186D01*
Y1185D02*
Y1201D01*
X372Y1094D02*
X374D01*
X372Y649D02*
X374D01*
X374Y646D02*
X463D01*
X346Y740D02*
Y756D01*
Y725D02*
Y741D01*
X409Y878D02*
X437D01*
X197Y606D02*
X197Y606D01*
X197Y571D02*
Y606D01*
X370Y1016D02*
Y1020D01*
X374Y1024D01*
Y1051D01*
X374Y1051D01*
X161Y1051D02*
X161Y1051D01*
X197Y1051D02*
X197Y1051D01*
X161Y1016D02*
Y1051D01*
X197Y1016D02*
Y1051D01*
X465Y551D02*
Y587D01*
X463Y646D02*
X465Y648D01*
X161Y606D02*
X161Y606D01*
X161Y571D02*
Y606D01*
X268D02*
X268Y606D01*
X268Y571D02*
Y606D01*
X268Y606D02*
X303D01*
X455Y778D02*
Y813D01*
X413Y776D02*
Y787D01*
X402Y815D02*
X457D01*
X390Y811D02*
X413Y787D01*
X453Y776D02*
X453D01*
X374D02*
X413D01*
X453D01*
X413Y776D02*
Y776D01*
X374Y783D02*
Y805D01*
X409Y571D02*
Y606D01*
X346Y685D02*
Y720D01*
X372Y649D02*
Y659D01*
X346Y685D02*
X372Y659D01*
X374Y606D02*
X374Y606D01*
X374Y579D02*
Y606D01*
X370Y575D02*
X374Y579D01*
X370Y571D02*
Y575D01*
X339Y606D02*
X339Y606D01*
Y583D02*
Y606D01*
X331Y575D02*
X339Y583D01*
X126Y1051D02*
X126Y1051D01*
X374Y1220D02*
X413D01*
Y1220D02*
Y1220D01*
Y1232D01*
X453Y1220D02*
X453D01*
X126Y1016D02*
Y1051D01*
X374Y1091D02*
X409D01*
X372Y1094D02*
Y1104D01*
X409Y1016D02*
Y1051D01*
X374Y1228D02*
Y1250D01*
X390Y1256D02*
X413Y1232D01*
X455Y1222D02*
Y1258D01*
X268Y1051D02*
X268Y1051D01*
X339Y1051D02*
X339Y1051D01*
Y1028D02*
Y1051D01*
X346Y1130D02*
X372Y1104D01*
X346Y1130D02*
Y1165D01*
X413Y1220D02*
X453D01*
X409Y1323D02*
X437D01*
X268Y1016D02*
Y1051D01*
X331Y1020D02*
X339Y1028D01*
X402Y1260D02*
X457D01*
X268Y1051D02*
X303D01*
D86*
X3969Y992D02*
Y998D01*
X3933Y1030D02*
X3945Y1017D01*
X264Y780D02*
X283Y799D01*
X264Y780D02*
X312D01*
X264Y1224D02*
X283Y1244D01*
X264Y1224D02*
X312D01*
X3876Y1047D02*
Y1108D01*
X3874Y2054D02*
X3877Y2052D01*
X3921Y1852D02*
X4063D01*
X3819Y689D02*
X3837D01*
X3937Y677D02*
X3937Y677D01*
X3877Y639D02*
X3898Y638D01*
X3874Y641D02*
X3877Y639D01*
X3874Y641D02*
Y689D01*
X3882Y760D02*
Y765D01*
X3876Y754D02*
X3882Y760D01*
X3896Y722D02*
X3896Y722D01*
X3876D02*
Y754D01*
X3896Y702D02*
Y722D01*
X3896Y813D02*
Y840D01*
X3876Y808D02*
Y840D01*
X3882Y797D02*
Y799D01*
X3896Y813D01*
X3876Y808D02*
X3882Y802D01*
Y799D02*
Y802D01*
X3921Y791D02*
X3925D01*
X3969Y638D02*
Y644D01*
X4044Y811D02*
X4063Y791D01*
X3799Y709D02*
X3819Y689D01*
X3837D02*
Y722D01*
X3856Y694D02*
Y722D01*
X3876Y693D02*
Y722D01*
X3937Y677D02*
Y713D01*
X3874Y692D02*
X3876Y693D01*
X3874Y689D02*
Y692D01*
X4063Y791D02*
X4083Y771D01*
X3760Y709D02*
X3799D01*
X3705Y803D02*
X3760D01*
X3945Y663D02*
X3949D01*
X3969Y644D01*
X3837Y689D02*
X3874D01*
X3933Y675D02*
X3945Y663D01*
X3948Y752D02*
X3969Y731D01*
X3925Y752D02*
X3948D01*
X3925Y791D02*
X4063D01*
X3921Y811D02*
X4044D01*
X3921Y771D02*
X4083D01*
X3937Y1386D02*
X3941Y1382D01*
X3799Y2122D02*
X3819Y2102D01*
X3837D01*
X3874Y2105D02*
X3876Y2106D01*
X3874Y2102D02*
Y2105D01*
X3901Y2085D02*
X3903D01*
X3898Y2089D02*
X3901Y2085D01*
X3898Y2089D02*
Y2091D01*
X3876Y2167D02*
X3882Y2173D01*
Y2179D01*
X3921Y2185D02*
X3925D01*
X3921Y2204D02*
X3925D01*
X3876Y2221D02*
Y2254D01*
X3921Y2224D02*
X3925D01*
X3896Y2226D02*
Y2254D01*
X4063Y2204D02*
X4083Y2185D01*
X3837Y2102D02*
Y2135D01*
X3856Y2107D02*
Y2135D01*
X3874Y2054D02*
Y2102D01*
X3876Y2135D02*
Y2167D01*
Y2106D02*
Y2135D01*
X3896Y2135D02*
X3896Y2135D01*
X3896Y2116D02*
Y2135D01*
X3877Y2052D02*
X3898Y2051D01*
X3898Y2051D01*
X3931Y2057D02*
X3933D01*
X3903Y2085D02*
X3931Y2057D01*
X3937Y2051D02*
Y2053D01*
X3933Y2057D02*
X3937Y2053D01*
X3876Y2221D02*
X3882Y2216D01*
Y2212D02*
Y2216D01*
Y2212D02*
X3896Y2226D01*
X3882Y2210D02*
Y2212D01*
X3969Y2145D02*
X3976Y2137D01*
Y2091D02*
Y2137D01*
X3976Y2051D02*
X4000D01*
X4044Y2224D02*
X4063Y2204D01*
X3760Y2122D02*
X3799D01*
X3837Y2102D02*
X3874D01*
X3948Y2165D02*
X3969Y2145D01*
X3925Y2165D02*
X3948D01*
X3925Y2185D02*
X4083D01*
X3925Y2204D02*
X4063D01*
X3925Y2224D02*
X4044D01*
X3705Y2217D02*
X3760D01*
X3944Y2084D02*
X3969Y2058D01*
X4000Y2051D02*
X4047Y2098D01*
X3921Y1519D02*
X4044D01*
X3921Y1480D02*
X4083D01*
X3705Y1157D02*
X3760D01*
X3921Y1165D02*
X4044D01*
X4063Y1852D02*
X4083Y1832D01*
X4044Y1872D02*
X4063Y1852D01*
X3705Y1864D02*
X3760D01*
X3705Y1512D02*
X3760D01*
X3856Y1755D02*
Y1783D01*
X3799Y1770D02*
X3819Y1750D01*
X3837D02*
Y1783D01*
X3819Y1750D02*
X3837D01*
X3877Y1700D02*
X3898Y1699D01*
X3874Y1702D02*
X3877Y1700D01*
X3874Y1753D02*
X3876Y1754D01*
Y1783D01*
X3896Y1783D02*
X3896Y1783D01*
X3896Y1763D02*
Y1783D01*
X3874Y1750D02*
Y1753D01*
X3876Y1869D02*
X3882Y1863D01*
Y1860D02*
X3896Y1874D01*
X3882Y1858D02*
Y1860D01*
Y1863D01*
Y1821D02*
Y1826D01*
X3876Y1783D02*
Y1815D01*
X3882Y1821D01*
X3874Y1702D02*
Y1750D01*
X3896Y1874D02*
Y1901D01*
X3876Y1869D02*
Y1901D01*
X3760Y1770D02*
X3799D01*
X3837Y1750D02*
X3874D01*
X3925Y1832D02*
X4083D01*
X3925Y1872D02*
X4044D01*
X3925Y1813D02*
X3948D01*
X3969Y1792D01*
X3799Y1417D02*
X3819Y1398D01*
X3837D01*
Y1431D01*
X3874Y1350D02*
X3877Y1347D01*
X3898Y1346D01*
X3896Y1411D02*
Y1431D01*
X3896Y1431D01*
X3856Y1402D02*
Y1431D01*
X3874Y1398D02*
Y1400D01*
X3876Y1402D01*
Y1431D01*
X3882Y1469D02*
Y1474D01*
Y1507D02*
Y1511D01*
Y1505D02*
Y1507D01*
X3876Y1517D02*
X3882Y1511D01*
Y1507D02*
X3896Y1521D01*
X3876Y1431D02*
Y1463D01*
Y1517D02*
Y1549D01*
X3896Y1521D02*
Y1549D01*
X3874Y1350D02*
Y1398D01*
X3876Y1463D02*
X3882Y1469D01*
X3948Y1460D02*
X3969Y1440D01*
X3760Y1417D02*
X3799D01*
X3837Y1398D02*
X3874D01*
X3921Y1500D02*
X3925D01*
X4063D01*
X3925Y1460D02*
X3948D01*
X3819Y1043D02*
X3837D01*
X3874Y995D02*
X3877Y993D01*
X3874Y995D02*
Y1043D01*
Y1046D01*
X3877Y993D02*
X3898Y992D01*
X3876Y1108D02*
X3882Y1114D01*
Y1120D01*
X3896Y1076D02*
X3896Y1076D01*
X3882Y1153D02*
Y1156D01*
Y1151D02*
Y1153D01*
X3876Y1162D02*
X3882Y1156D01*
X3876Y1162D02*
Y1194D01*
X3882Y1153D02*
X3896Y1167D01*
Y1194D01*
X3949Y1017D02*
X3969Y998D01*
X3937Y1031D02*
X3937Y1031D01*
X3945Y1017D02*
X3949D01*
X3948Y1106D02*
X3969Y1086D01*
X4044Y1165D02*
X4063Y1145D01*
X3799Y1063D02*
X3819Y1043D01*
X3837D02*
Y1076D01*
X3896Y1057D02*
Y1076D01*
X3856Y1048D02*
Y1076D01*
X3874Y1046D02*
X3876Y1047D01*
X3937Y1031D02*
Y1067D01*
X3760Y1063D02*
X3799D01*
X3837Y1043D02*
X3874D01*
X3925Y1126D02*
X4083D01*
X3921D02*
X3925D01*
Y1106D02*
X3948D01*
X3921Y1145D02*
X3925D01*
X4063D01*
X4083Y1126D01*
X299Y1091D02*
X339D01*
X299Y646D02*
X339D01*
X118Y787D02*
X125D01*
X132Y780D02*
X176D01*
X125Y787D02*
X132Y780D01*
X339Y646D02*
X339Y646D01*
X132Y760D02*
X176D01*
X125Y752D02*
X132Y760D01*
X118Y752D02*
X125D01*
X303Y646D02*
Y677D01*
X274Y690D02*
X274Y690D01*
X290D01*
X274Y690D02*
Y692D01*
X290Y690D02*
X303Y677D01*
X283Y799D02*
X312D01*
X256Y772D02*
X264Y780D01*
X346Y740D02*
X346Y740D01*
X312Y760D02*
X339D01*
X312Y720D02*
X342D01*
X312Y740D02*
X346D01*
X118Y1232D02*
X125D01*
X132Y1224D01*
X118Y1197D02*
X125D01*
X132Y1205D01*
X132Y1224D02*
X176D01*
X132Y1205D02*
X176D01*
X274Y1135D02*
X290D01*
X274Y1135D02*
X274Y1135D01*
X274Y1135D02*
Y1137D01*
X290Y1135D02*
X303Y1122D01*
X312Y1205D02*
X339D01*
X283Y1244D02*
X312D01*
X339Y1091D02*
X339Y1091D01*
X303Y1091D02*
Y1122D01*
X256Y1217D02*
X264Y1224D01*
X312Y1165D02*
X342D01*
X346Y1185D02*
X346Y1185D01*
X312Y1185D02*
X346D01*
D87*
X1539Y2492D02*
D03*
D88*
X1461D02*
D03*
X1224D02*
D03*
X1303D02*
D03*
X1382D02*
D03*
X1146D02*
D03*
D89*
X3024Y252D02*
D03*
X3310Y695D02*
D03*
X3210D02*
D03*
X3010D02*
D03*
X3060Y795D02*
D03*
X3110Y695D02*
D03*
X3160Y795D02*
D03*
X3260D02*
D03*
X3346Y252D02*
D03*
X2924D02*
D03*
X3360Y795D02*
D03*
X3446Y252D02*
D03*
D90*
X2960Y445D02*
D03*
X3410D02*
D03*
D91*
X3506Y565D02*
D03*
X2864D02*
D03*
D92*
X3031Y1799D02*
D03*
Y1878D02*
D03*
X1929Y1799D02*
D03*
X2008D02*
D03*
X2087D02*
D03*
X2165D02*
D03*
X2244D02*
D03*
X2323D02*
D03*
X1929Y1878D02*
D03*
X2008D02*
D03*
X2087D02*
D03*
X2165D02*
D03*
X2244D02*
D03*
X2323D02*
D03*
X2402Y1799D02*
D03*
X2480D02*
D03*
X2559D02*
D03*
X2638D02*
D03*
X2402Y1878D02*
D03*
X2480D02*
D03*
X2559D02*
D03*
X2638D02*
D03*
X2717Y1799D02*
D03*
X2795D02*
D03*
X2874D02*
D03*
X2953D02*
D03*
X2717Y1878D02*
D03*
X2795D02*
D03*
X2874D02*
D03*
X2953D02*
D03*
D93*
X4606Y2439D02*
D03*
Y117D02*
D03*
X354D02*
D03*
Y2439D02*
D03*
D94*
X2362Y1063D02*
D03*
Y1024D02*
D03*
Y984D02*
D03*
Y945D02*
D03*
Y906D02*
D03*
Y866D02*
D03*
Y827D02*
D03*
Y787D02*
D03*
Y748D02*
D03*
X2402Y1063D02*
D03*
Y1024D02*
D03*
Y984D02*
D03*
Y945D02*
D03*
Y906D02*
D03*
Y866D02*
D03*
Y827D02*
D03*
Y787D02*
D03*
Y748D02*
D03*
X2441Y1063D02*
D03*
Y1024D02*
D03*
Y984D02*
D03*
Y945D02*
D03*
Y906D02*
D03*
Y866D02*
D03*
Y827D02*
D03*
Y787D02*
D03*
Y748D02*
D03*
X2480Y1063D02*
D03*
Y1024D02*
D03*
Y984D02*
D03*
Y945D02*
D03*
Y906D02*
D03*
Y866D02*
D03*
Y827D02*
D03*
Y787D02*
D03*
Y748D02*
D03*
X2520Y1063D02*
D03*
Y1024D02*
D03*
Y984D02*
D03*
Y945D02*
D03*
Y906D02*
D03*
Y866D02*
D03*
Y827D02*
D03*
Y787D02*
D03*
Y748D02*
D03*
X2559Y1063D02*
D03*
Y1024D02*
D03*
Y984D02*
D03*
Y945D02*
D03*
Y906D02*
D03*
Y866D02*
D03*
Y827D02*
D03*
Y787D02*
D03*
Y748D02*
D03*
X2598Y1063D02*
D03*
Y1024D02*
D03*
Y984D02*
D03*
Y945D02*
D03*
Y906D02*
D03*
Y866D02*
D03*
Y827D02*
D03*
Y787D02*
D03*
Y748D02*
D03*
X2638Y1063D02*
D03*
Y1024D02*
D03*
Y984D02*
D03*
Y945D02*
D03*
Y906D02*
D03*
Y866D02*
D03*
Y827D02*
D03*
Y787D02*
D03*
Y748D02*
D03*
X2677Y1063D02*
D03*
Y1024D02*
D03*
Y984D02*
D03*
Y945D02*
D03*
Y906D02*
D03*
Y866D02*
D03*
Y827D02*
D03*
Y787D02*
D03*
Y748D02*
D03*
X2717Y1063D02*
D03*
Y1024D02*
D03*
Y984D02*
D03*
Y945D02*
D03*
Y906D02*
D03*
Y866D02*
D03*
Y827D02*
D03*
Y787D02*
D03*
Y748D02*
D03*
X2756Y1063D02*
D03*
Y1024D02*
D03*
Y984D02*
D03*
Y945D02*
D03*
Y906D02*
D03*
Y866D02*
D03*
Y827D02*
D03*
Y787D02*
D03*
Y748D02*
D03*
X2795Y1063D02*
D03*
Y1024D02*
D03*
Y984D02*
D03*
Y945D02*
D03*
Y906D02*
D03*
Y866D02*
D03*
Y827D02*
D03*
Y787D02*
D03*
Y748D02*
D03*
X2835Y1063D02*
D03*
Y1024D02*
D03*
Y984D02*
D03*
Y945D02*
D03*
Y906D02*
D03*
Y866D02*
D03*
Y827D02*
D03*
Y787D02*
D03*
Y748D02*
D03*
D95*
X732Y878D02*
D03*
Y628D02*
D03*
X591D02*
D03*
Y678D02*
D03*
Y778D02*
D03*
Y878D02*
D03*
Y928D02*
D03*
Y1028D02*
D03*
Y1078D02*
D03*
Y1178D02*
D03*
Y1278D02*
D03*
Y578D02*
D03*
Y728D02*
D03*
Y828D02*
D03*
Y978D02*
D03*
Y1128D02*
D03*
Y1228D02*
D03*
X732Y578D02*
D03*
Y728D02*
D03*
Y778D02*
D03*
Y828D02*
D03*
Y928D02*
D03*
Y978D02*
D03*
Y1028D02*
D03*
Y1078D02*
D03*
Y1128D02*
D03*
Y1178D02*
D03*
Y1228D02*
D03*
Y1278D02*
D03*
Y678D02*
D03*
X4744Y1052D02*
D03*
Y1102D02*
D03*
Y1152D02*
D03*
Y1202D02*
D03*
Y1252D02*
D03*
Y1302D02*
D03*
Y1352D02*
D03*
Y1402D02*
D03*
Y1452D02*
D03*
Y1502D02*
D03*
X4886Y1102D02*
D03*
Y1252D02*
D03*
Y1352D02*
D03*
Y1502D02*
D03*
Y1052D02*
D03*
Y1152D02*
D03*
Y1202D02*
D03*
Y1302D02*
D03*
Y1402D02*
D03*
Y1452D02*
D03*
D96*
X3866Y781D02*
D03*
X3866Y2194D02*
D03*
X3866Y1842D02*
D03*
X3866Y1490D02*
D03*
X3866Y1135D02*
D03*
D97*
X3896Y840D02*
D03*
X3876D02*
D03*
X3856D02*
D03*
X3837D02*
D03*
Y722D02*
D03*
X3856D02*
D03*
X3876D02*
D03*
X3896D02*
D03*
X3896Y2254D02*
D03*
X3876D02*
D03*
X3856D02*
D03*
X3837D02*
D03*
Y2135D02*
D03*
X3856D02*
D03*
X3876D02*
D03*
X3896D02*
D03*
X3896Y1901D02*
D03*
X3876D02*
D03*
X3856D02*
D03*
X3837D02*
D03*
Y1783D02*
D03*
X3856D02*
D03*
X3876D02*
D03*
X3896D02*
D03*
X3896Y1431D02*
D03*
X3876D02*
D03*
X3856D02*
D03*
X3837D02*
D03*
Y1549D02*
D03*
X3856D02*
D03*
X3876D02*
D03*
X3896D02*
D03*
X3896Y1076D02*
D03*
X3876D02*
D03*
X3856D02*
D03*
X3837D02*
D03*
Y1194D02*
D03*
X3856D02*
D03*
X3876D02*
D03*
X3896D02*
D03*
D98*
X3807Y811D02*
D03*
Y791D02*
D03*
Y771D02*
D03*
Y752D02*
D03*
X3925D02*
D03*
Y771D02*
D03*
Y791D02*
D03*
Y811D02*
D03*
X3807Y2224D02*
D03*
Y2204D02*
D03*
Y2185D02*
D03*
Y2165D02*
D03*
X3925D02*
D03*
Y2185D02*
D03*
Y2204D02*
D03*
Y2224D02*
D03*
X3807Y1872D02*
D03*
Y1852D02*
D03*
Y1832D02*
D03*
Y1813D02*
D03*
X3925D02*
D03*
Y1832D02*
D03*
Y1852D02*
D03*
Y1872D02*
D03*
X3925Y1519D02*
D03*
Y1500D02*
D03*
Y1480D02*
D03*
Y1460D02*
D03*
X3807D02*
D03*
Y1480D02*
D03*
Y1500D02*
D03*
Y1519D02*
D03*
X3925Y1165D02*
D03*
Y1145D02*
D03*
Y1126D02*
D03*
Y1106D02*
D03*
X3807D02*
D03*
Y1126D02*
D03*
Y1145D02*
D03*
Y1165D02*
D03*
D99*
X4150Y913D02*
D03*
Y661D02*
D03*
X4138Y1720D02*
D03*
Y1972D02*
D03*
X4150Y2327D02*
D03*
Y2075D02*
D03*
X4150Y1622D02*
D03*
Y1370D02*
D03*
X4150Y1268D02*
D03*
Y1016D02*
D03*
D100*
X4889Y378D02*
D03*
Y433D02*
D03*
Y599D02*
D03*
Y654D02*
D03*
X2161Y575D02*
D03*
Y630D02*
D03*
X2083Y575D02*
D03*
Y630D02*
D03*
X2122Y579D02*
D03*
Y634D02*
D03*
X2205Y571D02*
D03*
Y626D02*
D03*
X1626Y2378D02*
D03*
Y2433D02*
D03*
X4889Y548D02*
D03*
Y492D02*
D03*
D101*
X274Y828D02*
D03*
Y692D02*
D03*
X215D02*
D03*
Y828D02*
D03*
Y1273D02*
D03*
Y1137D02*
D03*
X274D02*
D03*
Y1273D02*
D03*
D102*
X312Y799D02*
D03*
Y780D02*
D03*
Y760D02*
D03*
Y740D02*
D03*
Y720D02*
D03*
X176D02*
D03*
Y740D02*
D03*
Y760D02*
D03*
Y780D02*
D03*
Y799D02*
D03*
Y1244D02*
D03*
Y1224D02*
D03*
Y1205D02*
D03*
Y1185D02*
D03*
Y1165D02*
D03*
X312D02*
D03*
Y1185D02*
D03*
Y1205D02*
D03*
Y1224D02*
D03*
Y1244D02*
D03*
D103*
X244Y760D02*
D03*
X244Y1205D02*
D03*
D104*
X2669Y654D02*
D03*
Y567D02*
D03*
X2606D02*
D03*
Y654D02*
D03*
D105*
X1197Y1287D02*
D03*
Y1268D02*
D03*
Y1248D02*
D03*
Y1228D02*
D03*
Y1209D02*
D03*
Y1189D02*
D03*
Y1169D02*
D03*
Y1150D02*
D03*
Y1130D02*
D03*
Y1110D02*
D03*
Y1091D02*
D03*
Y1071D02*
D03*
Y1051D02*
D03*
Y1031D02*
D03*
Y1012D02*
D03*
Y992D02*
D03*
Y972D02*
D03*
Y953D02*
D03*
Y933D02*
D03*
Y913D02*
D03*
Y894D02*
D03*
Y874D02*
D03*
Y854D02*
D03*
Y835D02*
D03*
X1512D02*
D03*
Y854D02*
D03*
Y874D02*
D03*
Y894D02*
D03*
Y913D02*
D03*
Y933D02*
D03*
Y953D02*
D03*
Y972D02*
D03*
Y992D02*
D03*
Y1012D02*
D03*
Y1031D02*
D03*
Y1051D02*
D03*
Y1071D02*
D03*
Y1091D02*
D03*
Y1110D02*
D03*
Y1130D02*
D03*
Y1150D02*
D03*
Y1169D02*
D03*
Y1189D02*
D03*
Y1209D02*
D03*
Y1228D02*
D03*
Y1248D02*
D03*
Y1268D02*
D03*
D106*
Y1287D02*
D03*
D107*
X2126Y1350D02*
D03*
X2070D02*
D03*
X2264Y1350D02*
D03*
X2320D02*
D03*
X2264Y1413D02*
D03*
X2320D02*
D03*
X1807Y1469D02*
D03*
X1863D02*
D03*
X1863Y1520D02*
D03*
X1807D02*
D03*
X2070Y1413D02*
D03*
X2126D02*
D03*
X1858Y1701D02*
D03*
X1802D02*
D03*
X1859Y1768D02*
D03*
X1803D02*
D03*
D108*
X2087Y1709D02*
D03*
X2067D02*
D03*
X2047D02*
D03*
Y1685D02*
D03*
X2067D02*
D03*
D109*
X2087Y1686D02*
D03*
D110*
X1335Y2325D02*
D03*
D111*
X1484Y2250D02*
D03*
Y2300D02*
D03*
Y2350D02*
D03*
Y2400D02*
D03*
X1185D02*
D03*
Y2350D02*
D03*
Y2300D02*
D03*
Y2250D02*
D03*
D112*
X2264Y55D02*
D03*
X2173D02*
D03*
X2083D02*
D03*
X2657Y51D02*
D03*
X2567D02*
D03*
X2476D02*
D03*
D113*
X2173Y291D02*
D03*
X2567Y287D02*
D03*
D114*
X4571Y1248D02*
D03*
Y1198D02*
D03*
Y1148D02*
D03*
Y1098D02*
D03*
X4366Y1248D02*
D03*
Y1198D02*
D03*
Y1148D02*
D03*
Y1098D02*
D03*
D115*
X3701Y2366D02*
D03*
X3756D02*
D03*
M02*
