G04*
G04 #@! TF.GenerationSoftware,Altium Limited,Altium Designer,20.2.6 (244)*
G04*
G04 Layer_Physical_Order=2*
G04 Layer_Color=6736896*
%FSLAX23Y23*%
%MOIN*%
G70*
G04*
G04 #@! TF.SameCoordinates,F437F868-D355-4B6F-B73A-08E2C5D382C2*
G04*
G04*
G04 #@! TF.FilePolarity,Positive*
G04*
G01*
G75*
%ADD11C,0.008*%
%ADD17C,0.024*%
%ADD49C,0.035*%
%ADD64C,0.028*%
%ADD65C,0.039*%
%ADD70C,0.063*%
%ADD75C,0.005*%
%ADD76C,0.005*%
%ADD77C,0.005*%
%ADD78C,0.005*%
%ADD79C,0.005*%
%ADD80C,0.005*%
%ADD93C,0.020*%
%ADD95C,0.039*%
G04:AMPARAMS|DCode=96|XSize=51mil|YSize=51mil|CornerRadius=20mil|HoleSize=0mil|Usage=FLASHONLY|Rotation=270.000|XOffset=0mil|YOffset=0mil|HoleType=Round|Shape=RoundedRectangle|*
%AMROUNDEDRECTD96*
21,1,0.051,0.010,0,0,270.0*
21,1,0.010,0.051,0,0,270.0*
1,1,0.041,-0.005,-0.005*
1,1,0.041,-0.005,0.005*
1,1,0.041,0.005,0.005*
1,1,0.041,0.005,-0.005*
%
%ADD96ROUNDEDRECTD96*%
%ADD97C,0.063*%
%ADD98R,0.059X0.059*%
%ADD99C,0.236*%
%ADD100C,0.055*%
%ADD101C,0.087*%
%ADD102C,0.157*%
G04:AMPARAMS|DCode=103|XSize=51mil|YSize=51mil|CornerRadius=20mil|HoleSize=0mil|Usage=FLASHONLY|Rotation=0.000|XOffset=0mil|YOffset=0mil|HoleType=Round|Shape=RoundedRectangle|*
%AMROUNDEDRECTD103*
21,1,0.051,0.010,0,0,0.0*
21,1,0.010,0.051,0,0,0.0*
1,1,0.041,0.005,-0.005*
1,1,0.041,-0.005,-0.005*
1,1,0.041,-0.005,0.005*
1,1,0.041,0.005,0.005*
%
%ADD103ROUNDEDRECTD103*%
%ADD104C,0.020*%
%ADD105C,0.031*%
D11*
X1466Y1305D02*
G03*
X1472Y1303I6J6D01*
G01*
X1409Y1197D02*
Y1354D01*
X1583Y1362D02*
X1612D01*
X1576Y1349D02*
X1607D01*
X1924Y1032D01*
X1442Y1330D02*
X1466Y1305D01*
X1472Y1303D02*
X1499D01*
X1472D02*
X1472D01*
X1583Y1268D02*
X1839Y1012D01*
X1807Y976D02*
Y1016D01*
X1559Y1264D02*
Y1287D01*
Y1264D02*
X1807Y1016D01*
X1488Y669D02*
Y677D01*
X917Y1757D02*
X929Y1769D01*
X850Y2034D02*
X929Y1955D01*
X665Y2395D02*
X673Y2388D01*
X929Y1769D02*
Y1955D01*
X892Y1757D02*
X917D01*
X1924Y785D02*
X2039Y669D01*
X1924Y785D02*
Y1032D01*
X2029Y644D02*
X2070D01*
X1909Y764D02*
X2029Y644D01*
X1909Y764D02*
Y1028D01*
X2070Y644D02*
X2071Y646D01*
X1205Y2188D02*
Y2220D01*
X1231Y2247D02*
Y2364D01*
X1205Y2220D02*
X1231Y2247D01*
X1209Y2260D02*
Y2260D01*
X1165Y2187D02*
Y2217D01*
X1209Y2260D01*
X1282Y2433D02*
X1291D01*
X1350Y2492D01*
X1244Y2209D02*
Y2358D01*
X1289Y2404D01*
X1231Y2364D02*
X1285Y2417D01*
X1128Y2279D02*
X1282Y2433D01*
X1289Y2404D02*
X1420D01*
X1272Y2441D02*
Y2492D01*
X1110Y2171D02*
Y2280D01*
X1128Y2189D02*
Y2279D01*
X1110Y2280D02*
X1272Y2441D01*
X1285Y2417D02*
X1354D01*
X673Y2363D02*
X795Y2241D01*
X673Y2363D02*
Y2388D01*
X850Y2034D02*
Y2114D01*
X795Y2169D02*
Y2241D01*
Y2169D02*
X850Y2114D01*
X1482Y2467D02*
X1508Y2492D01*
X1482Y2466D02*
Y2467D01*
X1420Y2404D02*
X1482Y2466D01*
X1354Y2417D02*
X1429Y2492D01*
X2441Y465D02*
X2755Y151D01*
X4078D01*
X2413Y591D02*
X2488Y665D01*
X2413Y77D02*
Y591D01*
X2398Y55D02*
Y62D01*
X2413Y77D01*
X2441Y421D02*
X2744Y118D01*
X4028D01*
X567Y594D02*
Y890D01*
X602Y488D02*
Y559D01*
X567Y594D02*
X602Y559D01*
X484Y665D02*
X531Y618D01*
X484Y701D02*
X512Y729D01*
X484Y665D02*
Y701D01*
X512Y729D02*
X515D01*
X531Y409D02*
Y618D01*
X575Y461D02*
X602Y488D01*
X551Y531D02*
X575Y508D01*
X516Y878D02*
X551Y843D01*
Y531D02*
Y843D01*
X532Y925D02*
X567Y890D01*
X701Y362D02*
X779Y440D01*
X698Y319D02*
X701D01*
X697Y497D02*
X746Y546D01*
X698Y362D02*
X701D01*
X762Y522D02*
Y963D01*
X697Y457D02*
X762Y522D01*
X701Y319D02*
X795Y413D01*
X516Y929D02*
X520Y925D01*
X532D01*
X531Y409D02*
X562Y379D01*
X571Y414D02*
X575D01*
X762Y963D02*
X909Y1110D01*
X779Y440D02*
Y956D01*
X746Y546D02*
Y970D01*
X941Y1269D02*
X942Y1270D01*
X779Y956D02*
X925Y1103D01*
X941Y1095D02*
Y1269D01*
X894Y1118D02*
Y1209D01*
X909Y1110D02*
Y1217D01*
X925Y1103D02*
Y1224D01*
X795Y413D02*
Y950D01*
X746Y970D02*
X894Y1118D01*
X795Y950D02*
X941Y1095D01*
X935Y915D02*
Y986D01*
X831Y843D02*
X862D01*
X989Y1121D02*
X991D01*
X850Y1252D02*
Y1270D01*
X2044Y591D02*
X2046Y593D01*
X2019Y618D02*
X2020Y618D01*
X2046Y728D02*
X2049Y731D01*
X2005Y728D02*
X2046D01*
X1937Y796D02*
X2005Y728D01*
X1756Y1878D02*
X1756Y1878D01*
X1630Y1878D02*
X1756D01*
X1087Y2148D02*
X1110Y2171D01*
X862Y843D02*
X935Y915D01*
X625Y2252D02*
X625D01*
X991Y1121D02*
X1047Y1177D01*
X1967Y618D02*
X2019D01*
X1976Y591D02*
X2044D01*
X2519Y499D02*
Y730D01*
X2531Y504D02*
Y756D01*
Y504D02*
X2650Y386D01*
X2520Y768D02*
X2531Y756D01*
X2519Y499D02*
X2644Y373D01*
X2480Y768D02*
X2519Y730D01*
X2644Y373D02*
X2928D01*
X2650Y386D02*
X2902D01*
X2555Y728D02*
X2579Y752D01*
X2555Y697D02*
Y728D01*
X2554Y697D02*
X2555D01*
X2551Y700D02*
X2554Y697D01*
X2579Y752D02*
Y787D01*
X2559Y807D02*
X2579Y787D01*
X1601Y1336D02*
X1909Y1028D01*
X1597Y1396D02*
X1950Y1042D01*
X1976Y858D02*
Y1055D01*
X1612Y1362D02*
X1937Y1037D01*
X1963Y832D02*
Y1050D01*
X1950Y825D02*
Y1042D01*
Y825D02*
X2020Y756D01*
X1620Y1411D02*
X1976Y1055D01*
X1609Y1404D02*
X1963Y1050D01*
Y832D02*
X2012Y783D01*
X1937Y796D02*
Y1037D01*
X1976Y858D02*
X2020Y815D01*
X4078Y151D02*
X4110Y118D01*
X1421Y1972D02*
X1443Y1994D01*
X1421Y1972D02*
Y1972D01*
X1443Y1994D02*
X1544D01*
X1583Y1955D01*
X1608D01*
X1661Y1902D01*
X1697D01*
X1595Y1913D02*
X1630Y1878D01*
X1667Y1965D02*
X3303D01*
X1677Y2023D02*
Y2191D01*
X1604Y1986D02*
X1623D01*
X1654Y1933D02*
X3321D01*
X1622Y2009D02*
X1667Y1965D01*
X1661Y2014D02*
Y2184D01*
X1622Y2009D02*
Y2110D01*
X1623Y1986D02*
X1660Y1949D01*
X1673Y1980D02*
X3296D01*
X1616Y1970D02*
X1654Y1933D01*
X1646Y2008D02*
X1673Y1980D01*
X1687Y2013D02*
X3281D01*
X1660Y1949D02*
X3313D01*
X1680Y1996D02*
X3288D01*
X1677Y2023D02*
X1687Y2013D01*
X1646Y2008D02*
Y2126D01*
X1661Y2014D02*
X1680Y1996D01*
X1589Y1970D02*
X1616D01*
X1579Y2012D02*
X1604Y1986D01*
X1643Y1745D02*
X2130D01*
X1646Y1729D02*
X2106D01*
X1650Y1714D02*
X1986D01*
X1499Y1303D02*
X1776Y1026D01*
X1493Y1290D02*
X1744Y1039D01*
X1363Y1913D02*
X1595D01*
X1343Y1933D02*
X1363Y1913D01*
X1555Y2005D02*
X1589Y1970D01*
X1555Y2005D02*
Y2028D01*
X1650Y1714D02*
X1650Y1714D01*
X1646Y1729D02*
X1646Y1729D01*
X1641Y1746D02*
X1643Y1745D01*
X2130D02*
X2213Y1661D01*
X2106Y1729D02*
X2190Y1645D01*
X1646Y1697D02*
X1979D01*
X1614Y1681D02*
X1972D01*
X1611Y1665D02*
X1964D01*
X1500Y1609D02*
X1540Y1650D01*
X1500Y1579D02*
Y1609D01*
X1539Y1579D02*
X1594Y1634D01*
X1949D01*
X1540Y1650D02*
X1956D01*
X1878Y1232D02*
X2713D01*
X1783Y1327D02*
X1878Y1232D01*
X3296Y1980D02*
X3351Y2036D01*
Y2067D01*
X3288Y1996D02*
X3323Y2031D01*
Y2083D01*
X3281Y2013D02*
X3306Y2038D01*
Y2090D01*
X3303Y1965D02*
X3374Y2035D01*
Y2050D01*
X1986Y1714D02*
X2071Y1628D01*
X1444Y1303D02*
X1457Y1290D01*
X1493D01*
X1618Y1500D02*
X1811D01*
X1618Y1500D02*
X1618Y1500D01*
X1811D02*
X2028Y1283D01*
X1539Y1500D02*
X1618D01*
X1652Y936D02*
X1705D01*
X1395Y1193D02*
Y1315D01*
X1630Y976D02*
X1713D01*
X1382Y1185D02*
X1644Y923D01*
X1382Y1185D02*
Y1315D01*
X1409Y1197D02*
X1630Y976D01*
X1644Y923D02*
X1699D01*
X1395Y1193D02*
X1652Y936D01*
X1330Y1162D02*
Y1311D01*
X1787Y484D02*
Y705D01*
X1330Y1162D02*
X1787Y705D01*
X1597Y1396D02*
X1597D01*
X1567Y1323D02*
X1596D01*
X1571Y1336D02*
X1601D01*
X1870Y978D02*
Y1049D01*
X1596Y1323D02*
X1870Y1049D01*
X1630Y1421D02*
X1693Y1358D01*
X1866D01*
X1369Y1180D02*
Y1311D01*
X1356Y1174D02*
Y1311D01*
X1343Y1169D02*
Y1307D01*
X1744Y976D02*
Y976D01*
X1869Y976D02*
Y977D01*
X1713Y976D02*
X1714Y976D01*
X1776D02*
Y1026D01*
X1869Y976D02*
X1870Y976D01*
X1839D02*
Y1012D01*
X1866Y1358D02*
X1976Y1248D01*
X2715D01*
X1500Y1854D02*
X1501D01*
X1441Y1303D02*
X1444D01*
X1744Y1000D02*
Y1039D01*
X1744Y1000D02*
X1744Y1000D01*
X1744Y976D02*
Y1000D01*
X1744Y976D02*
X1744Y976D01*
X2012Y783D02*
X2049D01*
X1869Y977D02*
X1870Y978D01*
X2213Y1661D02*
X3102D01*
X3280Y1412D02*
Y1484D01*
X3102Y1661D02*
X3280Y1484D01*
X3240Y1433D02*
Y1480D01*
X3311Y1399D02*
Y1480D01*
X3341Y1906D02*
X3386D01*
X3417Y1937D02*
X3441D01*
X3386Y1906D02*
X3417Y1937D01*
X3441D02*
X3500Y1996D01*
Y2197D01*
X3701Y2398D01*
X3701D01*
X1555Y2028D02*
X1579Y2051D01*
X1185Y547D02*
X1205Y528D01*
X1185Y547D02*
Y1461D01*
X1699Y923D02*
X1747Y875D01*
X1705Y936D02*
X1760Y881D01*
X1369Y1180D02*
X1990Y559D01*
X1343Y1169D02*
X1835Y677D01*
X1356Y1174D02*
X1878Y652D01*
X1760Y825D02*
Y881D01*
Y825D02*
X1967Y618D01*
X1747Y820D02*
Y875D01*
Y820D02*
X1976Y591D01*
X3323Y2083D02*
X3377Y2138D01*
X3402D01*
X1622Y2150D02*
X1646Y2126D01*
X1579Y2012D02*
X1579D01*
X3313Y1949D02*
X3402Y2038D01*
X3321Y1933D02*
X3396Y2008D01*
X1956Y1650D02*
X2047Y1559D01*
X3854Y945D02*
X4444D01*
X3720Y1079D02*
X3854Y945D01*
X4444D02*
X4621Y1122D01*
X3714Y1107D02*
X3861Y961D01*
X4437D02*
X4614Y1138D01*
X3861Y961D02*
X4437D01*
X2802Y1143D02*
X3697D01*
X3718Y1195D02*
X3886Y1028D01*
X3870Y988D02*
X4291D01*
X3702Y1156D02*
X3870Y988D01*
X3880Y1015D02*
X4235D01*
X3875Y1002D02*
X4273D01*
X3509Y1182D02*
X3713D01*
X3865Y975D02*
X4377D01*
X3697Y1143D02*
X3865Y975D01*
X3512Y1079D02*
X3720D01*
X3504Y1169D02*
X3707D01*
X3515Y1195D02*
X3718D01*
X3713Y1182D02*
X3880Y1015D01*
X3531Y1107D02*
X3714D01*
X3886Y1028D02*
X4197D01*
X3707Y1169D02*
X3875Y1002D01*
X2807Y1156D02*
X3702D01*
X1047Y1177D02*
Y1256D01*
X2902Y386D02*
X2929Y413D01*
X2928Y373D02*
X2929Y374D01*
X2892Y1498D02*
X2929Y1461D01*
X2020Y815D02*
Y815D01*
X2715Y1248D02*
X2807Y1156D01*
X2713Y1232D02*
X2802Y1143D01*
X4197Y1028D02*
X4299Y1130D01*
X4235Y1015D02*
X4299Y1079D01*
X4273Y1002D02*
X4366Y1094D01*
X4377Y975D02*
X4390Y988D01*
X4291D02*
X4378Y1075D01*
X3311Y1399D02*
X3515Y1195D01*
X3280Y1412D02*
X3509Y1182D01*
X4378Y1075D02*
X4512D01*
X4366Y1094D02*
Y1220D01*
X3240Y1433D02*
X3504Y1169D01*
X3484Y1106D02*
X3512Y1079D01*
X1949Y1634D02*
X2040Y1543D01*
X1866Y1591D02*
Y1594D01*
X913Y1236D02*
Y1270D01*
X882Y1244D02*
Y1270D01*
X1878Y484D02*
Y652D01*
X1990Y559D02*
X2020D01*
X1835Y483D02*
Y677D01*
X882Y1244D02*
X909Y1217D01*
X850Y1252D02*
X894Y1209D01*
X913Y1236D02*
X925Y1224D01*
X1067Y1421D02*
X1067Y1421D01*
X1067Y1500D02*
X1067D01*
X4614Y1138D02*
X4663D01*
X4621Y1122D02*
X4669D01*
X4728Y1181D01*
X4663Y1138D02*
X4720Y1195D01*
X4728Y1181D02*
X4823D01*
X4720Y1195D02*
Y1236D01*
X4745Y1261D01*
X3137Y1461D02*
X3138D01*
X3102Y1496D02*
X3137Y1461D01*
X870Y1736D02*
X872D01*
X892Y1757D01*
X1972Y1681D02*
X2058Y1595D01*
X1964Y1665D02*
X2054Y1576D01*
X1979Y1697D02*
X2064Y1612D01*
X2040Y1543D02*
X2170D01*
X1641Y2226D02*
X1677Y2191D01*
X1635Y2211D02*
X1661Y2184D01*
X1518Y2226D02*
X1641D01*
X1541Y2211D02*
X1635D01*
X1500Y2169D02*
X1541Y2211D01*
X1461Y2169D02*
X1518Y2226D01*
X3374Y2050D02*
X3421Y2097D01*
X3396Y2008D02*
X3429D01*
X3402Y2038D02*
X3403Y2038D01*
X3402Y2038D02*
X3402D01*
X3429Y2008D02*
X3432Y2011D01*
X3351Y2067D02*
X3354Y2071D01*
X3306Y2090D02*
X3397Y2181D01*
X3402D01*
X2961Y980D02*
X3035Y906D01*
X2961Y937D02*
X3016Y882D01*
X3035Y906D02*
X3413D01*
X3469Y740D02*
X3494Y766D01*
X3405Y699D02*
X3446Y740D01*
X3469D01*
X3413Y906D02*
X3494Y824D01*
Y766D02*
Y824D01*
X3372Y882D02*
X3455Y799D01*
X3016Y882D02*
X3372D01*
X2717Y1464D02*
Y1465D01*
X2227Y1559D02*
X2232D01*
X2210Y1576D02*
X2227Y1559D01*
X2226Y1461D02*
Y1473D01*
Y1461D02*
X2231Y1456D01*
X2251Y1595D02*
X2343Y1503D01*
X2058Y1595D02*
X2251D01*
X2343Y1503D02*
X2465D01*
X2261Y1612D02*
X2353Y1520D01*
X2064Y1612D02*
X2261D01*
X2687Y1628D02*
X2817Y1498D01*
X2071Y1628D02*
X2687D01*
X2871Y1645D02*
X3020Y1496D01*
X2190Y1645D02*
X2871D01*
X4745Y1261D02*
X4824D01*
X4823Y1181D02*
X4862Y1220D01*
X4824Y1261D02*
X4862Y1299D01*
X2249Y1487D02*
X2349D01*
X2177Y1559D02*
X2249Y1487D01*
X2170Y1543D02*
X2226Y1486D01*
X2047Y1559D02*
X2177D01*
X2226Y1473D02*
Y1486D01*
X2054Y1576D02*
X2210D01*
X2661Y1520D02*
X2717Y1465D01*
X2465Y1503D02*
X2508Y1460D01*
X2349Y1487D02*
X2372Y1463D01*
X2353Y1520D02*
X2661D01*
X2372Y1461D02*
Y1463D01*
X2226Y1473D02*
X2226Y1473D01*
X2817Y1498D02*
X2892D01*
X3020Y1496D02*
X3102D01*
X852Y681D02*
X858D01*
X575Y367D02*
Y367D01*
D17*
X2260Y890D02*
D03*
X2260Y920D02*
D03*
X2260Y984D02*
D03*
X2260Y953D02*
D03*
Y858D02*
D03*
Y827D02*
D03*
X1236Y909D02*
D03*
X1177Y2291D02*
D03*
X1209Y2260D02*
D03*
X1177Y2260D02*
D03*
X989Y1121D02*
D03*
X1933Y700D02*
D03*
X1276D02*
D03*
X1091Y1121D02*
D03*
X1890Y905D02*
D03*
X1744Y976D02*
D03*
X1839D02*
D03*
X1714D02*
D03*
X1807D02*
D03*
X1776D02*
D03*
X1870D02*
D03*
X1704Y882D02*
D03*
X1047D02*
D03*
X661Y701D02*
D03*
X664Y752D02*
D03*
X1681Y261D02*
D03*
Y346D02*
D03*
X1024Y261D02*
D03*
Y346D02*
D03*
D49*
X1927Y1534D02*
D03*
Y1494D02*
D03*
Y1455D02*
D03*
X1966D02*
D03*
Y1494D02*
D03*
Y1534D02*
D03*
X2006Y1455D02*
D03*
Y1494D02*
D03*
Y1534D02*
D03*
D64*
X3850Y1120D02*
D03*
Y1151D02*
D03*
X3882D02*
D03*
Y1120D02*
D03*
X3882Y765D02*
D03*
Y797D02*
D03*
X3850D02*
D03*
Y765D02*
D03*
X3850Y1474D02*
D03*
Y1506D02*
D03*
X3882D02*
D03*
Y1474D02*
D03*
X3850Y2179D02*
D03*
Y2210D02*
D03*
X3882D02*
D03*
Y2179D02*
D03*
X3850Y1827D02*
D03*
Y1858D02*
D03*
X3882D02*
D03*
Y1827D02*
D03*
D65*
X1650Y2335D02*
D03*
X2835Y547D02*
D03*
X2614D02*
D03*
X2669D02*
D03*
X2724D02*
D03*
X2780D02*
D03*
X2961Y728D02*
D03*
X4622Y1646D02*
D03*
X4110Y118D02*
D03*
X3232Y1293D02*
D03*
X4236Y1622D02*
D03*
Y1972D02*
D03*
X4559Y1646D02*
D03*
X4496D02*
D03*
X4843Y2248D02*
D03*
X2961Y882D02*
D03*
Y831D02*
D03*
Y780D02*
D03*
X1807Y1598D02*
D03*
X4705Y1378D02*
D03*
X2071Y1307D02*
D03*
X3969Y886D02*
D03*
X3972Y1217D02*
D03*
X173Y1319D02*
D03*
Y894D02*
D03*
X4705Y1299D02*
D03*
X4028Y118D02*
D03*
X4366Y331D02*
D03*
X409Y685D02*
D03*
X4685Y1646D02*
D03*
X409Y1126D02*
D03*
X4193Y118D02*
D03*
X1874Y433D02*
D03*
X1512Y370D02*
D03*
X4675Y2500D02*
D03*
X4547Y2510D02*
D03*
X4675Y2382D02*
D03*
X4547Y2372D02*
D03*
X4695Y2441D02*
D03*
X4518D02*
D03*
X4606Y2352D02*
D03*
Y2530D02*
D03*
Y207D02*
D03*
Y30D02*
D03*
X4518Y118D02*
D03*
X4695D02*
D03*
X4547Y49D02*
D03*
X4675Y59D02*
D03*
X4547Y187D02*
D03*
X4675Y177D02*
D03*
X423D02*
D03*
X295Y187D02*
D03*
X423Y59D02*
D03*
X295Y49D02*
D03*
X443Y118D02*
D03*
X266D02*
D03*
X354Y30D02*
D03*
Y207D02*
D03*
Y2530D02*
D03*
Y2352D02*
D03*
X266Y2441D02*
D03*
X443D02*
D03*
X295Y2372D02*
D03*
X423Y2382D02*
D03*
X295Y2510D02*
D03*
X423Y2500D02*
D03*
D70*
X4719Y431D02*
D03*
Y605D02*
D03*
D75*
X295Y1630D02*
D03*
X241Y2050D02*
D03*
X188Y1910D02*
D03*
X199Y1840D02*
D03*
X199Y1840D02*
D03*
X393Y1518D02*
D03*
X181Y1650D02*
D03*
X243Y1804D02*
D03*
X147Y2161D02*
D03*
D76*
X288Y2008D02*
G03*
X287Y2011I-5J0D01*
G01*
X285Y2017D02*
G03*
X285Y2019I-5J-1D01*
G01*
X426Y1506D02*
G03*
X408Y1512I-17J-23D01*
G01*
X466Y1447D02*
G03*
X531Y1422I65J74D01*
G01*
X319Y1598D02*
G03*
X310Y1616I-33J-6D01*
G01*
X393Y1518D02*
G03*
X408Y1512I15J15D01*
G01*
X319Y1598D02*
G03*
X319Y1595I14J1D01*
G01*
D02*
G03*
X323Y1588I14J3D01*
G01*
X282Y2027D02*
G03*
X269Y2050I-52J-15D01*
G01*
X275Y2194D02*
G03*
X281Y2209I-16J16D01*
G01*
X235Y2088D02*
G03*
X240Y2079I18J4D01*
G01*
X235Y2092D02*
G03*
X235Y2088I19J0D01*
G01*
X246Y2165D02*
G03*
X235Y2138I27J-27D01*
G01*
X285Y2019D02*
G03*
X283Y2026I-17J0D01*
G01*
X282Y2027D02*
G03*
X283Y2026I5J1D01*
G01*
X283Y1795D02*
G03*
X276Y1812I-24J0D01*
G01*
X281Y1636D02*
G03*
X283Y1636I2J13D01*
G01*
X280Y1636D02*
G03*
X281Y1636I3J12D01*
G01*
X284Y1636D02*
G03*
X281Y1636I-3J-20D01*
G01*
X271Y1740D02*
G03*
X283Y1783I-64J43D01*
G01*
X271Y1740D02*
G03*
X262Y1730I42J-42D01*
G01*
D02*
G03*
X253Y1698I51J-32D01*
G01*
X272Y1642D02*
G03*
X275Y1639I19J19D01*
G01*
X253Y1686D02*
G03*
X258Y1661I62J0D01*
G01*
D02*
G03*
X266Y1648I57J26D01*
G01*
X274Y1640D02*
G03*
X280Y1636I9J9D01*
G01*
X290Y1634D02*
G03*
X284Y1636I-9J-18D01*
G01*
X295Y1630D02*
G03*
X290Y1634I-14J-14D01*
G01*
X249Y2031D02*
G03*
X241Y2050I-26J0D01*
G01*
X248Y1791D02*
G03*
X243Y1804I-17J0D01*
G01*
X714Y1388D02*
G03*
X681Y1402I-33J-33D01*
G01*
X290Y1424D02*
G03*
X343Y1402I53J53D01*
G01*
X243Y1478D02*
G03*
X248Y1465I19J0D01*
G01*
X244Y2244D02*
G03*
X220Y2187I57J-57D01*
G01*
Y2099D02*
G03*
X240Y2051I67J0D01*
G01*
X228Y1957D02*
G03*
X249Y2006I-50J50D01*
G01*
X193Y1921D02*
G03*
X190Y1917I12J-12D01*
G01*
X190Y1917D02*
G03*
X189Y1913I46J-15D01*
G01*
X188Y1910D02*
G03*
X188Y1909I17J-0D01*
G01*
X240Y1759D02*
G03*
X248Y1780I-21J21D01*
G01*
X240Y1759D02*
G03*
X234Y1745I13J-13D01*
G01*
X231Y1643D02*
G03*
X230Y1638I10J-5D01*
G01*
X243Y1591D02*
G03*
X233Y1613I-32J0D01*
G01*
X230Y1622D02*
G03*
X233Y1613I12J0D01*
G01*
X188Y1868D02*
G03*
X199Y1840I39J0D01*
G01*
X229Y1817D02*
G03*
X217Y1823I-13J-13D01*
G01*
X233Y1646D02*
G03*
X234Y1649I-3J3D01*
G01*
X233Y1646D02*
G03*
X231Y1643I8J-8D01*
G01*
X438Y1486D02*
G03*
X433Y1499I-18J0D01*
G01*
X438Y1488D02*
G03*
X448Y1465I33J0D01*
G01*
X194Y1717D02*
G03*
X185Y1736I-28J0D01*
G01*
X891Y1335D02*
G03*
X909Y1343I0J26D01*
G01*
X709Y1346D02*
G03*
X727Y1336I27J27D01*
G01*
D02*
G03*
X736Y1335I9J37D01*
G01*
X213Y1409D02*
G03*
X219Y1404I66J66D01*
G01*
D02*
G03*
X280Y1382I60J71D01*
G01*
X690Y1365D02*
G03*
X650Y1382I-40J-40D01*
G01*
X147Y1976D02*
G03*
X147Y1972I41J-4D01*
G01*
X181Y1650D02*
G03*
X172Y1628I22J-22D01*
G01*
X147Y1799D02*
G03*
X164Y1758I59J0D01*
G01*
X154Y1491D02*
G03*
X169Y1454I52J0D01*
G01*
X155Y1576D02*
G03*
X154Y1567I27J-10D01*
G01*
X147Y1678D02*
G03*
X165Y1670I18J18D01*
G01*
X132Y2139D02*
G03*
X127Y2113I63J-26D01*
G01*
Y1773D02*
G03*
X134Y1756I24J0D01*
G01*
X142Y1694D02*
G03*
X147Y1678I28J0D01*
G01*
X142Y1737D02*
G03*
X134Y1756I-27J0D01*
G01*
X522Y1635D02*
G03*
X484Y1624I0J-71D01*
G01*
X783Y2138D02*
G03*
X756Y2150I-27J-27D01*
G01*
X642D02*
G03*
X611Y2137I0J-43D01*
G01*
X611Y2137D02*
G03*
X600Y2110I27J-27D01*
G01*
X162Y1587D02*
G03*
X155Y1576I20J-20D01*
G01*
X189Y1913D02*
G03*
X188Y1910I47J-12D01*
G01*
X697Y2154D02*
G03*
X702Y2150I5J0D01*
G01*
X697Y2162D02*
G03*
X688Y2162I-4J0D01*
G01*
X680Y2146D02*
G03*
X688Y2146I4J0D01*
G01*
X680Y2162D02*
G03*
X671Y2162I-4J0D01*
G01*
X662Y2146D02*
G03*
X671Y2146I4J0D01*
G01*
X662Y2162D02*
G03*
X654Y2162I-4J0D01*
G01*
X649Y2150D02*
G03*
X654Y2154I0J5D01*
G01*
X484Y1624D02*
G03*
X472Y1614I38J-60D01*
G01*
X268Y1823D02*
G03*
X288Y1872I-49J49D01*
G01*
X285Y2017D02*
G03*
X287Y2011I17J3D01*
G01*
X159Y2001D02*
G03*
X147Y1976I29J-29D01*
G01*
X147Y2161D02*
G03*
X132Y2139I49J-48D01*
G01*
X288Y2008D02*
Y2008D01*
Y1891D02*
Y2008D01*
X285Y2019D02*
X285Y2019D01*
X283Y1783D02*
Y1795D01*
X448Y1465D02*
X466Y1447D01*
X426Y1506D02*
X433Y1499D01*
X531Y1422D02*
X869D01*
X323Y1588D02*
X393Y1518D01*
X282Y2027D02*
X282Y2027D01*
X283Y2026D02*
X283D01*
X246Y2165D02*
X275Y2194D01*
X240Y2079D02*
X269Y2050D01*
X235Y2092D02*
Y2138D01*
X266Y1823D02*
X276Y1812D01*
X253Y1686D02*
Y1698D01*
X272Y1642D02*
X274Y1640D01*
X266Y1648D02*
X272Y1642D01*
X295Y1630D02*
X310Y1616D01*
X249Y2006D02*
Y2031D01*
X248Y1780D02*
Y1791D01*
X714Y1388D02*
X740Y1362D01*
X343Y1402D02*
X681D01*
X248Y1465D02*
X274Y1439D01*
X243Y1478D02*
Y1591D01*
X236Y2055D02*
X240Y2051D01*
X241Y2050D02*
X241Y2050D01*
X240Y2051D02*
X241Y2050D01*
X220Y2099D02*
Y2187D01*
X193Y1921D02*
X228Y1957D01*
X190Y1917D02*
X190Y1917D01*
X190Y1917D02*
X190Y1917D01*
X190Y1917D02*
X190Y1917D01*
X188Y1910D02*
X188Y1910D01*
X188Y1910D02*
Y1910D01*
X188Y1890D02*
Y1909D01*
X234Y1649D02*
Y1745D01*
X229Y1817D02*
X243Y1804D01*
X230Y1622D02*
Y1638D01*
X188Y1868D02*
Y1877D01*
X199Y1840D02*
X217Y1823D01*
X199Y1840D02*
X199Y1840D01*
X194Y1663D02*
Y1717D01*
X909Y1343D02*
X949Y1382D01*
X736Y1335D02*
X891D01*
X690Y1365D02*
X709Y1346D01*
X280Y1382D02*
X650D01*
X147Y1799D02*
Y1972D01*
X172Y1597D02*
Y1628D01*
X164Y1758D02*
X185Y1736D01*
X169Y1454D02*
X213Y1409D01*
X154Y1491D02*
Y1567D01*
X165Y1670D02*
X176D01*
X127Y1773D02*
Y2113D01*
X142Y1694D02*
Y1737D01*
X522Y1635D02*
X524D01*
X724Y2150D02*
X756D01*
X783Y2138D02*
X791Y2130D01*
X642Y2150D02*
X646D01*
X600Y2110D02*
X600Y2110D01*
X162Y1587D02*
X169Y1594D01*
X172Y1597D01*
X188Y1910D02*
X188Y1910D01*
X188Y1877D02*
X188Y1890D01*
X702Y2150D02*
X724D01*
X697Y2154D02*
Y2162D01*
X688Y2146D02*
Y2162D01*
X680Y2146D02*
Y2162D01*
X671Y2146D02*
Y2162D01*
X662Y2146D02*
Y2162D01*
X654Y2154D02*
Y2162D01*
X646Y2150D02*
X649D01*
X600Y2106D02*
Y2110D01*
X181Y1650D02*
X194Y1663D01*
X275Y1439D02*
X290Y1424D01*
X281Y2209D02*
Y2243D01*
X288Y1872D02*
Y1891D01*
X159Y2001D02*
X177Y2020D01*
X274Y1439D02*
X275D01*
X869Y1422D02*
X870Y1421D01*
X288Y1891D02*
X288Y1891D01*
X280Y2244D02*
X281Y2243D01*
D77*
X327Y1996D02*
G03*
X331Y2006I-10J10D01*
G01*
Y2208D02*
G03*
X319Y2236I-40J0D01*
G01*
X327Y1996D02*
G03*
X323Y1987I10J-10D01*
G01*
X331Y1604D02*
G03*
X331Y1607I-19J0D01*
G01*
D02*
G03*
X325Y1618I-19J-3D01*
G01*
X307Y1823D02*
G03*
X323Y1861I-38J38D01*
G01*
Y1799D02*
G03*
X317Y1813I-19J0D01*
G01*
X311Y1748D02*
G03*
X323Y1777I-29J29D01*
G01*
X311Y1748D02*
G03*
X292Y1701I47J-47D01*
G01*
X291Y1674D02*
G03*
X292Y1664I51J0D01*
G01*
D02*
G03*
X306Y1638I50J9D01*
G01*
X224Y1730D02*
G03*
X217Y1748I-25J0D01*
G01*
X177Y1804D02*
G03*
X189Y1776I40J0D01*
G01*
X221Y1647D02*
G03*
X219Y1644I4J-4D01*
G01*
X214Y1727D02*
G03*
X207Y1743I-22J0D01*
G01*
X210Y1651D02*
G03*
X206Y1642I9J-9D01*
G01*
X187Y1546D02*
G03*
X198Y1571I-25J25D01*
G01*
X167Y1803D02*
G03*
X182Y1768I50J1D01*
G01*
X167Y1930D02*
G03*
X167Y1925I62J-5D01*
G01*
X210Y1651D02*
G03*
X214Y1660I-9J9D01*
G01*
X221Y1647D02*
G03*
X224Y1655I-7J7D01*
G01*
X424Y1883D02*
G03*
X429Y1878I28J18D01*
G01*
X419Y1901D02*
G03*
X423Y1886I33J0D01*
G01*
X431Y1872D02*
G03*
X429Y1878I-27J-10D01*
G01*
X425Y1842D02*
G03*
X433Y1862I-20J20D01*
G01*
X419Y1961D02*
G03*
X403Y1998I-53J0D01*
G01*
X417Y1835D02*
G03*
X409Y1815I19J-19D01*
G01*
X398Y2009D02*
G03*
X402Y2000I12J0D01*
G01*
X402Y1740D02*
G03*
X405Y1744I-19J18D01*
G01*
X402Y1739D02*
G03*
X402Y1740I-19J19D01*
G01*
D02*
G03*
X398Y1724I25J-16D01*
G01*
X405Y1744D02*
G03*
X409Y1758I-22J14D01*
G01*
X435Y1837D02*
G03*
X443Y1858I-21J21D01*
G01*
Y1946D02*
G03*
X421Y2000I-76J0D01*
G01*
X416Y2059D02*
G03*
X410Y2043I16J-16D01*
G01*
X425Y1827D02*
G03*
X419Y1815I12J-12D01*
G01*
X410Y2028D02*
G03*
X410Y2022I38J0D01*
G01*
X414Y1736D02*
G03*
X411Y1729I7J-7D01*
G01*
Y1707D02*
G03*
X423Y1678I41J0D01*
G01*
X414Y1736D02*
G03*
X419Y1749I-12J12D01*
G01*
X315Y1485D02*
G03*
X329Y1442I76J0D01*
G01*
X315Y1507D02*
G03*
X309Y1528I-38J0D01*
G01*
X921Y1404D02*
G03*
X938Y1411I0J24D01*
G01*
X739Y1405D02*
G03*
X746Y1404I7J18D01*
G01*
X340Y1431D02*
G03*
X395Y1412I54J68D01*
G01*
Y1412D02*
G03*
X399Y1412I5J100D01*
G01*
X333Y1437D02*
G03*
X340Y1431I61J61D01*
G01*
X732Y1409D02*
G03*
X721Y1412I-12J-25D01*
G01*
X732Y1409D02*
G03*
X739Y1405I13J13D01*
G01*
X304Y1533D02*
G03*
X309Y1528I33J22D01*
G01*
X297Y1556D02*
G03*
X299Y1546I40J0D01*
G01*
D02*
G03*
X304Y1533I38J10D01*
G01*
X752Y1656D02*
G03*
X737Y1660I-15J-26D01*
G01*
X631D02*
G03*
X620Y1657I0J-28D01*
G01*
D02*
G03*
X615Y1655I11J-26D01*
G01*
X613Y1653D02*
G03*
X615Y1655I-6J11D01*
G01*
X606Y1651D02*
G03*
X610Y1652I0J13D01*
G01*
X447Y1669D02*
G03*
X454Y1678I-25J25D01*
G01*
X466Y1651D02*
G03*
X460Y1649I0J-9D01*
G01*
X455Y1977D02*
G03*
X427Y2043I-93J0D01*
G01*
X404Y1612D02*
G03*
X416Y1605I17J17D01*
G01*
X425Y1605D02*
G03*
X438Y1610I0J18D01*
G01*
X416Y1605D02*
G03*
X421Y1605I6J24D01*
G01*
X398Y1625D02*
G03*
X403Y1613I17J0D01*
G01*
X610Y1652D02*
G03*
X613Y1653I-4J12D01*
G01*
X438Y1610D02*
G03*
X443Y1624I-12J12D01*
G01*
X443Y1625D02*
G03*
X443Y1624I19J-1D01*
G01*
X448Y1637D02*
G03*
X443Y1625I14J-14D01*
G01*
X454Y1678D02*
G03*
X455Y1680I-5J2D01*
G01*
X410Y2022D02*
G03*
X421Y2000I38J6D01*
G01*
X455Y1680D02*
G03*
X455Y1681I-5J0D01*
G01*
X759Y1651D02*
G03*
X752Y1656I-21J-21D01*
G01*
X369Y2216D02*
G03*
X364Y2210I39J-39D01*
G01*
X370Y1951D02*
G03*
X366Y1961I-13J0D01*
G01*
X370Y1868D02*
G03*
X371Y1862I17J0D01*
G01*
X364Y2210D02*
G03*
X353Y2177I44J-33D01*
G01*
Y1988D02*
G03*
X363Y1964I34J0D01*
G01*
X380Y1638D02*
G03*
X380Y1642I-22J0D01*
G01*
X381Y1636D02*
G03*
X380Y1638I-24J0D01*
G01*
X376Y1852D02*
G03*
X372Y1861I-13J0D01*
G01*
X370Y1664D02*
G03*
X370Y1661I14J0D01*
G01*
X154Y1712D02*
G03*
X161Y1693I27J0D01*
G01*
X154Y1746D02*
G03*
X150Y1756I-13J0D01*
G01*
X149Y2126D02*
G03*
X137Y2096I30J-30D01*
G01*
Y1787D02*
G03*
X150Y1756I44J0D01*
G01*
X370Y1618D02*
G03*
X371Y1614I29J0D01*
G01*
X358Y1665D02*
G03*
X366Y1646I27J0D01*
G01*
X370Y1636D02*
G03*
X366Y1646I-14J0D01*
G01*
X909Y1549D02*
G03*
X926Y1556I0J23D01*
G01*
X894Y1549D02*
G03*
X896Y1549I2J5D01*
G01*
X389Y1590D02*
G03*
X460Y1561I71J71D01*
G01*
X371Y1614D02*
G03*
X372Y1607I29J4D01*
G01*
X372Y1607D02*
G03*
X374Y1606I5J2D01*
G01*
X876Y1556D02*
G03*
X870Y1557I-6J-16D01*
G01*
X356Y2234D02*
G03*
X343Y2201I34J-34D01*
G01*
X358Y1939D02*
G03*
X354Y1949I-13J0D01*
G01*
X343Y1977D02*
G03*
X354Y1949I40J0D01*
G01*
X388Y1995D02*
G03*
X394Y1980I20J0D01*
G01*
X388Y2059D02*
G03*
X372Y2096I-53J0D01*
G01*
X407Y1948D02*
G03*
X394Y1980I-46J0D01*
G01*
X402Y1894D02*
G03*
X390Y1865I29J-29D01*
G01*
X396Y1822D02*
G03*
X395Y1824I-8J-5D01*
G01*
X398Y1817D02*
G03*
X396Y1822I-10J0D01*
G01*
X390Y1839D02*
G03*
X396Y1822I27J0D01*
G01*
X390Y1752D02*
G03*
X397Y1767I-19J19D01*
G01*
X390Y1752D02*
G03*
X380Y1729I23J-23D01*
G01*
Y1677D02*
G03*
X382Y1668I24J0D01*
G01*
X398Y1566D02*
G03*
X414Y1555I43J43D01*
G01*
X360Y1613D02*
G03*
X360Y1609I21J0D01*
G01*
X358Y1634D02*
G03*
X357Y1636I-3J-0D01*
G01*
X360Y1626D02*
G03*
X358Y1634I-18J-0D01*
G01*
X898Y1512D02*
G03*
X880Y1519I-18J-18D01*
G01*
X826D02*
G03*
X799Y1508I0J-38D01*
G01*
X781Y1500D02*
G03*
X799Y1508I0J25D01*
G01*
X440Y1549D02*
G03*
X441Y1549I1J61D01*
G01*
X685Y1508D02*
G03*
X703Y1500I18J18D01*
G01*
X654Y1539D02*
G03*
X635Y1547I-19J-19D01*
G01*
X335Y1671D02*
G03*
X343Y1650I29J0D01*
G01*
X423Y1886D02*
G03*
X424Y1883I29J15D01*
G01*
X382Y1668D02*
G03*
X387Y1660I23J9D01*
G01*
X433Y1862D02*
G03*
X431Y1872I-29J0D01*
G01*
X380Y1642D02*
G03*
X374Y1654I-21J-4D01*
G01*
X370Y1661D02*
G03*
X374Y1654I14J2D01*
G01*
X414Y1555D02*
G03*
X440Y1549I27J54D01*
G01*
X360Y1609D02*
G03*
X366Y1598I21J4D01*
G01*
X397Y1767D02*
G03*
X398Y1771I-27J3D01*
G01*
X403Y1895D02*
G03*
X407Y1906I-10J10D01*
G01*
X218Y1967D02*
G03*
X232Y2001I-34J34D01*
G01*
X194Y1943D02*
G03*
X177Y1902I42J-42D01*
G01*
X195Y1943D02*
G03*
X194Y1943I42J-42D01*
G01*
X185Y1969D02*
G03*
X167Y1930I44J-44D01*
G01*
X331Y2006D02*
Y2208D01*
X323Y1861D02*
Y1987D01*
Y1777D02*
Y1799D01*
X307Y1823D02*
X317Y1813D01*
X325Y1618D02*
X325Y1618D01*
X306Y1638D02*
X325Y1618D01*
X292Y1701D02*
Y1701D01*
X291Y1674D02*
Y1680D01*
X224Y1655D02*
Y1730D01*
X177Y1815D02*
X177Y1902D01*
X177Y1804D02*
Y1815D01*
X219Y1602D02*
Y1644D01*
Y1644D01*
X214Y1660D02*
Y1727D01*
X206Y1615D02*
Y1642D01*
X167Y1803D02*
Y1925D01*
X167Y1803D02*
X167D01*
X182Y1768D02*
X207Y1743D01*
X181Y1539D02*
X187Y1546D01*
X215Y1598D02*
X219Y1602D01*
X419Y1901D02*
Y1961D01*
X417Y1835D02*
X425Y1842D01*
X402Y2000D02*
X403Y1998D01*
X409Y1758D02*
Y1815D01*
X398Y2009D02*
Y2098D01*
X398Y1677D02*
Y1724D01*
X443Y1858D02*
Y1946D01*
X416Y2059D02*
X453Y2096D01*
X435Y1837D02*
X435Y1837D01*
X425Y1827D02*
X435Y1837D01*
X410Y2028D02*
Y2043D01*
X423Y1678D02*
X424Y1677D01*
X419Y1749D02*
Y1815D01*
X411Y1707D02*
Y1729D01*
X329Y1442D02*
X333Y1437D01*
X315Y1485D02*
Y1507D01*
X938Y1411D02*
X949Y1421D01*
X746Y1404D02*
X921D01*
X399Y1412D02*
X721D01*
X297Y1556D02*
Y1602D01*
X631Y1660D02*
X737D01*
X455Y1681D02*
Y1977D01*
X466Y1651D02*
X606D01*
X448Y1637D02*
X460Y1649D01*
X402Y1623D02*
X447Y1669D01*
X421Y1605D02*
X425D01*
X403Y1613D02*
X404Y1612D01*
X789Y1621D02*
X791Y1618D01*
X774Y1636D02*
X789Y1621D01*
X774Y1636D02*
X774Y1636D01*
X759Y1651D02*
X774Y1636D01*
X381Y1634D02*
Y1636D01*
Y1634D02*
Y1634D01*
X369Y2216D02*
X397Y2244D01*
X370Y1868D02*
Y1951D01*
X353Y2032D02*
Y2177D01*
Y1988D02*
Y2016D01*
X363Y1964D02*
X366Y1961D01*
X380Y1638D02*
X380D01*
X376Y1791D02*
Y1852D01*
X370Y1664D02*
Y1785D01*
X154Y1712D02*
Y1746D01*
X137Y1787D02*
Y2096D01*
X370Y1618D02*
Y1636D01*
X358Y1823D02*
Y1939D01*
Y1665D02*
Y1823D01*
X876Y1556D02*
X894Y1549D01*
X926Y1556D02*
X926Y1556D01*
X896Y1549D02*
X909D01*
X374Y1606D02*
X389Y1590D01*
X372Y1607D02*
X372Y1607D01*
X876Y1556D02*
X876Y1556D01*
X460Y1561D02*
X612D01*
X356Y2234D02*
X366Y2244D01*
X343Y2036D02*
Y2201D01*
Y1977D02*
Y2012D01*
X407Y1906D02*
Y1948D01*
X398Y1771D02*
Y1817D01*
X388Y1995D02*
Y2059D01*
X390Y1839D02*
Y1865D01*
X370Y2098D02*
X372Y2096D01*
X380Y1677D02*
Y1729D01*
X360Y1626D02*
X360Y1626D01*
X366Y1598D02*
X398Y1566D01*
X360Y1613D02*
Y1626D01*
X826Y1519D02*
X880D01*
X898Y1512D02*
X909Y1500D01*
X441Y1549D02*
X635Y1547D01*
X703Y1500D02*
X781D01*
X654Y1539D02*
X685Y1508D01*
X335Y1671D02*
Y1673D01*
X387Y1660D02*
X398Y1650D01*
X232Y2001D02*
Y2017D01*
X232Y2020D02*
X232Y2017D01*
X291Y1680D02*
X292Y1701D01*
X167Y1803D02*
X167Y1803D01*
X167Y1803D01*
X167Y1803D01*
X189Y1776D02*
X217Y1748D01*
X343Y1650D02*
X357Y1636D01*
X612Y1561D02*
X870Y1557D01*
X198Y1571D02*
Y1606D01*
X926Y1556D02*
X949Y1579D01*
X352Y2031D02*
X353Y2032D01*
X352Y2017D02*
Y2031D01*
X311Y2244D02*
X319Y2236D01*
X195Y1943D02*
X218Y1967D01*
X453Y2096D02*
Y2098D01*
X198Y1606D02*
X206Y1615D01*
X352Y2017D02*
X353Y2016D01*
X342Y2012D02*
X343Y2012D01*
X311Y2244D02*
Y2244D01*
X342Y2035D02*
X343Y2036D01*
X398Y2098D02*
X398Y2098D01*
X342Y2012D02*
Y2035D01*
D78*
X672Y1491D02*
G03*
X697Y1480I25J25D01*
G01*
X828Y1464D02*
G03*
X787Y1480I-40J-40D01*
G01*
X331Y1607D02*
G03*
X337Y1592I21J0D01*
G01*
X648Y1514D02*
G03*
X617Y1527I-31J-31D01*
G01*
X389Y1540D02*
G03*
X412Y1528I33J33D01*
G01*
D02*
G03*
X421Y1527I9J45D01*
G01*
X345Y1612D02*
G03*
X346Y1610I28J13D01*
G01*
X346D02*
G03*
X352Y1597I19J0D01*
G01*
X203Y1722D02*
G03*
X203Y1721I5J1D01*
G01*
X204Y1720D02*
G03*
X203Y1721I-5J-0D01*
G01*
X859Y1345D02*
G03*
X882Y1354I0J33D01*
G01*
X728Y1350D02*
G03*
X740Y1345I12J12D01*
G01*
X201Y1656D02*
G03*
X204Y1663I-7J7D01*
G01*
X701Y1376D02*
G03*
X662Y1392I-39J-41D01*
G01*
X221Y1416D02*
G03*
X280Y1392I59J59D01*
G01*
X172Y1763D02*
G03*
X173Y1763I4J3D01*
G01*
X203Y1722D02*
G03*
X193Y1743I-37J-5D01*
G01*
X157Y1803D02*
G03*
X157Y1802I10J0D01*
G01*
X165Y1980D02*
G03*
X157Y1961I19J-19D01*
G01*
X172Y1763D02*
G03*
X172Y1764I-4J-3D01*
G01*
X157Y1802D02*
G03*
X168Y1769I61J2D01*
G01*
X196Y1651D02*
G03*
X189Y1635I16J-16D01*
G01*
X180Y1573D02*
G03*
X188Y1592I-19J19D01*
G01*
X173Y1567D02*
G03*
X163Y1543I24J-24D01*
G01*
X166Y1481D02*
G03*
X171Y1471I17J1D01*
G01*
X164Y1511D02*
G03*
X164Y1510I17J0D01*
G01*
X898Y1686D02*
G03*
X891Y1667I18J-18D01*
G01*
X887Y1632D02*
G03*
X891Y1639I-8J8D01*
G01*
X857Y1683D02*
G03*
X850Y1668I15J-15D01*
G01*
X846Y1610D02*
G03*
X850Y1622I-14J12D01*
G01*
X840Y1603D02*
G03*
X846Y1610I-9J15D01*
G01*
X820Y1594D02*
G03*
X839Y1602I0J27D01*
G01*
X724Y1610D02*
G03*
X708Y1617I-17J-17D01*
G01*
X732Y1603D02*
G03*
X752Y1594I20J20D01*
G01*
X567Y1617D02*
G03*
X554Y1612I0J-18D01*
G01*
X900Y1806D02*
G03*
X892Y1785I21J-21D01*
G01*
X886Y1767D02*
G03*
X892Y1781I-15J15D01*
G01*
X872Y1758D02*
G03*
X881Y1762I0J13D01*
G01*
X872Y1758D02*
G03*
X864Y1755I0J-11D01*
G01*
X855Y1746D02*
G03*
X850Y1734I12J-12D01*
G01*
X844Y1719D02*
G03*
X850Y1734I-15J15D01*
G01*
X836Y1717D02*
G03*
X844Y1719I0J17D01*
G01*
X783Y1717D02*
G03*
X761Y1707I0J-31D01*
G01*
X748Y1701D02*
G03*
X759Y1705I0J15D01*
G01*
X836Y1756D02*
G03*
X862Y1767I0J37D01*
G01*
X799Y1756D02*
G03*
X776Y1746I0J-33D01*
G01*
X740Y1719D02*
G03*
X755Y1725I0J20D01*
G01*
X664Y1719D02*
G03*
X599Y1695I0J-100D01*
G01*
D02*
G03*
X593Y1690I64J-77D01*
G01*
X766Y1658D02*
G03*
X737Y1670I-29J-29D01*
G01*
X623D02*
G03*
X607Y1663I0J-22D01*
G01*
X603Y1661D02*
G03*
X607Y1663I0J7D01*
G01*
X465Y1977D02*
G03*
X456Y2018I-104J0D01*
G01*
X812Y1642D02*
G03*
X820Y1647I-9J23D01*
G01*
X803Y1640D02*
G03*
X812Y1642I0J24D01*
G01*
X781Y1643D02*
G03*
X782Y1642I3J3D01*
G01*
X453Y2030D02*
G03*
X454Y2024I24J0D01*
G01*
X456Y2018D02*
G03*
X454Y2023I-95J-41D01*
G01*
X465Y1661D02*
G03*
X455Y1660I0J-25D01*
G01*
D02*
G03*
X447Y1654I9J-24D01*
G01*
X427Y1634D02*
G03*
X425Y1631I3J-3D01*
G01*
D02*
G03*
X425Y1630I10J-2D01*
G01*
X782Y1642D02*
G03*
X787Y1641I10J25D01*
G01*
X787Y1641D02*
G03*
X791Y1640I4J17D01*
G01*
X454Y2024D02*
G03*
X454Y2023I5J1D01*
G01*
X791Y1640D02*
G03*
X792Y1640I0J17D01*
G01*
X1506Y1352D02*
G03*
X1545Y1336I39J39D01*
G01*
X1360Y1561D02*
G03*
X1318Y1579I-42J-42D01*
G01*
X1422Y1464D02*
G03*
X1442Y1416I67J0D01*
G01*
X1422Y1483D02*
G03*
X1411Y1510I-38J0D01*
G01*
X1343Y1605D02*
G03*
X1351Y1584I30J0D01*
G01*
X1432Y1467D02*
G03*
X1451Y1421I64J0D01*
G01*
X1507Y1365D02*
G03*
X1547Y1349I40J40D01*
G01*
X1432Y1484D02*
G03*
X1419Y1517I-46J0D01*
G01*
X1529Y1399D02*
G03*
X1530Y1399I0J10D01*
G01*
X1452Y1522D02*
G03*
X1435Y1565I-61J0D01*
G01*
X1483Y1417D02*
G03*
X1485Y1416I7J7D01*
G01*
X1452Y1468D02*
G03*
X1466Y1435I47J0D01*
G01*
X1485Y1416D02*
G03*
X1529Y1399I45J52D01*
G01*
X1462Y1468D02*
G03*
X1473Y1442I37J0D01*
G01*
X1491Y1424D02*
G03*
X1530Y1409I39J44D01*
G01*
X1491Y1424D02*
G03*
X1490Y1424I-3J-4D01*
G01*
X1472Y1474D02*
G03*
X1485Y1444I42J0D01*
G01*
X1496Y1434D02*
G03*
X1530Y1419I34J34D01*
G01*
X1492Y1688D02*
G03*
X1472Y1642I46J-46D01*
G01*
X1402Y1373D02*
G03*
X1409Y1354I27J0D01*
G01*
X1352Y1490D02*
G03*
X1376Y1480I24J24D01*
G01*
X1402Y1465D02*
G03*
X1398Y1473I-12J0D01*
G01*
X1396Y1475D02*
G03*
X1384Y1480I-12J-12D01*
G01*
X1303Y1494D02*
G03*
X1308Y1482I17J0D01*
G01*
X1331Y1434D02*
G03*
X1328Y1443I-20J0D01*
G01*
D02*
G03*
X1325Y1448I-18J-10D01*
G01*
X1331Y1385D02*
G03*
X1342Y1358I38J0D01*
G01*
X1323Y1464D02*
G03*
X1320Y1470I-10J0D01*
G01*
X1323Y1456D02*
G03*
X1325Y1448I17J0D01*
G01*
X1260Y1434D02*
G03*
X1245Y1471I-52J0D01*
G01*
X1216Y1531D02*
G03*
X1205Y1504I27J-27D01*
G01*
X1245Y1471D02*
G03*
X1227Y1478I-17J-17D01*
G01*
X1212Y1483D02*
G03*
X1223Y1478I11J11D01*
G01*
X1205Y1499D02*
G03*
X1211Y1484I21J0D01*
G01*
X1270Y1460D02*
G03*
X1259Y1477I-40J-13D01*
G01*
X1244Y1507D02*
G03*
X1254Y1482I35J0D01*
G01*
X1272Y1447D02*
G03*
X1270Y1460I-42J0D01*
G01*
X1272Y1389D02*
G03*
X1284Y1359I43J0D01*
G01*
X1255Y1569D02*
G03*
X1244Y1544I25J-25D01*
G01*
X1214Y1450D02*
G03*
X1201Y1419I31J-31D01*
G01*
Y1340D02*
G03*
X1214Y1298I75J0D01*
G01*
X1295Y1767D02*
G03*
X1286Y1745I22J-22D01*
G01*
X1288Y1681D02*
G03*
X1291Y1677I15J9D01*
G01*
X1286Y1689D02*
G03*
X1288Y1681I18J0D01*
G01*
X1294Y1664D02*
G03*
X1291Y1677I-24J0D01*
G01*
X1287Y1600D02*
G03*
X1283Y1591I10J-9D01*
G01*
Y1391D02*
G03*
X1296Y1362I42J0D01*
G01*
X1287Y1600D02*
G03*
X1294Y1617I-17J17D01*
G01*
X1323Y1504D02*
G03*
X1312Y1531I-38J0D01*
G01*
X1323Y1495D02*
G03*
X1327Y1485I13J0D01*
G01*
X1357Y1474D02*
G03*
X1355Y1475I-18J-15D01*
G01*
X1357Y1474D02*
G03*
X1345Y1478I-12J-15D01*
G01*
X1362Y1372D02*
G03*
X1375Y1342I43J0D01*
G01*
X1362Y1459D02*
G03*
X1357Y1474I-24J0D01*
G01*
X1339Y1478D02*
G03*
X1344Y1478I4J23D01*
G01*
X1327Y1485D02*
G03*
X1339Y1478I16J16D01*
G01*
X1519Y1441D02*
G03*
X1548Y1429I29J29D01*
G01*
X1442Y1496D02*
G03*
X1427Y1534I-54J0D01*
G01*
X1581Y1362D02*
G03*
X1583Y1362I2J5D01*
G01*
X1579Y1361D02*
G03*
X1581Y1362I0J3D01*
G01*
X1499Y1388D02*
G03*
X1563Y1361I64J64D01*
G01*
X1442Y1468D02*
G03*
X1459Y1428I57J0D01*
G01*
X1507Y1337D02*
G03*
X1515Y1331I35J35D01*
G01*
D02*
G03*
X1542Y1323I27J42D01*
G01*
X1383Y1524D02*
G03*
X1345Y1539I-38J-38D01*
G01*
X1412Y1481D02*
G03*
X1403Y1504I-33J0D01*
G01*
X1412Y1453D02*
G03*
X1422Y1425I42J0D01*
G01*
X1423Y1425D02*
G03*
X1435Y1409I66J39D01*
G01*
X1423Y1425D02*
G03*
X1422Y1425I-4J-2D01*
G01*
X1321Y1420D02*
G03*
X1321Y1421I-17J1D01*
G01*
Y1379D02*
G03*
X1330Y1356I33J0D01*
G01*
X1306Y1449D02*
G03*
X1311Y1442I24J11D01*
G01*
X1319Y1428D02*
G03*
X1318Y1431I-32J-10D01*
G01*
D02*
G03*
X1311Y1442I-31J-12D01*
G01*
X1321Y1421D02*
G03*
X1319Y1428I-17J0D01*
G01*
X1321Y1419D02*
G03*
X1321Y1420I-33J0D01*
G01*
X1303Y1380D02*
G03*
X1311Y1360I28J0D01*
G01*
X1303Y1461D02*
G03*
X1306Y1449I26J0D01*
G01*
X1600Y1864D02*
G03*
X1615Y1858I14J14D01*
G01*
X1600Y1864D02*
G03*
X1582Y1872I-18J-18D01*
G01*
X1337D02*
G03*
X1335Y1872I0J-16D01*
G01*
X1326Y1867D02*
G03*
X1323Y1860I7J-7D01*
G01*
X1314Y1826D02*
G03*
X1323Y1847I-21J21D01*
G01*
X1335Y1872D02*
G03*
X1326Y1867I2J-16D01*
G01*
X1575Y1822D02*
G03*
X1546Y1835I-30J-30D01*
G01*
X1453D02*
G03*
X1433Y1826I0J-29D01*
G01*
X1575Y1822D02*
G03*
X1593Y1815I18J18D01*
G01*
X1578Y1794D02*
G03*
X1575Y1794I-3J-41D01*
G01*
X1293Y1794D02*
G03*
X1286Y1791I0J-9D01*
G01*
X1285Y1789D02*
G03*
X1283Y1783I11J-7D01*
G01*
X1275Y1762D02*
G03*
X1276Y1763I-19J19D01*
G01*
X1272Y1759D02*
G03*
X1264Y1739I20J-20D01*
G01*
Y1739D02*
G03*
X1264Y1736I34J-3D01*
G01*
X1604Y1782D02*
G03*
X1578Y1794I-29J-29D01*
G01*
X1598Y1774D02*
G03*
X1576Y1784I-24J-24D01*
G01*
X1391Y1784D02*
G03*
X1362Y1772I0J-41D01*
G01*
X1337Y1756D02*
G03*
X1349Y1759I0J24D01*
G01*
X1330Y1756D02*
G03*
X1318Y1751I0J-17D01*
G01*
X1543Y1794D02*
G03*
X1542Y1794I-0J-40D01*
G01*
X1593Y1764D02*
G03*
X1572Y1774I-23J-23D01*
G01*
X1393Y1774D02*
G03*
X1372Y1765I0J-31D01*
G01*
X1572Y1774D02*
G03*
X1571Y1774I-0J-5D01*
G01*
X1589Y1754D02*
G03*
X1566Y1764I-23J-23D01*
G01*
X1333Y1717D02*
G03*
X1315Y1709I0J-25D01*
G01*
X1351Y1717D02*
G03*
X1357Y1719I0J8D01*
G01*
X1357Y1720D02*
G03*
X1362Y1731I-12J12D01*
G01*
X1366Y1745D02*
G03*
X1362Y1735I10J-10D01*
G01*
X1403Y1764D02*
G03*
X1372Y1751I0J-45D01*
G01*
X1556Y1750D02*
G03*
X1548Y1754I-8J-8D01*
G01*
X1561Y1738D02*
G03*
X1557Y1750I-16J0D01*
G01*
X1450Y1754D02*
G03*
X1431Y1746I0J-27D01*
G01*
X1561Y1735D02*
G03*
X1566Y1725I15J0D01*
G01*
X1541Y1714D02*
G03*
X1539Y1714I-1J-17D01*
G01*
X1539Y1714D02*
G03*
X1538Y1714I-1J-57D01*
G01*
X1578Y1698D02*
G03*
X1541Y1714I-40J-40D01*
G01*
X1409Y1714D02*
G03*
X1392Y1707I0J-24D01*
G01*
X1543Y1764D02*
G03*
X1542Y1764I-0J-20D01*
G01*
X1543Y1774D02*
G03*
X1542Y1774I-0J-20D01*
G01*
X1543Y1784D02*
G03*
X1542Y1784I-0J-30D01*
G01*
X1372Y1765D02*
G03*
X1371Y1765I22J-23D01*
G01*
X1349Y1759D02*
G03*
X1353Y1763I-12J20D01*
G01*
X1276Y1763D02*
G03*
X1283Y1781I-20J18D01*
G01*
X1163Y1663D02*
G03*
X1159Y1673I-14J0D01*
G01*
X1159Y1674D02*
G03*
X1150Y1677I-9J-9D01*
G01*
X1163Y1579D02*
G03*
X1176Y1549I43J0D01*
G01*
X1090Y1721D02*
G03*
X1101Y1717I11J11D01*
G01*
X1087Y1729D02*
G03*
X1090Y1721I12J0D01*
G01*
X1126Y1691D02*
G03*
X1130Y1681I13J0D01*
G01*
X1126Y1703D02*
G03*
X1122Y1713I-13J0D01*
G01*
X1130Y1681D02*
G03*
X1139Y1677I10J10D01*
G01*
X1122Y1713D02*
G03*
X1113Y1717I-10J-10D01*
G01*
X1205Y1664D02*
G03*
X1201Y1673I-13J0D01*
G01*
X1201Y1673D02*
G03*
X1191Y1677I-10J-10D01*
G01*
X1205Y1614D02*
G03*
X1216Y1587I39J0D01*
G01*
X1132Y1721D02*
G03*
X1143Y1717I11J11D01*
G01*
X1128Y1729D02*
G03*
X1132Y1721I11J0D01*
G01*
X1165Y1691D02*
G03*
X1170Y1681I15J0D01*
G01*
X1165Y1702D02*
G03*
X1161Y1713I-15J0D01*
G01*
X1170Y1681D02*
G03*
X1178Y1677I8J8D01*
G01*
X1161Y1713D02*
G03*
X1153Y1717I-8J-8D01*
G01*
X1214Y1298D02*
G03*
X1223Y1287I62J43D01*
G01*
X1124Y1390D02*
G03*
X1114Y1414I-34J0D01*
G01*
X1103Y1272D02*
G03*
X1117Y1278I0J20D01*
G01*
D02*
G03*
X1124Y1293I-16J16D01*
G01*
X980Y1346D02*
G03*
X988Y1366I-20J20D01*
G01*
X978Y1344D02*
G03*
X969Y1321I23J-23D01*
G01*
X1054Y1318D02*
G03*
X1047Y1301I17J-17D01*
G01*
X1057Y1321D02*
G03*
X1067Y1344I-24J24D01*
G01*
X1054Y1487D02*
G03*
X1047Y1470I17J-17D01*
G01*
X1041Y1364D02*
G03*
X1047Y1379I-15J15D01*
G01*
X1036Y1359D02*
G03*
X1028Y1339I20J-20D01*
G01*
X1016Y1284D02*
G03*
X1028Y1311I-27J27D01*
G01*
X1015Y1448D02*
G03*
X1004Y1421I27J-27D01*
G01*
X1098Y1452D02*
G03*
X1087Y1425I27J-27D01*
G01*
Y1408D02*
G03*
X1091Y1397I17J0D01*
G01*
X1106Y1367D02*
G03*
X1095Y1393I-37J0D01*
G01*
X1165Y1771D02*
G03*
X1176Y1745I36J0D01*
G01*
X1205Y1730D02*
G03*
X1215Y1707I34J0D01*
G01*
X1281Y1660D02*
G03*
X1274Y1678I-24J0D01*
G01*
X1244Y1726D02*
G03*
X1257Y1694I45J0D01*
G01*
X1276Y1631D02*
G03*
X1281Y1643I-12J12D01*
G01*
X975Y2110D02*
G03*
X946Y2181I-100J0D01*
G01*
X963Y1672D02*
G03*
X975Y1701I-29J29D01*
G01*
X958Y1672D02*
G03*
X963Y1672I3J4D01*
G01*
X958Y1672D02*
G03*
X934Y1648I-9J-15D01*
G01*
X933Y1642D02*
G03*
X934Y1648I-3J3D01*
G01*
X892Y2217D02*
G03*
X917Y2205I17J4D01*
G01*
X892Y2217D02*
G03*
X888Y2220I-5J-1D01*
G01*
X985Y2112D02*
G03*
X972Y2164I-105J0D01*
G01*
X950Y1636D02*
G03*
X953Y1637I0J5D01*
G01*
X950Y1636D02*
G03*
X942Y1634I-1J-17D01*
G01*
X950Y1636D02*
G03*
X931Y1617I-1J-17D01*
G01*
X930Y1613D02*
G03*
X931Y1617I-3J3D01*
G01*
X928Y1611D02*
G03*
X919Y1590I21J-21D01*
G01*
X918Y1587D02*
G03*
X919Y1590I-3J3D01*
G01*
X912Y2218D02*
G03*
X916Y2216I3J3D01*
G01*
D02*
G03*
X917Y2216I0J5D01*
G01*
X927Y2214D02*
G03*
X917Y2216I-7J-7D01*
G01*
X972Y2164D02*
G03*
X955Y2187I-91J-52D01*
G01*
X963Y1646D02*
G03*
X985Y1701I-55J55D01*
G01*
X923Y2204D02*
G03*
X917Y2205I-3J-3D01*
G01*
X791Y1902D02*
G03*
X783Y1921I-27J0D01*
G01*
X791Y1902D02*
G03*
X797Y1888I19J0D01*
G01*
X763Y1941D02*
G03*
X733Y1953I-30J-30D01*
G01*
X690Y1958D02*
G03*
X703Y1953I12J12D01*
G01*
X764Y2079D02*
G03*
X745Y2087I-19J-19D01*
G01*
X559Y2098D02*
G03*
X588Y2087I29J29D01*
G01*
X724Y1785D02*
G03*
X728Y1776I13J0D01*
G01*
X724Y1794D02*
G03*
X721Y1803I-12J0D01*
G01*
X728Y1776D02*
G03*
X738Y1772I10J10D01*
G01*
X713Y1811D02*
G03*
X694Y1819I-19J-19D01*
G01*
X586D02*
G03*
X582Y1819I0J-27D01*
G01*
D02*
G03*
X570Y1814I4J-27D01*
G01*
D02*
G03*
X567Y1811I16J-22D01*
G01*
X570Y1814D02*
G03*
X563Y1795I21J-18D01*
G01*
X535Y1717D02*
G03*
X528Y1698I19J-19D01*
G01*
X935Y1604D02*
G03*
X929Y1591I13J-13D01*
G01*
X381Y1617D02*
G03*
X385Y1611I14J5D01*
G01*
X926Y1570D02*
G03*
X929Y1579I-8J8D01*
G01*
X895Y1562D02*
G03*
X899Y1561I5J19D01*
G01*
X907Y1561D02*
G03*
X909Y1561I2J17D01*
G01*
X907Y1561D02*
G03*
X906Y1561I-1J-5D01*
G01*
X396Y1600D02*
G03*
X466Y1571I71J71D01*
G01*
X886Y1567D02*
G03*
X876Y1571I-10J-10D01*
G01*
X886Y1567D02*
G03*
X895Y1562I14J14D01*
G01*
X381Y1634D02*
G03*
X380Y1633I5J-1D01*
G01*
Y1622D02*
G03*
X381Y1617I15J0D01*
G01*
X807Y1490D02*
G03*
X831Y1500I0J33D01*
G01*
X680Y1497D02*
G03*
X697Y1490I17J17D01*
G01*
X399Y1549D02*
G03*
X416Y1539I30J30D01*
G01*
D02*
G03*
X429Y1537I14J40D01*
G01*
X650Y1528D02*
G03*
X627Y1537I-23J-23D01*
G01*
X343Y1625D02*
G03*
X345Y1612I30J0D01*
G01*
X752Y1980D02*
G03*
X772Y1972I20J21D01*
G01*
X751Y1981D02*
G03*
X752Y1980I20J20D01*
G01*
X699Y2033D02*
G03*
X678Y2044I-31J-35D01*
G01*
X678Y2044D02*
G03*
X668Y2045I-10J-45D01*
G01*
X531Y2047D02*
G03*
X522Y2051I-9J-9D01*
G01*
X531Y2047D02*
G03*
X537Y2045I5J5D01*
G01*
X697Y2055D02*
G03*
X691Y2055I-6J-80D01*
G01*
X554Y2056D02*
G03*
X567Y2055I13J63D01*
G01*
X722Y1820D02*
G03*
X707Y1828I-21J-21D01*
G01*
D02*
G03*
X701Y1829I-6J-29D01*
G01*
X577D02*
G03*
X564Y1823I0J-19D01*
G01*
X555Y1815D02*
G03*
X551Y1805I10J-10D01*
G01*
X538Y1733D02*
G03*
X551Y1765I-31J31D01*
G01*
X728Y2217D02*
G03*
X709Y2209I0J-27D01*
G01*
X669Y2185D02*
G03*
X696Y2196I0J38D01*
G01*
X508Y2193D02*
G03*
X527Y2185I19J19D01*
G01*
X504Y2203D02*
G03*
X508Y2193I14J0D01*
G01*
X122Y2168D02*
G03*
X117Y2154I19J-15D01*
G01*
X547Y2078D02*
G03*
X563Y2071I16J16D01*
G01*
X522Y2103D02*
G03*
X512Y2107I-10J-10D01*
G01*
X819Y1819D02*
G03*
X846Y1830I0J38D01*
G01*
X812Y1819D02*
G03*
X783Y1807I0J-40D01*
G01*
X780Y1804D02*
G03*
X772Y1783I20J-20D01*
G01*
X763Y1759D02*
G03*
X772Y1780I-20J20D01*
G01*
X751Y1754D02*
G03*
X763Y1759I-1J19D01*
G01*
X749Y1754D02*
G03*
X751Y1754I0J20D01*
G01*
X774Y1890D02*
G03*
X787Y1859I43J0D01*
G01*
X774Y1902D02*
G03*
X766Y1920I-25J0D01*
G01*
X680Y1951D02*
G03*
X705Y1940I25J25D01*
G01*
X756Y1930D02*
G03*
X730Y1940I-26J-26D01*
G01*
X739Y2000D02*
G03*
X739Y1993I3J-3D01*
G01*
X742Y2003D02*
G03*
X742Y2010I-3J3D01*
G01*
X742Y2010D02*
G03*
X736Y2010I-3J-3D01*
G01*
X720Y2001D02*
G03*
X727Y2001I3J3D01*
G01*
X720Y2007D02*
G03*
X720Y2001I3J-3D01*
G01*
X729Y2016D02*
G03*
X729Y2022I-3J3D01*
G01*
X729Y2022D02*
G03*
X723Y2022I-3J-3D01*
G01*
X708Y2013D02*
G03*
X714Y2013I3J3D01*
G01*
X708Y2019D02*
G03*
X708Y2013I3J-3D01*
G01*
X717Y2028D02*
G03*
X717Y2035I-3J3D01*
G01*
X717Y2035D02*
G03*
X710Y2035I-3J-3D01*
G01*
X701Y2032D02*
G03*
X708Y2032I3J3D01*
G01*
X701Y2032D02*
G03*
X699Y2033I-33J-33D01*
G01*
X770Y2073D02*
G03*
X777Y2073I3J3D01*
G01*
X783Y2073D02*
G03*
X777Y2073I-3J-3D01*
G01*
X783Y2067D02*
G03*
X783Y2073I-3J3D01*
G01*
X765Y2048D02*
G03*
X765Y2042I3J-3D01*
G01*
X765Y2042D02*
G03*
X771Y2042I3J3D01*
G01*
X796Y2060D02*
G03*
X790Y2060I-3J-3D01*
G01*
X796Y2054D02*
G03*
X796Y2060I-3J3D01*
G01*
X778Y2036D02*
G03*
X778Y2030I3J-3D01*
G01*
X778Y2030D02*
G03*
X784Y2030I3J3D01*
G01*
X808Y2048D02*
G03*
X802Y2048I-3J-3D01*
G01*
X808Y2042D02*
G03*
X808Y2048I-3J3D01*
G01*
X800Y2034D02*
G03*
X800Y2027I3J-3D01*
G01*
X800Y2027D02*
G03*
X807Y2027I3J3D01*
G01*
X814Y2028D02*
G03*
X808Y2028I-3J-3D01*
G01*
X124Y2170D02*
G03*
X122Y2168I17J-17D01*
G01*
X664Y1759D02*
G03*
X669Y1754I5J0D01*
G01*
X664Y1765D02*
G03*
X659Y1770I-4J0D01*
G01*
X659D02*
G03*
X655Y1765I0J-4D01*
G01*
X651Y1746D02*
G03*
X655Y1751I0J4D01*
G01*
X646D02*
G03*
X651Y1746I4J0D01*
G01*
X646Y1765D02*
G03*
X642Y1770I-4J0D01*
G01*
X642D02*
G03*
X637Y1765I0J-4D01*
G01*
X632Y1754D02*
G03*
X637Y1759I0J5D01*
G01*
X168Y1769D02*
G03*
X172Y1764I50J35D01*
G01*
X193Y1743D02*
G03*
X192Y1743I-27J-27D01*
G01*
X504Y1699D02*
G03*
X498Y1686I13J-13D01*
G01*
X551Y1732D02*
G03*
X563Y1761I-29J28D01*
G01*
X521Y2074D02*
G03*
X554Y2056I45J45D01*
G01*
X702Y1375D02*
G03*
X701Y1376I-40J-40D01*
G01*
X909Y1561D02*
G03*
X922Y1566I0J17D01*
G01*
X646Y2018D02*
G03*
X656Y1992I36J0D01*
G01*
X748Y2031D02*
G03*
X697Y2055I-57J-57D01*
G01*
X736Y1635D02*
G03*
X731Y1630I0J-5D01*
G01*
X727Y1626D02*
G03*
X731Y1630I0J4D01*
G01*
X722D02*
G03*
X727Y1626I4J0D01*
G01*
X722Y1640D02*
G03*
X718Y1644I-4J0D01*
G01*
X718D02*
G03*
X713Y1640I0J-4D01*
G01*
X709Y1627D02*
G03*
X713Y1632I0J4D01*
G01*
X705D02*
G03*
X709Y1627I4J0D01*
G01*
X705Y1643D02*
G03*
X700Y1648I-4J0D01*
G01*
X700D02*
G03*
X696Y1643I0J-4D01*
G01*
X691Y1627D02*
G03*
X696Y1632I0J4D01*
G01*
X687D02*
G03*
X691Y1627I4J0D01*
G01*
X687Y1643D02*
G03*
X682Y1648I-4J0D01*
G01*
X682D02*
G03*
X678Y1643I0J-4D01*
G01*
X674Y1627D02*
G03*
X678Y1632I0J4D01*
G01*
X669D02*
G03*
X674Y1627I4J0D01*
G01*
X669Y1643D02*
G03*
X665Y1648I-4J0D01*
G01*
X665D02*
G03*
X660Y1643I0J-4D01*
G01*
X655Y1635D02*
G03*
X660Y1640I0J5D01*
G01*
X857Y1595D02*
G03*
X850Y1595I-3J-3D01*
G01*
X861Y1591D02*
G03*
X867Y1591I3J3D01*
G01*
X867Y1591D02*
G03*
X867Y1597I-3J3D01*
G01*
X862Y1609D02*
G03*
X862Y1603I3J-3D01*
G01*
X868Y1609D02*
G03*
X862Y1609I-3J-3D01*
G01*
X873Y1604D02*
G03*
X880Y1604I3J3D01*
G01*
X880Y1604D02*
G03*
X880Y1610I-3J3D01*
G01*
X876Y1620D02*
G03*
X876Y1613I3J-3D01*
G01*
X823Y2073D02*
G03*
X823Y2066I3J-3D01*
G01*
X832Y2082D02*
G03*
X832Y2088I-3J3D01*
G01*
X832Y2088D02*
G03*
X826Y2088I-3J-3D01*
G01*
X807Y2076D02*
G03*
X813Y2076I3J3D01*
G01*
X807Y2082D02*
G03*
X807Y2076I3J-3D01*
G01*
X830Y2105D02*
G03*
X830Y2111I-3J3D01*
G01*
X830Y2111D02*
G03*
X824Y2111I-3J-3D01*
G01*
X795Y2088D02*
G03*
X801Y2088I3J3D01*
G01*
X795Y2095D02*
G03*
X795Y2088I3J-3D01*
G01*
X817Y2117D02*
G03*
X817Y2124I-3J3D01*
G01*
X817Y2124D02*
G03*
X811Y2124I-3J-3D01*
G01*
X785Y2105D02*
G03*
X792Y2105I3J3D01*
G01*
X590Y2180D02*
G03*
X585Y2185I-5J0D01*
G01*
X590Y2180D02*
G03*
X594Y2175I4J0D01*
G01*
X594D02*
G03*
X599Y2180I0J4D01*
G01*
X603Y2194D02*
G03*
X599Y2189I0J-4D01*
G01*
X608D02*
G03*
X603Y2194I-4J0D01*
G01*
X608Y2180D02*
G03*
X612Y2175I4J0D01*
G01*
X612D02*
G03*
X616Y2180I0J4D01*
G01*
X621Y2194D02*
G03*
X616Y2189I0J-4D01*
G01*
X625D02*
G03*
X621Y2194I-4J0D01*
G01*
X625Y2180D02*
G03*
X630Y2175I4J0D01*
G01*
X630D02*
G03*
X634Y2180I0J4D01*
G01*
X639Y2185D02*
G03*
X634Y2180I0J-5D01*
G01*
X697Y1480D02*
X787D01*
X648Y1514D02*
X672Y1491D01*
X337Y1592D02*
X389Y1540D01*
X421Y1527D02*
X617D01*
X352Y1597D02*
X399Y1549D01*
X203Y1721D02*
X203Y1721D01*
X203Y1721D02*
X203Y1721D01*
X203Y1722D02*
X203Y1722D01*
X204Y1663D02*
Y1717D01*
X203Y1721D02*
X203Y1721D01*
X702Y1375D02*
X728Y1350D01*
X740Y1345D02*
X859Y1345D01*
X220Y1416D02*
X221Y1416D01*
X280Y1392D02*
X662D01*
X173Y1763D02*
X190Y1745D01*
X165Y1980D02*
X205Y2020D01*
X172Y1763D02*
X172Y1763D01*
X196Y1651D02*
X201Y1656D01*
X157Y1803D02*
X157Y1803D01*
X157Y1803D02*
Y1961D01*
X157Y1802D02*
X157D01*
X189Y1622D02*
Y1635D01*
X171Y1471D02*
X220Y1416D01*
X173Y1567D02*
X180Y1573D01*
X163Y1539D02*
Y1543D01*
X164Y1510D02*
X166Y1481D01*
X163Y1539D02*
X164Y1511D01*
X204Y1720D02*
X204Y1717D01*
X891Y1639D02*
Y1667D01*
X878Y1622D02*
X887Y1632D01*
X898Y1686D02*
X909Y1697D01*
X857Y1683D02*
X870Y1697D01*
X857Y1683D02*
X857Y1683D01*
X850Y1622D02*
Y1668D01*
X846Y1610D02*
X846D01*
X752Y1594D02*
X820D01*
X567Y1617D02*
X708D01*
X724Y1610D02*
X732Y1603D01*
X892Y1781D02*
Y1785D01*
X881Y1762D02*
X886Y1767D01*
X855Y1746D02*
X864Y1755D01*
X855Y1746D02*
X855Y1746D01*
X850Y1734D02*
Y1734D01*
X783Y1717D02*
X836D01*
X736Y1701D02*
X748D01*
X900Y1806D02*
X909Y1815D01*
X862Y1767D02*
X870Y1775D01*
X799Y1756D02*
X836D01*
X664Y1719D02*
X740D01*
X582Y1679D02*
X593Y1690D01*
X623Y1670D02*
X737D01*
X820Y1647D02*
X831Y1657D01*
X766Y1658D02*
X781Y1643D01*
X456Y2018D02*
X456Y2018D01*
X465Y1661D02*
Y1977D01*
Y1661D02*
X603D01*
X792Y1640D02*
X803D01*
X453Y2030D02*
Y2043D01*
X447Y1654D02*
X447Y1654D01*
X427Y1634D02*
X447Y1654D01*
X427Y1634D02*
X427Y1634D01*
X425Y1622D02*
Y1630D01*
X1545Y1336D02*
X1571D01*
X1311Y1579D02*
X1318D01*
X1442Y1416D02*
X1506Y1352D01*
X1422Y1464D02*
Y1483D01*
X1547Y1349D02*
X1576D01*
X1351Y1584D02*
X1419Y1517D01*
X1343Y1605D02*
Y1618D01*
X1451Y1421D02*
X1507Y1365D01*
X1432Y1467D02*
Y1484D01*
X1530Y1399D02*
X1593D01*
X1382Y1618D02*
X1435Y1565D01*
X1452Y1468D02*
Y1522D01*
Y1468D02*
Y1468D01*
X1466Y1435D02*
X1483Y1417D01*
X1462Y1468D02*
Y1695D01*
X1530Y1409D02*
X1530Y1409D01*
X1473Y1442D02*
X1490Y1424D01*
X1491Y1424D02*
X1491Y1424D01*
X1530Y1409D02*
X1604D01*
X1530Y1419D02*
X1612D01*
X1620Y1411D01*
X1485Y1444D02*
X1496Y1434D01*
X1492Y1688D02*
X1500Y1697D01*
X1472Y1474D02*
Y1642D01*
X1376Y1480D02*
X1384D01*
X1343Y1500D02*
X1352Y1490D01*
X1396Y1475D02*
X1398Y1473D01*
X1402Y1373D02*
Y1465D01*
X1342Y1358D02*
X1382Y1318D01*
X1308Y1482D02*
X1320Y1470D01*
X1303Y1494D02*
Y1500D01*
X1308Y1482D02*
X1308Y1482D01*
X1331Y1385D02*
Y1434D01*
X1323Y1456D02*
Y1464D01*
X1260Y1258D02*
Y1434D01*
X1223Y1478D02*
X1227D01*
X1205Y1499D02*
Y1504D01*
X1211Y1484D02*
X1212Y1483D01*
X1254Y1482D02*
X1259Y1477D01*
X1284Y1359D02*
X1330Y1313D01*
X1272Y1389D02*
Y1447D01*
X1244Y1507D02*
Y1544D01*
X1201Y1340D02*
Y1419D01*
X1214Y1450D02*
X1224Y1461D01*
X1294Y1617D02*
Y1664D01*
X1286Y1704D02*
Y1745D01*
X1286Y1689D02*
Y1704D01*
X1283Y1391D02*
Y1591D01*
X1375Y1342D02*
X1395Y1322D01*
X1362Y1372D02*
Y1459D01*
X1323Y1495D02*
Y1504D01*
X1327Y1485D02*
X1327Y1485D01*
X1303Y1539D02*
X1312Y1531D01*
X1344Y1478D02*
X1345D01*
X1548Y1429D02*
X1622D01*
X1500Y1461D02*
X1519Y1441D01*
X1459Y1428D02*
X1459Y1428D01*
X1382Y1579D02*
X1427Y1534D01*
X1461Y1697D02*
X1462Y1695D01*
X1442Y1468D02*
Y1496D01*
X1459Y1428D02*
X1499Y1388D01*
X1563Y1361D02*
X1579D01*
X1360Y1561D02*
X1411Y1510D01*
X1442Y1402D02*
X1507Y1337D01*
X1542Y1323D02*
X1567D01*
X1383Y1524D02*
X1403Y1504D01*
X1343Y1539D02*
X1345D01*
X1435Y1409D02*
X1442Y1402D01*
X1412Y1453D02*
Y1481D01*
X1593Y1399D02*
X1597Y1396D01*
X1296Y1362D02*
X1343Y1315D01*
X1321Y1420D02*
X1321D01*
X1321Y1379D02*
Y1419D01*
X1321Y1420D02*
X1321D01*
X1319Y1428D02*
X1319Y1428D01*
X1319Y1428D02*
X1319D01*
X1330Y1356D02*
X1369Y1317D01*
X1303Y1380D02*
Y1421D01*
X1311Y1360D02*
X1356Y1316D01*
X1615Y1858D02*
X1746D01*
X1337Y1872D02*
X1582D01*
X1323Y1847D02*
Y1860D01*
X1303Y1815D02*
X1314Y1826D01*
X1453Y1835D02*
X1546D01*
X1593Y1815D02*
X1746D01*
X1421Y1815D02*
X1433Y1826D01*
X1563Y1794D02*
X1575D01*
X1293Y1794D02*
X1542Y1794D01*
X1285Y1789D02*
X1286Y1791D01*
X1283Y1781D02*
Y1783D01*
X1272Y1759D02*
X1275Y1762D01*
X1604Y1782D02*
X1639Y1746D01*
X1543Y1794D02*
X1563Y1794D01*
X1598Y1774D02*
X1643Y1729D01*
X1576Y1784D02*
Y1784D01*
X1391Y1784D02*
X1542Y1784D01*
X1561Y1784D02*
X1565D01*
X1330Y1756D02*
X1337D01*
X1543Y1784D02*
X1561Y1784D01*
X1565Y1784D02*
X1576Y1784D01*
X1593Y1764D02*
X1644Y1714D01*
X1572Y1774D02*
Y1774D01*
X1568Y1774D02*
X1568D01*
X1393Y1774D02*
X1542Y1774D01*
X1543Y1774D02*
X1568Y1774D01*
X1568Y1774D02*
X1571Y1774D01*
X1543Y1764D02*
X1566Y1764D01*
X1591Y1752D02*
X1646Y1697D01*
X1589Y1754D02*
X1591Y1752D01*
X1333Y1717D02*
X1351D01*
X1357Y1719D02*
X1357Y1720D01*
X1362Y1731D02*
Y1735D01*
X1366Y1745D02*
X1372Y1751D01*
X1403Y1764D02*
X1542Y1764D01*
X1566Y1725D02*
X1609Y1681D01*
X1556Y1750D02*
X1557Y1750D01*
X1450Y1754D02*
X1548D01*
X1561Y1735D02*
Y1738D01*
X1578Y1698D02*
X1611Y1665D01*
X1541Y1714D02*
Y1714D01*
X1539Y1714D02*
X1539Y1714D01*
X1541Y1714D02*
X1541Y1714D01*
X1409Y1714D02*
X1538D01*
X1539Y1714D02*
X1539Y1714D01*
X1382Y1697D02*
X1392Y1707D01*
X1421Y1736D02*
X1431Y1746D01*
X1353Y1763D02*
X1362Y1772D01*
X1343Y1736D02*
X1371Y1765D01*
X1303Y1697D02*
X1315Y1709D01*
X1303Y1736D02*
X1318Y1751D01*
X1295Y1767D02*
X1303Y1776D01*
X1286Y1704D02*
X1286Y1704D01*
X1163Y1579D02*
Y1663D01*
X1139Y1677D02*
X1150D01*
X1159Y1674D02*
X1159Y1673D01*
X1087Y1729D02*
Y2148D01*
X1101Y1717D02*
X1113D01*
X1126Y1691D02*
Y1703D01*
X1178Y1677D02*
X1191D01*
X1205Y1614D02*
Y1664D01*
X1143Y1717D02*
X1153D01*
X1128Y1729D02*
Y2189D01*
X1165Y1691D02*
Y1702D01*
X1124Y1293D02*
Y1390D01*
X1106Y1421D02*
X1114Y1414D01*
X1087Y1272D02*
X1103D01*
X978Y1344D02*
X980Y1346D01*
X978Y1344D02*
X978Y1344D01*
X969Y1272D02*
Y1321D01*
X988Y1366D02*
Y1500D01*
X1054Y1318D02*
X1057Y1321D01*
X1047Y1256D02*
Y1301D01*
X1067Y1344D02*
Y1421D01*
X1054Y1487D02*
X1067Y1500D01*
X1047Y1379D02*
Y1470D01*
X1041Y1364D02*
X1041Y1364D01*
X1036Y1359D02*
X1041Y1364D01*
X1028Y1311D02*
Y1339D01*
X1004Y1272D02*
X1016Y1284D01*
X1004Y1305D02*
Y1421D01*
Y1305D02*
X1006Y1303D01*
X1015Y1448D02*
X1028Y1461D01*
X1098Y1452D02*
X1106Y1461D01*
X1098Y1452D02*
X1098Y1452D01*
X1087Y1408D02*
Y1425D01*
X1091Y1397D02*
X1095Y1393D01*
X1106Y1303D02*
Y1367D01*
X1176Y1745D02*
X1185Y1736D01*
X1165Y1771D02*
Y2187D01*
X1205Y1730D02*
Y2188D01*
X1215Y1707D02*
X1264Y1657D01*
X1281Y1643D02*
Y1660D01*
X1257Y1694D02*
X1274Y1678D01*
X1244Y1726D02*
Y2209D01*
X1264Y1618D02*
X1264Y1618D01*
X1276Y1631D01*
X1216Y1587D02*
X1224Y1579D01*
X1176Y1549D02*
X1185Y1539D01*
X1255Y1569D02*
X1264Y1579D01*
X1216Y1531D02*
X1224Y1539D01*
X1260Y1258D02*
X1267Y1251D01*
X1272Y1248D01*
X975Y1731D02*
Y2110D01*
X975Y1701D02*
X975Y1731D01*
X975Y1701D02*
Y1701D01*
X958Y1672D02*
X958Y1672D01*
X931Y2196D02*
X946Y2181D01*
X963Y1672D02*
X963Y1672D01*
X963Y1672D02*
X963Y1672D01*
X934Y1648D02*
X934Y1648D01*
X933Y1642D02*
X933Y1642D01*
X850Y2220D02*
X888D01*
X892Y2217D02*
X892D01*
X985Y1701D02*
Y2112D01*
X917Y2216D02*
X917Y2216D01*
X953Y1637D02*
X963Y1646D01*
X950Y1636D02*
Y1636D01*
X930Y1613D02*
X930Y1613D01*
X928Y1611D02*
X930Y1613D01*
X919Y1590D02*
X919D01*
X909Y2220D02*
X912Y2218D01*
X909Y1579D02*
X918Y1587D01*
X938Y2203D02*
X955Y2187D01*
X909Y2220D02*
X909D01*
X927Y2214D02*
X934Y2207D01*
X938Y2203D01*
X927Y2200D02*
X931Y2196D01*
X923Y2204D02*
X927Y2200D01*
X985Y1701D02*
X985D01*
X930Y1639D02*
X933Y1642D01*
X909Y1618D02*
X930Y1639D01*
X703Y1953D02*
X733D01*
X763Y1941D02*
X783Y1921D01*
X656Y1992D02*
X690Y1958D01*
X736Y2087D02*
X745D01*
X588Y2087D02*
X591D01*
X553Y2105D02*
X559Y2098D01*
X738Y1772D02*
X744D01*
X586Y1819D02*
X694D01*
X724Y1785D02*
Y1794D01*
X713Y1811D02*
X721Y1803D01*
X563Y1761D02*
Y1795D01*
X535Y1717D02*
X551Y1732D01*
X528Y1681D02*
Y1698D01*
X935Y1604D02*
X935Y1604D01*
X929Y1579D02*
Y1591D01*
X385Y1611D02*
X396Y1600D01*
X380Y1622D02*
Y1633D01*
X922Y1566D02*
X926Y1570D01*
X907Y1561D02*
X907Y1561D01*
X899Y1561D02*
X906D01*
X466Y1571D02*
X612D01*
X618Y1571D02*
X876D01*
X697Y1490D02*
X807D01*
X650Y1528D02*
X680Y1497D01*
X429Y1537D02*
X627D01*
X343Y1625D02*
Y1626D01*
X748Y1984D02*
X751Y1981D01*
X772Y1972D02*
X791D01*
X678Y2044D02*
X678D01*
X678Y2044D02*
X678Y2044D01*
X488Y2051D02*
X522D01*
X537Y2045D02*
X668D01*
X567Y2055D02*
X691D01*
X722Y1820D02*
X744Y1798D01*
X577Y1829D02*
X701D01*
X555Y1815D02*
X564Y1823D01*
X551Y1765D02*
Y1805D01*
X504Y1699D02*
X538Y1733D01*
X728Y2217D02*
X772D01*
X642Y2185D02*
X669D01*
X527D02*
X571D01*
X504Y2203D02*
Y2244D01*
X117Y1734D02*
Y2154D01*
X563Y2071D02*
X744D01*
X489Y2107D02*
X512D01*
X547Y2078D02*
X547Y2078D01*
X522Y2103D02*
X547Y2078D01*
X812Y1819D02*
X819D01*
X780Y1804D02*
X783Y1807D01*
X772Y1780D02*
Y1783D01*
X693Y1754D02*
X749D01*
X774Y1890D02*
Y1902D01*
X756Y1930D02*
X766Y1920D01*
X705Y1940D02*
X730D01*
X614Y2016D02*
X680Y1951D01*
X190Y1745D02*
X192Y1743D01*
X188Y1592D02*
Y1621D01*
X504Y2244D02*
X504Y2244D01*
X1004Y1272D02*
Y1272D01*
X677Y2108D02*
X682Y2109D01*
X746Y1986D02*
X748Y1984D01*
X739Y1993D02*
X746Y1986D01*
X739Y2000D02*
X742Y2003D01*
X742Y2010D02*
X742Y2010D01*
X736Y2010D02*
Y2010D01*
X727Y2001D02*
X736Y2010D01*
X720Y2001D02*
X720Y2001D01*
X720Y2001D02*
X720Y2001D01*
X720Y2001D02*
X720Y2001D01*
Y2007D02*
Y2007D01*
X729Y2016D01*
X729Y2022D02*
X729Y2022D01*
X723D02*
Y2022D01*
X714Y2013D02*
X723Y2022D01*
X708Y2013D02*
X708Y2013D01*
X708Y2013D02*
X708Y2013D01*
X708Y2013D02*
X708Y2013D01*
Y2019D02*
Y2019D01*
X717Y2028D01*
X717Y2035D02*
X717Y2035D01*
X710Y2035D02*
Y2035D01*
X708Y2032D02*
X710Y2035D01*
X701Y2032D02*
X701Y2032D01*
X701Y2032D02*
X701Y2032D01*
X761Y2082D02*
X763Y2080D01*
X770Y2073D01*
X777D02*
X777Y2073D01*
Y2073D02*
Y2073D01*
X783D02*
X783Y2073D01*
X765Y2048D02*
X783Y2067D01*
X765Y2048D02*
Y2048D01*
X765Y2042D02*
X765Y2042D01*
X765Y2042D01*
X765Y2042D02*
X765Y2042D01*
X771D02*
X790Y2060D01*
Y2060D02*
Y2060D01*
X796D02*
X796Y2060D01*
X778Y2036D02*
X796Y2054D01*
X778Y2036D02*
Y2036D01*
X778Y2030D02*
X778Y2030D01*
X778Y2030D01*
X778Y2030D02*
X778Y2030D01*
X784D02*
X802Y2048D01*
Y2048D02*
Y2048D01*
X808D02*
X808Y2048D01*
X800Y2034D02*
X808Y2042D01*
X800Y2034D02*
Y2034D01*
X800Y2027D02*
X800Y2027D01*
X800Y2027D01*
X800Y2027D02*
X800Y2027D01*
X807D02*
X808Y2028D01*
X814Y2028D02*
X814Y2028D01*
X827Y2016D01*
Y2016D02*
X829Y2014D01*
X760Y2083D02*
X761Y2082D01*
X755Y1725D02*
X776Y1746D01*
X669Y1754D02*
X693D01*
X664Y1759D02*
Y1765D01*
X659Y1770D02*
X659D01*
X655Y1751D02*
Y1765D01*
X651Y1746D02*
X651D01*
X646Y1751D02*
Y1765D01*
X642Y1770D02*
X642D01*
X637Y1759D02*
Y1765D01*
X630Y1754D02*
X632D01*
X628D02*
X630D01*
X542Y1600D02*
X554Y1612D01*
X524Y1635D02*
X653D01*
X612Y1571D02*
X618Y1571D01*
X935Y1604D02*
X949Y1618D01*
X508Y2087D02*
X521Y2074D01*
X797Y1888D02*
X831Y1854D01*
X787Y1859D02*
X791Y1854D01*
X882Y1354D02*
X909Y1382D01*
X828Y1464D02*
X831Y1461D01*
X555Y1681D02*
X555D01*
X628Y1754D01*
X759Y1705D02*
X761Y1707D01*
X846Y1830D02*
X870Y1854D01*
X591Y2087D02*
X736Y2087D01*
X696Y2196D02*
X709Y2209D01*
X1747Y1814D02*
X1753D01*
X1746Y1815D02*
X1747Y1814D01*
X1746Y1858D02*
X1754Y1850D01*
X1644Y1714D02*
X1650D01*
X1643Y1729D02*
X1646D01*
X1639Y1746D02*
X1641D01*
X1609Y1681D02*
X1614D01*
X1622Y1429D02*
X1630Y1421D01*
X1604Y1409D02*
X1609Y1404D01*
X1597Y1396D02*
X1597D01*
X1343Y1307D02*
Y1315D01*
X1395Y1315D02*
Y1322D01*
X1330Y1311D02*
Y1313D01*
X1356Y1311D02*
Y1316D01*
X1369Y1311D02*
Y1317D01*
X1382Y1315D02*
Y1318D01*
X1382Y1697D02*
X1382D01*
X1264Y1579D02*
Y1579D01*
X117Y1734D02*
X118Y1732D01*
X749Y1632D02*
X749D01*
X746Y1635D02*
X749Y1632D01*
X736Y1635D02*
X746D01*
X731Y1630D02*
Y1630D01*
X727Y1626D02*
X727D01*
X722Y1630D02*
Y1640D01*
X718Y1644D02*
X718D01*
X713Y1632D02*
Y1640D01*
X709Y1627D02*
X709D01*
X705Y1632D02*
Y1643D01*
X700Y1648D02*
X700D01*
X696Y1632D02*
Y1643D01*
X691Y1627D02*
X691D01*
X687Y1632D02*
Y1643D01*
X682Y1648D02*
X682D01*
X678Y1632D02*
Y1643D01*
X674Y1627D02*
X674D01*
X669Y1632D02*
Y1643D01*
X665Y1648D02*
X665D01*
X660Y1640D02*
Y1643D01*
X653Y1635D02*
X655D01*
X749Y1632D02*
X750D01*
X614Y2016D02*
Y2018D01*
X488Y2106D02*
X489Y2107D01*
X791Y1972D02*
X791Y1972D01*
X744Y2071D02*
X748Y2067D01*
X842Y1587D02*
X843Y1587D01*
X850Y1595D01*
X857Y1595D02*
X857Y1595D01*
X861Y1591D01*
X861Y1591D02*
X861Y1591D01*
X867D02*
X867Y1591D01*
X867Y1597D02*
X867Y1597D01*
X862Y1603D02*
X867Y1597D01*
X862Y1603D02*
X862Y1603D01*
Y1609D02*
X862Y1609D01*
X868Y1609D02*
X868Y1609D01*
X873Y1604D01*
X873Y1604D02*
X873Y1604D01*
X880D02*
X880Y1604D01*
X880Y1610D02*
X880Y1610D01*
X876Y1613D02*
X880Y1610D01*
X876Y1620D02*
X878Y1622D01*
X837Y1581D02*
X842Y1587D01*
X835Y2051D02*
Y2055D01*
X823Y2066D02*
X835Y2055D01*
X823Y2073D02*
X832Y2082D01*
X832Y2088D02*
X832Y2088D01*
X826Y2088D02*
Y2088D01*
X813Y2076D02*
X826Y2088D01*
X807Y2076D02*
X807Y2076D01*
X807Y2076D02*
X807Y2076D01*
X807D02*
X807Y2076D01*
Y2082D02*
Y2082D01*
X830Y2105D01*
X830Y2111D02*
X830Y2111D01*
X824Y2111D02*
Y2111D01*
X801Y2088D02*
X824Y2111D01*
X795Y2088D02*
X795Y2088D01*
X795Y2088D02*
X795Y2088D01*
X795D02*
X795Y2088D01*
Y2095D02*
Y2095D01*
X817Y2117D01*
X817Y2124D02*
X817Y2124D01*
X811Y2124D02*
Y2124D01*
X792Y2105D02*
X811Y2124D01*
X785Y2105D02*
X785Y2105D01*
X783Y2106D02*
X785Y2105D01*
X553Y2105D02*
Y2106D01*
X571Y2185D02*
X585D01*
X590Y2180D02*
Y2180D01*
X594Y2175D02*
X594D01*
X599Y2180D02*
Y2189D01*
X603Y2194D02*
X603D01*
X608Y2180D02*
Y2189D01*
X612Y2175D02*
X612D01*
X616Y2180D02*
Y2189D01*
X621Y2194D02*
X621D01*
X625Y2180D02*
Y2189D01*
X630Y2175D02*
X630D01*
X634Y2180D02*
Y2180D01*
X639Y2185D02*
X642D01*
X593Y1600D02*
Y1600D01*
Y1600D02*
X612Y1581D01*
X837D01*
X949Y1732D02*
Y1736D01*
X188Y1621D02*
X189Y1622D01*
X870Y1775D02*
Y1776D01*
X682Y2109D02*
X686D01*
X829Y2014D02*
X831Y2012D01*
X780Y2110D02*
X783Y2106D01*
X686Y2109D02*
X687Y2110D01*
X780D01*
X835Y2032D02*
Y2051D01*
Y2032D02*
X838Y2029D01*
X838D01*
X848Y2019D01*
Y1994D02*
Y2019D01*
Y1994D02*
X870Y1972D01*
D79*
X204Y1717D02*
D03*
X203Y1721D02*
D03*
X220Y1416D02*
D03*
X157Y1802D02*
D03*
X163Y1539D02*
D03*
X898Y1686D02*
D03*
X857Y1683D02*
D03*
X855Y1746D02*
D03*
X900Y1806D02*
D03*
X456Y2018D02*
D03*
X792Y1640D02*
D03*
X447Y1654D02*
D03*
X787Y1641D02*
D03*
X792Y1640D02*
D03*
X782Y1642D02*
D03*
X1485Y1416D02*
D03*
X1496Y1434D02*
D03*
X1308Y1482D02*
D03*
X1254Y1482D02*
D03*
X1214Y1450D02*
D03*
X1287Y1600D02*
D03*
X1519Y1441D02*
D03*
X1427Y1534D02*
D03*
X1459Y1428D02*
D03*
X1411Y1510D02*
D03*
X1435Y1409D02*
D03*
X1296Y1362D02*
D03*
X1321Y1420D02*
D03*
X1319Y1428D02*
D03*
X1330Y1356D02*
D03*
X1311Y1360D02*
D03*
X1383Y1524D02*
D03*
X1360Y1561D02*
D03*
X1433Y1826D02*
D03*
X1600Y1864D02*
D03*
X1293Y1794D02*
D03*
X1576Y1784D02*
D03*
X1565Y1784D02*
D03*
X1576Y1784D02*
D03*
X1391Y1784D02*
D03*
X1572Y1774D02*
D03*
X1568Y1774D02*
D03*
X1393Y1774D02*
D03*
X1566Y1764D02*
D03*
X1403Y1764D02*
D03*
X1557Y1750D02*
D03*
X1541Y1714D02*
D03*
X1539Y1714D02*
D03*
X1392Y1707D02*
D03*
X1431Y1746D02*
D03*
X1362Y1772D02*
D03*
X1315Y1709D02*
D03*
X1349Y1759D02*
D03*
X1318Y1751D02*
D03*
X1295Y1767D02*
D03*
X1090Y1721D02*
D03*
X1132Y1721D02*
D03*
X1161Y1713D02*
D03*
X1170Y1681D02*
D03*
X1201Y1673D02*
D03*
X978Y1344D02*
D03*
X1057Y1321D02*
D03*
X1041Y1364D02*
D03*
X1016Y1284D02*
D03*
X1015Y1448D02*
D03*
X1036Y1359D02*
D03*
X1098Y1452D02*
D03*
X1215Y1707D02*
D03*
X1274Y1678D02*
D03*
X1276Y1631D02*
D03*
X1216Y1587D02*
D03*
X1176Y1549D02*
D03*
X1255Y1569D02*
D03*
X1216Y1531D02*
D03*
X958Y1672D02*
D03*
X933Y1642D02*
D03*
X950Y1636D02*
D03*
X985Y1701D02*
D03*
X690Y1958D02*
D03*
X764Y2079D02*
D03*
X612Y1571D02*
D03*
X547Y2078D02*
D03*
X124Y2170D02*
D03*
X755Y1725D02*
D03*
X776Y1746D02*
D03*
X554Y1612D02*
D03*
X551Y1732D02*
D03*
X612Y1571D02*
D03*
X648Y1514D02*
D03*
X756Y1930D02*
D03*
X783Y1921D02*
D03*
X797Y1888D02*
D03*
X787Y1859D02*
D03*
X882Y1354D02*
D03*
X828Y1464D02*
D03*
X922Y1566D02*
D03*
X761Y1707D02*
D03*
X759Y1705D02*
D03*
X780Y1804D02*
D03*
X846Y1830D02*
D03*
X656Y1992D02*
D03*
X696Y2196D02*
D03*
X709Y2209D02*
D03*
D80*
X325Y1618D02*
D03*
X177Y1902D02*
D03*
X219Y1644D02*
D03*
Y1644D02*
D03*
X221Y1647D02*
D03*
X167Y1803D02*
D03*
X210Y1651D02*
D03*
D03*
X221Y1647D02*
D03*
X435Y1837D02*
D03*
X309Y1528D02*
D03*
X438Y1610D02*
D03*
X427Y2043D02*
D03*
X380Y1638D02*
D03*
X635Y1547D02*
D03*
X182Y1768D02*
D03*
X189Y1776D02*
D03*
X217Y1748D02*
D03*
X343Y1650D02*
D03*
X799Y1508D02*
D03*
X319Y2236D02*
D03*
X218Y1967D02*
D03*
D93*
X1865Y1591D02*
X1866D01*
X2520Y886D02*
X2520Y886D01*
X2520Y807D02*
Y846D01*
X2480Y807D02*
Y839D01*
X4047Y1260D02*
X4602D01*
X3453Y1331D02*
X3976D01*
X4047Y1260D01*
X55Y2268D02*
Y2268D01*
X94Y2307D01*
X240D01*
X268Y2280D01*
X597D01*
X625Y2252D01*
X3492Y1374D02*
X3748D01*
X3789Y1415D02*
X3934D01*
X3748Y1374D02*
X3789Y1415D01*
X4121D02*
X4236Y1299D01*
X3934Y1415D02*
X4121D01*
X1579Y1579D02*
X1752D01*
X1776Y1555D02*
X1831D01*
X1752Y1579D02*
X1776Y1555D01*
X1831D02*
X1864Y1588D01*
Y1589D01*
X1865Y1591D01*
X3453Y1413D02*
X3492Y1374D01*
X3934Y1415D02*
Y1571D01*
X4602Y1260D02*
X4646Y1217D01*
Y1165D02*
Y1217D01*
D95*
X374Y1220D02*
X461D01*
X2358Y594D02*
Y787D01*
Y429D02*
Y594D01*
X764Y130D02*
X2059D01*
X2358Y429D01*
Y787D02*
X2417Y846D01*
X453Y1220D02*
X488D01*
X610Y661D02*
Y1098D01*
X488Y1220D02*
X610Y1098D01*
X2417Y846D02*
X2520D01*
X646Y248D02*
Y626D01*
X610Y661D02*
X646Y626D01*
Y248D02*
X764Y130D01*
D96*
X4783Y827D02*
D03*
Y906D02*
D03*
Y984D02*
D03*
Y1063D02*
D03*
X4862Y827D02*
D03*
Y906D02*
D03*
Y984D02*
D03*
Y1063D02*
D03*
X4783Y1142D02*
D03*
Y1220D02*
D03*
Y1299D02*
D03*
Y1378D02*
D03*
Y1457D02*
D03*
Y1535D02*
D03*
X4862Y1142D02*
D03*
Y1220D02*
D03*
Y1299D02*
D03*
Y1378D02*
D03*
Y1457D02*
D03*
Y1535D02*
D03*
D97*
X1114Y2492D02*
D03*
X1350D02*
D03*
X1272D02*
D03*
X1193D02*
D03*
X1429D02*
D03*
D98*
X1508D02*
D03*
D99*
X4606Y2439D02*
D03*
Y117D02*
D03*
X354D02*
D03*
Y2439D02*
D03*
D100*
X3541Y256D02*
D03*
X3455Y799D02*
D03*
X3019Y256D02*
D03*
X3441D02*
D03*
X3355Y799D02*
D03*
X3255D02*
D03*
X3205Y699D02*
D03*
X3155Y799D02*
D03*
X3105Y699D02*
D03*
X3305D02*
D03*
X3405D02*
D03*
X3119Y256D02*
D03*
D101*
X2959Y569D02*
D03*
X3601D02*
D03*
D102*
X3505Y449D02*
D03*
X3055D02*
D03*
D103*
X3031Y1799D02*
D03*
Y1878D02*
D03*
X1929Y1799D02*
D03*
X2008D02*
D03*
X2087D02*
D03*
X2165D02*
D03*
X2244D02*
D03*
X2323D02*
D03*
X1929Y1878D02*
D03*
X2008D02*
D03*
X2087D02*
D03*
X2165D02*
D03*
X2244D02*
D03*
X2323D02*
D03*
X2402Y1799D02*
D03*
X2480D02*
D03*
X2559D02*
D03*
X2638D02*
D03*
X2402Y1878D02*
D03*
X2480D02*
D03*
X2559D02*
D03*
X2638D02*
D03*
X2717Y1799D02*
D03*
X2795D02*
D03*
X2874D02*
D03*
X2953D02*
D03*
X2717Y1878D02*
D03*
X2795D02*
D03*
X2874D02*
D03*
X2953D02*
D03*
D104*
X433Y1724D02*
D03*
X424Y1677D02*
D03*
X1625Y1792D02*
D03*
X1006Y1303D02*
D03*
X1343Y1894D02*
D03*
X1343Y1697D02*
D03*
X1343Y1854D02*
D03*
X1442Y1330D02*
D03*
X1421Y1854D02*
D03*
X1382Y1854D02*
D03*
X1439Y1223D02*
D03*
X1303Y1894D02*
D03*
X1264Y1894D02*
D03*
X1583Y1268D02*
D03*
X1146Y1461D02*
D03*
Y1500D02*
D03*
X1224Y1500D02*
D03*
X1185D02*
D03*
X1223Y1287D02*
D03*
X1272Y1248D02*
D03*
X909Y1579D02*
D03*
Y1618D02*
D03*
Y2220D02*
D03*
X850D02*
D03*
X273Y1673D02*
D03*
X297Y1602D02*
D03*
X333Y1484D02*
D03*
X169Y1594D02*
D03*
X260Y1602D02*
D03*
X323Y1645D02*
D03*
X307Y1823D02*
D03*
X303Y2051D02*
D03*
X299Y2217D02*
D03*
X264D02*
D03*
X831Y2130D02*
D03*
X1028Y2244D02*
D03*
X1047Y2217D02*
D03*
X942Y1270D02*
D03*
X850D02*
D03*
X1644Y1835D02*
D03*
X1224Y1894D02*
D03*
X2921Y1043D02*
D03*
X2480Y1043D02*
D03*
X2520Y1091D02*
D03*
X1756Y1878D02*
D03*
X578Y2217D02*
D03*
X486D02*
D03*
X521D02*
D03*
X551D02*
D03*
X1030Y1272D02*
D03*
X303Y1792D02*
D03*
X370Y2098D02*
D03*
X370Y2024D02*
D03*
X343Y1626D02*
D03*
X398Y1650D02*
D03*
X398Y1625D02*
D03*
X398Y1677D02*
D03*
X483Y1492D02*
D03*
X677Y2108D02*
D03*
X266Y1791D02*
D03*
X370Y1457D02*
D03*
X358Y1823D02*
D03*
X1461Y1201D02*
D03*
X173Y1717D02*
D03*
X488Y2051D02*
D03*
X124Y2170D02*
D03*
X339Y2244D02*
D03*
X669Y1327D02*
D03*
X161Y1693D02*
D03*
X147Y2161D02*
D03*
X701Y1524D02*
D03*
X736Y1518D02*
D03*
X701Y1599D02*
D03*
X582Y1679D02*
D03*
X232Y2020D02*
D03*
X542Y1600D02*
D03*
X176Y1670D02*
D03*
X205Y1791D02*
D03*
X705D02*
D03*
X583Y1791D02*
D03*
X567Y1600D02*
D03*
X184Y1483D02*
D03*
X260Y1480D02*
D03*
X457Y1492D02*
D03*
X421Y1476D02*
D03*
X744Y1772D02*
D03*
X341Y1791D02*
D03*
X647Y1911D02*
D03*
X2488Y630D02*
D03*
X2575D02*
D03*
X2579Y720D02*
D03*
X2555Y697D02*
D03*
X2559Y807D02*
D03*
X2756Y807D02*
D03*
X2874Y768D02*
D03*
X2559D02*
D03*
X2598Y807D02*
D03*
X437Y1787D02*
D03*
X496Y1791D02*
D03*
X411Y1854D02*
D03*
X308Y1673D02*
D03*
X231Y1791D02*
D03*
X267Y2019D02*
D03*
X252Y2098D02*
D03*
X206Y1909D02*
D03*
X185Y1969D02*
D03*
X498Y1686D02*
D03*
X181Y1512D02*
D03*
X398Y1461D02*
D03*
X740Y1362D02*
D03*
X2925Y925D02*
D03*
X2441Y807D02*
D03*
X2874Y886D02*
D03*
X2835Y846D02*
D03*
X1724Y1902D02*
D03*
X1421Y1972D02*
D03*
X1697Y1902D02*
D03*
X1461Y1972D02*
D03*
X1756Y1811D02*
D03*
X1756Y1850D02*
D03*
X1776Y1831D02*
D03*
X1811Y1776D02*
D03*
X1783Y1776D02*
D03*
Y1803D02*
D03*
X1421Y1894D02*
D03*
X1343Y1933D02*
D03*
X1783Y1327D02*
D03*
X1303Y1815D02*
D03*
X1343Y1776D02*
D03*
X1539Y1618D02*
D03*
X1421Y1815D02*
D03*
X1382D02*
D03*
X1343D02*
D03*
X1539Y1736D02*
D03*
X1472Y1268D02*
D03*
X2756Y1004D02*
D03*
Y1043D02*
D03*
X1461Y1854D02*
D03*
Y1815D02*
D03*
X1421Y1933D02*
D03*
X1539Y1697D02*
D03*
X1500Y1579D02*
D03*
X1539D02*
D03*
Y1500D02*
D03*
X1539Y1539D02*
D03*
X1500Y1539D02*
D03*
X1343Y1461D02*
D03*
Y1500D02*
D03*
X1343Y1539D02*
D03*
X1303Y1461D02*
D03*
X1461Y1894D02*
D03*
X1539Y1854D02*
D03*
X1539Y1894D02*
D03*
X1559Y1287D02*
D03*
X1579Y1894D02*
D03*
X1579Y1933D02*
D03*
X1539D02*
D03*
Y1815D02*
D03*
X1500Y1240D02*
D03*
X1479Y1332D02*
D03*
X1441Y1303D02*
D03*
X2835Y1083D02*
D03*
X2835Y1043D02*
D03*
Y1004D02*
D03*
X2795Y965D02*
D03*
X2520Y1004D02*
D03*
Y965D02*
D03*
X2480D02*
D03*
X2441D02*
D03*
X2776Y724D02*
D03*
X2717Y807D02*
D03*
X2441Y768D02*
D03*
X2480Y768D02*
D03*
X2717Y965D02*
D03*
X2835Y886D02*
D03*
Y925D02*
D03*
Y965D02*
D03*
X2677D02*
D03*
X2717Y1004D02*
D03*
X2638Y807D02*
D03*
Y768D02*
D03*
X2520D02*
D03*
X2795Y925D02*
D03*
Y886D02*
D03*
X2756D02*
D03*
Y925D02*
D03*
Y965D02*
D03*
X2717Y886D02*
D03*
Y925D02*
D03*
X2677D02*
D03*
Y886D02*
D03*
Y807D02*
D03*
X2480Y807D02*
D03*
X2520D02*
D03*
X2559Y1004D02*
D03*
X2638Y965D02*
D03*
X2598D02*
D03*
X2638Y886D02*
D03*
Y925D02*
D03*
X2598D02*
D03*
Y886D02*
D03*
X2520Y925D02*
D03*
Y886D02*
D03*
X2441Y925D02*
D03*
Y886D02*
D03*
X1303Y1697D02*
D03*
Y1854D02*
D03*
X1461Y1736D02*
D03*
X1224Y1933D02*
D03*
X1283Y1336D02*
D03*
X1106Y1854D02*
D03*
X1106Y1894D02*
D03*
Y2012D02*
D03*
X1185Y1933D02*
D03*
X1622Y2110D02*
D03*
X378Y1484D02*
D03*
X1303Y1539D02*
D03*
X1579Y1736D02*
D03*
X909Y1854D02*
D03*
X831Y1697D02*
D03*
X1106Y1303D02*
D03*
X268Y1421D02*
D03*
X1087Y1272D02*
D03*
X1067Y1303D02*
D03*
X882Y1270D02*
D03*
X913D02*
D03*
X518Y1492D02*
D03*
X1185Y1736D02*
D03*
X1185Y1697D02*
D03*
X1579Y1382D02*
D03*
X1500Y1500D02*
D03*
Y1461D02*
D03*
X1087Y1341D02*
D03*
X1048Y1339D02*
D03*
X1004Y1272D02*
D03*
X969Y1272D02*
D03*
X1224Y1539D02*
D03*
X1067Y1421D02*
D03*
X1264Y1815D02*
D03*
X1224D02*
D03*
X1224Y1854D02*
D03*
X1303Y1776D02*
D03*
X1500Y1697D02*
D03*
X1461D02*
D03*
X1303Y1500D02*
D03*
X1421Y1382D02*
D03*
X1382Y1579D02*
D03*
X1303D02*
D03*
X1382Y1618D02*
D03*
X1343D02*
D03*
Y1657D02*
D03*
X1421Y1618D02*
D03*
X1539Y1461D02*
D03*
X1185Y1815D02*
D03*
X1146Y1815D02*
D03*
X1264Y1776D02*
D03*
X1303Y1972D02*
D03*
X1382Y2012D02*
D03*
X1264Y1618D02*
D03*
X1264Y1579D02*
D03*
X1028Y2051D02*
D03*
Y2091D02*
D03*
Y2169D02*
D03*
X1146Y1421D02*
D03*
X1224Y1579D02*
D03*
X1224Y1618D02*
D03*
Y1657D02*
D03*
X1264D02*
D03*
X1028Y1421D02*
D03*
X1028Y1461D02*
D03*
Y1500D02*
D03*
X988Y1500D02*
D03*
X1303Y1421D02*
D03*
X1185Y1461D02*
D03*
X1264Y1500D02*
D03*
X1224Y1461D02*
D03*
X1224Y1421D02*
D03*
X1382Y1461D02*
D03*
X295Y1457D02*
D03*
X297Y1484D02*
D03*
X224Y1480D02*
D03*
X118Y1732D02*
D03*
X169Y2217D02*
D03*
X177Y2020D02*
D03*
X149Y2126D02*
D03*
X831Y1382D02*
D03*
X614Y2018D02*
D03*
X488Y2106D02*
D03*
X508Y2087D02*
D03*
X453Y2098D02*
D03*
X748Y2031D02*
D03*
Y2067D02*
D03*
X717Y1878D02*
D03*
X736Y1701D02*
D03*
X750Y1632D02*
D03*
X618Y1599D02*
D03*
X648D02*
D03*
X673D02*
D03*
X677Y2217D02*
D03*
X553Y2106D02*
D03*
X646Y2217D02*
D03*
X748Y1909D02*
D03*
X677Y2018D02*
D03*
X646D02*
D03*
X717Y1909D02*
D03*
X744Y1798D02*
D03*
X531Y1791D02*
D03*
X472Y1614D02*
D03*
X453Y1598D02*
D03*
X517Y1600D02*
D03*
X593D02*
D03*
X528Y1681D02*
D03*
X555Y1681D02*
D03*
X492Y1598D02*
D03*
X646Y1492D02*
D03*
X709Y1701D02*
D03*
X791Y1736D02*
D03*
X736Y1736D02*
D03*
X709Y1736D02*
D03*
X677Y1791D02*
D03*
X646Y1791D02*
D03*
X949Y1736D02*
D03*
X831Y1933D02*
D03*
X677Y1911D02*
D03*
X870Y1815D02*
D03*
X949D02*
D03*
X791Y1697D02*
D03*
X909Y1815D02*
D03*
X553Y1492D02*
D03*
X614D02*
D03*
X583D02*
D03*
X909Y1500D02*
D03*
X909Y1461D02*
D03*
X870Y1539D02*
D03*
X831Y1736D02*
D03*
X791Y1657D02*
D03*
X425Y1622D02*
D03*
X437Y1815D02*
D03*
X390Y1909D02*
D03*
X496D02*
D03*
X335Y1673D02*
D03*
X215Y1598D02*
D03*
X909Y1697D02*
D03*
X772Y2217D02*
D03*
X791Y2130D02*
D03*
X600Y2106D02*
D03*
X646Y2108D02*
D03*
X555Y2024D02*
D03*
X613Y1911D02*
D03*
X831Y1854D02*
D03*
X909Y1894D02*
D03*
X870Y1933D02*
D03*
X703Y1971D02*
D03*
X493Y2025D02*
D03*
X1185Y1657D02*
D03*
X1264Y1539D02*
D03*
X1185Y1579D02*
D03*
X1146D02*
D03*
X1185Y1539D02*
D03*
X949Y1697D02*
D03*
X909Y1657D02*
D03*
X870D02*
D03*
X531Y1909D02*
D03*
X559Y1909D02*
D03*
X181Y1539D02*
D03*
X189Y1622D02*
D03*
X949Y1461D02*
D03*
X870Y1500D02*
D03*
X791Y1854D02*
D03*
X949Y1539D02*
D03*
Y1500D02*
D03*
X909Y1421D02*
D03*
X870D02*
D03*
X791Y1618D02*
D03*
X831Y1618D02*
D03*
X831Y1657D02*
D03*
X949Y1579D02*
D03*
X831Y1500D02*
D03*
X614Y1791D02*
D03*
X142Y2236D02*
D03*
X870Y1382D02*
D03*
X949Y1421D02*
D03*
X247Y1630D02*
D03*
X376Y1791D02*
D03*
X269Y1909D02*
D03*
X231D02*
D03*
X217Y1823D02*
D03*
X266D02*
D03*
X302Y2020D02*
D03*
X305Y1909D02*
D03*
X223Y1882D02*
D03*
X268Y1882D02*
D03*
X453Y2043D02*
D03*
X427Y2043D02*
D03*
X340Y1909D02*
D03*
X949Y1618D02*
D03*
X870Y1697D02*
D03*
X909Y1736D02*
D03*
X909Y1776D02*
D03*
X831Y1461D02*
D03*
X205Y2020D02*
D03*
X283Y2098D02*
D03*
X831Y1776D02*
D03*
X791D02*
D03*
X870D02*
D03*
X870Y1736D02*
D03*
X421Y2217D02*
D03*
X752Y2130D02*
D03*
X909Y2169D02*
D03*
X870D02*
D03*
X831D02*
D03*
X311Y2098D02*
D03*
X370Y2051D02*
D03*
X189Y2244D02*
D03*
X217D02*
D03*
X398Y2098D02*
D03*
X425D02*
D03*
X433Y2244D02*
D03*
X504D02*
D03*
X949Y1657D02*
D03*
X587Y1909D02*
D03*
X949Y1933D02*
D03*
X909Y2051D02*
D03*
Y2094D02*
D03*
X949Y2091D02*
D03*
X909Y2130D02*
D03*
X949Y2130D02*
D03*
Y1972D02*
D03*
Y2012D02*
D03*
Y2051D02*
D03*
X244Y2244D02*
D03*
X397Y2244D02*
D03*
X366Y2244D02*
D03*
X311D02*
D03*
X280D02*
D03*
X870Y1854D02*
D03*
X870Y1894D02*
D03*
X791Y1972D02*
D03*
X909Y1933D02*
D03*
X870Y1972D02*
D03*
X831Y2012D02*
D03*
X791D02*
D03*
X1500Y1854D02*
D03*
X1421Y1697D02*
D03*
X1382Y1697D02*
D03*
X1382Y1736D02*
D03*
X1421D02*
D03*
X1343D02*
D03*
X1303D02*
D03*
X1264D02*
D03*
X1622Y2189D02*
D03*
Y2150D02*
D03*
X1579Y2012D02*
D03*
X1579Y2051D02*
D03*
X1539Y2051D02*
D03*
X1500Y1894D02*
D03*
X1303Y2169D02*
D03*
X1421D02*
D03*
X1264D02*
D03*
X1343D02*
D03*
X1461Y2091D02*
D03*
X1539Y2091D02*
D03*
X1579Y2130D02*
D03*
X1500Y1933D02*
D03*
X1461D02*
D03*
X1579Y1579D02*
D03*
X1500Y1815D02*
D03*
X1500Y2130D02*
D03*
X1382Y2169D02*
D03*
X1461D02*
D03*
X1500D02*
D03*
X1539D02*
D03*
X1579D02*
D03*
X1106Y1461D02*
D03*
Y1421D02*
D03*
X1067Y1500D02*
D03*
X909Y1382D02*
D03*
X949D02*
D03*
X1146Y2169D02*
D03*
X1224D02*
D03*
X1185D02*
D03*
X1008Y2217D02*
D03*
X1382Y2091D02*
D03*
X1067Y1815D02*
D03*
X1028Y1854D02*
D03*
X1067Y1894D02*
D03*
X1106Y1972D02*
D03*
X1224Y2012D02*
D03*
Y1972D02*
D03*
Y1736D02*
D03*
X1185Y1776D02*
D03*
X1146D02*
D03*
X1382Y1500D02*
D03*
X1500Y1736D02*
D03*
X1382Y1894D02*
D03*
X1343Y2012D02*
D03*
X1303Y2130D02*
D03*
X1264Y2051D02*
D03*
X1224D02*
D03*
Y2091D02*
D03*
X1185D02*
D03*
X1146D02*
D03*
X1106D02*
D03*
X1028Y2130D02*
D03*
X1106D02*
D03*
X1146D02*
D03*
X1185D02*
D03*
X1224D02*
D03*
X1028Y1382D02*
D03*
X870Y1461D02*
D03*
X1028Y1657D02*
D03*
Y1618D02*
D03*
Y1579D02*
D03*
X1067Y1461D02*
D03*
Y1539D02*
D03*
X1106D02*
D03*
X1146D02*
D03*
X1106Y1579D02*
D03*
X1067D02*
D03*
X1185Y1618D02*
D03*
X1146D02*
D03*
X1067Y1657D02*
D03*
Y1618D02*
D03*
X1106Y1618D02*
D03*
X1106Y1657D02*
D03*
X1146D02*
D03*
Y1697D02*
D03*
Y1736D02*
D03*
X1106D02*
D03*
Y1697D02*
D03*
X1067D02*
D03*
X1028D02*
D03*
Y1776D02*
D03*
Y1736D02*
D03*
X1067D02*
D03*
Y1776D02*
D03*
X1106D02*
D03*
Y1815D02*
D03*
X1146Y1854D02*
D03*
X1185D02*
D03*
Y1894D02*
D03*
X1146D02*
D03*
Y1933D02*
D03*
Y1972D02*
D03*
X1185D02*
D03*
Y2012D02*
D03*
Y2051D02*
D03*
X1146D02*
D03*
X1106D02*
D03*
X1028Y2012D02*
D03*
Y1972D02*
D03*
X1067Y2012D02*
D03*
Y1972D02*
D03*
Y1933D02*
D03*
X1106D02*
D03*
X1067Y1854D02*
D03*
X1028Y1815D02*
D03*
Y1894D02*
D03*
Y1933D02*
D03*
X870Y2012D02*
D03*
Y2051D02*
D03*
Y2091D02*
D03*
D105*
X2079Y902D02*
D03*
X875Y583D02*
D03*
Y622D02*
D03*
X1532D02*
D03*
Y583D02*
D03*
X1299Y988D02*
D03*
X1488Y677D02*
D03*
X516Y1028D02*
D03*
X2717Y1464D02*
D03*
X2819Y1555D02*
D03*
X2669Y1464D02*
D03*
X2768D02*
D03*
X1976Y524D02*
D03*
X2039Y669D02*
D03*
X2071Y646D02*
D03*
X1177Y2417D02*
D03*
X1083Y2228D02*
D03*
X1378Y2324D02*
D03*
X1067Y2276D02*
D03*
X1079Y2417D02*
D03*
X1008Y2354D02*
D03*
Y2500D02*
D03*
X815Y2421D02*
D03*
X927Y2423D02*
D03*
X909Y2313D02*
D03*
X909Y2354D02*
D03*
X807D02*
D03*
X720D02*
D03*
X673Y2394D02*
D03*
X691Y2310D02*
D03*
X525Y2382D02*
D03*
X526Y2343D02*
D03*
X1650Y2272D02*
D03*
X1594Y2343D02*
D03*
X3543Y1413D02*
D03*
X2358Y594D02*
D03*
X2240D02*
D03*
X2441Y465D02*
D03*
Y421D02*
D03*
X2398Y55D02*
D03*
X935Y195D02*
D03*
X1094Y194D02*
D03*
X1154Y46D02*
D03*
X871Y37D02*
D03*
X2276Y433D02*
D03*
Y488D02*
D03*
X2181Y484D02*
D03*
X575Y508D02*
D03*
X697Y413D02*
D03*
X697Y497D02*
D03*
X697Y457D02*
D03*
X698Y362D02*
D03*
X697Y535D02*
D03*
X698Y319D02*
D03*
X575Y276D02*
D03*
X516Y878D02*
D03*
X126Y1016D02*
D03*
X161D02*
D03*
X268D02*
D03*
X197D02*
D03*
X319Y839D02*
D03*
X463Y551D02*
D03*
X575Y414D02*
D03*
Y461D02*
D03*
X268Y571D02*
D03*
X323Y571D02*
D03*
X896Y948D02*
D03*
X832Y884D02*
D03*
X831Y843D02*
D03*
X935Y986D02*
D03*
X815Y1094D02*
D03*
X2941Y1193D02*
D03*
X118Y1130D02*
D03*
X4299Y913D02*
D03*
X2046Y593D02*
D03*
X2020Y618D02*
D03*
X2049Y731D02*
D03*
X1823Y1835D02*
D03*
X1823Y1902D02*
D03*
X2842Y1293D02*
D03*
X2843Y1195D02*
D03*
X2157Y1354D02*
D03*
X1299Y1209D02*
D03*
X2313Y262D02*
D03*
X3339Y1831D02*
D03*
X3323Y1713D02*
D03*
X1899Y1186D02*
D03*
X4492Y939D02*
D03*
X4241Y748D02*
D03*
X3709Y913D02*
D03*
X3791Y709D02*
D03*
X3642Y815D02*
D03*
X1228Y819D02*
D03*
X625Y2252D02*
D03*
X4322Y378D02*
D03*
X4508Y433D02*
D03*
X1370Y941D02*
D03*
X740Y2446D02*
D03*
X539Y2249D02*
D03*
X122Y2272D02*
D03*
X55Y2268D02*
D03*
X122Y2390D02*
D03*
X1843Y374D02*
D03*
X1209Y441D02*
D03*
X1173Y488D02*
D03*
X1130D02*
D03*
X1319Y528D02*
D03*
X1753Y194D02*
D03*
X2191Y701D02*
D03*
X2239D02*
D03*
X2488Y665D02*
D03*
X2591Y488D02*
D03*
X2681Y618D02*
D03*
X2488Y705D02*
D03*
X2705Y681D02*
D03*
X1488Y815D02*
D03*
X1882Y819D02*
D03*
X3411Y1650D02*
D03*
X4185Y224D02*
D03*
X2551Y1315D02*
D03*
X2760D02*
D03*
X67Y1484D02*
D03*
Y1370D02*
D03*
X3898Y614D02*
D03*
X4067Y551D02*
D03*
X4244Y224D02*
D03*
Y315D02*
D03*
X2303Y795D02*
D03*
X2752Y327D02*
D03*
X2874Y618D02*
D03*
Y689D02*
D03*
X1980Y1280D02*
D03*
X1894D02*
D03*
X1827Y1394D02*
D03*
X1869Y1391D02*
D03*
X1949Y1185D02*
D03*
X2075D02*
D03*
X2012D02*
D03*
Y870D02*
D03*
X2055Y866D02*
D03*
X2028Y1283D02*
D03*
X2049Y783D02*
D03*
X2252Y1311D02*
D03*
X3240Y1480D02*
D03*
X3311D02*
D03*
X3242Y1557D02*
D03*
X3382Y1948D02*
D03*
X2697Y1556D02*
D03*
X3453Y1331D02*
D03*
X3803Y1284D02*
D03*
X4236Y1299D02*
D03*
X854Y374D02*
D03*
X902Y370D02*
D03*
X700Y276D02*
D03*
X369Y571D02*
D03*
X2909Y1555D02*
D03*
X2681Y437D02*
D03*
X4134Y579D02*
D03*
X197Y571D02*
D03*
X1531Y46D02*
D03*
X1812D02*
D03*
X2224Y177D02*
D03*
X3832Y899D02*
D03*
X3343Y1008D02*
D03*
X2980Y1461D02*
D03*
X2929D02*
D03*
X2878D02*
D03*
X3803Y1200D02*
D03*
X3673Y1047D02*
D03*
X3484Y1106D02*
D03*
X3287Y1193D02*
D03*
X3177Y1189D02*
D03*
X3024Y1299D02*
D03*
X2976D02*
D03*
X2843Y1244D02*
D03*
X2165Y1311D02*
D03*
X118Y1197D02*
D03*
Y1232D02*
D03*
X122Y681D02*
D03*
X119Y752D02*
D03*
Y787D02*
D03*
X516Y976D02*
D03*
X3531Y1107D02*
D03*
X4512Y1126D02*
D03*
X3075Y1106D02*
D03*
X3393Y1106D02*
D03*
X3350D02*
D03*
X4024Y2394D02*
D03*
X4638Y2110D02*
D03*
X4882Y1878D02*
D03*
Y1732D02*
D03*
X3705Y2091D02*
D03*
X3673Y1772D02*
D03*
Y1417D02*
D03*
X3661Y1941D02*
D03*
X3787Y1772D02*
D03*
X3799Y1563D02*
D03*
X3934Y1571D02*
D03*
X4526Y1531D02*
D03*
X4589D02*
D03*
X4652D02*
D03*
X4720D02*
D03*
X3858Y1709D02*
D03*
X4366Y1220D02*
D03*
X4020Y1752D02*
D03*
X3937Y1076D02*
D03*
X4299Y1079D02*
D03*
Y1177D02*
D03*
Y1130D02*
D03*
X4646Y1165D02*
D03*
X4390Y988D02*
D03*
X4429Y1020D02*
D03*
X4512Y1075D02*
D03*
Y1220D02*
D03*
X4429Y1154D02*
D03*
X4646Y1047D02*
D03*
X4594Y957D02*
D03*
X4500Y2047D02*
D03*
Y1917D02*
D03*
Y1787D02*
D03*
Y2173D02*
D03*
Y1724D02*
D03*
Y1850D02*
D03*
Y2110D02*
D03*
Y1984D02*
D03*
X4638Y1850D02*
D03*
Y1980D02*
D03*
X3934Y1415D02*
D03*
X4882Y2130D02*
D03*
Y2000D02*
D03*
X4020Y1925D02*
D03*
X4024Y2276D02*
D03*
Y2051D02*
D03*
X3799Y2122D02*
D03*
X3839Y1988D02*
D03*
X3571Y1559D02*
D03*
X3453Y1413D02*
D03*
X3799Y862D02*
D03*
X3091Y1461D02*
D03*
X3138Y1461D02*
D03*
X3189Y1461D02*
D03*
X319Y1283D02*
D03*
X55Y2390D02*
D03*
X3403Y2038D02*
D03*
X3419Y1971D02*
D03*
X3432Y2011D02*
D03*
X3354Y2071D02*
D03*
X3421Y2097D02*
D03*
X563Y2513D02*
D03*
X701D02*
D03*
X634D02*
D03*
X1496Y2350D02*
D03*
X1453Y2394D02*
D03*
X2929Y413D02*
D03*
X3075Y854D02*
D03*
X2961Y1067D02*
D03*
Y937D02*
D03*
Y1024D02*
D03*
X2961Y980D02*
D03*
X3075Y760D02*
D03*
Y949D02*
D03*
Y1043D02*
D03*
X2559Y1461D02*
D03*
X2508Y1460D02*
D03*
X2232Y1559D02*
D03*
X2231Y1456D02*
D03*
X2154Y1496D02*
D03*
X3890Y437D02*
D03*
X3402Y2181D02*
D03*
X3341Y1906D02*
D03*
X3398Y1862D02*
D03*
X3421Y1898D02*
D03*
X3429Y1756D02*
D03*
X3378Y1713D02*
D03*
X3429Y1713D02*
D03*
X3276Y1713D02*
D03*
X3031Y1555D02*
D03*
X3343Y1047D02*
D03*
X3484D02*
D03*
X3579Y1016D02*
D03*
X3436Y1018D02*
D03*
X3493Y1005D02*
D03*
X2606Y1556D02*
D03*
X2480Y1556D02*
D03*
X2358D02*
D03*
X2417Y1556D02*
D03*
X3101Y1556D02*
D03*
X2091Y1657D02*
D03*
X2134Y1657D02*
D03*
X929Y839D02*
D03*
X228Y457D02*
D03*
X213Y402D02*
D03*
X130Y402D02*
D03*
X161Y571D02*
D03*
X4075Y882D02*
D03*
Y917D02*
D03*
X2929Y374D02*
D03*
X2193Y614D02*
D03*
X2020Y815D02*
D03*
X2030Y1354D02*
D03*
X2209Y1311D02*
D03*
X2125Y1312D02*
D03*
X2282Y1457D02*
D03*
X2331Y1457D02*
D03*
X2381Y1457D02*
D03*
X2181Y1734D02*
D03*
X2048Y1692D02*
D03*
X1866Y1594D02*
D03*
X2287Y1748D02*
D03*
X2111Y1514D02*
D03*
X4925Y315D02*
D03*
X4232Y524D02*
D03*
X343Y917D02*
D03*
X2461Y1460D02*
D03*
X3571Y1772D02*
D03*
X1587Y839D02*
D03*
X1248Y346D02*
D03*
X1205Y528D02*
D03*
X454Y882D02*
D03*
X409Y1016D02*
D03*
X1488Y930D02*
D03*
X858Y681D02*
D03*
X831Y748D02*
D03*
X891Y287D02*
D03*
X949Y484D02*
D03*
X1736D02*
D03*
X1607Y481D02*
D03*
X1878Y484D02*
D03*
X1079D02*
D03*
X1602Y205D02*
D03*
X575Y323D02*
D03*
X831Y799D02*
D03*
X3571Y1984D02*
D03*
Y1929D02*
D03*
X3571Y2047D02*
D03*
X575Y367D02*
D03*
X515Y729D02*
D03*
X3701Y2398D02*
D03*
X3402Y2138D02*
D03*
X4811Y405D02*
D03*
X4469Y339D02*
D03*
X4413Y528D02*
D03*
X4543Y605D02*
D03*
X2681Y488D02*
D03*
X814Y1181D02*
D03*
Y1145D02*
D03*
X850D02*
D03*
Y1181D02*
D03*
X1488Y748D02*
D03*
X1835Y483D02*
D03*
X1559Y330D02*
D03*
X1787Y346D02*
D03*
X1787Y484D02*
D03*
X2020Y559D02*
D03*
Y756D02*
D03*
X1542Y293D02*
D03*
X1558Y371D02*
D03*
X1772Y441D02*
D03*
X902Y330D02*
D03*
X515Y688D02*
D03*
X516Y832D02*
D03*
X516Y792D02*
D03*
X1114Y441D02*
D03*
X1107Y322D02*
D03*
X1138Y370D02*
D03*
X409Y571D02*
D03*
X4279Y378D02*
D03*
X4322Y559D02*
D03*
X4413Y575D02*
D03*
X3937Y713D02*
D03*
X4299Y339D02*
D03*
X4539Y339D02*
D03*
X4543Y481D02*
D03*
X4543Y524D02*
D03*
X4448Y607D02*
D03*
Y650D02*
D03*
X3803Y2339D02*
D03*
X3972Y2276D02*
D03*
X3705Y2327D02*
D03*
X3756Y2398D02*
D03*
X3843Y2382D02*
D03*
X3571Y2189D02*
D03*
Y2150D02*
D03*
Y2098D02*
D03*
X3571Y1862D02*
D03*
X370Y1016D02*
D03*
X453Y776D02*
D03*
X374D02*
D03*
X220Y783D02*
D03*
X268Y736D02*
D03*
X220D02*
D03*
X268Y783D02*
D03*
X413Y776D02*
D03*
X516Y929D02*
D03*
X220Y1228D02*
D03*
X244Y1294D02*
D03*
X374Y1220D02*
D03*
X453D02*
D03*
X220Y1181D02*
D03*
X327Y1016D02*
D03*
X268Y1228D02*
D03*
X346Y1130D02*
D03*
X413Y1220D02*
D03*
X268Y1181D02*
D03*
X3571Y1728D02*
D03*
M02*
