G04*
G04 #@! TF.GenerationSoftware,Altium Limited,Altium Designer,20.2.6 (244)*
G04*
G04 Layer_Color=16711935*
%FSLAX23Y23*%
%MOIN*%
G70*
G04*
G04 #@! TF.SameCoordinates,520E5D0B-E6D2-46CB-9709-C91B8BCBD3B5*
G04*
G04*
G04 #@! TF.FilePolarity,Negative*
G04*
G01*
G75*
%ADD17R,0.043X0.055*%
G04:AMPARAMS|DCode=18|XSize=23mil|YSize=19mil|CornerRadius=5mil|HoleSize=0mil|Usage=FLASHONLY|Rotation=270.000|XOffset=0mil|YOffset=0mil|HoleType=Round|Shape=RoundedRectangle|*
%AMROUNDEDRECTD18*
21,1,0.023,0.009,0,0,270.0*
21,1,0.013,0.019,0,0,270.0*
1,1,0.009,-0.005,-0.007*
1,1,0.009,-0.005,0.007*
1,1,0.009,0.005,0.007*
1,1,0.009,0.005,-0.007*
%
%ADD18ROUNDEDRECTD18*%
G04:AMPARAMS|DCode=19|XSize=23mil|YSize=19mil|CornerRadius=5mil|HoleSize=0mil|Usage=FLASHONLY|Rotation=0.000|XOffset=0mil|YOffset=0mil|HoleType=Round|Shape=RoundedRectangle|*
%AMROUNDEDRECTD19*
21,1,0.023,0.009,0,0,0.0*
21,1,0.013,0.019,0,0,0.0*
1,1,0.009,0.007,-0.005*
1,1,0.009,-0.007,-0.005*
1,1,0.009,-0.007,0.005*
1,1,0.009,0.007,0.005*
%
%ADD19ROUNDEDRECTD19*%
%ADD20R,0.038X0.032*%
G04:AMPARAMS|DCode=26|XSize=142mil|YSize=142mil|CornerRadius=17mil|HoleSize=0mil|Usage=FLASHONLY|Rotation=180.000|XOffset=0mil|YOffset=0mil|HoleType=Round|Shape=RoundedRectangle|*
%AMROUNDEDRECTD26*
21,1,0.142,0.107,0,0,180.0*
21,1,0.107,0.142,0,0,180.0*
1,1,0.035,-0.054,0.054*
1,1,0.035,0.054,0.054*
1,1,0.035,0.054,-0.054*
1,1,0.035,-0.054,-0.054*
%
%ADD26ROUNDEDRECTD26*%
%ADD27R,0.032X0.038*%
%ADD43R,0.055X0.043*%
%ADD45C,0.035*%
G04:AMPARAMS|DCode=49|XSize=21mil|YSize=10mil|CornerRadius=1mil|HoleSize=0mil|Usage=FLASHONLY|Rotation=180.000|XOffset=0mil|YOffset=0mil|HoleType=Round|Shape=RoundedRectangle|*
%AMROUNDEDRECTD49*
21,1,0.021,0.007,0,0,180.0*
21,1,0.018,0.010,0,0,180.0*
1,1,0.003,-0.009,0.003*
1,1,0.003,0.009,0.003*
1,1,0.003,0.009,-0.003*
1,1,0.003,-0.009,-0.003*
%
%ADD49ROUNDEDRECTD49*%
G04:AMPARAMS|DCode=50|XSize=21mil|YSize=10mil|CornerRadius=1mil|HoleSize=0mil|Usage=FLASHONLY|Rotation=90.000|XOffset=0mil|YOffset=0mil|HoleType=Round|Shape=RoundedRectangle|*
%AMROUNDEDRECTD50*
21,1,0.021,0.007,0,0,90.0*
21,1,0.018,0.010,0,0,90.0*
1,1,0.003,0.003,0.009*
1,1,0.003,0.003,-0.009*
1,1,0.003,-0.003,-0.009*
1,1,0.003,-0.003,0.009*
%
%ADD50ROUNDEDRECTD50*%
G04:AMPARAMS|DCode=60|XSize=31mil|YSize=31mil|CornerRadius=8mil|HoleSize=0mil|Usage=FLASHONLY|Rotation=270.000|XOffset=0mil|YOffset=0mil|HoleType=Round|Shape=RoundedRectangle|*
%AMROUNDEDRECTD60*
21,1,0.031,0.015,0,0,270.0*
21,1,0.015,0.031,0,0,270.0*
1,1,0.015,-0.008,-0.008*
1,1,0.015,-0.008,0.008*
1,1,0.015,0.008,0.008*
1,1,0.015,0.008,-0.008*
%
%ADD60ROUNDEDRECTD60*%
%ADD64C,0.039*%
%ADD65C,0.028*%
G04:AMPARAMS|DCode=66|XSize=59mil|YSize=59mil|CornerRadius=24mil|HoleSize=0mil|Usage=FLASHONLY|Rotation=270.000|XOffset=0mil|YOffset=0mil|HoleType=Round|Shape=RoundedRectangle|*
%AMROUNDEDRECTD66*
21,1,0.059,0.010,0,0,270.0*
21,1,0.010,0.059,0,0,270.0*
1,1,0.049,-0.005,-0.005*
1,1,0.049,-0.005,0.005*
1,1,0.049,0.005,0.005*
1,1,0.049,0.005,-0.005*
%
%ADD66ROUNDEDRECTD66*%
%ADD67C,0.071*%
%ADD68R,0.067X0.067*%
%ADD69C,0.244*%
%ADD70C,0.063*%
%ADD71C,0.063*%
%ADD72C,0.094*%
%ADD73C,0.165*%
G04:AMPARAMS|DCode=74|XSize=59mil|YSize=59mil|CornerRadius=24mil|HoleSize=0mil|Usage=FLASHONLY|Rotation=0.000|XOffset=0mil|YOffset=0mil|HoleType=Round|Shape=RoundedRectangle|*
%AMROUNDEDRECTD74*
21,1,0.059,0.010,0,0,0.0*
21,1,0.010,0.059,0,0,0.0*
1,1,0.049,0.005,-0.005*
1,1,0.049,-0.005,-0.005*
1,1,0.049,-0.005,0.005*
1,1,0.049,0.005,0.005*
%
%ADD74ROUNDEDRECTD74*%
G04:AMPARAMS|DCode=107|XSize=31mil|YSize=31mil|CornerRadius=8mil|HoleSize=0mil|Usage=FLASHONLY|Rotation=180.000|XOffset=0mil|YOffset=0mil|HoleType=Round|Shape=RoundedRectangle|*
%AMROUNDEDRECTD107*
21,1,0.031,0.015,0,0,180.0*
21,1,0.015,0.031,0,0,180.0*
1,1,0.015,-0.008,0.008*
1,1,0.015,0.008,0.008*
1,1,0.015,0.008,-0.008*
1,1,0.015,-0.008,-0.008*
%
%ADD107ROUNDEDRECTD107*%
%ADD108R,0.011X0.033*%
%ADD109R,0.033X0.011*%
%ADD110R,0.081X0.081*%
%ADD111R,0.203X0.189*%
%ADD112R,0.032X0.017*%
%ADD113R,0.008X0.012*%
%ADD114R,0.008X0.014*%
G04:AMPARAMS|DCode=115|XSize=28mil|YSize=67mil|CornerRadius=7mil|HoleSize=0mil|Usage=FLASHONLY|Rotation=270.000|XOffset=0mil|YOffset=0mil|HoleType=Round|Shape=RoundedRectangle|*
%AMROUNDEDRECTD115*
21,1,0.028,0.053,0,0,270.0*
21,1,0.014,0.067,0,0,270.0*
1,1,0.014,-0.027,-0.007*
1,1,0.014,-0.027,0.007*
1,1,0.014,0.027,0.007*
1,1,0.014,0.027,-0.007*
%
%ADD115ROUNDEDRECTD115*%
%ADD116R,0.087X0.059*%
G04:AMPARAMS|DCode=117|XSize=69mil|YSize=69mil|CornerRadius=3mil|HoleSize=0mil|Usage=FLASHONLY|Rotation=90.000|XOffset=0mil|YOffset=0mil|HoleType=Round|Shape=RoundedRectangle|*
%AMROUNDEDRECTD117*
21,1,0.069,0.062,0,0,90.0*
21,1,0.062,0.069,0,0,90.0*
1,1,0.007,0.031,0.031*
1,1,0.007,0.031,-0.031*
1,1,0.007,-0.031,-0.031*
1,1,0.007,-0.031,0.031*
%
%ADD117ROUNDEDRECTD117*%
G04:AMPARAMS|DCode=118|XSize=31mil|YSize=12mil|CornerRadius=3mil|HoleSize=0mil|Usage=FLASHONLY|Rotation=90.000|XOffset=0mil|YOffset=0mil|HoleType=Round|Shape=RoundedRectangle|*
%AMROUNDEDRECTD118*
21,1,0.031,0.006,0,0,90.0*
21,1,0.026,0.012,0,0,90.0*
1,1,0.006,0.003,0.013*
1,1,0.006,0.003,-0.013*
1,1,0.006,-0.003,-0.013*
1,1,0.006,-0.003,0.013*
%
%ADD118ROUNDEDRECTD118*%
G04:AMPARAMS|DCode=119|XSize=31mil|YSize=12mil|CornerRadius=3mil|HoleSize=0mil|Usage=FLASHONLY|Rotation=180.000|XOffset=0mil|YOffset=0mil|HoleType=Round|Shape=RoundedRectangle|*
%AMROUNDEDRECTD119*
21,1,0.031,0.006,0,0,180.0*
21,1,0.026,0.012,0,0,180.0*
1,1,0.006,-0.013,0.003*
1,1,0.006,0.013,0.003*
1,1,0.006,0.013,-0.003*
1,1,0.006,-0.013,-0.003*
%
%ADD119ROUNDEDRECTD119*%
%ADD120R,0.020X0.024*%
%ADD122C,0.019*%
G04:AMPARAMS|DCode=123|XSize=39mil|YSize=110mil|CornerRadius=12mil|HoleSize=0mil|Usage=FLASHONLY|Rotation=90.000|XOffset=0mil|YOffset=0mil|HoleType=Round|Shape=RoundedRectangle|*
%AMROUNDEDRECTD123*
21,1,0.039,0.087,0,0,90.0*
21,1,0.016,0.110,0,0,90.0*
1,1,0.024,0.043,0.008*
1,1,0.024,0.043,-0.008*
1,1,0.024,-0.043,-0.008*
1,1,0.024,-0.043,0.008*
%
%ADD123ROUNDEDRECTD123*%
D17*
X3919Y1280D02*
D03*
X3978D02*
D03*
X3978Y1986D02*
D03*
X3919D02*
D03*
X3919Y1634D02*
D03*
X3978D02*
D03*
X3978Y2339D02*
D03*
X3919D02*
D03*
X3919Y925D02*
D03*
X3978D02*
D03*
D18*
X3150Y2126D02*
D03*
Y2087D02*
D03*
X1031Y2634D02*
D03*
Y2594D02*
D03*
X4244Y291D02*
D03*
Y252D02*
D03*
X1138Y2594D02*
D03*
Y2634D02*
D03*
X1102Y2594D02*
D03*
Y2634D02*
D03*
X1209Y2594D02*
D03*
Y2634D02*
D03*
X3075Y2087D02*
D03*
Y2126D02*
D03*
X1280Y2594D02*
D03*
Y2634D02*
D03*
X3185Y2126D02*
D03*
Y2087D02*
D03*
X3039Y2126D02*
D03*
Y2087D02*
D03*
X4299Y1028D02*
D03*
Y988D02*
D03*
X3110Y2126D02*
D03*
Y2087D02*
D03*
X1000Y2594D02*
D03*
Y2634D02*
D03*
X1067Y2634D02*
D03*
Y2594D02*
D03*
X1244Y2634D02*
D03*
Y2594D02*
D03*
X1173Y2634D02*
D03*
Y2594D02*
D03*
X1008Y1815D02*
D03*
Y1854D02*
D03*
Y1579D02*
D03*
Y1618D02*
D03*
Y1697D02*
D03*
Y1657D02*
D03*
Y2012D02*
D03*
Y1972D02*
D03*
Y1736D02*
D03*
Y1776D02*
D03*
X1539Y1677D02*
D03*
Y1638D02*
D03*
X1421D02*
D03*
Y1677D02*
D03*
X1579Y1638D02*
D03*
Y1598D02*
D03*
X1480Y1500D02*
D03*
Y1539D02*
D03*
X831Y1598D02*
D03*
Y1559D02*
D03*
X1882Y843D02*
D03*
Y882D02*
D03*
X1228D02*
D03*
Y843D02*
D03*
X1957Y1315D02*
D03*
Y1354D02*
D03*
X1921Y1315D02*
D03*
Y1354D02*
D03*
X2331Y1524D02*
D03*
Y1484D02*
D03*
X2461Y1528D02*
D03*
Y1488D02*
D03*
X2669Y1484D02*
D03*
Y1524D02*
D03*
X2787Y307D02*
D03*
Y346D02*
D03*
X2823Y346D02*
D03*
Y307D02*
D03*
X2858Y346D02*
D03*
Y307D02*
D03*
X2894Y307D02*
D03*
Y346D02*
D03*
X2929Y346D02*
D03*
Y307D02*
D03*
X2965D02*
D03*
Y346D02*
D03*
X2193Y638D02*
D03*
Y677D02*
D03*
X1997Y697D02*
D03*
Y657D02*
D03*
X1958Y657D02*
D03*
Y697D02*
D03*
X1300Y657D02*
D03*
Y697D02*
D03*
X1340D02*
D03*
Y657D02*
D03*
X3705Y1770D02*
D03*
Y1809D02*
D03*
X122Y2232D02*
D03*
Y2193D02*
D03*
X283Y1882D02*
D03*
Y1843D02*
D03*
X240D02*
D03*
Y1882D02*
D03*
X130Y1984D02*
D03*
Y1945D02*
D03*
X157Y1984D02*
D03*
Y1945D02*
D03*
X362D02*
D03*
Y1984D02*
D03*
X252Y1945D02*
D03*
Y1984D02*
D03*
X287Y1945D02*
D03*
Y1984D02*
D03*
X319Y1945D02*
D03*
Y1984D02*
D03*
X217D02*
D03*
Y1945D02*
D03*
X685Y2398D02*
D03*
Y2358D02*
D03*
X437Y2177D02*
D03*
Y2138D02*
D03*
X205Y2177D02*
D03*
Y2138D02*
D03*
X465Y2138D02*
D03*
Y2177D02*
D03*
X406Y2138D02*
D03*
Y2177D02*
D03*
X232Y2177D02*
D03*
Y2138D02*
D03*
X177D02*
D03*
Y2177D02*
D03*
X260D02*
D03*
Y2138D02*
D03*
X287D02*
D03*
Y2177D02*
D03*
X315Y2138D02*
D03*
Y2177D02*
D03*
X343D02*
D03*
Y2138D02*
D03*
X370D02*
D03*
Y2177D02*
D03*
X3492Y1146D02*
D03*
Y1185D02*
D03*
X2134Y1685D02*
D03*
Y1724D02*
D03*
X2094D02*
D03*
Y1685D02*
D03*
X1992Y1315D02*
D03*
Y1354D02*
D03*
X1886D02*
D03*
Y1315D02*
D03*
X1610Y2287D02*
D03*
Y2248D02*
D03*
X930Y2311D02*
D03*
Y2272D02*
D03*
X733D02*
D03*
Y2311D02*
D03*
X1013Y2406D02*
D03*
Y2445D02*
D03*
X851Y2272D02*
D03*
Y2311D02*
D03*
X773D02*
D03*
Y2272D02*
D03*
X1051Y2445D02*
D03*
Y2406D02*
D03*
X973Y2406D02*
D03*
Y2445D02*
D03*
X840Y2425D02*
D03*
Y2386D02*
D03*
X812Y2311D02*
D03*
Y2272D02*
D03*
X891D02*
D03*
Y2311D02*
D03*
X374Y646D02*
D03*
Y606D02*
D03*
X374Y1051D02*
D03*
Y1091D02*
D03*
X3760Y1907D02*
D03*
Y1947D02*
D03*
X3760Y1240D02*
D03*
Y1201D02*
D03*
X3760Y846D02*
D03*
Y886D02*
D03*
X3760Y1594D02*
D03*
Y1555D02*
D03*
X3760Y1102D02*
D03*
Y1063D02*
D03*
X3870Y1634D02*
D03*
Y1594D02*
D03*
X3760Y1457D02*
D03*
Y1417D02*
D03*
X3870Y1986D02*
D03*
Y1947D02*
D03*
X3760Y2260D02*
D03*
Y2299D02*
D03*
X3870Y1280D02*
D03*
Y1240D02*
D03*
X457Y815D02*
D03*
Y854D02*
D03*
X268Y646D02*
D03*
Y606D02*
D03*
X197Y606D02*
D03*
Y646D02*
D03*
X161Y646D02*
D03*
Y606D02*
D03*
X457Y1299D02*
D03*
Y1260D02*
D03*
X268Y1051D02*
D03*
Y1091D02*
D03*
X197D02*
D03*
Y1051D02*
D03*
X161D02*
D03*
Y1091D02*
D03*
X685Y2272D02*
D03*
Y2311D02*
D03*
X3760Y1770D02*
D03*
Y1809D02*
D03*
X3870Y2299D02*
D03*
Y2339D02*
D03*
X3760Y2122D02*
D03*
Y2161D02*
D03*
X3870Y886D02*
D03*
Y925D02*
D03*
X3760Y709D02*
D03*
Y748D02*
D03*
X3091Y1528D02*
D03*
Y1488D02*
D03*
X2878Y1528D02*
D03*
Y1488D02*
D03*
X3705Y2122D02*
D03*
Y2161D02*
D03*
X3705Y1102D02*
D03*
Y1063D02*
D03*
X3705Y709D02*
D03*
Y748D02*
D03*
X3705Y1457D02*
D03*
Y1417D02*
D03*
X3898Y1699D02*
D03*
Y1738D02*
D03*
X409Y606D02*
D03*
Y646D02*
D03*
X409Y1091D02*
D03*
Y1051D02*
D03*
X3937Y2051D02*
D03*
Y2091D02*
D03*
X3795Y2299D02*
D03*
Y2260D02*
D03*
X3937Y638D02*
D03*
Y677D02*
D03*
X3898Y1346D02*
D03*
Y1386D02*
D03*
X3976Y1386D02*
D03*
Y1346D02*
D03*
X3937Y1386D02*
D03*
Y1346D02*
D03*
X3976Y1699D02*
D03*
Y1738D02*
D03*
X3937Y1699D02*
D03*
Y1738D02*
D03*
X3898Y2051D02*
D03*
Y2091D02*
D03*
X303Y606D02*
D03*
Y646D02*
D03*
X232Y646D02*
D03*
Y606D02*
D03*
X339Y606D02*
D03*
Y646D02*
D03*
X303Y1091D02*
D03*
Y1051D02*
D03*
X126Y1051D02*
D03*
Y1091D02*
D03*
X232Y1091D02*
D03*
Y1051D02*
D03*
X339D02*
D03*
Y1091D02*
D03*
X890Y1579D02*
D03*
Y1618D02*
D03*
X3831Y2339D02*
D03*
Y2299D02*
D03*
X3976Y2091D02*
D03*
Y2051D02*
D03*
X3898Y992D02*
D03*
Y1031D02*
D03*
X3976Y1031D02*
D03*
Y992D02*
D03*
X3937Y1031D02*
D03*
Y992D02*
D03*
X3898Y677D02*
D03*
Y638D02*
D03*
X3976Y638D02*
D03*
Y677D02*
D03*
X91Y1051D02*
D03*
Y1091D02*
D03*
X969Y2217D02*
D03*
Y2256D02*
D03*
X3524Y1146D02*
D03*
Y1185D02*
D03*
X3555D02*
D03*
Y1146D02*
D03*
X3350Y1146D02*
D03*
Y1185D02*
D03*
X3382D02*
D03*
Y1146D02*
D03*
X3413D02*
D03*
Y1185D02*
D03*
D19*
X2874Y1193D02*
D03*
X2913D02*
D03*
X3480Y1413D02*
D03*
X3520D02*
D03*
X2913Y1291D02*
D03*
X2874D02*
D03*
X575Y1811D02*
D03*
X535D02*
D03*
X969Y2130D02*
D03*
X1008D02*
D03*
X610Y1811D02*
D03*
X650D02*
D03*
X516Y1512D02*
D03*
X555D02*
D03*
X610Y1929D02*
D03*
X650D02*
D03*
X303Y1776D02*
D03*
X264D02*
D03*
X559Y2193D02*
D03*
X520D02*
D03*
X654Y1512D02*
D03*
X614D02*
D03*
X1047Y2091D02*
D03*
X1087D02*
D03*
X484Y1512D02*
D03*
X445D02*
D03*
X969Y1933D02*
D03*
X1008D02*
D03*
X4106Y579D02*
D03*
X4067D02*
D03*
X4118Y2413D02*
D03*
X4157D02*
D03*
X4811Y378D02*
D03*
X4850D02*
D03*
X4811Y492D02*
D03*
X4850D02*
D03*
X4850Y598D02*
D03*
X4811D02*
D03*
X661Y504D02*
D03*
X622D02*
D03*
X807D02*
D03*
X768D02*
D03*
X2283Y827D02*
D03*
X2323D02*
D03*
Y858D02*
D03*
X2283D02*
D03*
X2283Y953D02*
D03*
X2323D02*
D03*
X2283Y984D02*
D03*
X2323D02*
D03*
X2323Y921D02*
D03*
X2283D02*
D03*
Y890D02*
D03*
X2323D02*
D03*
X378Y1512D02*
D03*
X339D02*
D03*
X3118Y1213D02*
D03*
X3079D02*
D03*
X1705Y268D02*
D03*
X1744D02*
D03*
X1618Y307D02*
D03*
X1657D02*
D03*
X1744Y307D02*
D03*
X1705D02*
D03*
X1047Y268D02*
D03*
X1087D02*
D03*
X1047Y307D02*
D03*
X1087D02*
D03*
X1000D02*
D03*
X961D02*
D03*
X3118Y1287D02*
D03*
X3079D02*
D03*
Y1248D02*
D03*
X3118D02*
D03*
X1142Y2228D02*
D03*
X1181D02*
D03*
Y2260D02*
D03*
X1142D02*
D03*
X386Y1854D02*
D03*
X346D02*
D03*
X421Y2012D02*
D03*
X461D02*
D03*
X165Y2047D02*
D03*
X205D02*
D03*
Y2075D02*
D03*
X165D02*
D03*
X205Y2102D02*
D03*
X165D02*
D03*
X1181Y2386D02*
D03*
X1142D02*
D03*
Y2417D02*
D03*
X1181D02*
D03*
X1142Y2354D02*
D03*
X1181D02*
D03*
X126Y854D02*
D03*
X87D02*
D03*
X87Y1299D02*
D03*
X126D02*
D03*
X3047Y760D02*
D03*
X3008D02*
D03*
Y854D02*
D03*
X3047D02*
D03*
X3047Y949D02*
D03*
X3008D02*
D03*
X3008Y1043D02*
D03*
X3047D02*
D03*
X1000Y268D02*
D03*
X961D02*
D03*
X1142Y2323D02*
D03*
X1181D02*
D03*
X1142Y2291D02*
D03*
X1181D02*
D03*
X3980Y2413D02*
D03*
X3941D02*
D03*
X299Y874D02*
D03*
X339D02*
D03*
X217Y874D02*
D03*
X256D02*
D03*
X339Y1319D02*
D03*
X299D02*
D03*
X217D02*
D03*
X256D02*
D03*
X3008Y1106D02*
D03*
X3047D02*
D03*
X3047Y728D02*
D03*
X3008D02*
D03*
Y791D02*
D03*
X3047D02*
D03*
X3047Y823D02*
D03*
X3008D02*
D03*
X3008Y886D02*
D03*
X3047D02*
D03*
Y917D02*
D03*
X3008D02*
D03*
Y980D02*
D03*
X3047D02*
D03*
X3047Y1012D02*
D03*
X3008D02*
D03*
Y1075D02*
D03*
X3047D02*
D03*
X386Y1890D02*
D03*
X346D02*
D03*
X3516Y945D02*
D03*
X3555D02*
D03*
Y980D02*
D03*
X3516D02*
D03*
X3413Y945D02*
D03*
X3374D02*
D03*
Y980D02*
D03*
X3413D02*
D03*
X1657Y268D02*
D03*
X1618D02*
D03*
D20*
X1854Y1898D02*
D03*
Y1842D02*
D03*
X1815Y1705D02*
D03*
Y1649D02*
D03*
X1874Y1649D02*
D03*
Y1705D02*
D03*
X1933Y1705D02*
D03*
Y1649D02*
D03*
X1992Y1705D02*
D03*
Y1649D02*
D03*
D26*
X1969Y1496D02*
D03*
D27*
X2126Y1350D02*
D03*
X2070D02*
D03*
X2070Y1413D02*
D03*
X2126D02*
D03*
D43*
X2988Y2132D02*
D03*
Y2073D02*
D03*
X122Y2358D02*
D03*
Y2299D02*
D03*
X55D02*
D03*
Y2358D02*
D03*
X1331Y2663D02*
D03*
Y2604D02*
D03*
X67Y1396D02*
D03*
Y1455D02*
D03*
X2240Y628D02*
D03*
Y687D02*
D03*
X465Y648D02*
D03*
Y589D02*
D03*
X3705Y1939D02*
D03*
Y1880D02*
D03*
X3705Y2226D02*
D03*
Y2285D02*
D03*
X3705Y1226D02*
D03*
Y1167D02*
D03*
X3705Y813D02*
D03*
Y872D02*
D03*
X390Y880D02*
D03*
Y821D02*
D03*
Y1266D02*
D03*
Y1325D02*
D03*
X3705Y1522D02*
D03*
Y1581D02*
D03*
D45*
X1927Y1534D02*
D03*
Y1494D02*
D03*
Y1455D02*
D03*
X1966D02*
D03*
Y1494D02*
D03*
Y1534D02*
D03*
X2006Y1455D02*
D03*
Y1494D02*
D03*
Y1534D02*
D03*
D49*
X3417Y1047D02*
D03*
X3371D02*
D03*
X3512Y1047D02*
D03*
X3558D02*
D03*
D50*
X3413Y1070D02*
D03*
X3394D02*
D03*
X3374D02*
D03*
Y1024D02*
D03*
X3394D02*
D03*
X3413D02*
D03*
X3555Y1024D02*
D03*
X3535D02*
D03*
X3516D02*
D03*
Y1070D02*
D03*
X3535D02*
D03*
X3555D02*
D03*
D60*
X4889Y378D02*
D03*
Y433D02*
D03*
Y492D02*
D03*
Y548D02*
D03*
Y599D02*
D03*
Y654D02*
D03*
X1012Y2311D02*
D03*
Y2256D02*
D03*
D64*
X2835Y547D02*
D03*
X2614D02*
D03*
X2669D02*
D03*
X2724D02*
D03*
X2780D02*
D03*
X2961Y728D02*
D03*
X4622Y1646D02*
D03*
X4110Y118D02*
D03*
X3232Y1293D02*
D03*
X4236Y1622D02*
D03*
Y1972D02*
D03*
X4559Y1646D02*
D03*
X4496D02*
D03*
X4843Y2248D02*
D03*
X2961Y882D02*
D03*
Y831D02*
D03*
Y780D02*
D03*
X1807Y1598D02*
D03*
X4705Y1378D02*
D03*
X2071Y1307D02*
D03*
X3969Y886D02*
D03*
X3972Y1217D02*
D03*
X173Y1319D02*
D03*
Y894D02*
D03*
X4705Y1299D02*
D03*
X4028Y118D02*
D03*
X4366Y331D02*
D03*
X409Y685D02*
D03*
X4685Y1646D02*
D03*
X409Y1126D02*
D03*
X4193Y118D02*
D03*
X1874Y433D02*
D03*
X1512Y370D02*
D03*
D65*
X3850Y1474D02*
D03*
Y1506D02*
D03*
X3882D02*
D03*
Y1474D02*
D03*
X3850Y2179D02*
D03*
Y2210D02*
D03*
X3882D02*
D03*
Y2179D02*
D03*
X3850Y765D02*
D03*
Y797D02*
D03*
X3882D02*
D03*
Y765D02*
D03*
X3850Y1827D02*
D03*
Y1858D02*
D03*
X3882D02*
D03*
Y1827D02*
D03*
X3882Y1120D02*
D03*
Y1151D02*
D03*
X3850D02*
D03*
Y1120D02*
D03*
D66*
X4783Y827D02*
D03*
Y906D02*
D03*
Y984D02*
D03*
Y1063D02*
D03*
X4862Y827D02*
D03*
Y906D02*
D03*
Y984D02*
D03*
Y1063D02*
D03*
X4783Y1142D02*
D03*
Y1220D02*
D03*
Y1299D02*
D03*
Y1378D02*
D03*
Y1457D02*
D03*
Y1535D02*
D03*
X4862Y1142D02*
D03*
Y1220D02*
D03*
Y1299D02*
D03*
Y1378D02*
D03*
Y1457D02*
D03*
Y1535D02*
D03*
D67*
X1114Y2492D02*
D03*
X1350D02*
D03*
X1272D02*
D03*
X1193D02*
D03*
X1429D02*
D03*
D68*
X1508D02*
D03*
D69*
X4606Y2439D02*
D03*
Y117D02*
D03*
X354D02*
D03*
Y2439D02*
D03*
D70*
X4719Y431D02*
D03*
Y605D02*
D03*
D71*
X3541Y256D02*
D03*
X3455Y799D02*
D03*
X3019Y256D02*
D03*
X3441D02*
D03*
X3355Y799D02*
D03*
X3255D02*
D03*
X3205Y699D02*
D03*
X3155Y799D02*
D03*
X3105Y699D02*
D03*
X3305D02*
D03*
X3405D02*
D03*
X3119Y256D02*
D03*
D72*
X2959Y569D02*
D03*
X3601D02*
D03*
D73*
X3505Y449D02*
D03*
X3055D02*
D03*
D74*
X3031Y1799D02*
D03*
Y1878D02*
D03*
X1929Y1799D02*
D03*
X2008D02*
D03*
X2087D02*
D03*
X2165D02*
D03*
X2244D02*
D03*
X2323D02*
D03*
X1929Y1878D02*
D03*
X2008D02*
D03*
X2087D02*
D03*
X2165D02*
D03*
X2244D02*
D03*
X2323D02*
D03*
X2402Y1799D02*
D03*
X2480D02*
D03*
X2559D02*
D03*
X2638D02*
D03*
X2402Y1878D02*
D03*
X2480D02*
D03*
X2559D02*
D03*
X2638D02*
D03*
X2717Y1799D02*
D03*
X2795D02*
D03*
X2874D02*
D03*
X2953D02*
D03*
X2717Y1878D02*
D03*
X2795D02*
D03*
X2874D02*
D03*
X2953D02*
D03*
D107*
X4024Y2413D02*
D03*
X4079D02*
D03*
X3433Y83D02*
D03*
X3488D02*
D03*
X3358D02*
D03*
X3303D02*
D03*
X3224Y83D02*
D03*
X3169D02*
D03*
X3039Y83D02*
D03*
X3094D02*
D03*
X3898Y2413D02*
D03*
X3843D02*
D03*
D108*
X274Y1273D02*
D03*
Y1137D02*
D03*
X215D02*
D03*
Y1273D02*
D03*
Y828D02*
D03*
Y692D02*
D03*
X274D02*
D03*
Y828D02*
D03*
D109*
X312Y1244D02*
D03*
Y1224D02*
D03*
Y1205D02*
D03*
Y1185D02*
D03*
Y1165D02*
D03*
X176D02*
D03*
Y1185D02*
D03*
Y1205D02*
D03*
Y1224D02*
D03*
Y1244D02*
D03*
Y799D02*
D03*
Y780D02*
D03*
Y760D02*
D03*
Y740D02*
D03*
Y720D02*
D03*
X312D02*
D03*
Y740D02*
D03*
Y760D02*
D03*
Y780D02*
D03*
Y799D02*
D03*
D110*
X244Y1205D02*
D03*
X244Y760D02*
D03*
D111*
X1413Y2318D02*
D03*
D112*
X1563Y2243D02*
D03*
Y2293D02*
D03*
Y2343D02*
D03*
Y2393D02*
D03*
X1264D02*
D03*
Y2343D02*
D03*
Y2293D02*
D03*
Y2243D02*
D03*
D113*
X2224Y1677D02*
D03*
X2244D02*
D03*
X2264D02*
D03*
Y1701D02*
D03*
X2244D02*
D03*
D114*
X2224Y1700D02*
D03*
D115*
X4571Y1177D02*
D03*
Y1127D02*
D03*
Y1077D02*
D03*
Y1027D02*
D03*
X4366Y1177D02*
D03*
Y1127D02*
D03*
Y1077D02*
D03*
Y1027D02*
D03*
D116*
X4150Y1972D02*
D03*
Y1720D02*
D03*
X4150Y1016D02*
D03*
Y1268D02*
D03*
X4150Y913D02*
D03*
Y661D02*
D03*
X4150Y1622D02*
D03*
Y1370D02*
D03*
X4150Y2327D02*
D03*
Y2075D02*
D03*
D117*
X3866Y1490D02*
D03*
X3866Y2194D02*
D03*
X3866Y781D02*
D03*
X3866Y1843D02*
D03*
X3866Y1135D02*
D03*
D118*
X3896Y1549D02*
D03*
X3876D02*
D03*
X3856D02*
D03*
X3837D02*
D03*
Y1431D02*
D03*
X3856D02*
D03*
X3876D02*
D03*
X3896D02*
D03*
X3896Y2254D02*
D03*
X3876D02*
D03*
X3856D02*
D03*
X3837D02*
D03*
Y2135D02*
D03*
X3856D02*
D03*
X3876D02*
D03*
X3896D02*
D03*
X3896Y840D02*
D03*
X3876D02*
D03*
X3856D02*
D03*
X3837D02*
D03*
Y722D02*
D03*
X3856D02*
D03*
X3876D02*
D03*
X3896D02*
D03*
X3896Y1902D02*
D03*
X3876D02*
D03*
X3856D02*
D03*
X3837D02*
D03*
Y1783D02*
D03*
X3856D02*
D03*
X3876D02*
D03*
X3896D02*
D03*
X3896Y1076D02*
D03*
X3876D02*
D03*
X3856D02*
D03*
X3837D02*
D03*
Y1194D02*
D03*
X3856D02*
D03*
X3876D02*
D03*
X3896D02*
D03*
D119*
X3807Y1520D02*
D03*
Y1500D02*
D03*
Y1480D02*
D03*
Y1461D02*
D03*
X3925D02*
D03*
Y1480D02*
D03*
Y1500D02*
D03*
Y1520D02*
D03*
X3807Y2224D02*
D03*
Y2204D02*
D03*
Y2185D02*
D03*
Y2165D02*
D03*
X3925D02*
D03*
Y2185D02*
D03*
Y2204D02*
D03*
Y2224D02*
D03*
X3807Y811D02*
D03*
Y791D02*
D03*
Y771D02*
D03*
Y752D02*
D03*
X3925D02*
D03*
Y771D02*
D03*
Y791D02*
D03*
Y811D02*
D03*
X3807Y1872D02*
D03*
Y1852D02*
D03*
Y1833D02*
D03*
Y1813D02*
D03*
X3925D02*
D03*
Y1833D02*
D03*
Y1852D02*
D03*
Y1872D02*
D03*
X3925Y1165D02*
D03*
Y1145D02*
D03*
Y1126D02*
D03*
Y1106D02*
D03*
X3807D02*
D03*
Y1126D02*
D03*
Y1145D02*
D03*
Y1165D02*
D03*
D120*
X3701Y2366D02*
D03*
X3756D02*
D03*
D122*
X2894Y748D02*
D03*
Y787D02*
D03*
Y827D02*
D03*
Y866D02*
D03*
Y906D02*
D03*
Y945D02*
D03*
Y984D02*
D03*
Y1024D02*
D03*
Y1063D02*
D03*
X2854Y748D02*
D03*
Y787D02*
D03*
Y827D02*
D03*
Y866D02*
D03*
Y906D02*
D03*
Y945D02*
D03*
Y984D02*
D03*
Y1024D02*
D03*
Y1063D02*
D03*
X2815Y748D02*
D03*
Y787D02*
D03*
Y827D02*
D03*
Y866D02*
D03*
Y906D02*
D03*
Y945D02*
D03*
Y984D02*
D03*
Y1024D02*
D03*
Y1063D02*
D03*
X2776Y748D02*
D03*
Y787D02*
D03*
Y827D02*
D03*
Y866D02*
D03*
Y906D02*
D03*
Y945D02*
D03*
Y984D02*
D03*
Y1024D02*
D03*
Y1063D02*
D03*
X2736Y748D02*
D03*
Y787D02*
D03*
Y827D02*
D03*
Y866D02*
D03*
Y906D02*
D03*
Y945D02*
D03*
Y984D02*
D03*
Y1024D02*
D03*
Y1063D02*
D03*
X2697Y748D02*
D03*
Y787D02*
D03*
Y827D02*
D03*
Y866D02*
D03*
Y906D02*
D03*
Y945D02*
D03*
Y984D02*
D03*
Y1024D02*
D03*
Y1063D02*
D03*
X2657Y748D02*
D03*
Y787D02*
D03*
Y827D02*
D03*
Y866D02*
D03*
Y906D02*
D03*
Y945D02*
D03*
Y984D02*
D03*
Y1024D02*
D03*
Y1063D02*
D03*
X2618Y748D02*
D03*
Y787D02*
D03*
Y827D02*
D03*
Y866D02*
D03*
Y906D02*
D03*
Y945D02*
D03*
Y984D02*
D03*
Y1024D02*
D03*
Y1063D02*
D03*
X2579Y748D02*
D03*
Y787D02*
D03*
Y827D02*
D03*
Y866D02*
D03*
Y906D02*
D03*
Y945D02*
D03*
Y984D02*
D03*
Y1024D02*
D03*
Y1063D02*
D03*
X2539Y748D02*
D03*
Y787D02*
D03*
Y827D02*
D03*
Y866D02*
D03*
Y906D02*
D03*
Y945D02*
D03*
Y984D02*
D03*
Y1024D02*
D03*
Y1063D02*
D03*
X2500Y748D02*
D03*
Y787D02*
D03*
Y827D02*
D03*
Y866D02*
D03*
Y906D02*
D03*
Y945D02*
D03*
Y984D02*
D03*
Y1024D02*
D03*
Y1063D02*
D03*
X2461Y748D02*
D03*
Y787D02*
D03*
Y827D02*
D03*
Y866D02*
D03*
Y906D02*
D03*
Y945D02*
D03*
Y984D02*
D03*
Y1024D02*
D03*
Y1063D02*
D03*
X2421Y748D02*
D03*
Y787D02*
D03*
Y827D02*
D03*
Y866D02*
D03*
Y906D02*
D03*
Y945D02*
D03*
Y984D02*
D03*
Y1024D02*
D03*
Y1063D02*
D03*
D123*
X732Y878D02*
D03*
Y628D02*
D03*
X591D02*
D03*
Y678D02*
D03*
Y778D02*
D03*
Y878D02*
D03*
Y928D02*
D03*
Y1028D02*
D03*
Y1078D02*
D03*
Y1178D02*
D03*
Y1278D02*
D03*
Y578D02*
D03*
Y728D02*
D03*
Y828D02*
D03*
Y978D02*
D03*
Y1128D02*
D03*
Y1228D02*
D03*
X732Y578D02*
D03*
Y728D02*
D03*
Y778D02*
D03*
Y828D02*
D03*
Y928D02*
D03*
Y978D02*
D03*
Y1028D02*
D03*
Y1078D02*
D03*
Y1128D02*
D03*
Y1178D02*
D03*
Y1228D02*
D03*
Y1278D02*
D03*
Y678D02*
D03*
M02*
