M48
;Layer_Color=9474304
;FILE_FORMAT=2:3
INCH,LZ
;TYPE=PLATED
T1F00S00C0.012
T2F00S00C0.016
T3F00S00C0.020
T4F00S00C0.031
T5F00S00C0.035
T6F00S00C0.039
T7F00S00C0.067
T8F00S00C0.126
%
T01
X0385Y00765
Y00797
X03882
Y00765
X03882Y0112
Y01151
X0385
Y0112
X02756Y01024
X02717Y01063
X02677Y00984
Y00945
X02717
Y00906
X02677
Y00866
Y00827
Y00787
X02717Y00748
Y00866
X02756
Y00906
X02638
X02598
Y00866
X02559
Y00827
Y00787
X02598
Y00748
X0252
X0248Y00787
Y00827
X0252
Y00866
X0248
X02441
Y00827
X0248Y00906
X0252
X02559
Y00945
Y00984
X0252
Y00945
X0248
X02598
X02638
Y00866
Y00827
X02402Y00748
X0199Y00737
Y00711
Y00683
Y00656
Y00628
Y00766
Y00792
Y00821
Y00848
X01815Y00539
X01783Y00539
X01752Y00539
X01508Y00646
X01508Y00677
X01622Y00309
X00996Y00315
X00878Y00656
X00878Y00687
X0089Y01362
X0085
X0085Y01402
X00811Y01402
X00929Y01402
X00969
Y01362
X01008Y01362
Y01402
X01087Y01362
X01205Y01402
X01283Y01362
X01402Y01402
X0148Y01362
X01598Y01402
X00531Y01434
X0052Y01512
X00488
Y01543
Y01575
X00492Y01661
X00523Y01669
X0052Y01701
X00488Y01701
X00457Y01731
X00457Y01763
X00485Y01791
X00524Y01791
X00446Y01838
X00398Y01839
X00417Y01882
X00366Y01886
X00331Y01906
X0033Y01937
Y01969
X00362Y01969
Y02
X00374Y02091
X00406
X00425Y02126
X00425Y02157
X00457
X00488
Y02189
X00457
X00421Y02217
X0039
X00346Y02217
X00307Y02217
X00264Y02217
X00248Y02241
X0021Y02218
X00181Y02221
X00144Y02208
X00143Y02241
X00118Y02185
X0013Y02138
X00109Y02112
X00156Y02161
X00148Y02007
X0015Y01975
X00173Y01957
X00154Y01909
X00146Y01866
X00122Y01839
X00114Y01783
X00102Y01701
X00094Y0163
X00094Y01598
X00075Y01571
X00154
X00174Y01543
X00202
X00205Y01512
X00224Y0148
X00261Y01442
X00331Y01512
Y01543
X00363
X00362Y01484
X00394Y01453
X00421Y01433
X00408Y01608
X00378Y01634
X00338Y01637
X00346Y01666
X00403Y01669
X00437Y01648
X00458Y01667
X00315Y01602
X003Y01543
X00216Y01622
X00185Y01622
X00236Y01701
X00236Y01732
X00268Y01732
X00299Y01732
Y01764
Y01795
X00335Y01835
X00252Y01831
X00236Y0187
X00275Y01906
X00268Y02031
X00299Y02126
X00331Y02126
Y02157
X00394Y02157
X00488Y02126
X0052Y02102
X0052Y02157
Y02189
X0052Y02
Y01968
X00487Y01969
Y01937
Y02
X00461Y02051
X00236Y01764
X00205
X00143Y0152
X00551Y01512
X00583
X00582Y01544
X00551Y01543
X00582Y01576
X0061Y01596
X00647
X00677Y01543
Y01512
X00646Y01512
X00614Y01543
X00606Y01453
X00571
X00713Y01531
X00772Y0152
X00772Y01598
X00811Y01598
Y01638
X0085
Y01677
X0089
X00929
Y01638
X0089Y01638
Y01598
Y01559
Y0148
Y01441
X00929
X00969Y01441
X00969Y0148
Y0152
X00929Y0152
X0085Y0148
X00811
X00717Y01618
X00772Y01717
Y01756
Y01795
X00811
X00811Y01835
X00811Y01874
X0085
X0089
Y01913
X00929
Y01953
Y01992
Y02031
X0089
X0085
Y02071
Y0211
Y0215
Y02189
X00811
X00772Y02189
X00772Y0211
Y02071
Y02031
X00811Y01992
Y01953
Y01913
X00772
X00732Y01913
X00677Y01937
Y01969
X00646
X00648Y01999
X00614Y02
X00583Y01969
Y01937
X00551
X0055Y01969
X00555Y02051
X00642Y0205
X00646Y02189
X00677
X00552Y02189
X00551Y02157
X00583
X00567Y01894
X00583Y01764
X00614
X00646
Y01733
X00645Y01701
X00583Y01681
X00552Y01669
X00552Y01701
X00551Y01732
X00583
X00677Y01764
X0085Y01756
X0089
Y01795
X00929
Y01756
Y01717
X00969
X01008
Y01677
X00969
Y01756
X01008
Y01795
X01047
Y01756
Y01717
Y01677
Y01638
Y01598
X01008
Y01638
X01087
X01126
Y01598
Y01559
X01087
X01047
X01087Y01598
X01165
X01205
Y01638
Y01677
X01244
X01244Y01638
Y01598
Y01559
X01283Y01559
X01362Y0152
X01402Y01598
X0148
X0152
Y01638
X0148
Y01677
Y01717
X01441Y01717
Y01677
Y01756
Y01795
Y01835
Y01874
Y01913
X0148Y01913
Y01874
Y01835
X0152
Y01874
Y01795
X0148
Y01756
X01402Y01795
X01402Y01835
Y01874
X01362Y01913
X01283Y01953
X01205
Y01913
Y01874
Y01835
X01165
Y01795
X01126
Y01756
Y01717
Y01677
X01087
Y01717
Y01756
Y01795
Y01835
X01047
Y01874
X01008
X00969
Y01913
Y01953
Y01992
Y02031
Y02071
Y0211
X0089
Y02071
X00929Y0215
Y02189
X00909Y02244
X0087
X01008Y02189
X01047
Y0215
Y0211
Y02071
Y02031
Y01992
Y01953
Y01913
X01087
X01126
Y01874
X01087
Y01953
X01126
Y01992
Y02031
Y02071
Y0211
Y0215
Y02189
X01165
X01205
Y0215
Y0211
Y02071
X01244
X01165
Y0211
Y0215
X01087
Y0211
Y02071
Y02031
Y01992
X01165
Y02031
Y01913
Y01874
X01244
X01283Y01756
X01165
Y01717
Y01677
Y01638
Y0152
X01205Y0152
X01244Y0148
X01323Y01441
X01441Y0148
X0148
Y0152
X0152
Y0148
Y01441
X0148
Y01559
X0152
X01559Y0152
X01559Y01598
X01598Y01598
X0152Y01677
X01559Y01717
X01598Y01795
X01638Y01795
X01559Y01913
X01598Y01992
X0152Y02031
X01559Y0211
X01598Y02189
X0148Y0215
X01441Y02071
X01362Y0211
X01323Y02031
X01402Y01992
X0148Y01953
X01402Y02189
X01087
X01008Y0215
Y02031
Y01992
Y01953
Y01913
Y01835
X00929
X0085Y01717
X01047Y0148
X01126Y01441
X00773Y02394
X00661Y02398
X0385Y0221
Y02179
X03882
Y0221
X03882Y01858
X0385
Y01826
X03882
X03882Y01505
Y01474
X0385
Y01505
T02
X03705Y00677
X03937Y00713
X03801Y00886
X03803Y00925
X03705Y01035
X03937Y01067
X03801Y01228
X03803Y0128
X03705Y01386
X03949Y01413
X04425Y01248
Y0115
X04421Y01098
X04677Y01052
X04823Y01051
X04823Y01102
X04823Y01201
X0482Y01305
X04822Y0135
X04823Y01402
X04677Y01252
Y01201
X04543Y00604
X04543Y00524
X04543Y00481
X04508Y00433
X04539Y00339
X04469Y00339
X04299Y00339
X04279Y00378
X0432Y00379
X04322Y00502
Y00559
X04413Y00575
X04413Y00528
X04448Y00607
Y0065
X0426Y0065
X0422Y0065
X04244Y00744
X04232Y00524
X04146Y00583
X04547Y00187
X04606Y00207
X04675Y00177
X04695Y00118
X04675Y00059
X04606Y0003
X04547Y00049
X04518Y00118
X04811Y00406
X02398Y00177
X02268Y01311
X0213Y01315
X02024Y01382
X01983Y01383
X01965Y01335
X01891Y01398
X0187Y01275
X01992Y00894
X01558Y00894
Y01012
X01559Y01051
X01465Y01031
Y00835
X01249Y00893
X01248Y01012
X00807Y01028
Y0098
X00815Y0111
X00516Y01028
Y00976
Y00929
Y00878
Y00827
Y00776
Y00728
X00453Y00776
X00413
X00374
X00268Y00783
X0022
Y00736
X00268
X00244Y00849
X00319Y00839
X00437Y00878
X00409Y01016
X0037
X00327
X00268Y01016
X00197
X00161
X00126
X00091Y01118
X00118Y01197
Y01232
X0022Y01228
Y01181
X00268
Y01228
X00244Y01294
X00319Y01283
X00374Y0122
X00413
X00453
X00437Y01323
X00346Y0113
X00118Y00787
Y00752
X00124Y00673
X00161Y00571
X00197
X00268
X00327Y00571
X0037
X00409
X00465Y00551
X00423Y00177
X00443Y00118
X00423Y00059
X00354Y0003
X00295Y00049
X00266Y00118
X00295Y00187
X00354Y00207
X00039Y01646
Y0235
X00126
Y02476
X00059
X00266Y02441
X00295Y0251
X00354Y0253
X00423Y025
X00443Y02441
X00423Y02382
X00354Y02352
X00295Y02372
X00524Y02343
Y02287
X00622Y02244
X00709Y02311
Y02358
X00724Y02402
X00804Y02425
X00812Y02354
X00914
X0093Y02425
X01013Y02354
X01052Y02299
X01092
Y02406
X01013Y025
X00966Y02303
X00701Y02512
X00634
X00563
X01838Y01626
X01878Y01626
X01865Y01429
X01811Y01429
X02131Y01451
X02217Y0146
X02268
X02319
X02366
X02461Y01461
X02508
X02559
X02669Y01465
X02717
X02768
X02882Y01461
X02929
X0298
X03091
X03138
X03189
X03118Y01528
X03031Y01563
X02909Y01528
X02819Y01567
X02697Y01531
X0261Y01563
X02488Y01528
X02217Y01563
X0217Y01682
X02169Y01724
X02283Y01748
X03244Y01733
Y01776
Y01828
Y0187
X03205Y01895
X03345Y01907
X03367Y01942
X03409Y01949
X03391Y01888
X03429Y01858
X03429Y01756
X03571Y01772
X03571Y01728
Y01862
Y01929
Y01984
X03571Y02047
Y02098
Y0215
Y02189
X03409Y02154
X03374Y02126
X0336Y02074
X03406Y02071
X03426Y02011
X03386Y02008
X03661Y01929
X03671Y01768
X03661Y01583
X0324Y01563
X03835Y01594
X03843Y01713
X03705Y0174
X03756Y02035
X03705Y02091
X03874Y02051
X03839Y01976
X04063Y01972
X04031Y01933
Y01803
X04063Y01713
X04031Y01673
X04035Y01583
X04264Y01555
Y01701
Y01823
Y01953
X04047Y02098
X03972Y02276
X04024Y02382
X03843
X03803Y02339
X03756Y02398
X03705Y02327
X04547Y02372
X04606Y02352
X04675Y02382
X04695Y02441
X04675Y025
X04606Y0253
X04547Y0251
X04518Y02441
X04677Y015
Y01453
X04823Y01449
Y01504
T03
X04366Y00331
X04917Y00709
Y00768
Y00827
X04622Y01354
X04622Y01409
X03972Y01217
X03969Y00886
X02862Y00661
X02429Y00657
X02358
X02291Y00661
X02291Y00583
X02362Y00587
X02429
X02354Y00252
X02748Y00248
X02071Y01307
X01831Y0139
X01453Y00984
Y00933
X01453Y00882
X00945Y01063
X00949Y01114
X00917Y01181
X00886Y01272
X00409Y01126
X00173Y01319
X00173Y00874
X00409Y00685
X01927Y01486
X01966
X02006
Y01526
X01966
Y01565
X02006
X01927
Y01526
X04276Y01508
X04276Y01598
X04276Y01654
Y01772
Y01902
Y02004
Y02079
T04
X01146Y02492
X01224
X01303
X01382
X01461
X01539
X01929Y01878
Y01799
X02008
X02087
Y01878
X02008
X02165
X02244
Y01799
X02165
X02323
X02402
X0248
X02559
X02638
Y01878
X02559
X0248
X02402
X02323
X02717
Y01799
X02795
X02874
X02953
X03031
Y01878
X02953
X02874
X02795
T05
X02924Y00252
X03024
X03346
X03446
X0331Y00695
X0321
X0311
X0301
X0306Y00795
X0316
X0326
X0336
T06
X04719Y00431
Y00605
T07
X02864Y00565
X03506
T08
X04606Y00117
X0341Y00445
X0296
X00354Y00117
Y02439
X04606
M30
