G04*
G04 #@! TF.GenerationSoftware,Altium Limited,Altium Designer,20.2.6 (244)*
G04*
G04 Layer_Color=65535*
%FSLAX23Y23*%
%MOIN*%
G70*
G04*
G04 #@! TF.SameCoordinates,520E5D0B-E6D2-46CB-9709-C91B8BCBD3B5*
G04*
G04*
G04 #@! TF.FilePolarity,Positive*
G04*
G01*
G75*
%ADD10C,0.008*%
%ADD11C,0.010*%
%ADD12C,0.010*%
%ADD13C,0.003*%
%ADD14C,0.006*%
%ADD15C,0.006*%
%ADD16C,0.001*%
G36*
X772Y2228D02*
X732Y2189D01*
Y2228D01*
X772D01*
D02*
G37*
D10*
X2861Y547D02*
G03*
X2861Y547I-26J0D01*
G01*
X2640D02*
G03*
X2640Y547I-26J0D01*
G01*
X2695D02*
G03*
X2695Y547I-26J0D01*
G01*
X2750D02*
G03*
X2750Y547I-26J0D01*
G01*
X2806D02*
G03*
X2806Y547I-26J0D01*
G01*
X2987Y728D02*
G03*
X2987Y728I-26J0D01*
G01*
X1620Y99D02*
G03*
X1620Y99I-2J0D01*
G01*
X4648Y1646D02*
G03*
X4648Y1646I-26J0D01*
G01*
X3132Y1290D02*
G03*
X3132Y1290I-6J0D01*
G01*
X4136Y118D02*
G03*
X4136Y118I-26J0D01*
G01*
X4262Y1622D02*
G03*
X4262Y1622I-26J0D01*
G01*
Y1972D02*
G03*
X4262Y1972I-26J0D01*
G01*
X4585Y1646D02*
G03*
X4585Y1646I-26J0D01*
G01*
X4522D02*
G03*
X4522Y1646I-26J0D01*
G01*
X4742Y1722D02*
G03*
X4742Y1722I-6J0D01*
G01*
X4742Y1852D02*
G03*
X4742Y1852I-6J0D01*
G01*
Y1982D02*
G03*
X4742Y1982I-6J0D01*
G01*
X4742Y2112D02*
G03*
X4742Y2112I-6J0D01*
G01*
X4869Y2248D02*
G03*
X4869Y2248I-26J0D01*
G01*
X962Y99D02*
G03*
X962Y99I-2J0D01*
G01*
X2987Y882D02*
G03*
X2987Y882I-26J0D01*
G01*
Y831D02*
G03*
X2987Y831I-26J0D01*
G01*
Y780D02*
G03*
X2987Y780I-26J0D01*
G01*
X1833Y1598D02*
G03*
X1833Y1598I-26J0D01*
G01*
X4731Y1378D02*
G03*
X4731Y1378I-26J0D01*
G01*
X2097Y1307D02*
G03*
X2097Y1307I-26J0D01*
G01*
X4731Y1299D02*
G03*
X4731Y1299I-26J0D01*
G01*
X4054Y118D02*
G03*
X4054Y118I-26J0D01*
G01*
X4392Y331D02*
G03*
X4392Y331I-26J0D01*
G01*
X4711Y1646D02*
G03*
X4711Y1646I-26J0D01*
G01*
X4219Y118D02*
G03*
X4219Y118I-26J0D01*
G01*
X1900Y433D02*
G03*
X1900Y433I-26J0D01*
G01*
X1538Y370D02*
G03*
X1538Y370I-26J0D01*
G01*
X4491Y534D02*
G03*
X4491Y534I2J-2D01*
G01*
X2754Y403D02*
Y518D01*
X2695D02*
X2754D01*
X2695Y403D02*
Y518D01*
Y403D02*
X2754D01*
X3088Y1472D02*
Y1551D01*
X3066Y1472D02*
X3262D01*
X3066Y1551D02*
X3262D01*
X3066Y1472D02*
Y1551D01*
X3262Y1472D02*
Y1551D01*
X2879Y1472D02*
Y1551D01*
X2857Y1472D02*
X3054D01*
X2857Y1551D02*
X3054D01*
X2857Y1472D02*
Y1551D01*
X3054Y1472D02*
Y1551D01*
X2666Y1472D02*
Y1551D01*
X2644Y1472D02*
X2841D01*
X2644Y1551D02*
X2841D01*
X2644Y1472D02*
Y1551D01*
X2841Y1472D02*
Y1551D01*
X2458Y1472D02*
Y1551D01*
X2436Y1472D02*
X2632D01*
X2436Y1551D02*
X2632D01*
X2436Y1472D02*
Y1551D01*
X2632Y1472D02*
Y1551D01*
X2231Y1472D02*
Y1551D01*
X2209Y1472D02*
X2406D01*
X2209Y1551D02*
X2406D01*
X2209Y1472D02*
Y1551D01*
X2406Y1472D02*
Y1551D01*
X1968Y1217D02*
Y1330D01*
X1955Y1343D02*
X1968Y1330D01*
X1819Y1343D02*
X1955D01*
X1819Y1217D02*
Y1343D01*
Y1217D02*
X1968D01*
X2071Y1583D02*
Y1598D01*
X2055D02*
X2071D01*
X1866Y1394D02*
X1882D01*
X1866D02*
Y1410D01*
X2061Y1400D02*
X2077D01*
X2053Y1392D02*
X2061Y1400D01*
X1866Y1598D02*
X1882D01*
X1866Y1583D02*
Y1598D01*
X2246Y1348D02*
X2361D01*
X2246Y1289D02*
Y1348D01*
Y1289D02*
X2361D01*
Y1348D01*
X4420Y650D02*
Y763D01*
X4407Y776D02*
X4420Y763D01*
X4272Y776D02*
X4407D01*
X4272Y650D02*
Y776D01*
Y650D02*
X4420D01*
X4813Y1710D02*
Y1825D01*
Y1710D02*
X4872D01*
Y1825D01*
X4813D02*
X4872D01*
X4813Y1956D02*
X4872D01*
Y1841D02*
Y1956D01*
X4813Y1841D02*
X4872D01*
X4813D02*
Y1956D01*
Y2085D02*
X4872D01*
Y1970D02*
Y2085D01*
X4813Y1970D02*
X4872D01*
X4813D02*
Y2085D01*
Y2215D02*
X4872D01*
Y2100D02*
Y2215D01*
X4813Y2100D02*
X4872D01*
X4813D02*
Y2215D01*
X2771Y587D02*
Y700D01*
X2758Y713D02*
X2771Y700D01*
X2622Y713D02*
X2758D01*
X2622Y587D02*
Y713D01*
Y587D02*
X2771D01*
X915Y844D02*
Y959D01*
X856D02*
X915D01*
X856Y844D02*
Y959D01*
Y844D02*
X915D01*
X1210Y556D02*
X1247D01*
X1210Y519D02*
X1247Y556D01*
X1210Y519D02*
Y556D01*
X600Y1180D02*
Y1210D01*
X658Y1135D02*
Y1170D01*
Y1219D02*
Y1254D01*
X602D02*
X658D01*
X602Y1135D02*
X658D01*
X47Y573D02*
X445D01*
X47Y970D02*
X445D01*
X47Y1415D02*
X445D01*
X47Y1018D02*
X445D01*
X2994Y1175D02*
X3053D01*
X2994D02*
Y1290D01*
X3053D01*
Y1175D02*
Y1290D01*
X3107Y1194D02*
X3163D01*
X3107Y1310D02*
X3163D01*
X2798Y1284D02*
Y1300D01*
X2888D01*
Y1284D02*
Y1300D01*
X2798Y1186D02*
Y1202D01*
Y1186D02*
X2888D01*
Y1202D01*
X4500Y1055D02*
X4563D01*
X4500D02*
Y1134D01*
X4563D01*
Y1055D02*
Y1134D01*
X4577Y1045D02*
X4610D01*
X4577Y1144D02*
X4610D01*
X4563Y1154D02*
Y1232D01*
X4500D02*
X4563D01*
X4500Y1154D02*
Y1232D01*
Y1154D02*
X4563D01*
X4699Y1702D02*
X4756D01*
X4699Y1818D02*
X4755D01*
X4699Y1832D02*
X4756D01*
X4699Y1948D02*
X4755D01*
X4699Y1962D02*
X4756D01*
X4699Y2078D02*
X4755D01*
X4699Y2092D02*
X4756D01*
X4699Y2208D02*
X4755D01*
X732Y1323D02*
X1638D01*
X732Y2228D02*
X1638D01*
Y1323D02*
Y2228D01*
X732Y1323D02*
Y2228D01*
Y2189D02*
X772Y2228D01*
X650Y307D02*
X713D01*
X650D02*
Y386D01*
X713D01*
Y307D02*
Y386D01*
X726Y297D02*
X760D01*
X602Y537D02*
X636D01*
X650Y449D02*
Y528D01*
Y449D02*
X713D01*
Y528D01*
X650D02*
X713D01*
X1059Y2548D02*
X1563D01*
X1059Y2438D02*
Y2548D01*
Y2438D02*
X1563Y2438D01*
Y2548D01*
X825Y372D02*
X884D01*
Y257D02*
Y372D01*
X825Y257D02*
X884D01*
X825D02*
Y372D01*
X1219Y467D02*
X1278D01*
Y352D02*
Y467D01*
X1219Y352D02*
X1278D01*
X1219D02*
Y467D01*
X2285Y403D02*
X2344D01*
X2285D02*
Y518D01*
X2344D01*
Y403D02*
Y518D01*
X1514Y844D02*
X1573D01*
X1514D02*
Y959D01*
X1573D01*
Y844D02*
Y959D01*
X2502Y276D02*
X2766D01*
X2502Y150D02*
X2766D01*
Y276D01*
X2502Y150D02*
Y276D01*
X2093Y146D02*
Y272D01*
X2356Y146D02*
Y272D01*
X2093Y146D02*
X2356D01*
X2093Y272D02*
X2356D01*
X1867Y519D02*
Y556D01*
Y519D02*
X1904Y556D01*
X1867D02*
X1904D01*
X4875Y441D02*
Y466D01*
X4785Y441D02*
X4875D01*
X4785Y466D02*
X4875D01*
X4785Y571D02*
X4875D01*
Y596D01*
X4785D02*
X4875D01*
X4740Y506D02*
X4875Y496D01*
X4740Y506D02*
Y531D01*
X4875Y541D01*
X4577Y605D02*
Y676D01*
X4672D02*
X4786D01*
X4884Y361D02*
X4953D01*
Y676D01*
X4888D02*
X4953D01*
X4668Y361D02*
X4790D01*
X4546Y605D02*
X4577D01*
X4546Y431D02*
Y605D01*
Y431D02*
X4577D01*
Y361D02*
Y431D01*
X3591Y70D02*
X3591Y511D01*
X2969Y70D02*
Y511D01*
X3591Y626D02*
Y874D01*
X2969Y626D02*
Y874D01*
X3591D01*
X3088Y1759D02*
Y1909D01*
X1875Y1759D02*
Y1907D01*
Y1759D02*
X3088D01*
X3647Y2284D02*
X3732D01*
X3652Y1439D02*
X3736D01*
X3461Y1519D02*
X3506D01*
Y1439D02*
Y1519D01*
Y1439D02*
X3546D01*
X3461Y2205D02*
X3506D01*
Y2285D01*
X3546D01*
X764Y1179D02*
X764Y1199D01*
X732Y1179D02*
X732Y1199D01*
D11*
X1041Y2502D02*
G03*
X1041Y2502I-8J0D01*
G01*
X780Y2253D02*
G03*
X780Y2253I-8J0D01*
G01*
X2771Y331D02*
G03*
X2771Y331I-5J0D01*
G01*
X2361Y327D02*
G03*
X2361Y327I-5J0D01*
G01*
X4158Y608D02*
G03*
X4158Y608I-5J0D01*
G01*
D12*
X533Y2289D02*
G03*
X533Y2289I-4J0D01*
G01*
D13*
X2012Y1075D02*
G03*
X2008Y1075I-2J0D01*
G01*
X2008Y1075D02*
G03*
X2012Y1075I2J0D01*
G01*
X661Y768D02*
G03*
X661Y764I0J-2D01*
G01*
X661Y764D02*
G03*
X661Y768I0J2D01*
G01*
D14*
X4222Y1240D02*
Y1256D01*
X4250Y1240D02*
Y1256D01*
X2904Y1016D02*
Y1031D01*
X2876Y1016D02*
Y1031D01*
X2427Y1000D02*
Y1016D01*
X2455Y1000D02*
Y1016D01*
X2533Y1039D02*
Y1055D01*
X2506Y1039D02*
Y1055D01*
X2768Y770D02*
X2783D01*
X2768Y797D02*
X2783D01*
X2545Y1039D02*
Y1055D01*
X2573Y1039D02*
Y1055D01*
X2689Y797D02*
X2705D01*
X2689Y770D02*
X2705D01*
X3110Y1671D02*
X3126D01*
X3110Y1699D02*
X3126D01*
X2898D02*
X2913D01*
X2898Y1671D02*
X2913D01*
X2685Y1671D02*
X2701D01*
X2685Y1699D02*
X2701D01*
X2476Y1671D02*
X2492D01*
X2476Y1699D02*
X2492D01*
X1608Y109D02*
Y126D01*
X1736Y109D02*
Y126D01*
X1720Y237D02*
X1736D01*
X1608Y221D02*
Y237D01*
Y109D02*
X1624D01*
X1720D02*
X1736D01*
Y221D02*
Y237D01*
X1608D02*
X1624D01*
X161Y415D02*
X177D01*
X161Y388D02*
X177D01*
X2915Y898D02*
Y913D01*
X2888Y898D02*
Y913D01*
X2346Y719D02*
X2362D01*
X2346Y691D02*
X2362D01*
X2433D02*
X2449D01*
X2433Y719D02*
X2449D01*
X2781Y996D02*
Y1012D01*
X2809Y996D02*
Y1012D01*
X2841Y1016D02*
Y1031D01*
X2868Y1016D02*
Y1031D01*
X2781Y1067D02*
Y1083D01*
X2809Y1067D02*
Y1083D01*
X1116Y2272D02*
Y2287D01*
X1089Y2272D02*
Y2287D01*
X4514Y1571D02*
Y1587D01*
X4541Y1571D02*
Y1587D01*
X4577Y1571D02*
Y1587D01*
X4604Y1571D02*
Y1587D01*
X4459Y992D02*
Y1008D01*
X4486Y992D02*
Y1008D01*
X4581Y992D02*
Y1008D01*
X4608Y992D02*
Y1008D01*
X4482Y1571D02*
Y1587D01*
X4510Y1571D02*
Y1587D01*
X4573Y1571D02*
Y1587D01*
X4545Y1571D02*
Y1587D01*
X4608Y1571D02*
Y1587D01*
X4636Y1571D02*
Y1587D01*
X4667Y1571D02*
Y1587D01*
X4640Y1571D02*
Y1587D01*
X4734Y1571D02*
Y1587D01*
X4707Y1571D02*
Y1587D01*
X4699Y1571D02*
Y1587D01*
X4671Y1571D02*
Y1587D01*
X4559Y1931D02*
X4575D01*
X4559Y1904D02*
X4575D01*
X4559Y2061D02*
X4575D01*
X4559Y2033D02*
X4575D01*
X4559Y2187D02*
X4575D01*
X4559Y2159D02*
X4575D01*
X4563Y1801D02*
X4579D01*
X4563Y1774D02*
X4579D01*
X950Y237D02*
X967D01*
X1078Y221D02*
Y237D01*
X1062Y109D02*
X1078D01*
X950D02*
X967D01*
X950Y221D02*
Y237D01*
X1062D02*
X1078D01*
Y109D02*
Y125D01*
X950Y109D02*
Y125D01*
X630Y262D02*
X646D01*
X630Y289D02*
X646D01*
X630Y400D02*
X646D01*
X630Y427D02*
X646D01*
X3278Y916D02*
X3293D01*
X3278Y889D02*
X3293D01*
X3278Y950D02*
X3293D01*
X3278Y922D02*
X3293D01*
X2665Y1018D02*
X2681D01*
X2665Y990D02*
X2681D01*
X2551Y900D02*
X2567D01*
X2551Y872D02*
X2567D01*
X2841Y937D02*
Y953D01*
X2868Y937D02*
Y953D01*
X3337Y1248D02*
Y1264D01*
X3364Y1248D02*
Y1264D01*
X3364Y1654D02*
Y1669D01*
X3392Y1654D02*
Y1669D01*
X1961Y1085D02*
X1976D01*
X1961Y1112D02*
X1976D01*
X2024Y1014D02*
X2039D01*
X2024Y986D02*
X2039D01*
X1961Y1144D02*
X1976D01*
X1961Y1116D02*
X1976D01*
X2024Y978D02*
X2039D01*
X2024Y951D02*
X2039D01*
X1961Y1148D02*
X1976D01*
X1961Y1175D02*
X1976D01*
X2343Y1693D02*
Y1709D01*
X2315Y1693D02*
Y1709D01*
X2085Y1362D02*
Y1378D01*
X2112Y1362D02*
Y1378D01*
X2126Y1486D02*
X2142D01*
X2126Y1459D02*
X2142D01*
X2120Y1362D02*
Y1378D01*
X2148Y1362D02*
Y1378D01*
X1498Y315D02*
Y331D01*
X1526Y315D02*
Y331D01*
X1305Y409D02*
Y425D01*
X1278Y409D02*
Y425D01*
X919Y43D02*
Y59D01*
X892Y43D02*
Y59D01*
X1020Y2272D02*
Y2287D01*
X1047Y2272D02*
Y2287D01*
X673Y2502D02*
X689D01*
X673Y2474D02*
X689D01*
X2585Y756D02*
Y772D01*
X2612Y756D02*
Y772D01*
X4490Y378D02*
Y394D01*
X4517Y378D02*
Y394D01*
X4553Y378D02*
Y394D01*
X4526Y378D02*
Y394D01*
X4419Y378D02*
Y394D01*
X4446Y378D02*
Y394D01*
X4462Y693D02*
Y709D01*
X4435Y693D02*
Y709D01*
X4258Y697D02*
Y713D01*
X4230Y697D02*
Y713D01*
X4411Y378D02*
Y394D01*
X4383Y378D02*
Y394D01*
X2819Y675D02*
X2835D01*
X2819Y703D02*
X2835D01*
X2819Y632D02*
X2835D01*
X2819Y604D02*
X2835D01*
X2304Y1693D02*
Y1709D01*
X2276Y1693D02*
Y1709D01*
X4230Y264D02*
Y280D01*
X4258Y264D02*
Y280D01*
X2561Y949D02*
Y965D01*
X2533Y949D02*
Y965D01*
X2819Y715D02*
X2835D01*
X2819Y742D02*
X2835D01*
X1055Y2272D02*
Y2287D01*
X1083Y2272D02*
Y2287D01*
X844Y787D02*
Y803D01*
X872Y787D02*
Y803D01*
X1104Y409D02*
Y425D01*
X1077Y409D02*
Y425D01*
X1124Y409D02*
Y425D01*
X1152Y409D02*
Y425D01*
X1108Y43D02*
Y59D01*
X1136Y43D02*
Y59D01*
X1030Y409D02*
Y425D01*
X1057Y409D02*
Y425D01*
X1016Y315D02*
X1031D01*
X1016Y287D02*
X1031D01*
X982Y409D02*
Y425D01*
X1010Y409D02*
Y425D01*
X915Y409D02*
Y425D01*
X888Y409D02*
Y425D01*
X935Y409D02*
Y425D01*
X963Y409D02*
Y425D01*
X1530Y787D02*
Y803D01*
X1502Y787D02*
Y803D01*
X1813Y409D02*
Y425D01*
X1785Y409D02*
Y425D01*
X1734Y409D02*
Y425D01*
X1762Y409D02*
Y425D01*
X1793Y43D02*
Y59D01*
X1766Y43D02*
Y59D01*
X1715Y409D02*
Y425D01*
X1687Y409D02*
Y425D01*
X1673Y287D02*
X1689D01*
X1673Y315D02*
X1689D01*
X1549Y43D02*
Y59D01*
X1577Y43D02*
Y59D01*
X1640Y409D02*
Y425D01*
X1667Y409D02*
Y425D01*
X1573Y409D02*
Y425D01*
X1545Y409D02*
Y425D01*
X1593Y409D02*
Y425D01*
X1620Y409D02*
Y425D01*
X4452Y479D02*
X4468D01*
X4452Y506D02*
X4468D01*
X1171Y409D02*
Y425D01*
X1199Y409D02*
Y425D01*
X841Y409D02*
Y425D01*
X868Y409D02*
Y425D01*
X1526Y409D02*
Y425D01*
X1498Y409D02*
Y425D01*
X1856Y409D02*
Y425D01*
X1829Y409D02*
Y425D01*
X1309Y573D02*
X1325D01*
X1309Y545D02*
X1325D01*
X982Y917D02*
Y933D01*
X955Y917D02*
Y933D01*
X982Y917D02*
Y933D01*
X1010Y917D02*
Y933D01*
X844Y689D02*
Y705D01*
X872Y689D02*
Y705D01*
X1010Y917D02*
Y933D01*
X1037Y917D02*
Y933D01*
X1081Y917D02*
Y933D01*
X1053Y917D02*
Y933D01*
X1081Y917D02*
Y933D01*
X1108Y917D02*
Y933D01*
X1136Y917D02*
Y933D01*
X1108Y917D02*
Y933D01*
X1051Y333D02*
X1067D01*
X1051Y360D02*
X1067D01*
X980Y333D02*
X996D01*
X980Y360D02*
X996D01*
X919Y248D02*
Y264D01*
X947Y248D02*
Y264D01*
X1136Y917D02*
Y933D01*
X1163Y917D02*
Y933D01*
X1191Y917D02*
Y933D01*
X1163Y917D02*
Y933D01*
X1191Y917D02*
Y933D01*
X1219Y917D02*
Y933D01*
X1309Y801D02*
X1325D01*
X1309Y829D02*
X1325D01*
X1065Y43D02*
Y59D01*
X1093Y43D02*
Y59D01*
X1309Y770D02*
X1325D01*
X1309Y797D02*
X1325D01*
X1022Y43D02*
Y59D01*
X1049Y43D02*
Y59D01*
X1309Y742D02*
X1325D01*
X1309Y770D02*
X1325D01*
X978Y43D02*
Y59D01*
X1006Y43D02*
Y59D01*
X1309Y715D02*
X1325D01*
X1309Y742D02*
X1325D01*
X935Y43D02*
Y59D01*
X963Y43D02*
Y59D01*
X1309Y687D02*
X1325D01*
X1309Y659D02*
X1325D01*
X1309Y632D02*
X1325D01*
X1309Y659D02*
X1325D01*
X1309Y632D02*
X1325D01*
X1309Y604D02*
X1325D01*
X1309Y577D02*
X1325D01*
X1309Y604D02*
X1325D01*
X919Y319D02*
Y335D01*
X947Y319D02*
Y335D01*
X1967Y573D02*
X1982D01*
X1967Y545D02*
X1982D01*
X1640Y917D02*
Y933D01*
X1612Y917D02*
Y933D01*
X1640Y917D02*
Y933D01*
X1667Y917D02*
Y933D01*
X1502Y689D02*
Y705D01*
X1530Y689D02*
Y705D01*
X1667Y917D02*
Y933D01*
X1695Y917D02*
Y933D01*
X1738Y917D02*
Y933D01*
X1711Y917D02*
Y933D01*
X575Y2431D02*
X591D01*
X575Y2459D02*
X591D01*
X575Y2502D02*
X591D01*
X575Y2474D02*
X591D01*
X673Y2431D02*
X689D01*
X673Y2459D02*
X689D01*
X4454Y378D02*
Y394D01*
X4482Y378D02*
Y394D01*
X4452Y467D02*
X4468D01*
X4452Y439D02*
X4468D01*
X4258Y351D02*
Y367D01*
X4230Y351D02*
Y367D01*
X2819Y667D02*
X2835D01*
X2819Y640D02*
X2835D01*
X2221Y1693D02*
Y1709D01*
X2193Y1693D02*
Y1709D01*
X2237Y1693D02*
Y1709D01*
X2264Y1693D02*
Y1709D01*
X689Y1093D02*
X705D01*
X689Y1120D02*
X705D01*
X541Y724D02*
Y740D01*
X569Y724D02*
Y740D01*
X608Y724D02*
Y740D01*
X581Y724D02*
Y740D01*
X620Y724D02*
Y740D01*
X648Y724D02*
Y740D01*
X608Y886D02*
Y902D01*
X636Y886D02*
Y902D01*
X679Y886D02*
Y902D01*
X652Y886D02*
Y902D01*
X1738Y917D02*
Y933D01*
X1766Y917D02*
Y933D01*
X1793Y917D02*
Y933D01*
X1766Y917D02*
Y933D01*
X1709Y333D02*
X1724D01*
X1709Y360D02*
X1724D01*
X1638Y333D02*
X1654D01*
X1638Y360D02*
X1654D01*
X1577Y248D02*
Y264D01*
X1604Y248D02*
Y264D01*
X1793Y917D02*
Y933D01*
X1821Y917D02*
Y933D01*
X1848Y917D02*
Y933D01*
X1821Y917D02*
Y933D01*
X1848Y917D02*
Y933D01*
X1876Y917D02*
Y933D01*
X1967Y801D02*
X1982D01*
X1967Y829D02*
X1982D01*
X1722Y43D02*
Y59D01*
X1750Y43D02*
Y59D01*
X1967Y770D02*
X1982D01*
X1967Y797D02*
X1982D01*
X1679Y43D02*
Y59D01*
X1707Y43D02*
Y59D01*
X1967Y742D02*
X1982D01*
X1967Y770D02*
X1982D01*
X1636Y43D02*
Y59D01*
X1663Y43D02*
Y59D01*
X1967Y715D02*
X1982D01*
X1967Y742D02*
X1982D01*
X1593Y43D02*
Y59D01*
X1620Y43D02*
Y59D01*
X1967Y687D02*
X1982D01*
X1967Y659D02*
X1982D01*
X1967Y632D02*
X1982D01*
X1967Y659D02*
X1982D01*
X1967Y632D02*
X1982D01*
X1967Y604D02*
X1982D01*
X1967Y577D02*
X1982D01*
X1967Y604D02*
X1982D01*
X1577Y319D02*
Y335D01*
X1604Y319D02*
Y335D01*
X979Y2316D02*
X965Y2310D01*
X952Y2296D01*
Y2283D01*
X959Y2277D01*
X972D01*
X979Y2283D01*
Y2290D01*
X972Y2296D01*
X952D01*
X770Y2276D02*
Y2315D01*
X751Y2295D01*
X777D01*
X4091Y165D02*
Y192D01*
Y178D01*
X4130D01*
X4091Y205D02*
X4130Y231D01*
X4091D02*
X4130Y205D01*
X3154Y1348D02*
X3180D01*
X3167Y1362D02*
Y1335D01*
X3193Y1329D02*
X3206D01*
X3199D01*
Y1368D01*
X3193Y1362D01*
X3226Y1329D02*
Y1335D01*
X3232D01*
Y1329D01*
X3226D01*
X3285D02*
X3258D01*
X3285Y1355D01*
Y1362D01*
X3278Y1368D01*
X3265D01*
X3258Y1362D01*
X3298Y1368D02*
Y1342D01*
X3311Y1329D01*
X3324Y1342D01*
Y1368D01*
X4102Y1685D02*
X4129D01*
X4115Y1698D02*
Y1672D01*
X4142Y1698D02*
X4148Y1705D01*
X4161D01*
X4168Y1698D01*
Y1692D01*
X4161Y1685D01*
X4155D01*
X4161D01*
X4168Y1678D01*
Y1672D01*
X4161Y1665D01*
X4148D01*
X4142Y1672D01*
X4181Y1665D02*
Y1672D01*
X4188D01*
Y1665D01*
X4181D01*
X4214Y1698D02*
X4220Y1705D01*
X4234D01*
X4240Y1698D01*
Y1692D01*
X4234Y1685D01*
X4227D01*
X4234D01*
X4240Y1678D01*
Y1672D01*
X4234Y1665D01*
X4220D01*
X4214Y1672D01*
X4253Y1705D02*
Y1678D01*
X4266Y1665D01*
X4279Y1678D01*
Y1705D01*
X4114Y2039D02*
X4140D01*
X4127Y2052D02*
Y2026D01*
X4180Y2059D02*
X4154D01*
Y2039D01*
X4167Y2046D01*
X4173D01*
X4180Y2039D01*
Y2026D01*
X4173Y2020D01*
X4160D01*
X4154Y2026D01*
X4193Y2020D02*
Y2026D01*
X4199D01*
Y2020D01*
X4193D01*
X4226Y2052D02*
X4232Y2059D01*
X4245D01*
X4252Y2052D01*
Y2026D01*
X4245Y2020D01*
X4232D01*
X4226Y2026D01*
Y2052D01*
X4265Y2059D02*
Y2033D01*
X4278Y2020D01*
X4291Y2033D01*
Y2059D01*
X4668Y2316D02*
X4661Y2323D01*
X4648D01*
X4642Y2316D01*
Y2290D01*
X4648Y2283D01*
X4661D01*
X4668Y2290D01*
X4681Y2283D02*
Y2310D01*
X4694Y2323D01*
X4707Y2310D01*
Y2283D01*
Y2303D01*
X4681D01*
X4720Y2283D02*
Y2323D01*
X4734Y2310D01*
X4747Y2323D01*
Y2283D01*
X4760Y2303D02*
X4786D01*
X4799Y2316D02*
X4806Y2323D01*
X4819D01*
X4825Y2316D01*
Y2310D01*
X4819Y2303D01*
X4812D01*
X4819D01*
X4825Y2297D01*
Y2290D01*
X4819Y2283D01*
X4806D01*
X4799Y2290D01*
X4839Y2283D02*
Y2290D01*
X4845D01*
Y2283D01*
X4839D01*
X4871Y2316D02*
X4878Y2323D01*
X4891D01*
X4898Y2316D01*
Y2310D01*
X4891Y2303D01*
X4884D01*
X4891D01*
X4898Y2297D01*
Y2290D01*
X4891Y2283D01*
X4878D01*
X4871Y2290D01*
X4911Y2323D02*
Y2297D01*
X4924Y2283D01*
X4937Y2297D01*
Y2323D01*
X1729Y1661D02*
X1756D01*
X1742Y1675D02*
Y1648D01*
X1795Y1681D02*
X1769D01*
Y1661D01*
X1782Y1668D01*
X1788D01*
X1795Y1661D01*
Y1648D01*
X1788Y1642D01*
X1775D01*
X1769Y1648D01*
X1808Y1681D02*
Y1655D01*
X1821Y1642D01*
X1834Y1655D01*
Y1681D01*
X4539Y1402D02*
X4526D01*
X4520Y1395D01*
Y1369D01*
X4526Y1362D01*
X4539D01*
X4546Y1369D01*
Y1395D01*
X4539Y1402D01*
X4559Y1388D02*
Y1369D01*
X4566Y1362D01*
X4585D01*
Y1388D01*
X4605Y1395D02*
Y1388D01*
X4598D01*
X4612D01*
X4605D01*
Y1369D01*
X4612Y1362D01*
X4631Y1402D02*
Y1362D01*
X4651D01*
X4657Y1369D01*
Y1375D01*
X4651Y1382D01*
X4631D01*
X4651D01*
X4657Y1388D01*
Y1395D01*
X4651Y1402D01*
X4631D01*
X1321Y2419D02*
X1347Y2380D01*
Y2419D02*
X1321Y2380D01*
X1360Y2419D02*
X1386D01*
Y2413D01*
X1360Y2386D01*
Y2380D01*
X1507Y2388D02*
X1520D01*
X1513D01*
Y2427D01*
X1507Y2421D01*
X1087Y2429D02*
X1074Y2423D01*
X1061Y2409D01*
Y2396D01*
X1068Y2390D01*
X1081D01*
X1087Y2396D01*
Y2403D01*
X1081Y2409D01*
X1061D01*
X2025Y1242D02*
X2051D01*
X2038Y1255D02*
Y1229D01*
X2090Y1262D02*
X2064D01*
Y1242D01*
X2077Y1249D01*
X2084D01*
X2090Y1242D01*
Y1229D01*
X2084Y1222D01*
X2071D01*
X2064Y1229D01*
X2103Y1262D02*
Y1236D01*
X2116Y1222D01*
X2130Y1236D01*
Y1262D01*
X3886Y941D02*
X3912D01*
X3899Y954D02*
Y928D01*
X3925Y921D02*
X3938D01*
X3932D01*
Y961D01*
X3925Y954D01*
X3958Y921D02*
Y928D01*
X3965D01*
Y921D01*
X3958D01*
X4017Y961D02*
X3991D01*
Y941D01*
X4004Y947D01*
X4010D01*
X4017Y941D01*
Y928D01*
X4010Y921D01*
X3997D01*
X3991Y928D01*
X4030Y961D02*
Y934D01*
X4043Y921D01*
X4056Y934D01*
Y961D01*
X3886Y1271D02*
X3912D01*
X3899Y1284D02*
Y1258D01*
X3951Y1251D02*
X3925D01*
X3951Y1277D01*
Y1284D01*
X3945Y1290D01*
X3932D01*
X3925Y1284D01*
X3965Y1251D02*
Y1258D01*
X3971D01*
Y1251D01*
X3965D01*
X4024Y1290D02*
X3997D01*
Y1271D01*
X4010Y1277D01*
X4017D01*
X4024Y1271D01*
Y1258D01*
X4017Y1251D01*
X4004D01*
X3997Y1258D01*
X4037Y1290D02*
Y1264D01*
X4050Y1251D01*
X4063Y1264D01*
Y1290D01*
X46Y1309D02*
Y1348D01*
X66D01*
X72Y1342D01*
Y1329D01*
X66Y1322D01*
X46D01*
X112Y1342D02*
X105Y1348D01*
X92D01*
X86Y1342D01*
Y1316D01*
X92Y1309D01*
X105D01*
X112Y1316D01*
Y1329D01*
X99D01*
X125Y1309D02*
X138D01*
X132D01*
Y1348D01*
X125Y1342D01*
X39Y878D02*
Y917D01*
X59D01*
X66Y911D01*
Y898D01*
X59Y891D01*
X39D01*
X105Y911D02*
X98Y917D01*
X85D01*
X79Y911D01*
Y885D01*
X85Y878D01*
X98D01*
X105Y885D01*
Y898D01*
X92D01*
X144Y878D02*
X118D01*
X144Y904D01*
Y911D01*
X138Y917D01*
X125D01*
X118Y911D01*
X4539Y1315D02*
X4526D01*
X4520Y1308D01*
Y1282D01*
X4526Y1276D01*
X4539D01*
X4546Y1282D01*
Y1308D01*
X4539Y1315D01*
X4559Y1302D02*
Y1282D01*
X4566Y1276D01*
X4585D01*
Y1302D01*
X4605Y1308D02*
Y1302D01*
X4598D01*
X4612D01*
X4605D01*
Y1282D01*
X4612Y1276D01*
X4631D02*
Y1302D01*
X4644Y1315D01*
X4657Y1302D01*
Y1276D01*
Y1295D01*
X4631D01*
X4043Y165D02*
X4004D01*
Y185D01*
X4011Y192D01*
X4024D01*
X4030Y185D01*
Y165D01*
Y178D02*
X4043Y192D01*
X4004Y205D02*
X4043Y231D01*
X4004D02*
X4043Y205D01*
X4280Y272D02*
X4306D01*
X4293Y285D02*
Y259D01*
X4319Y285D02*
X4325Y291D01*
X4339D01*
X4345Y285D01*
Y278D01*
X4339Y272D01*
X4332D01*
X4339D01*
X4345Y265D01*
Y259D01*
X4339Y252D01*
X4325D01*
X4319Y259D01*
X4358Y252D02*
Y259D01*
X4365D01*
Y252D01*
X4358D01*
X4391Y285D02*
X4398Y291D01*
X4411D01*
X4417Y285D01*
Y278D01*
X4411Y272D01*
X4404D01*
X4411D01*
X4417Y265D01*
Y259D01*
X4411Y252D01*
X4398D01*
X4391Y259D01*
X4430Y291D02*
Y265D01*
X4444Y252D01*
X4457Y265D01*
Y291D01*
X319Y633D02*
X345D01*
X332Y646D02*
Y620D01*
X358Y613D02*
X371D01*
X365D01*
Y653D01*
X358Y646D01*
X391Y613D02*
Y620D01*
X398D01*
Y613D01*
X391D01*
X424Y646D02*
X430Y653D01*
X444D01*
X450Y646D01*
Y639D01*
X444Y633D01*
X450Y626D01*
Y620D01*
X444Y613D01*
X430D01*
X424Y620D01*
Y626D01*
X430Y633D01*
X424Y639D01*
Y646D01*
X430Y633D02*
X444D01*
X463Y653D02*
Y626D01*
X476Y613D01*
X489Y626D01*
Y653D01*
X330Y1076D02*
X356D01*
X343Y1089D02*
Y1063D01*
X369Y1056D02*
X382D01*
X376D01*
Y1095D01*
X369Y1089D01*
X402Y1056D02*
Y1063D01*
X408D01*
Y1056D01*
X402D01*
X435Y1089D02*
X441Y1095D01*
X454D01*
X461Y1089D01*
Y1063D01*
X454Y1056D01*
X441D01*
X435Y1063D01*
Y1089D01*
X474Y1095D02*
Y1069D01*
X487Y1056D01*
X500Y1069D01*
Y1095D01*
X4180Y192D02*
X4173Y185D01*
Y172D01*
X4180Y165D01*
X4206D01*
X4213Y172D01*
Y185D01*
X4206Y192D01*
X4193D01*
Y178D01*
X4213Y205D02*
X4173D01*
X4213Y231D01*
X4173D01*
Y244D02*
X4213D01*
Y264D01*
X4206Y270D01*
X4180D01*
X4173Y264D01*
Y244D01*
X1932Y329D02*
Y355D01*
X1919Y342D02*
X1945D01*
X1919Y368D02*
X1912Y375D01*
Y388D01*
X1919Y394D01*
X1926D01*
X1932Y388D01*
Y381D01*
Y388D01*
X1939Y394D01*
X1945D01*
X1952Y388D01*
Y375D01*
X1945Y368D01*
X1952Y407D02*
X1945D01*
Y414D01*
X1952D01*
Y407D01*
X1919Y440D02*
X1912Y447D01*
Y460D01*
X1919Y466D01*
X1926D01*
X1932Y460D01*
Y453D01*
Y460D01*
X1939Y466D01*
X1945D01*
X1952Y460D01*
Y447D01*
X1945Y440D01*
X1912Y480D02*
X1939D01*
X1952Y493D01*
X1939Y506D01*
X1912D01*
X1450Y280D02*
Y306D01*
X1437Y293D02*
X1463D01*
X1469Y319D02*
Y332D01*
Y325D01*
X1430D01*
X1437Y319D01*
X1469Y352D02*
X1463D01*
Y358D01*
X1469D01*
Y352D01*
X1437Y384D02*
X1430Y391D01*
Y404D01*
X1437Y411D01*
X1443D01*
X1450Y404D01*
X1456Y411D01*
X1463D01*
X1469Y404D01*
Y391D01*
X1463Y384D01*
X1456D01*
X1450Y391D01*
X1443Y384D01*
X1437D01*
X1450Y391D02*
Y404D01*
X1430Y424D02*
X1456D01*
X1469Y437D01*
X1456Y450D01*
X1430D01*
X4697Y740D02*
X4723Y701D01*
Y740D02*
X4697Y701D01*
X4762Y740D02*
X4749Y734D01*
X4736Y720D01*
Y707D01*
X4743Y701D01*
X4756D01*
X4762Y707D01*
Y714D01*
X4756Y720D01*
X4736D01*
X4562Y665D02*
X4535D01*
Y646D01*
X4549Y652D01*
X4555D01*
X4562Y646D01*
Y633D01*
X4555Y626D01*
X4542D01*
X4535Y633D01*
X4512Y445D02*
X4525D01*
X4518D01*
Y484D01*
X4512Y478D01*
X3109Y784D02*
X3083D01*
X3109Y811D01*
Y817D01*
X3102Y824D01*
X3089D01*
X3083Y817D01*
X3031Y681D02*
X3045D01*
X3038D01*
Y720D01*
X3031Y714D01*
X3469Y726D02*
X3496D01*
Y720D01*
X3469Y694D01*
Y687D01*
X3498Y819D02*
X3505Y826D01*
X3518D01*
X3524Y819D01*
Y813D01*
X3518Y806D01*
X3524Y800D01*
Y793D01*
X3518Y786D01*
X3505D01*
X3498Y793D01*
Y800D01*
X3505Y806D01*
X3498Y813D01*
Y819D01*
X3505Y806D02*
X3518D01*
X2480Y1992D02*
X2507Y1953D01*
Y1992D02*
X2480Y1953D01*
X2546D02*
X2520D01*
X2546Y1979D01*
Y1986D01*
X2539Y1992D01*
X2526D01*
X2520Y1986D01*
X1857Y1858D02*
X1831D01*
X1857Y1885D01*
Y1891D01*
X1850Y1898D01*
X1837D01*
X1831Y1891D01*
X3104Y1892D02*
X3111Y1899D01*
X3124D01*
X3131Y1892D01*
Y1885D01*
X3124Y1879D01*
X3117D01*
X3124D01*
X3131Y1872D01*
Y1866D01*
X3124Y1859D01*
X3111D01*
X3104Y1866D01*
X3144Y1892D02*
X3150Y1899D01*
X3163D01*
X3170Y1892D01*
Y1866D01*
X3163Y1859D01*
X3150D01*
X3144Y1866D01*
Y1892D01*
X1839Y1776D02*
X1852D01*
X1845D01*
Y1815D01*
X1839Y1808D01*
X3133Y1776D02*
X3106D01*
X3133Y1802D01*
Y1808D01*
X3126Y1815D01*
X3113D01*
X3106Y1808D01*
X3146Y1782D02*
X3152Y1776D01*
X3165D01*
X3172Y1782D01*
Y1808D01*
X3165Y1815D01*
X3152D01*
X3146Y1808D01*
Y1802D01*
X3152Y1795D01*
X3172D01*
X3500Y2350D02*
X3526Y2311D01*
Y2350D02*
X3500Y2311D01*
X3559D02*
Y2350D01*
X3539Y2331D01*
X3566D01*
X3378Y1552D02*
X3385Y1559D01*
X3398D01*
X3404Y1552D01*
Y1546D01*
X3398Y1539D01*
X3391D01*
X3398D01*
X3404Y1533D01*
Y1526D01*
X3398Y1520D01*
X3385D01*
X3378Y1526D01*
X3437Y1520D02*
Y1559D01*
X3417Y1539D01*
X3444D01*
X3425Y2163D02*
X3438D01*
X3432D01*
Y2203D01*
X3425Y2196D01*
X140Y1920D02*
X146Y1913D01*
X159D01*
X166Y1920D01*
Y1946D01*
X159Y1953D01*
X146D01*
X140Y1946D01*
Y1940D01*
X146Y1933D01*
X166D01*
X147Y2161D02*
X160D01*
X154D01*
Y2200D01*
X147Y2194D01*
X661Y2240D02*
Y2266D01*
X675Y2280D01*
X688Y2266D01*
Y2240D01*
Y2260D01*
X661D01*
X192Y2278D02*
X218D01*
X205D01*
Y2238D01*
X192Y1852D02*
X218D01*
X205D01*
Y1813D01*
X661Y1815D02*
Y1841D01*
X675Y1854D01*
X688Y1841D01*
Y1815D01*
Y1835D01*
X661D01*
X147Y1736D02*
X160D01*
X154D01*
Y1775D01*
X147Y1769D01*
X140Y1495D02*
X146Y1488D01*
X159D01*
X166Y1495D01*
Y1521D01*
X159Y1528D01*
X146D01*
X140Y1521D01*
Y1514D01*
X146Y1508D01*
X166D01*
X3360Y919D02*
X3353Y925D01*
X3340D01*
X3333Y919D01*
Y892D01*
X3340Y886D01*
X3353D01*
X3360Y892D01*
X3373D02*
X3379Y886D01*
X3392D01*
X3399Y892D01*
Y919D01*
X3392Y925D01*
X3379D01*
X3373Y919D01*
Y912D01*
X3379Y906D01*
X3399D01*
X3438Y886D02*
X3412D01*
X3438Y912D01*
Y919D01*
X3432Y925D01*
X3419D01*
X3412Y919D01*
X3356Y974D02*
X3349Y980D01*
X3336D01*
X3329Y974D01*
Y948D01*
X3336Y941D01*
X3349D01*
X3356Y948D01*
X3369D02*
X3375Y941D01*
X3388D01*
X3395Y948D01*
Y974D01*
X3388Y980D01*
X3375D01*
X3369Y974D01*
Y967D01*
X3375Y961D01*
X3395D01*
X3408Y974D02*
X3415Y980D01*
X3428D01*
X3434Y974D01*
Y967D01*
X3428Y961D01*
X3421D01*
X3428D01*
X3434Y954D01*
Y948D01*
X3428Y941D01*
X3415D01*
X3408Y948D01*
X3096Y1157D02*
Y1125D01*
X3103Y1118D01*
X3116D01*
X3123Y1125D01*
Y1157D01*
X3136Y1118D02*
X3149D01*
X3142D01*
Y1157D01*
X3136Y1151D01*
X3169D02*
X3175Y1157D01*
X3188D01*
X3195Y1151D01*
Y1144D01*
X3188Y1138D01*
X3195Y1131D01*
Y1125D01*
X3188Y1118D01*
X3175D01*
X3169Y1125D01*
Y1131D01*
X3175Y1138D01*
X3169Y1144D01*
Y1151D01*
X3175Y1138D02*
X3188D01*
X3366Y1355D02*
X3360Y1361D01*
X3347D01*
X3340Y1355D01*
Y1329D01*
X3347Y1322D01*
X3360D01*
X3366Y1329D01*
X3379Y1355D02*
X3386Y1361D01*
X3399D01*
X3406Y1355D01*
Y1348D01*
X3399Y1342D01*
X3406Y1335D01*
Y1329D01*
X3399Y1322D01*
X3386D01*
X3379Y1329D01*
Y1335D01*
X3386Y1342D01*
X3379Y1348D01*
Y1355D01*
X3386Y1342D02*
X3399D01*
X3419Y1322D02*
X3432D01*
X3425D01*
Y1361D01*
X3419Y1355D01*
X3393Y1760D02*
X3387Y1766D01*
X3374D01*
X3367Y1760D01*
Y1734D01*
X3374Y1727D01*
X3387D01*
X3393Y1734D01*
X3406Y1760D02*
X3413Y1766D01*
X3426D01*
X3433Y1760D01*
Y1753D01*
X3426Y1747D01*
X3433Y1740D01*
Y1734D01*
X3426Y1727D01*
X3413D01*
X3406Y1734D01*
Y1740D01*
X3413Y1747D01*
X3406Y1753D01*
Y1760D01*
X3413Y1747D02*
X3426D01*
X3446Y1760D02*
X3452Y1766D01*
X3465D01*
X3472Y1760D01*
Y1734D01*
X3465Y1727D01*
X3452D01*
X3446Y1734D01*
Y1760D01*
X3257Y1151D02*
X3251Y1157D01*
X3238D01*
X3231Y1151D01*
Y1125D01*
X3238Y1118D01*
X3251D01*
X3257Y1125D01*
X3270Y1157D02*
X3297D01*
Y1151D01*
X3270Y1125D01*
Y1118D01*
X3310Y1125D02*
X3316Y1118D01*
X3329D01*
X3336Y1125D01*
Y1151D01*
X3329Y1157D01*
X3316D01*
X3310Y1151D01*
Y1144D01*
X3316Y1138D01*
X3336D01*
X2986Y1143D02*
X2979Y1150D01*
X2966D01*
X2959Y1143D01*
Y1117D01*
X2966Y1110D01*
X2979D01*
X2986Y1117D01*
X2999Y1150D02*
X3025D01*
Y1143D01*
X2999Y1117D01*
Y1110D01*
X3038Y1150D02*
X3064D01*
Y1143D01*
X3038Y1117D01*
Y1110D01*
X4580Y818D02*
X4574Y811D01*
Y798D01*
X4580Y791D01*
X4607D01*
X4613Y798D01*
Y811D01*
X4607Y818D01*
X4613Y831D02*
Y844D01*
Y837D01*
X4574D01*
X4580Y831D01*
Y864D02*
X4574Y870D01*
Y883D01*
X4580Y890D01*
X4607D01*
X4613Y883D01*
Y870D01*
X4607Y864D01*
X4580D01*
X4613Y923D02*
X4574D01*
X4594Y903D01*
Y929D01*
X493Y424D02*
X486Y430D01*
X473D01*
X467Y424D01*
Y397D01*
X473Y391D01*
X486D01*
X493Y397D01*
X506Y391D02*
X519D01*
X512D01*
Y430D01*
X506Y424D01*
X539D02*
X545Y430D01*
X558D01*
X565Y424D01*
Y397D01*
X558Y391D01*
X545D01*
X539Y397D01*
Y424D01*
X578D02*
X585Y430D01*
X598D01*
X604Y424D01*
Y417D01*
X598Y410D01*
X591D01*
X598D01*
X604Y404D01*
Y397D01*
X598Y391D01*
X585D01*
X578Y397D01*
X489Y267D02*
X482Y274D01*
X469D01*
X463Y267D01*
Y241D01*
X469Y234D01*
X482D01*
X489Y241D01*
X502Y234D02*
X515D01*
X509D01*
Y274D01*
X502Y267D01*
X535D02*
X541Y274D01*
X554D01*
X561Y267D01*
Y241D01*
X554Y234D01*
X541D01*
X535Y241D01*
Y267D01*
X600Y234D02*
X574D01*
X600Y260D01*
Y267D01*
X594Y274D01*
X581D01*
X574Y267D01*
X2154Y1499D02*
X2186D01*
X2193Y1505D01*
Y1518D01*
X2186Y1525D01*
X2154D01*
X2186Y1538D02*
X2193Y1545D01*
Y1558D01*
X2186Y1564D01*
X2160D01*
X2154Y1558D01*
Y1545D01*
X2160Y1538D01*
X2167D01*
X2173Y1545D01*
Y1564D01*
X4335Y1112D02*
Y1079D01*
X4342Y1073D01*
X4355D01*
X4362Y1079D01*
Y1112D01*
X4401Y1073D02*
X4375D01*
X4401Y1099D01*
Y1106D01*
X4394Y1112D01*
X4381D01*
X4375Y1106D01*
X4434Y1073D02*
Y1112D01*
X4414Y1093D01*
X4440D01*
X4332Y1213D02*
Y1180D01*
X4339Y1173D01*
X4352D01*
X4359Y1180D01*
Y1213D01*
X4398Y1173D02*
X4372D01*
X4398Y1199D01*
Y1206D01*
X4391Y1213D01*
X4378D01*
X4372Y1206D01*
X4411D02*
X4418Y1213D01*
X4431D01*
X4437Y1206D01*
Y1199D01*
X4431Y1193D01*
X4424D01*
X4431D01*
X4437Y1186D01*
Y1180D01*
X4431Y1173D01*
X4418D01*
X4411Y1180D01*
X549Y450D02*
X582D01*
X589Y457D01*
Y470D01*
X582Y477D01*
X549D01*
X589Y516D02*
Y490D01*
X562Y516D01*
X556D01*
X549Y510D01*
Y496D01*
X556Y490D01*
X589Y555D02*
Y529D01*
X562Y555D01*
X556D01*
X549Y549D01*
Y536D01*
X556Y529D01*
X546Y290D02*
X579D01*
X586Y296D01*
Y309D01*
X579Y316D01*
X546D01*
X586Y355D02*
Y329D01*
X559Y355D01*
X553D01*
X546Y349D01*
Y336D01*
X553Y329D01*
X586Y368D02*
Y382D01*
Y375D01*
X546D01*
X553Y368D01*
X1109Y189D02*
Y156D01*
X1115Y150D01*
X1129D01*
X1135Y156D01*
Y189D01*
X1168Y150D02*
Y189D01*
X1148Y169D01*
X1175D01*
X1766Y197D02*
Y164D01*
X1773Y157D01*
X1786D01*
X1793Y164D01*
Y197D01*
X1832Y157D02*
X1806D01*
X1832Y184D01*
Y190D01*
X1825Y197D01*
X1812D01*
X1806Y190D01*
X2453Y177D02*
X2486D01*
X2492Y183D01*
Y197D01*
X2486Y203D01*
X2453D01*
Y242D02*
X2459Y229D01*
X2472Y216D01*
X2486D01*
X2492Y223D01*
Y236D01*
X2486Y242D01*
X2479D01*
X2472Y236D01*
Y216D01*
X2035Y172D02*
X2068D01*
X2075Y178D01*
Y192D01*
X2068Y198D01*
X2035D01*
Y238D02*
Y211D01*
X2055D01*
X2049Y224D01*
Y231D01*
X2055Y238D01*
X2068D01*
X2075Y231D01*
Y218D01*
X2068Y211D01*
X816Y238D02*
X810Y244D01*
X797D01*
X790Y238D01*
Y211D01*
X797Y205D01*
X810D01*
X816Y211D01*
X829Y238D02*
X836Y244D01*
X849D01*
X856Y238D01*
Y231D01*
X849Y224D01*
X843D01*
X849D01*
X856Y218D01*
Y211D01*
X849Y205D01*
X836D01*
X829Y211D01*
X869Y238D02*
X875Y244D01*
X888D01*
X895Y238D01*
Y231D01*
X888Y224D01*
X895Y218D01*
Y211D01*
X888Y205D01*
X875D01*
X869Y211D01*
Y218D01*
X875Y224D01*
X869Y231D01*
Y238D01*
X875Y224D02*
X888D01*
X2778Y430D02*
X2772Y424D01*
Y411D01*
X2778Y404D01*
X2804D01*
X2811Y411D01*
Y424D01*
X2804Y430D01*
X2778Y444D02*
X2772Y450D01*
Y463D01*
X2778Y470D01*
X2785D01*
X2791Y463D01*
Y457D01*
Y463D01*
X2798Y470D01*
X2804D01*
X2811Y463D01*
Y450D01*
X2804Y444D01*
X2772Y483D02*
Y509D01*
X2778D01*
X2804Y483D01*
X2811D01*
X1307Y516D02*
X1301Y522D01*
X1288D01*
X1281Y516D01*
Y490D01*
X1288Y483D01*
X1301D01*
X1307Y490D01*
X1320Y516D02*
X1327Y522D01*
X1340D01*
X1347Y516D01*
Y509D01*
X1340Y503D01*
X1333D01*
X1340D01*
X1347Y496D01*
Y490D01*
X1340Y483D01*
X1327D01*
X1320Y490D01*
X1379Y483D02*
Y522D01*
X1360Y503D01*
X1386D01*
X1214Y328D02*
X1207Y335D01*
X1194D01*
X1188Y328D01*
Y302D01*
X1194Y295D01*
X1207D01*
X1214Y302D01*
X1227Y328D02*
X1234Y335D01*
X1247D01*
X1253Y328D01*
Y322D01*
X1247Y315D01*
X1240D01*
X1247D01*
X1253Y308D01*
Y302D01*
X1247Y295D01*
X1234D01*
X1227Y302D01*
X1266Y328D02*
X1273Y335D01*
X1286D01*
X1293Y328D01*
Y322D01*
X1286Y315D01*
X1280D01*
X1286D01*
X1293Y308D01*
Y302D01*
X1286Y295D01*
X1273D01*
X1266Y302D01*
X2309Y563D02*
X2302Y557D01*
Y544D01*
X2309Y537D01*
X2335D01*
X2342Y544D01*
Y557D01*
X2335Y563D01*
X2309Y576D02*
X2302Y583D01*
Y596D01*
X2309Y603D01*
X2315D01*
X2322Y596D01*
Y590D01*
Y596D01*
X2328Y603D01*
X2335D01*
X2342Y596D01*
Y583D01*
X2335Y576D01*
X2342Y642D02*
Y616D01*
X2315Y642D01*
X2309D01*
X2302Y635D01*
Y622D01*
X2309Y616D01*
X3617Y327D02*
X3643Y287D01*
Y327D02*
X3617Y287D01*
X3682Y327D02*
X3656D01*
Y307D01*
X3669Y314D01*
X3676D01*
X3682Y307D01*
Y294D01*
X3676Y287D01*
X3663D01*
X3656Y294D01*
X2809Y642D02*
X2835D01*
X2822D01*
Y603D01*
X2848D02*
Y642D01*
X2868D01*
X2875Y636D01*
Y623D01*
X2868Y616D01*
X2848D01*
X2888Y603D02*
X2901D01*
X2894D01*
Y642D01*
X2888Y636D01*
X2921D02*
X2927Y642D01*
X2940D01*
X2947Y636D01*
Y629D01*
X2940Y623D01*
X2947Y616D01*
Y610D01*
X2940Y603D01*
X2927D01*
X2921Y610D01*
Y616D01*
X2927Y623D01*
X2921Y629D01*
Y636D01*
X2927Y623D02*
X2940D01*
X1774Y1508D02*
Y1475D01*
X1781Y1469D01*
X1794D01*
X1801Y1475D01*
Y1508D01*
X1814D02*
X1840D01*
Y1501D01*
X1814Y1475D01*
Y1469D01*
X482Y968D02*
Y929D01*
X509D01*
X522D02*
X535D01*
X528D01*
Y968D01*
X522Y962D01*
X554D02*
X561Y968D01*
X574D01*
X581Y962D01*
Y936D01*
X574Y929D01*
X561D01*
X554Y936D01*
Y962D01*
X483Y1378D02*
Y1339D01*
X509D01*
X522Y1371D02*
X529Y1378D01*
X542D01*
X549Y1371D01*
Y1365D01*
X542Y1358D01*
X549Y1352D01*
Y1345D01*
X542Y1339D01*
X529D01*
X522Y1345D01*
Y1352D01*
X529Y1358D01*
X522Y1365D01*
Y1371D01*
X529Y1358D02*
X542D01*
X404Y2323D02*
Y2290D01*
X411Y2283D01*
X424D01*
X430Y2290D01*
Y2323D01*
X463Y2283D02*
Y2323D01*
X444Y2303D01*
X470D01*
X509Y2283D02*
X483D01*
X509Y2310D01*
Y2316D01*
X503Y2323D01*
X489D01*
X483Y2316D01*
X824Y2307D02*
Y2274D01*
X831Y2268D01*
X844D01*
X850Y2274D01*
Y2307D01*
X883Y2268D02*
Y2307D01*
X864Y2287D01*
X890D01*
X903Y2268D02*
X916D01*
X909D01*
Y2307D01*
X903Y2301D01*
X1223Y878D02*
Y845D01*
X1230Y839D01*
X1243D01*
X1249Y845D01*
Y878D01*
X1262Y871D02*
X1269Y878D01*
X1282D01*
X1289Y871D01*
Y865D01*
X1282Y858D01*
X1276D01*
X1282D01*
X1289Y852D01*
Y845D01*
X1282Y839D01*
X1269D01*
X1262Y845D01*
X4336Y802D02*
Y828D01*
X4329Y835D01*
X4316D01*
X4310Y828D01*
Y802D01*
X4316Y795D01*
X4329D01*
X4323Y808D02*
X4336Y795D01*
X4329D02*
X4336Y802D01*
X4349Y828D02*
X4356Y835D01*
X4369D01*
X4375Y828D01*
Y822D01*
X4369Y815D01*
X4362D01*
X4369D01*
X4375Y808D01*
Y802D01*
X4369Y795D01*
X4356D01*
X4349Y802D01*
X2682Y735D02*
Y761D01*
X2676Y768D01*
X2663D01*
X2656Y761D01*
Y735D01*
X2663Y728D01*
X2676D01*
X2669Y741D02*
X2682Y728D01*
X2676D02*
X2682Y735D01*
X2722Y728D02*
X2696D01*
X2722Y755D01*
Y761D01*
X2715Y768D01*
X2702D01*
X2696Y761D01*
X1772Y1266D02*
Y1293D01*
X1765Y1299D01*
X1752D01*
X1745Y1293D01*
Y1266D01*
X1752Y1260D01*
X1765D01*
X1759Y1273D02*
X1772Y1260D01*
X1765D02*
X1772Y1266D01*
X1785Y1260D02*
X1798D01*
X1791D01*
Y1299D01*
X1785Y1293D01*
X4106Y459D02*
X4139D01*
X4146Y466D01*
Y479D01*
X4139Y486D01*
X4106D01*
X4113Y499D02*
X4106Y505D01*
Y518D01*
X4113Y525D01*
X4119D01*
X4126Y518D01*
Y512D01*
Y518D01*
X4133Y525D01*
X4139D01*
X4146Y518D01*
Y505D01*
X4139Y499D01*
X4113Y538D02*
X4106Y545D01*
Y558D01*
X4113Y564D01*
X4139D01*
X4146Y558D01*
Y545D01*
X4139Y538D01*
X4113D01*
X268Y474D02*
X262Y480D01*
X249D01*
X242Y474D01*
Y448D01*
X249Y441D01*
X262D01*
X268Y448D01*
X282Y441D02*
X295D01*
X288D01*
Y480D01*
X282Y474D01*
X341Y480D02*
X314D01*
Y461D01*
X327Y467D01*
X334D01*
X341Y461D01*
Y448D01*
X334Y441D01*
X321D01*
X314Y448D01*
X380Y480D02*
X367Y474D01*
X354Y461D01*
Y448D01*
X360Y441D01*
X373D01*
X380Y448D01*
Y454D01*
X373Y461D01*
X354D01*
X265Y415D02*
X259Y421D01*
X245D01*
X239Y415D01*
Y388D01*
X245Y382D01*
X259D01*
X265Y388D01*
X304Y382D02*
X278D01*
X304Y408D01*
Y415D01*
X298Y421D01*
X285D01*
X278Y415D01*
X344Y382D02*
X318D01*
X344Y408D01*
Y415D01*
X337Y421D01*
X324D01*
X318Y415D01*
X383Y421D02*
X357D01*
Y402D01*
X370Y408D01*
X377D01*
X383Y402D01*
Y388D01*
X377Y382D01*
X363D01*
X357Y388D01*
X4457Y822D02*
X4451Y815D01*
Y802D01*
X4457Y795D01*
X4484D01*
X4490Y802D01*
Y815D01*
X4484Y822D01*
X4490Y861D02*
Y835D01*
X4464Y861D01*
X4457D01*
X4451Y854D01*
Y841D01*
X4457Y835D01*
X4490Y874D02*
Y887D01*
Y881D01*
X4451D01*
X4457Y874D01*
X4490Y926D02*
X4451D01*
X4470Y907D01*
Y933D01*
X2273Y1261D02*
X2266Y1268D01*
X2253D01*
X2247Y1261D01*
Y1235D01*
X2253Y1228D01*
X2266D01*
X2273Y1235D01*
X2312Y1268D02*
X2286D01*
Y1248D01*
X2299Y1255D01*
X2306D01*
X2312Y1248D01*
Y1235D01*
X2306Y1228D01*
X2293D01*
X2286Y1235D01*
X2352Y1268D02*
X2325D01*
Y1248D01*
X2339Y1255D01*
X2345D01*
X2352Y1248D01*
Y1235D01*
X2345Y1228D01*
X2332D01*
X2325Y1235D01*
X584Y1311D02*
Y1285D01*
X597Y1272D01*
X610Y1285D01*
Y1311D01*
X623D02*
X650D01*
X636D01*
Y1272D01*
X663D02*
X676D01*
X669D01*
Y1311D01*
X663Y1304D01*
X3283Y1459D02*
X3316D01*
X3323Y1465D01*
Y1478D01*
X3316Y1485D01*
X3283D01*
X3323Y1498D02*
Y1511D01*
Y1505D01*
X3283D01*
X3290Y1498D01*
Y1531D02*
X3283Y1537D01*
Y1551D01*
X3290Y1557D01*
X3297D01*
X3303Y1551D01*
Y1544D01*
Y1551D01*
X3310Y1557D01*
X3316D01*
X3323Y1551D01*
Y1537D01*
X3316Y1531D01*
X2907Y1370D02*
Y1337D01*
X2914Y1331D01*
X2927D01*
X2934Y1337D01*
Y1370D01*
X2947Y1331D02*
X2960D01*
X2953D01*
Y1370D01*
X2947Y1364D01*
X3006Y1331D02*
X2980D01*
X3006Y1357D01*
Y1364D01*
X2999Y1370D01*
X2986D01*
X2980Y1364D01*
X2698Y1366D02*
Y1333D01*
X2704Y1327D01*
X2717D01*
X2724Y1333D01*
Y1366D01*
X2737Y1327D02*
X2750D01*
X2743D01*
Y1366D01*
X2737Y1360D01*
X2770Y1327D02*
X2783D01*
X2776D01*
Y1366D01*
X2770Y1360D01*
X2486Y1370D02*
Y1337D01*
X2493Y1331D01*
X2506D01*
X2512Y1337D01*
Y1370D01*
X2526Y1331D02*
X2539D01*
X2532D01*
Y1370D01*
X2526Y1364D01*
X2558D02*
X2565Y1370D01*
X2578D01*
X2585Y1364D01*
Y1337D01*
X2578Y1331D01*
X2565D01*
X2558Y1337D01*
Y1364D01*
X3164Y1669D02*
Y1709D01*
X3184D01*
X3190Y1702D01*
Y1689D01*
X3184Y1682D01*
X3164D01*
X3177D02*
X3190Y1669D01*
X3203Y1709D02*
X3230D01*
Y1702D01*
X3203Y1676D01*
Y1669D01*
X3269D02*
X3243D01*
X3269Y1696D01*
Y1702D01*
X3262Y1709D01*
X3249D01*
X3243Y1702D01*
X2946Y1669D02*
Y1709D01*
X2966D01*
X2972Y1702D01*
Y1689D01*
X2966Y1682D01*
X2946D01*
X2959D02*
X2972Y1669D01*
X2986Y1709D02*
X3012D01*
Y1702D01*
X2986Y1676D01*
Y1669D01*
X3025D02*
X3038D01*
X3031D01*
Y1709D01*
X3025Y1702D01*
X2731Y1665D02*
Y1705D01*
X2751D01*
X2757Y1698D01*
Y1685D01*
X2751Y1678D01*
X2731D01*
X2744D02*
X2757Y1665D01*
X2770Y1705D02*
X2797D01*
Y1698D01*
X2770Y1672D01*
Y1665D01*
X2810Y1698D02*
X2816Y1705D01*
X2829D01*
X2836Y1698D01*
Y1672D01*
X2829Y1665D01*
X2816D01*
X2810Y1672D01*
Y1698D01*
X2526Y1665D02*
Y1705D01*
X2546D01*
X2553Y1698D01*
Y1685D01*
X2546Y1678D01*
X2526D01*
X2539D02*
X2553Y1665D01*
X2592Y1705D02*
X2579Y1698D01*
X2566Y1685D01*
Y1672D01*
X2572Y1665D01*
X2585D01*
X2592Y1672D01*
Y1678D01*
X2585Y1685D01*
X2566D01*
X2605Y1672D02*
X2612Y1665D01*
X2625D01*
X2631Y1672D01*
Y1698D01*
X2625Y1705D01*
X2612D01*
X2605Y1698D01*
Y1692D01*
X2612Y1685D01*
X2631D01*
X4900Y2001D02*
X4894Y1995D01*
Y1982D01*
X4900Y1975D01*
X4927D01*
X4933Y1982D01*
Y1995D01*
X4927Y2001D01*
X4894Y2014D02*
Y2041D01*
X4900D01*
X4927Y2014D01*
X4933D01*
X4900Y2054D02*
X4894Y2060D01*
Y2073D01*
X4900Y2080D01*
X4907D01*
X4913Y2073D01*
Y2067D01*
Y2073D01*
X4920Y2080D01*
X4927D01*
X4933Y2073D01*
Y2060D01*
X4927Y2054D01*
X4896Y2135D02*
X4890Y2129D01*
Y2115D01*
X4896Y2109D01*
X4923D01*
X4929Y2115D01*
Y2129D01*
X4923Y2135D01*
X4890Y2175D02*
X4896Y2161D01*
X4909Y2148D01*
X4923D01*
X4929Y2155D01*
Y2168D01*
X4923Y2175D01*
X4916D01*
X4909Y2168D01*
Y2148D01*
X4923Y2188D02*
X4929Y2194D01*
Y2207D01*
X4923Y2214D01*
X4896D01*
X4890Y2207D01*
Y2194D01*
X4896Y2188D01*
X4903D01*
X4909Y2194D01*
Y2214D01*
X4900Y1864D02*
X4894Y1857D01*
Y1844D01*
X4900Y1837D01*
X4927D01*
X4933Y1844D01*
Y1857D01*
X4927Y1864D01*
X4894Y1903D02*
X4900Y1890D01*
X4913Y1877D01*
X4927D01*
X4933Y1883D01*
Y1896D01*
X4927Y1903D01*
X4920D01*
X4913Y1896D01*
Y1877D01*
X4894Y1942D02*
Y1916D01*
X4913D01*
X4907Y1929D01*
Y1936D01*
X4913Y1942D01*
X4927D01*
X4933Y1936D01*
Y1923D01*
X4927Y1916D01*
X4900Y1748D02*
X4894Y1741D01*
Y1728D01*
X4900Y1722D01*
X4927D01*
X4933Y1728D01*
Y1741D01*
X4927Y1748D01*
X4894Y1787D02*
X4900Y1774D01*
X4913Y1761D01*
X4927D01*
X4933Y1768D01*
Y1781D01*
X4927Y1787D01*
X4920D01*
X4913Y1781D01*
Y1761D01*
X4933Y1801D02*
Y1814D01*
Y1807D01*
X4894D01*
X4900Y1801D01*
X2463Y436D02*
X2457Y430D01*
Y417D01*
X2463Y410D01*
X2489D01*
X2496Y417D01*
Y430D01*
X2489Y436D01*
X2463Y449D02*
X2457Y456D01*
Y469D01*
X2463Y476D01*
X2470D01*
X2476Y469D01*
Y463D01*
Y469D01*
X2483Y476D01*
X2489D01*
X2496Y469D01*
Y456D01*
X2489Y449D01*
X2457Y515D02*
X2463Y502D01*
X2476Y489D01*
X2489D01*
X2496Y495D01*
Y509D01*
X2489Y515D01*
X2483D01*
X2476Y509D01*
Y489D01*
X2214Y553D02*
X2208Y546D01*
Y533D01*
X2214Y526D01*
X2240D01*
X2247Y533D01*
Y546D01*
X2240Y553D01*
X2214Y566D02*
X2208Y572D01*
Y585D01*
X2214Y592D01*
X2221D01*
X2227Y585D01*
Y579D01*
Y585D01*
X2234Y592D01*
X2240D01*
X2247Y585D01*
Y572D01*
X2240Y566D01*
X2208Y631D02*
Y605D01*
X2227D01*
X2221Y618D01*
Y625D01*
X2227Y631D01*
X2240D01*
X2247Y625D01*
Y612D01*
X2240Y605D01*
X2125Y559D02*
X2118Y553D01*
Y539D01*
X2125Y533D01*
X2151D01*
X2157Y539D01*
Y553D01*
X2151Y559D01*
X2125Y572D02*
X2118Y579D01*
Y592D01*
X2125Y598D01*
X2131D01*
X2138Y592D01*
Y585D01*
Y592D01*
X2144Y598D01*
X2151D01*
X2157Y592D01*
Y579D01*
X2151Y572D01*
X2157Y612D02*
Y625D01*
Y618D01*
X2118D01*
X2125Y612D01*
X856Y1013D02*
X849Y1020D01*
X836D01*
X829Y1013D01*
Y987D01*
X836Y980D01*
X849D01*
X856Y987D01*
X895Y980D02*
X869D01*
X895Y1007D01*
Y1013D01*
X888Y1020D01*
X875D01*
X869Y1013D01*
X908Y987D02*
X915Y980D01*
X928D01*
X934Y987D01*
Y1013D01*
X928Y1020D01*
X915D01*
X908Y1013D01*
Y1007D01*
X915Y1000D01*
X934D01*
D15*
X997Y2322D02*
X1014D01*
X724D02*
Y2533D01*
Y2322D02*
X741D01*
X1014D02*
Y2533D01*
X997D02*
X1014D01*
X897D02*
X941D01*
X797D02*
X841D01*
X724D02*
X741D01*
X797Y2322D02*
X841D01*
X897D02*
X941D01*
X180Y2225D02*
X702D01*
Y1900D02*
Y2225D01*
X180Y1900D02*
X702D01*
X180D02*
Y2225D01*
X180Y1475D02*
Y1800D01*
Y1475D02*
X702D01*
Y1800D01*
X180D02*
X702D01*
X4172Y617D02*
X4188D01*
X4172Y410D02*
X4188D01*
X4379D02*
Y426D01*
X4363Y617D02*
X4379D01*
X4172Y600D02*
Y617D01*
Y410D02*
Y426D01*
X4363Y410D02*
X4379D01*
Y600D02*
Y617D01*
D16*
X175Y2063D02*
X185D01*
X697D02*
X707D01*
X236Y1895D02*
Y1905D01*
Y2220D02*
Y2230D01*
X394Y1895D02*
Y1905D01*
Y2220D02*
Y2230D01*
X551Y1895D02*
Y1905D01*
Y2220D02*
Y2230D01*
X551Y1795D02*
Y1805D01*
Y1470D02*
Y1480D01*
X394Y1795D02*
Y1805D01*
Y1470D02*
Y1480D01*
X236Y1795D02*
Y1805D01*
Y1470D02*
Y1480D01*
X697Y1638D02*
X707D01*
X175D02*
X185D01*
M02*
