G04*
G04 #@! TF.GenerationSoftware,Altium Limited,Altium Designer,20.2.6 (244)*
G04*
G04 Layer_Color=32896*
%FSLAX23Y23*%
%MOIN*%
G70*
G04*
G04 #@! TF.SameCoordinates,520E5D0B-E6D2-46CB-9709-C91B8BCBD3B5*
G04*
G04*
G04 #@! TF.FilePolarity,Positive*
G04*
G01*
G75*
%ADD10C,0.008*%
%ADD11C,0.010*%
%ADD13C,0.003*%
%ADD14C,0.006*%
%ADD15C,0.006*%
%ADD124C,0.004*%
D10*
X288Y1300D02*
G03*
X288Y1300I-3J0D01*
G01*
X288Y856D02*
G03*
X288Y856I-3J0D01*
G01*
X2226Y1720D02*
G03*
X2226Y1719I-2J2D01*
G01*
X3258Y1293D02*
G03*
X3258Y1293I-26J0D01*
G01*
X3995Y886D02*
G03*
X3995Y886I-26J0D01*
G01*
X3998Y1217D02*
G03*
X3998Y1217I-26J0D01*
G01*
X199Y1319D02*
G03*
X199Y1319I-26J0D01*
G01*
Y894D02*
G03*
X199Y894I-26J0D01*
G01*
X435Y685D02*
G03*
X435Y685I-26J0D01*
G01*
Y1126D02*
G03*
X435Y1126I-26J0D01*
G01*
X1825Y1928D02*
X1884D01*
X1825Y1813D02*
Y1928D01*
Y1813D02*
X1884D01*
Y1928D01*
X4041Y2429D02*
X4061Y2429D01*
X4041Y2398D02*
X4061Y2398D01*
X4874Y416D02*
X4874Y396D01*
X4905Y416D02*
X4905Y396D01*
X4874Y530D02*
X4874Y510D01*
X4905Y530D02*
X4905Y510D01*
X4874Y636D02*
X4874Y617D01*
X4905Y636D02*
X4905Y617D01*
X289Y1136D02*
X313D01*
X175D02*
X199D01*
X289Y1274D02*
X313D01*
X175D02*
X199D01*
X230Y1136D02*
X258D01*
X230Y1274D02*
X258D01*
X230Y829D02*
X258D01*
X230Y691D02*
X258D01*
X175Y829D02*
X199D01*
X289D02*
X313D01*
X175Y691D02*
X199D01*
X289D02*
X313D01*
X2156Y1321D02*
Y1380D01*
X2041D02*
X2156D01*
X2041Y1321D02*
Y1380D01*
Y1321D02*
X2156D01*
X2041Y1384D02*
X2156D01*
X2041D02*
Y1443D01*
X2156D01*
Y1384D02*
Y1443D01*
X3451Y98D02*
X3470Y98D01*
X3451Y67D02*
X3470Y67D01*
X3321Y67D02*
X3341Y67D01*
X3321Y98D02*
X3341Y98D01*
X3187Y67D02*
X3207Y67D01*
X3187Y98D02*
X3207Y98D01*
X3057Y98D02*
X3077Y98D01*
X3057Y67D02*
X3077Y67D01*
X4429Y1201D02*
X4508D01*
X4429Y1004D02*
X4508D01*
Y1201D01*
X4429Y1004D02*
Y1201D01*
Y1026D02*
X4508D01*
X1028Y2293D02*
X1028Y2274D01*
X996Y2293D02*
X996Y2274D01*
X4916Y772D02*
Y1591D01*
X4728D02*
X4916D01*
X4728Y772D02*
X4916D01*
X4728D02*
Y1591D01*
X1785Y1735D02*
X1844D01*
X1785Y1620D02*
Y1735D01*
Y1620D02*
X1844D01*
Y1735D01*
X1904Y1620D02*
Y1735D01*
X1844Y1620D02*
X1904D01*
X1844D02*
Y1735D01*
X1904D01*
X1904Y1735D02*
X1963D01*
X1904Y1620D02*
Y1735D01*
Y1620D02*
X1963D01*
Y1735D01*
X1963Y1735D02*
X2022D01*
X1963Y1620D02*
Y1735D01*
Y1620D02*
X2022D01*
Y1735D01*
X594Y1302D02*
Y1318D01*
X736D01*
Y1302D02*
Y1318D01*
X591Y539D02*
Y554D01*
X732Y539D02*
Y554D01*
X591Y539D02*
X732D01*
X3860Y2398D02*
X3880Y2398D01*
X3860Y2429D02*
X3880Y2429D01*
X2380Y1104D02*
X2935D01*
Y707D02*
Y1104D01*
X2380Y707D02*
X2935D01*
X2380D02*
Y1104D01*
D11*
X3946Y1549D02*
G03*
X3946Y1549I-5J0D01*
G01*
X3946Y2254D02*
G03*
X3946Y2254I-5J0D01*
G01*
X3946Y840D02*
G03*
X3946Y840I-5J0D01*
G01*
X3946Y1902D02*
G03*
X3946Y1902I-5J0D01*
G01*
X3946Y1194D02*
G03*
X3946Y1194I-5J0D01*
G01*
X2426Y1131D02*
G03*
X2426Y1131I-5J0D01*
G01*
D13*
X3440Y1024D02*
G03*
X3437Y1024I-2J0D01*
G01*
X3437Y1024D02*
G03*
X3440Y1024I2J0D01*
G01*
X3579Y1024D02*
G03*
X3582Y1024I2J0D01*
G01*
X3582Y1024D02*
G03*
X3579Y1024I-2J0D01*
G01*
D14*
X3136Y2098D02*
Y2114D01*
X3163Y2098D02*
Y2114D01*
X1018Y2606D02*
Y2622D01*
X1045Y2606D02*
Y2622D01*
X2886Y1179D02*
X2902D01*
X2886Y1207D02*
X2902D01*
X4230Y264D02*
Y280D01*
X4258Y264D02*
Y280D01*
X3492Y1400D02*
X3508D01*
X3492Y1427D02*
X3508D01*
X1152Y2606D02*
Y2622D01*
X1124Y2606D02*
Y2622D01*
X1116Y2606D02*
Y2622D01*
X1089Y2606D02*
Y2622D01*
X1222Y2606D02*
Y2622D01*
X1195Y2606D02*
Y2622D01*
X3089Y2098D02*
Y2114D01*
X3061Y2098D02*
Y2114D01*
X1293Y2606D02*
Y2622D01*
X1266Y2606D02*
Y2622D01*
X2886Y1305D02*
X2902D01*
X2886Y1278D02*
X2902D01*
X3171Y2098D02*
Y2114D01*
X3199Y2098D02*
Y2114D01*
X3026Y2098D02*
Y2114D01*
X3053Y2098D02*
Y2114D01*
X4285Y1000D02*
Y1016D01*
X4313Y1000D02*
Y1016D01*
X3096Y2098D02*
Y2114D01*
X3124Y2098D02*
Y2114D01*
X1014Y2606D02*
Y2622D01*
X986Y2606D02*
Y2622D01*
X1053Y2606D02*
Y2622D01*
X1081Y2606D02*
Y2622D01*
X1230Y2606D02*
Y2622D01*
X1258Y2606D02*
Y2622D01*
X1159Y2606D02*
Y2622D01*
X1187Y2606D02*
Y2622D01*
X547Y1825D02*
X563D01*
X547Y1797D02*
X563D01*
X1022Y1827D02*
Y1843D01*
X994Y1827D02*
Y1843D01*
X1022Y1591D02*
Y1606D01*
X994Y1591D02*
Y1606D01*
Y1669D02*
Y1685D01*
X1022Y1669D02*
Y1685D01*
X994Y1984D02*
Y2000D01*
X1022Y1984D02*
Y2000D01*
Y1748D02*
Y1764D01*
X994Y1748D02*
Y1764D01*
X980Y2116D02*
X996D01*
X980Y2144D02*
X996D01*
X622Y1797D02*
X638D01*
X622Y1825D02*
X638D01*
X528Y1498D02*
X543D01*
X528Y1526D02*
X543D01*
X622Y1915D02*
X638D01*
X622Y1943D02*
X638D01*
X276Y1789D02*
X291D01*
X276Y1762D02*
X291D01*
X1526Y1650D02*
Y1665D01*
X1553Y1650D02*
Y1665D01*
X1435Y1650D02*
Y1665D01*
X1407Y1650D02*
Y1665D01*
X1565Y1610D02*
Y1626D01*
X1593Y1610D02*
Y1626D01*
X1494Y1512D02*
Y1528D01*
X1467Y1512D02*
Y1528D01*
X817Y1571D02*
Y1587D01*
X844Y1571D02*
Y1587D01*
X531Y2207D02*
X547D01*
X531Y2179D02*
X547D01*
X626Y1526D02*
X642D01*
X626Y1498D02*
X642D01*
X1059Y2077D02*
X1075D01*
X1059Y2104D02*
X1075D01*
X457Y1526D02*
X472D01*
X457Y1498D02*
X472D01*
X980Y1919D02*
X996D01*
X980Y1947D02*
X996D01*
X1896Y854D02*
Y870D01*
X1868Y854D02*
Y870D01*
X1215Y854D02*
Y870D01*
X1242Y854D02*
Y870D01*
X4079Y593D02*
X4094D01*
X4079Y565D02*
X4094D01*
X4130Y2400D02*
X4146D01*
X4130Y2427D02*
X4146D01*
X4822Y365D02*
X4838D01*
X4822Y392D02*
X4838D01*
X4822Y479D02*
X4838D01*
X4822Y506D02*
X4838D01*
X4823Y612D02*
X4839D01*
X4823Y585D02*
X4839D01*
X634Y518D02*
X650D01*
X634Y490D02*
X650D01*
X780Y518D02*
X795D01*
X780Y490D02*
X795D01*
X1745Y1279D02*
X1756Y1291D01*
X1854Y1303D02*
X1866Y1291D01*
X2000Y1291D02*
X2011Y1303D01*
X1756Y1291D02*
X2000D01*
X1970Y1327D02*
Y1343D01*
X1943Y1327D02*
Y1343D01*
X1935Y1327D02*
Y1343D01*
X1907Y1327D02*
Y1343D01*
X2317Y1496D02*
Y1512D01*
X2344Y1496D02*
Y1512D01*
X2447Y1500D02*
Y1516D01*
X2474Y1500D02*
Y1516D01*
X2683Y1496D02*
Y1512D01*
X2656Y1496D02*
Y1512D01*
X2220Y1150D02*
X2232Y1138D01*
Y1130D02*
Y1138D01*
X2232Y992D02*
X2248Y1008D01*
X2232Y819D02*
Y1130D01*
Y819D02*
X2244Y807D01*
X2295Y813D02*
X2311D01*
X2295Y841D02*
X2311D01*
X2295Y872D02*
X2311D01*
X2295Y844D02*
X2311D01*
X2295Y939D02*
X2311D01*
X2295Y967D02*
X2311D01*
X2295Y970D02*
X2311D01*
X2295Y998D02*
X2311D01*
X2295Y935D02*
X2311D01*
X2295Y907D02*
X2311D01*
X2760Y291D02*
X2772Y280D01*
X2587Y268D02*
X2598Y280D01*
X2965D01*
X2980Y295D01*
X2801Y319D02*
Y335D01*
X2774Y319D02*
Y335D01*
X2809Y319D02*
Y335D01*
X2837Y319D02*
Y335D01*
X2844Y319D02*
Y335D01*
X2872Y319D02*
Y335D01*
X2907Y319D02*
Y335D01*
X2880Y319D02*
Y335D01*
X2915Y319D02*
Y335D01*
X2943Y319D02*
Y335D01*
X2978Y319D02*
Y335D01*
X2951Y319D02*
Y335D01*
X2295Y876D02*
X2311D01*
X2295Y904D02*
X2311D01*
X350Y1526D02*
X366D01*
X350Y1498D02*
X366D01*
X3091Y1226D02*
X3106D01*
X3091Y1199D02*
X3106D01*
X2207Y650D02*
Y665D01*
X2179Y650D02*
Y665D01*
X1983Y669D02*
Y685D01*
X2011Y669D02*
Y685D01*
X1971Y669D02*
Y685D01*
X1944Y669D02*
Y685D01*
X1717Y254D02*
X1732D01*
X1717Y281D02*
X1732D01*
X1630Y293D02*
X1646D01*
X1630Y321D02*
X1646D01*
X1717Y321D02*
X1732D01*
X1717Y293D02*
X1732D01*
X1314Y669D02*
Y685D01*
X1286Y669D02*
Y685D01*
X1326Y669D02*
Y685D01*
X1353Y669D02*
Y685D01*
X1059Y254D02*
X1075D01*
X1059Y281D02*
X1075D01*
X1059Y293D02*
X1075D01*
X1059Y321D02*
X1075D01*
X972D02*
X988D01*
X972Y293D02*
X988D01*
X3091Y1301D02*
X3106D01*
X3091Y1274D02*
X3106D01*
X3091Y1234D02*
X3106D01*
X3091Y1262D02*
X3106D01*
X1154Y2215D02*
X1169D01*
X1154Y2242D02*
X1169D01*
X1154Y2274D02*
X1169D01*
X1154Y2246D02*
X1169D01*
X3719Y1781D02*
Y1797D01*
X3691Y1781D02*
Y1797D01*
X108Y2205D02*
Y2220D01*
X136Y2205D02*
Y2220D01*
X270Y1854D02*
Y1870D01*
X297Y1854D02*
Y1870D01*
X254Y1854D02*
Y1870D01*
X226Y1854D02*
Y1870D01*
X358Y1868D02*
X374D01*
X358Y1841D02*
X374D01*
X116Y1957D02*
Y1972D01*
X144Y1957D02*
Y1972D01*
Y1957D02*
Y1972D01*
X171Y1957D02*
Y1972D01*
X376Y1957D02*
Y1972D01*
X348Y1957D02*
Y1972D01*
X266Y1957D02*
Y1972D01*
X238Y1957D02*
Y1972D01*
X301Y1957D02*
Y1972D01*
X274Y1957D02*
Y1972D01*
X333Y1957D02*
Y1972D01*
X305Y1957D02*
Y1972D01*
X203Y1957D02*
Y1972D01*
X230Y1957D02*
Y1972D01*
X671Y2370D02*
Y2386D01*
X699Y2370D02*
Y2386D01*
X423Y2150D02*
Y2165D01*
X451Y2150D02*
Y2165D01*
X191Y2150D02*
Y2165D01*
X219Y2150D02*
Y2165D01*
X478Y2150D02*
Y2165D01*
X451Y2150D02*
Y2165D01*
X433Y1998D02*
X449D01*
X433Y2026D02*
X449D01*
X419Y2150D02*
Y2165D01*
X392Y2150D02*
Y2165D01*
X177Y2033D02*
X193D01*
X177Y2061D02*
X193D01*
X177Y2089D02*
X193D01*
X177Y2061D02*
X193D01*
X177Y2116D02*
X193D01*
X177Y2089D02*
X193D01*
X219Y2150D02*
Y2165D01*
X246Y2150D02*
Y2165D01*
X191Y2150D02*
Y2165D01*
X163Y2150D02*
Y2165D01*
X246Y2150D02*
Y2165D01*
X274Y2150D02*
Y2165D01*
X301Y2150D02*
Y2165D01*
X274Y2150D02*
Y2165D01*
X329Y2150D02*
Y2165D01*
X301Y2150D02*
Y2165D01*
X329Y2150D02*
Y2165D01*
X356Y2150D02*
Y2165D01*
X384Y2150D02*
Y2165D01*
X356Y2150D02*
Y2165D01*
X3506Y1157D02*
Y1173D01*
X3478Y1157D02*
Y1173D01*
X2148Y1697D02*
Y1713D01*
X2120Y1697D02*
Y1713D01*
X2081Y1697D02*
Y1713D01*
X2108Y1697D02*
Y1713D01*
X2006Y1327D02*
Y1343D01*
X1978Y1327D02*
Y1343D01*
X1872Y1327D02*
Y1343D01*
X1900Y1327D02*
Y1343D01*
X1596Y2260D02*
Y2276D01*
X1624Y2260D02*
Y2276D01*
X1154Y2400D02*
X1169D01*
X1154Y2372D02*
X1169D01*
X1154Y2404D02*
X1169D01*
X1154Y2431D02*
X1169D01*
X1154Y2341D02*
X1169D01*
X1154Y2368D02*
X1169D01*
X916Y2283D02*
Y2299D01*
X944Y2283D02*
Y2299D01*
X747Y2283D02*
Y2299D01*
X719Y2283D02*
Y2299D01*
X1027Y2417D02*
Y2433D01*
X999Y2417D02*
Y2433D01*
X865Y2283D02*
Y2299D01*
X838Y2283D02*
Y2299D01*
X759Y2283D02*
Y2299D01*
X786Y2283D02*
Y2299D01*
X1037Y2417D02*
Y2433D01*
X1065Y2417D02*
Y2433D01*
X987Y2417D02*
Y2433D01*
X960Y2417D02*
Y2433D01*
X826Y2398D02*
Y2413D01*
X853Y2398D02*
Y2413D01*
X798Y2283D02*
Y2299D01*
X826Y2283D02*
Y2299D01*
X905Y2283D02*
Y2299D01*
X877Y2283D02*
Y2299D01*
X360Y618D02*
Y634D01*
X388Y618D02*
Y634D01*
X388Y1063D02*
Y1079D01*
X360Y1063D02*
Y1079D01*
X3774Y1919D02*
Y1935D01*
X3746Y1919D02*
Y1935D01*
X3746Y1213D02*
Y1228D01*
X3774Y1213D02*
Y1228D01*
X3774Y858D02*
Y874D01*
X3746Y858D02*
Y874D01*
X3746Y1567D02*
Y1583D01*
X3774Y1567D02*
Y1583D01*
X3746Y1075D02*
Y1091D01*
X3774Y1075D02*
Y1091D01*
X3856Y1606D02*
Y1622D01*
X3884Y1606D02*
Y1622D01*
X3746Y1429D02*
Y1445D01*
X3774Y1429D02*
Y1445D01*
X3856Y1959D02*
Y1974D01*
X3884Y1959D02*
Y1974D01*
X3774Y2272D02*
Y2287D01*
X3746Y2272D02*
Y2287D01*
X3856Y1252D02*
Y1268D01*
X3884Y1252D02*
Y1268D01*
X470Y827D02*
Y843D01*
X443Y827D02*
Y843D01*
X254Y618D02*
Y634D01*
X281Y618D02*
Y634D01*
X211Y618D02*
Y634D01*
X183Y618D02*
Y634D01*
X148Y618D02*
Y634D01*
X175Y618D02*
Y634D01*
X98Y868D02*
X114D01*
X98Y841D02*
X114D01*
X443Y1272D02*
Y1287D01*
X470Y1272D02*
Y1287D01*
X281Y1063D02*
Y1079D01*
X254Y1063D02*
Y1079D01*
X183Y1063D02*
Y1079D01*
X211Y1063D02*
Y1079D01*
X175Y1063D02*
Y1079D01*
X148Y1063D02*
Y1079D01*
X98Y1285D02*
X114D01*
X98Y1313D02*
X114D01*
X699Y2283D02*
Y2299D01*
X671Y2283D02*
Y2299D01*
X3020Y774D02*
X3035D01*
X3020Y746D02*
X3035D01*
X3020Y841D02*
X3035D01*
X3020Y868D02*
X3035D01*
X3020Y963D02*
X3035D01*
X3020Y935D02*
X3035D01*
X3020Y1030D02*
X3035D01*
X3020Y1057D02*
X3035D01*
X3774Y1781D02*
Y1797D01*
X3746Y1781D02*
Y1797D01*
X3884Y2311D02*
Y2327D01*
X3856Y2311D02*
Y2327D01*
X3774Y2134D02*
Y2150D01*
X3746Y2134D02*
Y2150D01*
X3884Y898D02*
Y913D01*
X3856Y898D02*
Y913D01*
X3774Y720D02*
Y736D01*
X3746Y720D02*
Y736D01*
X3077Y1500D02*
Y1516D01*
X3104Y1500D02*
Y1516D01*
X2864Y1500D02*
Y1516D01*
X2892Y1500D02*
Y1516D01*
X3719Y2134D02*
Y2150D01*
X3691Y2134D02*
Y2150D01*
X3691Y1075D02*
Y1091D01*
X3719Y1075D02*
Y1091D01*
X3719Y720D02*
Y736D01*
X3691Y720D02*
Y736D01*
X3691Y1429D02*
Y1445D01*
X3719Y1429D02*
Y1445D01*
X3911Y1711D02*
Y1726D01*
X3884Y1711D02*
Y1726D01*
X423Y618D02*
Y634D01*
X396Y618D02*
Y634D01*
X396Y1063D02*
Y1079D01*
X423Y1063D02*
Y1079D01*
X3951Y2063D02*
Y2079D01*
X3923Y2063D02*
Y2079D01*
X3781Y2272D02*
Y2287D01*
X3809Y2272D02*
Y2287D01*
X3951Y650D02*
Y665D01*
X3923Y650D02*
Y665D01*
X3911Y1358D02*
Y1374D01*
X3884Y1358D02*
Y1374D01*
X3963Y1358D02*
Y1374D01*
X3990Y1358D02*
Y1374D01*
X3923Y1358D02*
Y1374D01*
X3951Y1358D02*
Y1374D01*
X972Y281D02*
X988D01*
X972Y254D02*
X988D01*
X1154Y2309D02*
X1169D01*
X1154Y2337D02*
X1169D01*
X1154Y2278D02*
X1169D01*
X1154Y2305D02*
X1169D01*
X3990Y1711D02*
Y1726D01*
X3963Y1711D02*
Y1726D01*
X3951Y1711D02*
Y1726D01*
X3923Y1711D02*
Y1726D01*
X3911Y2063D02*
Y2079D01*
X3884Y2063D02*
Y2079D01*
X3953Y2427D02*
X3969D01*
X3953Y2400D02*
X3969D01*
X317Y618D02*
Y634D01*
X289Y618D02*
Y634D01*
X311Y860D02*
X327D01*
X311Y888D02*
X327D01*
X219Y618D02*
Y634D01*
X246Y618D02*
Y634D01*
X352Y618D02*
Y634D01*
X325Y618D02*
Y634D01*
X228Y860D02*
X244D01*
X228Y888D02*
X244D01*
X289Y1063D02*
Y1079D01*
X317Y1063D02*
Y1079D01*
X311Y1333D02*
X327D01*
X311Y1305D02*
X327D01*
X140Y1063D02*
Y1079D01*
X112Y1063D02*
Y1079D01*
X219Y1063D02*
Y1079D01*
X246Y1063D02*
Y1079D01*
X352Y1063D02*
Y1079D01*
X325Y1063D02*
Y1079D01*
X228Y1305D02*
X244D01*
X228Y1333D02*
X244D01*
X904Y1591D02*
Y1606D01*
X876Y1591D02*
Y1606D01*
X3020Y1093D02*
X3035D01*
X3020Y1120D02*
X3035D01*
X3020Y742D02*
X3035D01*
X3020Y715D02*
X3035D01*
X3020Y778D02*
X3035D01*
X3020Y805D02*
X3035D01*
X3020Y837D02*
X3035D01*
X3020Y809D02*
X3035D01*
X3020Y872D02*
X3035D01*
X3020Y900D02*
X3035D01*
X3020Y931D02*
X3035D01*
X3020Y904D02*
X3035D01*
X3020Y967D02*
X3035D01*
X3020Y994D02*
X3035D01*
X3020Y1026D02*
X3035D01*
X3020Y998D02*
X3035D01*
X3020Y1061D02*
X3035D01*
X3020Y1089D02*
X3035D01*
X3817Y2311D02*
Y2327D01*
X3844Y2311D02*
Y2327D01*
X3963Y2063D02*
Y2079D01*
X3990Y2063D02*
Y2079D01*
X3911Y1004D02*
Y1020D01*
X3884Y1004D02*
Y1020D01*
X3963Y1004D02*
Y1020D01*
X3990Y1004D02*
Y1020D01*
X3923Y1004D02*
Y1020D01*
X3951Y1004D02*
Y1020D01*
X3884Y650D02*
Y665D01*
X3911Y650D02*
Y665D01*
X3990Y650D02*
Y665D01*
X3963Y650D02*
Y665D01*
X104Y1063D02*
Y1079D01*
X77Y1063D02*
Y1079D01*
X358Y1904D02*
X374D01*
X358Y1876D02*
X374D01*
X982Y2228D02*
Y2244D01*
X955Y2228D02*
Y2244D01*
X3537Y1157D02*
Y1173D01*
X3510Y1157D02*
Y1173D01*
X3541Y1157D02*
Y1173D01*
X3569Y1157D02*
Y1173D01*
X3528Y931D02*
X3543D01*
X3528Y959D02*
X3543D01*
X3528Y994D02*
X3543D01*
X3528Y967D02*
X3543D01*
X3364Y1157D02*
Y1173D01*
X3337Y1157D02*
Y1173D01*
X3368Y1157D02*
Y1173D01*
X3396Y1157D02*
Y1173D01*
X3427Y1157D02*
Y1173D01*
X3400Y1157D02*
Y1173D01*
X3386Y959D02*
X3402D01*
X3386Y931D02*
X3402D01*
X3386Y967D02*
X3402D01*
X3386Y994D02*
X3402D01*
X1630Y281D02*
X1646D01*
X1630Y254D02*
X1646D01*
X2848Y416D02*
Y443D01*
Y429D01*
X2809D01*
X2848Y456D02*
X2809D01*
Y475D01*
X2816Y482D01*
X2842D01*
X2848Y475D01*
Y456D01*
Y495D02*
Y508D01*
Y502D01*
X2809D01*
Y495D01*
Y508D01*
X2687Y406D02*
Y432D01*
Y419D01*
X2648D01*
X2687Y445D02*
X2648D01*
Y465D01*
X2654Y471D01*
X2680D01*
X2687Y465D01*
Y445D01*
Y504D02*
Y491D01*
X2680Y484D01*
X2654D01*
X2648Y491D01*
Y504D01*
X2654Y510D01*
X2680D01*
X2687Y504D01*
X2746Y405D02*
Y431D01*
Y418D01*
X2707D01*
Y444D02*
X2746D01*
X2733Y457D01*
X2746Y470D01*
X2707D01*
X2739Y509D02*
X2746Y503D01*
Y490D01*
X2739Y483D01*
X2733D01*
X2726Y490D01*
Y503D01*
X2720Y509D01*
X2713D01*
X2707Y503D01*
Y490D01*
X2713Y483D01*
X2805Y406D02*
Y433D01*
Y420D01*
X2766D01*
X2799Y472D02*
X2805Y466D01*
Y452D01*
X2799Y446D01*
X2772D01*
X2766Y452D01*
Y466D01*
X2772Y472D01*
X2805Y485D02*
X2766D01*
X2779D01*
X2805Y511D01*
X2785Y492D01*
X2766Y511D01*
X4622Y1685D02*
Y1711D01*
X4635Y1698D02*
X4609D01*
X4602Y1724D02*
Y1738D01*
Y1731D01*
X4642D01*
X4635Y1724D01*
X4602Y1757D02*
X4609D01*
Y1764D01*
X4602D01*
Y1757D01*
X4635Y1790D02*
X4642Y1797D01*
Y1810D01*
X4635Y1816D01*
X4629D01*
X4622Y1810D01*
X4615Y1816D01*
X4609D01*
X4602Y1810D01*
Y1797D01*
X4609Y1790D01*
X4615D01*
X4622Y1797D01*
X4629Y1790D01*
X4635D01*
X4622Y1797D02*
Y1810D01*
X4642Y1829D02*
X4615D01*
X4602Y1842D01*
X4615Y1856D01*
X4642D01*
X4130Y153D02*
Y179D01*
Y166D01*
X4091D01*
X4130Y192D02*
X4091Y218D01*
X4130D02*
X4091Y192D01*
X3323Y1360D02*
X3297D01*
X3310Y1373D02*
Y1347D01*
X3283Y1341D02*
X3270D01*
X3277D01*
Y1380D01*
X3283Y1373D01*
X3251Y1341D02*
Y1347D01*
X3244D01*
Y1341D01*
X3251D01*
X3192D02*
X3218D01*
X3192Y1367D01*
Y1373D01*
X3198Y1380D01*
X3211D01*
X3218Y1373D01*
X3179Y1380D02*
Y1354D01*
X3165Y1341D01*
X3152Y1354D01*
Y1380D01*
X4264Y1555D02*
X4238D01*
X4251Y1568D02*
Y1542D01*
X4224Y1568D02*
X4218Y1575D01*
X4205D01*
X4198Y1568D01*
Y1562D01*
X4205Y1555D01*
X4211D01*
X4205D01*
X4198Y1549D01*
Y1542D01*
X4205Y1535D01*
X4218D01*
X4224Y1542D01*
X4185Y1535D02*
Y1542D01*
X4179D01*
Y1535D01*
X4185D01*
X4152Y1568D02*
X4146Y1575D01*
X4133D01*
X4126Y1568D01*
Y1562D01*
X4133Y1555D01*
X4139D01*
X4133D01*
X4126Y1549D01*
Y1542D01*
X4133Y1535D01*
X4146D01*
X4152Y1542D01*
X4113Y1575D02*
Y1549D01*
X4100Y1535D01*
X4087Y1549D01*
Y1575D01*
X4268Y1909D02*
X4241D01*
X4255Y1923D02*
Y1896D01*
X4202Y1929D02*
X4228D01*
Y1909D01*
X4215Y1916D01*
X4209D01*
X4202Y1909D01*
Y1896D01*
X4209Y1890D01*
X4222D01*
X4228Y1896D01*
X4189Y1890D02*
Y1896D01*
X4182D01*
Y1890D01*
X4189D01*
X4156Y1923D02*
X4150Y1929D01*
X4137D01*
X4130Y1923D01*
Y1896D01*
X4137Y1890D01*
X4150D01*
X4156Y1896D01*
Y1923D01*
X4117Y1929D02*
Y1903D01*
X4104Y1890D01*
X4091Y1903D01*
Y1929D01*
X4559Y1685D02*
Y1711D01*
X4572Y1698D02*
X4546D01*
X4539Y1751D02*
Y1724D01*
X4566Y1751D01*
X4572D01*
X4579Y1744D01*
Y1731D01*
X4572Y1724D01*
X4539Y1764D02*
X4546D01*
Y1770D01*
X4539D01*
Y1764D01*
X4579Y1797D02*
Y1823D01*
X4572D01*
X4546Y1797D01*
X4539D01*
X4579Y1836D02*
X4552D01*
X4539Y1849D01*
X4552Y1862D01*
X4579D01*
X4496Y1681D02*
Y1707D01*
X4509Y1694D02*
X4483D01*
X4476Y1747D02*
Y1720D01*
X4503Y1747D01*
X4509D01*
X4516Y1740D01*
Y1727D01*
X4509Y1720D01*
X4476Y1760D02*
X4483D01*
Y1766D01*
X4476D01*
Y1760D01*
X4509Y1793D02*
X4516Y1799D01*
Y1812D01*
X4509Y1819D01*
X4503D01*
X4496Y1812D01*
X4489Y1819D01*
X4483D01*
X4476Y1812D01*
Y1799D01*
X4483Y1793D01*
X4489D01*
X4496Y1799D01*
X4503Y1793D01*
X4509D01*
X4496Y1799D02*
Y1812D01*
X4516Y1832D02*
X4489D01*
X4476Y1845D01*
X4489Y1858D01*
X4516D01*
X4781Y2265D02*
X4787Y2272D01*
X4801D01*
X4807Y2265D01*
Y2239D01*
X4801Y2232D01*
X4787D01*
X4781Y2239D01*
X4768Y2232D02*
Y2259D01*
X4755Y2272D01*
X4741Y2259D01*
Y2232D01*
Y2252D01*
X4768D01*
X4728Y2232D02*
Y2272D01*
X4715Y2259D01*
X4702Y2272D01*
Y2232D01*
X4689Y2252D02*
X4663D01*
X4650Y2265D02*
X4643Y2272D01*
X4630D01*
X4623Y2265D01*
Y2259D01*
X4630Y2252D01*
X4637D01*
X4630D01*
X4623Y2245D01*
Y2239D01*
X4630Y2232D01*
X4643D01*
X4650Y2239D01*
X4610Y2232D02*
Y2239D01*
X4604D01*
Y2232D01*
X4610D01*
X4578Y2265D02*
X4571Y2272D01*
X4558D01*
X4551Y2265D01*
Y2259D01*
X4558Y2252D01*
X4564D01*
X4558D01*
X4551Y2245D01*
Y2239D01*
X4558Y2232D01*
X4571D01*
X4578Y2239D01*
X4538Y2272D02*
Y2245D01*
X4525Y2232D01*
X4512Y2245D01*
Y2272D01*
X4197Y827D02*
X4171D01*
X4184Y840D02*
Y814D01*
X4157Y807D02*
X4144D01*
X4151D01*
Y846D01*
X4157Y840D01*
X4125Y807D02*
Y814D01*
X4118D01*
Y807D01*
X4125D01*
X4066Y846D02*
X4092D01*
Y827D01*
X4079Y833D01*
X4072D01*
X4066Y827D01*
Y814D01*
X4072Y807D01*
X4085D01*
X4092Y814D01*
X4053Y846D02*
Y820D01*
X4039Y807D01*
X4026Y820D01*
Y846D01*
X1862Y1543D02*
X1836D01*
X1849Y1556D02*
Y1530D01*
X1797Y1563D02*
X1823D01*
Y1543D01*
X1810Y1550D01*
X1803D01*
X1797Y1543D01*
Y1530D01*
X1803Y1524D01*
X1816D01*
X1823Y1530D01*
X1783Y1563D02*
Y1537D01*
X1770Y1524D01*
X1757Y1537D01*
Y1563D01*
X4654Y1401D02*
X4667D01*
X4673Y1394D01*
Y1368D01*
X4667Y1361D01*
X4654D01*
X4647Y1368D01*
Y1394D01*
X4654Y1401D01*
X4634Y1387D02*
Y1368D01*
X4627Y1361D01*
X4608D01*
Y1387D01*
X4588Y1394D02*
Y1387D01*
X4595D01*
X4581D01*
X4588D01*
Y1368D01*
X4581Y1361D01*
X4562Y1401D02*
Y1361D01*
X4542D01*
X4535Y1368D01*
Y1374D01*
X4542Y1381D01*
X4562D01*
X4542D01*
X4535Y1387D01*
Y1394D01*
X4542Y1401D01*
X4562D01*
X4913Y715D02*
X4900D01*
X4907D01*
Y754D01*
X4913Y747D01*
X4881Y721D02*
X4874Y715D01*
X4861D01*
X4854Y721D01*
Y747D01*
X4861Y754D01*
X4874D01*
X4881Y747D01*
Y741D01*
X4874Y734D01*
X4854D01*
X4880Y1608D02*
X4867D01*
X4873D01*
Y1648D01*
X4880Y1641D01*
X4768Y714D02*
X4794D01*
X4768Y740D01*
Y746D01*
X4775Y753D01*
X4788D01*
X4794Y746D01*
X4755D02*
X4748Y753D01*
X4735D01*
X4729Y746D01*
Y720D01*
X4735Y714D01*
X4748D01*
X4755Y720D01*
Y746D01*
X4743Y1611D02*
X4770D01*
X4743Y1637D01*
Y1644D01*
X4750Y1651D01*
X4763D01*
X4770Y1644D01*
X4709Y874D02*
X4682Y835D01*
Y874D02*
X4709Y835D01*
X4669Y867D02*
X4663Y874D01*
X4650D01*
X4643Y867D01*
Y861D01*
X4650Y854D01*
X4656D01*
X4650D01*
X4643Y848D01*
Y841D01*
X4650Y835D01*
X4663D01*
X4669Y841D01*
X2138Y1252D02*
X2112D01*
X2125Y1265D02*
Y1239D01*
X2072Y1272D02*
X2098D01*
Y1252D01*
X2085Y1259D01*
X2079D01*
X2072Y1252D01*
Y1239D01*
X2079Y1232D01*
X2092D01*
X2098Y1239D01*
X2059Y1272D02*
Y1245D01*
X2046Y1232D01*
X2033Y1245D01*
Y1272D01*
X4197Y1189D02*
X4171D01*
X4184Y1202D02*
Y1176D01*
X4131Y1169D02*
X4157D01*
X4131Y1196D01*
Y1202D01*
X4138Y1209D01*
X4151D01*
X4157Y1202D01*
X4118Y1169D02*
Y1176D01*
X4112D01*
Y1169D01*
X4118D01*
X4059Y1209D02*
X4085D01*
Y1189D01*
X4072Y1196D01*
X4066D01*
X4059Y1189D01*
Y1176D01*
X4066Y1169D01*
X4079D01*
X4085Y1176D01*
X4046Y1209D02*
Y1182D01*
X4033Y1169D01*
X4020Y1182D01*
Y1209D01*
X217Y1362D02*
Y1402D01*
X197D01*
X190Y1395D01*
Y1382D01*
X197Y1375D01*
X217D01*
X151Y1395D02*
X157Y1402D01*
X171D01*
X177Y1395D01*
Y1369D01*
X171Y1362D01*
X157D01*
X151Y1369D01*
Y1382D01*
X164D01*
X138Y1362D02*
X125D01*
X131D01*
Y1402D01*
X138Y1395D01*
X224Y930D02*
Y969D01*
X205D01*
X198Y963D01*
Y950D01*
X205Y943D01*
X224D01*
X159Y963D02*
X165Y969D01*
X178D01*
X185Y963D01*
Y937D01*
X178Y930D01*
X165D01*
X159Y937D01*
Y950D01*
X172D01*
X119Y930D02*
X146D01*
X119Y956D01*
Y963D01*
X126Y969D01*
X139D01*
X146Y963D01*
X4655Y1327D02*
X4668D01*
X4674Y1320D01*
Y1294D01*
X4668Y1287D01*
X4655D01*
X4648Y1294D01*
Y1320D01*
X4655Y1327D01*
X4635Y1314D02*
Y1294D01*
X4628Y1287D01*
X4609D01*
Y1314D01*
X4589Y1320D02*
Y1314D01*
X4595D01*
X4582D01*
X4589D01*
Y1294D01*
X4582Y1287D01*
X4563D02*
Y1314D01*
X4550Y1327D01*
X4536Y1314D01*
Y1287D01*
Y1307D01*
X4563D01*
X4005Y157D02*
X4044D01*
Y177D01*
X4038Y184D01*
X4025D01*
X4018Y177D01*
Y157D01*
Y171D02*
X4005Y184D01*
X4044Y197D02*
X4005Y223D01*
X4044D02*
X4005Y197D01*
X4452Y384D02*
X4426D01*
X4439Y397D02*
Y371D01*
X4412Y397D02*
X4406Y404D01*
X4393D01*
X4386Y397D01*
Y390D01*
X4393Y384D01*
X4399D01*
X4393D01*
X4386Y377D01*
Y371D01*
X4393Y364D01*
X4406D01*
X4412Y371D01*
X4373Y364D02*
Y371D01*
X4366D01*
Y364D01*
X4373D01*
X4340Y397D02*
X4334Y404D01*
X4321D01*
X4314Y397D01*
Y390D01*
X4321Y384D01*
X4327D01*
X4321D01*
X4314Y377D01*
Y371D01*
X4321Y364D01*
X4334D01*
X4340Y371D01*
X4301Y404D02*
Y377D01*
X4288Y364D01*
X4275Y377D01*
Y404D01*
X512Y748D02*
X486D01*
X499Y761D02*
Y735D01*
X472Y728D02*
X459D01*
X466D01*
Y768D01*
X472Y761D01*
X440Y728D02*
Y735D01*
X433D01*
Y728D01*
X440D01*
X407Y761D02*
X400Y768D01*
X387D01*
X381Y761D01*
Y755D01*
X387Y748D01*
X381Y741D01*
Y735D01*
X387Y728D01*
X400D01*
X407Y735D01*
Y741D01*
X400Y748D01*
X407Y755D01*
Y761D01*
X400Y748D02*
X387D01*
X368Y768D02*
Y741D01*
X354Y728D01*
X341Y741D01*
Y768D01*
X4693Y1685D02*
Y1711D01*
X4706Y1698D02*
X4680D01*
X4673Y1724D02*
Y1738D01*
Y1731D01*
X4713D01*
X4706Y1724D01*
X4673Y1757D02*
X4680D01*
Y1764D01*
X4673D01*
Y1757D01*
Y1816D02*
Y1790D01*
X4699Y1816D01*
X4706D01*
X4713Y1810D01*
Y1797D01*
X4706Y1790D01*
X4713Y1829D02*
X4686D01*
X4673Y1842D01*
X4686Y1856D01*
X4713D01*
X516Y1189D02*
X490D01*
X503Y1202D02*
Y1176D01*
X476Y1169D02*
X463D01*
X470D01*
Y1209D01*
X476Y1202D01*
X444Y1169D02*
Y1176D01*
X437D01*
Y1169D01*
X444D01*
X411Y1202D02*
X404Y1209D01*
X391D01*
X385Y1202D01*
Y1176D01*
X391Y1169D01*
X404D01*
X411Y1176D01*
Y1202D01*
X371Y1209D02*
Y1182D01*
X358Y1169D01*
X345Y1182D01*
Y1209D01*
X4209Y182D02*
X4216Y175D01*
Y162D01*
X4209Y156D01*
X4183D01*
X4176Y162D01*
Y175D01*
X4183Y182D01*
X4196D01*
Y169D01*
X4176Y195D02*
X4216D01*
X4176Y221D01*
X4216D01*
Y234D02*
X4176D01*
Y254D01*
X4183Y260D01*
X4209D01*
X4216Y254D01*
Y234D01*
X1957Y480D02*
X1930D01*
X1944Y493D02*
Y467D01*
X1917Y493D02*
X1911Y500D01*
X1898D01*
X1891Y493D01*
Y487D01*
X1898Y480D01*
X1904D01*
X1898D01*
X1891Y474D01*
Y467D01*
X1898Y461D01*
X1911D01*
X1917Y467D01*
X1878Y461D02*
Y467D01*
X1871D01*
Y461D01*
X1878D01*
X1845Y493D02*
X1839Y500D01*
X1826D01*
X1819Y493D01*
Y487D01*
X1826Y480D01*
X1832D01*
X1826D01*
X1819Y474D01*
Y467D01*
X1826Y461D01*
X1839D01*
X1845Y467D01*
X1806Y500D02*
Y474D01*
X1793Y461D01*
X1780Y474D01*
Y500D01*
X1596Y418D02*
X1570D01*
X1583Y431D02*
Y405D01*
X1557Y399D02*
X1544D01*
X1551D01*
Y438D01*
X1557Y431D01*
X1524Y399D02*
Y405D01*
X1518D01*
Y399D01*
X1524D01*
X1492Y431D02*
X1485Y438D01*
X1472D01*
X1465Y431D01*
Y425D01*
X1472Y418D01*
X1465Y412D01*
Y405D01*
X1472Y399D01*
X1485D01*
X1492Y405D01*
Y412D01*
X1485Y418D01*
X1492Y425D01*
Y431D01*
X1485Y418D02*
X1472D01*
X1452Y438D02*
Y412D01*
X1439Y399D01*
X1426Y412D01*
Y438D01*
X689Y1370D02*
X663Y1331D01*
Y1370D02*
X689Y1331D01*
X650D02*
X637D01*
X643D01*
Y1370D01*
X650Y1364D01*
X526Y552D02*
X512D01*
X519D01*
Y592D01*
X526Y585D01*
X824Y1341D02*
X817Y1347D01*
X804D01*
X798Y1341D01*
Y1334D01*
X804Y1328D01*
X811D01*
X804D01*
X798Y1321D01*
Y1315D01*
X804Y1308D01*
X817D01*
X824Y1315D01*
X784Y1341D02*
X778Y1347D01*
X765D01*
X758Y1341D01*
Y1315D01*
X765Y1308D01*
X778D01*
X784Y1315D01*
Y1341D01*
X547Y1307D02*
X573D01*
X547Y1333D01*
Y1340D01*
X553Y1346D01*
X566D01*
X573Y1340D01*
X533Y1314D02*
X527Y1307D01*
X514D01*
X507Y1314D01*
Y1340D01*
X514Y1346D01*
X527D01*
X533Y1340D01*
Y1333D01*
X527Y1327D01*
X507D01*
X800Y554D02*
X826D01*
X800Y580D01*
Y587D01*
X806Y593D01*
X819D01*
X826Y587D01*
X2192Y962D02*
X2198Y968D01*
X2211D01*
X2218Y962D01*
Y936D01*
X2211Y929D01*
X2198D01*
X2192Y936D01*
X2178Y962D02*
X2172Y968D01*
X2159D01*
X2152Y962D01*
Y955D01*
X2159Y949D01*
X2152Y942D01*
Y936D01*
X2159Y929D01*
X2172D01*
X2178Y936D01*
Y942D01*
X2172Y949D01*
X2178Y955D01*
Y962D01*
X2172Y949D02*
X2159D01*
X2139Y968D02*
X2113D01*
Y962D01*
X2139Y936D01*
Y929D01*
X2192Y1017D02*
X2198Y1024D01*
X2211D01*
X2218Y1017D01*
Y991D01*
X2211Y984D01*
X2198D01*
X2192Y991D01*
X2178Y1017D02*
X2172Y1024D01*
X2159D01*
X2152Y1017D01*
Y1010D01*
X2159Y1004D01*
X2152Y997D01*
Y991D01*
X2159Y984D01*
X2172D01*
X2178Y991D01*
Y997D01*
X2172Y1004D01*
X2178Y1010D01*
Y1017D01*
X2172Y1004D02*
X2159D01*
X2113Y1024D02*
X2126Y1017D01*
X2139Y1004D01*
Y991D01*
X2133Y984D01*
X2119D01*
X2113Y991D01*
Y997D01*
X2119Y1004D01*
X2139D01*
X3052Y1173D02*
Y1213D01*
X3033D01*
X3026Y1206D01*
Y1193D01*
X3033Y1186D01*
X3052D01*
X3039D02*
X3026Y1173D01*
X3013Y1213D02*
X2987D01*
Y1206D01*
X3013Y1180D01*
Y1173D01*
X2974Y1206D02*
X2967Y1213D01*
X2954D01*
X2948Y1206D01*
Y1199D01*
X2954Y1193D01*
X2948Y1186D01*
Y1180D01*
X2954Y1173D01*
X2967D01*
X2974Y1180D01*
Y1186D01*
X2967Y1193D01*
X2974Y1199D01*
Y1206D01*
X2967Y1193D02*
X2954D01*
X3052Y1228D02*
Y1268D01*
X3033D01*
X3026Y1261D01*
Y1248D01*
X3033Y1241D01*
X3052D01*
X3039D02*
X3026Y1228D01*
X3013Y1268D02*
X2987D01*
Y1261D01*
X3013Y1235D01*
Y1228D01*
X2974Y1268D02*
X2948D01*
Y1261D01*
X2974Y1235D01*
Y1228D01*
X3026Y1312D02*
X3033Y1319D01*
X3046D01*
X3052Y1312D01*
Y1286D01*
X3046Y1280D01*
X3033D01*
X3026Y1286D01*
X3013Y1319D02*
X2987D01*
Y1312D01*
X3013Y1286D01*
Y1280D01*
X2974Y1312D02*
X2967Y1319D01*
X2954D01*
X2948Y1312D01*
Y1306D01*
X2954Y1299D01*
X2948Y1293D01*
Y1286D01*
X2954Y1280D01*
X2967D01*
X2974Y1286D01*
Y1293D01*
X2967Y1299D01*
X2974Y1306D01*
Y1312D01*
X2967Y1299D02*
X2954D01*
X3331Y987D02*
X3298D01*
X3291Y993D01*
Y1007D01*
X3298Y1013D01*
X3331D01*
X3291Y1052D02*
Y1026D01*
X3318Y1052D01*
X3324D01*
X3331Y1046D01*
Y1033D01*
X3324Y1026D01*
X3331Y1092D02*
X3324Y1079D01*
X3311Y1066D01*
X3298D01*
X3291Y1072D01*
Y1085D01*
X3298Y1092D01*
X3304D01*
X3311Y1085D01*
Y1066D01*
X1974Y1213D02*
X1980Y1206D01*
Y1193D01*
X1974Y1186D01*
X1948D01*
X1941Y1193D01*
Y1206D01*
X1948Y1213D01*
X1980Y1252D02*
Y1226D01*
X1961D01*
X1967Y1239D01*
Y1245D01*
X1961Y1252D01*
X1948D01*
X1941Y1245D01*
Y1232D01*
X1948Y1226D01*
X1941Y1265D02*
Y1278D01*
Y1272D01*
X1980D01*
X1974Y1265D01*
X1911Y1202D02*
X1917Y1196D01*
Y1182D01*
X1911Y1176D01*
X1885D01*
X1878Y1182D01*
Y1196D01*
X1885Y1202D01*
X1878Y1235D02*
X1917D01*
X1898Y1215D01*
Y1241D01*
X1911Y1255D02*
X1917Y1261D01*
Y1274D01*
X1911Y1281D01*
X1904D01*
X1898Y1274D01*
X1891Y1281D01*
X1885D01*
X1878Y1274D01*
Y1261D01*
X1885Y1255D01*
X1891D01*
X1898Y1261D01*
X1904Y1255D01*
X1911D01*
X1898Y1261D02*
Y1274D01*
X4185Y2380D02*
X4224D01*
Y2400D01*
X4218Y2406D01*
X4205D01*
X4198Y2400D01*
Y2380D01*
Y2393D02*
X4185Y2406D01*
Y2419D02*
Y2432D01*
Y2426D01*
X4224D01*
X4218Y2419D01*
X4224Y2478D02*
X4218Y2465D01*
X4205Y2452D01*
X4192D01*
X4185Y2459D01*
Y2472D01*
X4192Y2478D01*
X4198D01*
X4205Y2472D01*
Y2452D01*
X4218Y2491D02*
X4224Y2498D01*
Y2511D01*
X4218Y2518D01*
X4192D01*
X4185Y2511D01*
Y2498D01*
X4192Y2491D01*
X4218D01*
X4112Y2492D02*
Y2453D01*
Y2472D01*
X4085D01*
Y2492D01*
Y2453D01*
X4072Y2492D02*
Y2453D01*
X4046D01*
X4033Y2459D02*
X4026Y2453D01*
X4013D01*
X4007Y2459D01*
Y2486D01*
X4013Y2492D01*
X4026D01*
X4033Y2486D01*
Y2479D01*
X4026Y2472D01*
X4007D01*
X3655Y1863D02*
X3661Y1856D01*
Y1843D01*
X3655Y1837D01*
X3629D01*
X3622Y1843D01*
Y1856D01*
X3629Y1863D01*
X3622Y1876D02*
Y1889D01*
Y1883D01*
X3661D01*
X3655Y1876D01*
X3622Y1928D02*
X3661D01*
X3642Y1909D01*
Y1935D01*
X3661Y1948D02*
Y1974D01*
X3655D01*
X3629Y1948D01*
X3622D01*
X3663Y2221D02*
X3669Y2215D01*
Y2201D01*
X3663Y2195D01*
X3636D01*
X3630Y2201D01*
Y2215D01*
X3636Y2221D01*
X3630Y2234D02*
Y2247D01*
Y2241D01*
X3669D01*
X3663Y2234D01*
X3630Y2287D02*
X3669D01*
X3650Y2267D01*
Y2293D01*
X3630Y2333D02*
Y2306D01*
X3656Y2333D01*
X3663D01*
X3669Y2326D01*
Y2313D01*
X3663Y2306D01*
X3655Y1162D02*
X3661Y1156D01*
Y1142D01*
X3655Y1136D01*
X3629D01*
X3622Y1142D01*
Y1156D01*
X3629Y1162D01*
X3622Y1175D02*
Y1188D01*
Y1182D01*
X3661D01*
X3655Y1175D01*
Y1208D02*
X3661Y1215D01*
Y1228D01*
X3655Y1234D01*
X3648D01*
X3642Y1228D01*
Y1221D01*
Y1228D01*
X3635Y1234D01*
X3629D01*
X3622Y1228D01*
Y1215D01*
X3629Y1208D01*
X3661Y1247D02*
Y1274D01*
X3655D01*
X3629Y1247D01*
X3622D01*
X3655Y800D02*
X3661Y793D01*
Y780D01*
X3655Y774D01*
X3629D01*
X3622Y780D01*
Y793D01*
X3629Y800D01*
X3622Y813D02*
Y826D01*
Y820D01*
X3661D01*
X3655Y813D01*
X3622Y872D02*
Y846D01*
X3648Y872D01*
X3655D01*
X3661Y865D01*
Y852D01*
X3655Y846D01*
X3661Y911D02*
Y885D01*
X3642D01*
X3648Y898D01*
Y905D01*
X3642Y911D01*
X3629D01*
X3622Y905D01*
Y892D01*
X3629Y885D01*
X138Y1156D02*
X105D01*
X98Y1163D01*
Y1176D01*
X105Y1182D01*
X138D01*
X131Y1196D02*
X138Y1202D01*
Y1215D01*
X131Y1222D01*
X125D01*
X118Y1215D01*
Y1209D01*
Y1215D01*
X112Y1222D01*
X105D01*
X98Y1215D01*
Y1202D01*
X105Y1196D01*
X131Y1235D02*
X138Y1241D01*
Y1255D01*
X131Y1261D01*
X125D01*
X118Y1255D01*
Y1248D01*
Y1255D01*
X112Y1261D01*
X105D01*
X98Y1255D01*
Y1241D01*
X105Y1235D01*
X989Y201D02*
Y240D01*
X970D01*
X963Y234D01*
Y220D01*
X970Y214D01*
X989D01*
X976D02*
X963Y201D01*
X924Y240D02*
X950D01*
Y220D01*
X937Y227D01*
X930D01*
X924Y220D01*
Y207D01*
X930Y201D01*
X944D01*
X950Y207D01*
X911Y234D02*
X904Y240D01*
X891D01*
X885Y234D01*
Y207D01*
X891Y201D01*
X904D01*
X911Y207D01*
Y234D01*
X682Y429D02*
Y468D01*
X663D01*
X656Y462D01*
Y449D01*
X663Y442D01*
X682D01*
X669D02*
X656Y429D01*
X643Y462D02*
X636Y468D01*
X623D01*
X617Y462D01*
Y455D01*
X623Y449D01*
X630D01*
X623D01*
X617Y442D01*
Y436D01*
X623Y429D01*
X636D01*
X643Y436D01*
X604Y468D02*
X577D01*
Y462D01*
X604Y436D01*
Y429D01*
X1127Y201D02*
Y240D01*
X1108D01*
X1101Y234D01*
Y220D01*
X1108Y214D01*
X1127D01*
X1114D02*
X1101Y201D01*
X1088Y234D02*
X1081Y240D01*
X1068D01*
X1062Y234D01*
Y227D01*
X1068Y220D01*
X1075D01*
X1068D01*
X1062Y214D01*
Y207D01*
X1068Y201D01*
X1081D01*
X1088Y207D01*
X1022Y201D02*
X1049D01*
X1022Y227D01*
Y234D01*
X1029Y240D01*
X1042D01*
X1049Y234D01*
X1642Y2333D02*
X1609D01*
X1602Y2340D01*
Y2353D01*
X1609Y2360D01*
X1642D01*
X1602Y2392D02*
X1642D01*
X1622Y2373D01*
Y2399D01*
X1635Y2412D02*
X1642Y2419D01*
Y2432D01*
X1635Y2438D01*
X1629D01*
X1622Y2432D01*
Y2425D01*
Y2432D01*
X1615Y2438D01*
X1609D01*
X1602Y2432D01*
Y2419D01*
X1609Y2412D01*
X4521Y1264D02*
Y1231D01*
X4514Y1224D01*
X4501D01*
X4495Y1231D01*
Y1264D01*
X4455Y1224D02*
X4482D01*
X4455Y1251D01*
Y1257D01*
X4462Y1264D01*
X4475D01*
X4482Y1257D01*
X4442Y1231D02*
X4436Y1224D01*
X4423D01*
X4416Y1231D01*
Y1257D01*
X4423Y1264D01*
X4436D01*
X4442Y1257D01*
Y1251D01*
X4436Y1244D01*
X4416D01*
X138Y703D02*
X105D01*
X98Y710D01*
Y723D01*
X105Y730D01*
X138D01*
X131Y743D02*
X138Y749D01*
Y762D01*
X131Y769D01*
X125D01*
X118Y762D01*
Y756D01*
Y762D01*
X112Y769D01*
X105D01*
X98Y762D01*
Y749D01*
X105Y743D01*
X138Y808D02*
Y782D01*
X118D01*
X125Y795D01*
Y802D01*
X118Y808D01*
X105D01*
X98Y802D01*
Y789D01*
X105Y782D01*
X2356Y1709D02*
Y1676D01*
X2349Y1669D01*
X2336D01*
X2329Y1676D01*
Y1709D01*
X2316Y1702D02*
X2310Y1709D01*
X2297D01*
X2290Y1702D01*
Y1696D01*
X2297Y1689D01*
X2290Y1682D01*
Y1676D01*
X2297Y1669D01*
X2310D01*
X2316Y1676D01*
Y1682D01*
X2310Y1689D01*
X2316Y1696D01*
Y1702D01*
X2310Y1689D02*
X2297D01*
X3915Y2492D02*
Y2453D01*
Y2472D01*
X3888D01*
Y2492D01*
Y2453D01*
X3875Y2492D02*
Y2453D01*
X3849D01*
X3836Y2486D02*
X3829Y2492D01*
X3816D01*
X3810Y2486D01*
Y2479D01*
X3816Y2472D01*
X3810Y2466D01*
Y2459D01*
X3816Y2453D01*
X3829D01*
X3836Y2459D01*
Y2466D01*
X3829Y2472D01*
X3836Y2479D01*
Y2486D01*
X3829Y2472D02*
X3816D01*
X4953Y341D02*
X4913D01*
X4933D01*
Y367D01*
X4953D01*
X4913D01*
X4953Y381D02*
X4913D01*
Y407D01*
X4953Y420D02*
Y446D01*
X4946D01*
X4920Y420D01*
X4913D01*
X4953Y577D02*
X4913D01*
X4933D01*
Y604D01*
X4953D01*
X4913D01*
X4953Y617D02*
X4913D01*
Y643D01*
X4953Y682D02*
X4946Y669D01*
X4933Y656D01*
X4920D01*
X4913Y663D01*
Y676D01*
X4920Y682D01*
X4927D01*
X4933Y676D01*
Y656D01*
X4953Y455D02*
X4913D01*
X4933D01*
Y482D01*
X4953D01*
X4913D01*
X4953Y495D02*
X4913D01*
Y521D01*
X4953Y560D02*
Y534D01*
X4933D01*
X4940Y547D01*
Y554D01*
X4933Y560D01*
X4920D01*
X4913Y554D01*
Y541D01*
X4920Y534D01*
X3379Y154D02*
Y114D01*
Y134D01*
X3353D01*
Y154D01*
Y114D01*
X3340Y154D02*
Y114D01*
X3314D01*
X3281D02*
Y154D01*
X3301Y134D01*
X3274D01*
X3100Y154D02*
Y114D01*
Y134D01*
X3073D01*
Y154D01*
Y114D01*
X3060Y154D02*
Y114D01*
X3034D01*
X3021Y147D02*
X3014Y154D01*
X3001D01*
X2995Y147D01*
Y140D01*
X3001Y134D01*
X3008D01*
X3001D01*
X2995Y127D01*
Y121D01*
X3001Y114D01*
X3014D01*
X3021Y121D01*
X3245Y154D02*
Y114D01*
Y134D01*
X3219D01*
Y154D01*
Y114D01*
X3206Y154D02*
Y114D01*
X3180D01*
X3140D02*
X3167D01*
X3140Y140D01*
Y147D01*
X3147Y154D01*
X3160D01*
X3167Y147D01*
X3510Y154D02*
Y114D01*
Y134D01*
X3484D01*
Y154D01*
Y114D01*
X3471Y154D02*
Y114D01*
X3445D01*
X3432D02*
X3419D01*
X3425D01*
Y154D01*
X3432Y147D01*
X4860Y311D02*
Y350D01*
X4841D01*
X4834Y344D01*
Y331D01*
X4841Y324D01*
X4860D01*
X4847D02*
X4834Y311D01*
X4821D02*
X4808D01*
X4814D01*
Y350D01*
X4821Y344D01*
X4762Y311D02*
X4788D01*
X4762Y337D01*
Y344D01*
X4768Y350D01*
X4781D01*
X4788Y344D01*
X4749D02*
X4742Y350D01*
X4729D01*
X4722Y344D01*
Y337D01*
X4729Y331D01*
X4736D01*
X4729D01*
X4722Y324D01*
Y318D01*
X4729Y311D01*
X4742D01*
X4749Y318D01*
X4854Y630D02*
Y669D01*
X4834D01*
X4827Y663D01*
Y650D01*
X4834Y643D01*
X4854D01*
X4841D02*
X4827Y630D01*
X4814D02*
X4801D01*
X4808D01*
Y669D01*
X4814Y663D01*
X4755Y630D02*
X4781D01*
X4755Y656D01*
Y663D01*
X4762Y669D01*
X4775D01*
X4781Y663D01*
X4742Y630D02*
X4729D01*
X4736D01*
Y669D01*
X4742Y663D01*
X4856Y520D02*
Y559D01*
X4837D01*
X4830Y552D01*
Y539D01*
X4837Y533D01*
X4856D01*
X4843D02*
X4830Y520D01*
X4817D02*
X4804D01*
X4810D01*
Y559D01*
X4817Y552D01*
X4758Y520D02*
X4784D01*
X4758Y546D01*
Y552D01*
X4764Y559D01*
X4778D01*
X4784Y552D01*
X4745D02*
X4738Y559D01*
X4725D01*
X4719Y552D01*
Y526D01*
X4725Y520D01*
X4738D01*
X4745Y526D01*
Y552D01*
X2717Y164D02*
X2756D01*
Y184D01*
X2749Y190D01*
X2736D01*
X2730Y184D01*
Y164D01*
Y177D02*
X2717Y190D01*
X2749Y203D02*
X2756Y210D01*
Y223D01*
X2749Y230D01*
X2743D01*
X2736Y223D01*
X2730Y230D01*
X2723D01*
X2717Y223D01*
Y210D01*
X2723Y203D01*
X2730D01*
X2736Y210D01*
X2743Y203D01*
X2749D01*
X2736Y210D02*
Y223D01*
X2717Y262D02*
X2756D01*
X2736Y243D01*
Y269D01*
X2606Y164D02*
X2646D01*
Y184D01*
X2639Y190D01*
X2626D01*
X2619Y184D01*
Y164D01*
Y177D02*
X2606Y190D01*
X2639Y203D02*
X2646Y210D01*
Y223D01*
X2639Y230D01*
X2633D01*
X2626Y223D01*
X2619Y230D01*
X2613D01*
X2606Y223D01*
Y210D01*
X2613Y203D01*
X2619D01*
X2626Y210D01*
X2633Y203D01*
X2639D01*
X2626Y210D02*
Y223D01*
X2639Y243D02*
X2646Y249D01*
Y262D01*
X2639Y269D01*
X2633D01*
X2626Y262D01*
Y256D01*
Y262D01*
X2619Y269D01*
X2613D01*
X2606Y262D01*
Y249D01*
X2613Y243D01*
X2661Y164D02*
X2701D01*
Y184D01*
X2694Y190D01*
X2681D01*
X2675Y184D01*
Y164D01*
Y177D02*
X2661Y190D01*
X2694Y203D02*
X2701Y210D01*
Y223D01*
X2694Y230D01*
X2688D01*
X2681Y223D01*
X2675Y230D01*
X2668D01*
X2661Y223D01*
Y210D01*
X2668Y203D01*
X2675D01*
X2681Y210D01*
X2688Y203D01*
X2694D01*
X2681Y210D02*
Y223D01*
X2661Y269D02*
Y243D01*
X2688Y269D01*
X2694D01*
X2701Y262D01*
Y249D01*
X2694Y243D01*
X2882Y167D02*
X2921D01*
Y186D01*
X2915Y193D01*
X2902D01*
X2895Y186D01*
Y167D01*
Y180D02*
X2882Y193D01*
X2915Y206D02*
X2921Y213D01*
Y226D01*
X2915Y232D01*
X2908D01*
X2902Y226D01*
X2895Y232D01*
X2888D01*
X2882Y226D01*
Y213D01*
X2888Y206D01*
X2895D01*
X2902Y213D01*
X2908Y206D01*
X2915D01*
X2902Y213D02*
Y226D01*
X2882Y245D02*
Y259D01*
Y252D01*
X2921D01*
X2915Y245D01*
X2827Y164D02*
X2866D01*
Y184D01*
X2860Y190D01*
X2846D01*
X2840Y184D01*
Y164D01*
Y177D02*
X2827Y190D01*
X2860Y203D02*
X2866Y210D01*
Y223D01*
X2860Y230D01*
X2853D01*
X2846Y223D01*
X2840Y230D01*
X2833D01*
X2827Y223D01*
Y210D01*
X2833Y203D01*
X2840D01*
X2846Y210D01*
X2853Y203D01*
X2860D01*
X2846Y210D02*
Y223D01*
X2860Y243D02*
X2866Y249D01*
Y262D01*
X2860Y269D01*
X2833D01*
X2827Y262D01*
Y249D01*
X2833Y243D01*
X2860D01*
X2772Y164D02*
X2811D01*
Y184D01*
X2804Y190D01*
X2791D01*
X2785Y184D01*
Y164D01*
Y177D02*
X2772Y190D01*
X2811Y203D02*
Y230D01*
X2804D01*
X2778Y203D01*
X2772D01*
X2778Y243D02*
X2772Y249D01*
Y262D01*
X2778Y269D01*
X2804D01*
X2811Y262D01*
Y249D01*
X2804Y243D01*
X2798D01*
X2791Y249D01*
Y269D01*
X1823Y1176D02*
X1862D01*
Y1196D01*
X1856Y1202D01*
X1843D01*
X1836Y1196D01*
Y1176D01*
Y1189D02*
X1823Y1202D01*
X1862Y1241D02*
X1856Y1228D01*
X1843Y1215D01*
X1829D01*
X1823Y1222D01*
Y1235D01*
X1829Y1241D01*
X1836D01*
X1843Y1235D01*
Y1215D01*
X1823Y1274D02*
X1862D01*
X1843Y1255D01*
Y1281D01*
X2130Y1530D02*
X2169D01*
Y1550D01*
X2163Y1556D01*
X2150D01*
X2143Y1550D01*
Y1530D01*
Y1543D02*
X2130Y1556D01*
X2169Y1596D02*
X2163Y1583D01*
X2150Y1570D01*
X2136D01*
X2130Y1576D01*
Y1589D01*
X2136Y1596D01*
X2143D01*
X2150Y1589D01*
Y1570D01*
X2163Y1609D02*
X2169Y1615D01*
Y1629D01*
X2163Y1635D01*
X2156D01*
X2150Y1629D01*
Y1622D01*
Y1629D01*
X2143Y1635D01*
X2136D01*
X2130Y1629D01*
Y1615D01*
X2136Y1609D01*
X2067Y1526D02*
X2106D01*
Y1546D01*
X2100Y1553D01*
X2087D01*
X2080Y1546D01*
Y1526D01*
Y1539D02*
X2067Y1553D01*
X2106Y1592D02*
X2100Y1579D01*
X2087Y1566D01*
X2073D01*
X2067Y1572D01*
Y1585D01*
X2073Y1592D01*
X2080D01*
X2087Y1585D01*
Y1566D01*
X2067Y1631D02*
Y1605D01*
X2093Y1631D01*
X2100D01*
X2106Y1625D01*
Y1612D01*
X2100Y1605D01*
X2192Y860D02*
X2198Y866D01*
X2211D01*
X2218Y860D01*
Y833D01*
X2211Y827D01*
X2198D01*
X2192Y833D01*
X2178Y860D02*
X2172Y866D01*
X2159D01*
X2152Y860D01*
Y853D01*
X2159Y846D01*
X2152Y840D01*
Y833D01*
X2159Y827D01*
X2172D01*
X2178Y833D01*
Y840D01*
X2172Y846D01*
X2178Y853D01*
Y860D01*
X2172Y846D02*
X2159D01*
X2113Y866D02*
X2139D01*
Y846D01*
X2126Y853D01*
X2119D01*
X2113Y846D01*
Y833D01*
X2119Y827D01*
X2133D01*
X2139Y833D01*
X2192Y911D02*
X2198Y917D01*
X2211D01*
X2218Y911D01*
Y885D01*
X2211Y878D01*
X2198D01*
X2192Y885D01*
X2178Y911D02*
X2172Y917D01*
X2159D01*
X2152Y911D01*
Y904D01*
X2159Y898D01*
X2152Y891D01*
Y885D01*
X2159Y878D01*
X2172D01*
X2178Y885D01*
Y891D01*
X2172Y898D01*
X2178Y904D01*
Y911D01*
X2172Y898D02*
X2159D01*
X2119Y878D02*
Y917D01*
X2139Y898D01*
X2113D01*
X2192Y1072D02*
X2198Y1079D01*
X2211D01*
X2218Y1072D01*
Y1046D01*
X2211Y1039D01*
X2198D01*
X2192Y1046D01*
X2178Y1072D02*
X2172Y1079D01*
X2159D01*
X2152Y1072D01*
Y1066D01*
X2159Y1059D01*
X2152Y1052D01*
Y1046D01*
X2159Y1039D01*
X2172D01*
X2178Y1046D01*
Y1052D01*
X2172Y1059D01*
X2178Y1066D01*
Y1072D01*
X2172Y1059D02*
X2159D01*
X2139Y1072D02*
X2133Y1079D01*
X2119D01*
X2113Y1072D01*
Y1066D01*
X2119Y1059D01*
X2126D01*
X2119D01*
X2113Y1052D01*
Y1046D01*
X2119Y1039D01*
X2133D01*
X2139Y1046D01*
X2192Y1123D02*
X2198Y1130D01*
X2211D01*
X2218Y1123D01*
Y1097D01*
X2211Y1091D01*
X2198D01*
X2192Y1097D01*
X2178Y1123D02*
X2172Y1130D01*
X2159D01*
X2152Y1123D01*
Y1117D01*
X2159Y1110D01*
X2152Y1104D01*
Y1097D01*
X2159Y1091D01*
X2172D01*
X2178Y1097D01*
Y1104D01*
X2172Y1110D01*
X2178Y1117D01*
Y1123D01*
X2172Y1110D02*
X2159D01*
X2113Y1091D02*
X2139D01*
X2113Y1117D01*
Y1123D01*
X2119Y1130D01*
X2133D01*
X2139Y1123D01*
X2341Y1584D02*
X2348Y1591D01*
X2361D01*
X2367Y1584D01*
Y1558D01*
X2361Y1551D01*
X2348D01*
X2341Y1558D01*
X2302Y1591D02*
X2328D01*
Y1571D01*
X2315Y1577D01*
X2308D01*
X2302Y1571D01*
Y1558D01*
X2308Y1551D01*
X2322D01*
X2328Y1558D01*
X2269Y1551D02*
Y1591D01*
X2289Y1571D01*
X2262D01*
X1801Y1198D02*
X1807Y1192D01*
Y1178D01*
X1801Y1172D01*
X1774D01*
X1768Y1178D01*
Y1192D01*
X1774Y1198D01*
X1768Y1231D02*
X1807D01*
X1787Y1211D01*
Y1238D01*
X1774Y1251D02*
X1768Y1257D01*
Y1270D01*
X1774Y1277D01*
X1801D01*
X1807Y1270D01*
Y1257D01*
X1801Y1251D01*
X1794D01*
X1787Y1257D01*
Y1277D01*
X2247Y1364D02*
X2253Y1370D01*
X2266D01*
X2273Y1364D01*
Y1337D01*
X2266Y1331D01*
X2253D01*
X2247Y1337D01*
X2214Y1331D02*
Y1370D01*
X2234Y1350D01*
X2207D01*
X2168Y1370D02*
X2194D01*
Y1350D01*
X2181Y1357D01*
X2175D01*
X2168Y1350D01*
Y1337D01*
X2175Y1331D01*
X2188D01*
X2194Y1337D01*
X2247Y1430D02*
X2253Y1437D01*
X2266D01*
X2273Y1430D01*
Y1404D01*
X2266Y1398D01*
X2253D01*
X2247Y1404D01*
X2214Y1398D02*
Y1437D01*
X2234Y1417D01*
X2207D01*
X2175Y1398D02*
Y1437D01*
X2194Y1417D01*
X2168D01*
X3622Y991D02*
X3589D01*
X3583Y997D01*
Y1011D01*
X3589Y1017D01*
X3622D01*
X3583Y1056D02*
Y1030D01*
X3609Y1056D01*
X3615D01*
X3622Y1050D01*
Y1037D01*
X3615Y1030D01*
X3622Y1070D02*
Y1096D01*
X3615D01*
X3589Y1070D01*
X3583D01*
X1659Y201D02*
Y240D01*
X1639D01*
X1633Y234D01*
Y220D01*
X1639Y214D01*
X1659D01*
X1646D02*
X1633Y201D01*
X1593D02*
X1619D01*
X1593Y227D01*
Y234D01*
X1600Y240D01*
X1613D01*
X1619Y234D01*
X1580D02*
X1574Y240D01*
X1560D01*
X1554Y234D01*
Y207D01*
X1560Y201D01*
X1574D01*
X1580Y207D01*
Y234D01*
X816Y433D02*
Y472D01*
X797D01*
X790Y466D01*
Y453D01*
X797Y446D01*
X816D01*
X803D02*
X790Y433D01*
X777Y472D02*
X751D01*
Y466D01*
X777Y440D01*
Y433D01*
X1777Y335D02*
Y374D01*
X1757D01*
X1751Y367D01*
Y354D01*
X1757Y348D01*
X1777D01*
X1764D02*
X1751Y335D01*
X1711D02*
X1738D01*
X1711Y361D01*
Y367D01*
X1718Y374D01*
X1731D01*
X1738Y367D01*
X3651Y1512D02*
X3657Y1505D01*
Y1492D01*
X3651Y1486D01*
X3625D01*
X3618Y1492D01*
Y1505D01*
X3625Y1512D01*
X3618Y1525D02*
Y1538D01*
Y1532D01*
X3657D01*
X3651Y1525D01*
X3618Y1558D02*
Y1571D01*
Y1564D01*
X3657D01*
X3651Y1558D01*
Y1591D02*
X3657Y1597D01*
Y1610D01*
X3651Y1617D01*
X3644D01*
X3638Y1610D01*
Y1604D01*
Y1610D01*
X3631Y1617D01*
X3625D01*
X3618Y1610D01*
Y1597D01*
X3625Y1591D01*
X2159Y599D02*
X2165Y593D01*
Y579D01*
X2159Y573D01*
X2133D01*
X2126Y579D01*
Y593D01*
X2133Y599D01*
X2126Y612D02*
Y625D01*
Y619D01*
X2165D01*
X2159Y612D01*
X2165Y645D02*
Y671D01*
X2159D01*
X2133Y645D01*
X2126D01*
Y711D02*
Y684D01*
X2152Y711D01*
X2159D01*
X2165Y704D01*
Y691D01*
X2159Y684D01*
X2308Y591D02*
X2315Y585D01*
Y572D01*
X2308Y565D01*
X2282D01*
X2276Y572D01*
Y585D01*
X2282Y591D01*
X2276Y604D02*
Y617D01*
Y611D01*
X2315D01*
X2308Y604D01*
X2315Y663D02*
X2308Y650D01*
X2295Y637D01*
X2282D01*
X2276Y644D01*
Y657D01*
X2282Y663D01*
X2289D01*
X2295Y657D01*
Y637D01*
X2315Y676D02*
Y703D01*
X2308D01*
X2282Y676D01*
X2276D01*
X3109Y1584D02*
X3115Y1591D01*
X3129D01*
X3135Y1584D01*
Y1558D01*
X3129Y1551D01*
X3115D01*
X3109Y1558D01*
X3070Y1591D02*
X3083Y1584D01*
X3096Y1571D01*
Y1558D01*
X3089Y1551D01*
X3076D01*
X3070Y1558D01*
Y1564D01*
X3076Y1571D01*
X3096D01*
X3056Y1584D02*
X3050Y1591D01*
X3037D01*
X3030Y1584D01*
Y1558D01*
X3037Y1551D01*
X3050D01*
X3056Y1558D01*
Y1584D01*
X2692D02*
X2698Y1591D01*
X2711D01*
X2718Y1584D01*
Y1558D01*
X2711Y1551D01*
X2698D01*
X2692Y1558D01*
X2652Y1591D02*
X2678D01*
Y1571D01*
X2665Y1577D01*
X2659D01*
X2652Y1571D01*
Y1558D01*
X2659Y1551D01*
X2672D01*
X2678Y1558D01*
X2639D02*
X2633Y1551D01*
X2619D01*
X2613Y1558D01*
Y1584D01*
X2619Y1591D01*
X2633D01*
X2639Y1584D01*
Y1577D01*
X2633Y1571D01*
X2613D01*
X2896Y1588D02*
X2903Y1594D01*
X2916D01*
X2923Y1588D01*
Y1562D01*
X2916Y1555D01*
X2903D01*
X2896Y1562D01*
X2857Y1594D02*
X2883D01*
Y1575D01*
X2870Y1581D01*
X2864D01*
X2857Y1575D01*
Y1562D01*
X2864Y1555D01*
X2877D01*
X2883Y1562D01*
X2844Y1588D02*
X2837Y1594D01*
X2824D01*
X2818Y1588D01*
Y1581D01*
X2824Y1575D01*
X2818Y1568D01*
Y1562D01*
X2824Y1555D01*
X2837D01*
X2844Y1562D01*
Y1568D01*
X2837Y1575D01*
X2844Y1581D01*
Y1588D01*
X2837Y1575D02*
X2824D01*
X2479Y1584D02*
X2486Y1591D01*
X2499D01*
X2505Y1584D01*
Y1558D01*
X2499Y1551D01*
X2486D01*
X2479Y1558D01*
X2440Y1591D02*
X2466D01*
Y1571D01*
X2453Y1577D01*
X2446D01*
X2440Y1571D01*
Y1558D01*
X2446Y1551D01*
X2459D01*
X2466Y1558D01*
X2427Y1591D02*
X2400D01*
Y1584D01*
X2427Y1558D01*
Y1551D01*
X1105Y371D02*
X1112Y378D01*
X1125D01*
X1131Y371D01*
Y345D01*
X1125Y339D01*
X1112D01*
X1105Y345D01*
X1092Y371D02*
X1085Y378D01*
X1072D01*
X1066Y371D01*
Y365D01*
X1072Y358D01*
X1079D01*
X1072D01*
X1066Y352D01*
Y345D01*
X1072Y339D01*
X1085D01*
X1092Y345D01*
X1053Y371D02*
X1046Y378D01*
X1033D01*
X1026Y371D01*
Y345D01*
X1033Y339D01*
X1046D01*
X1053Y345D01*
Y371D01*
X967D02*
X974Y378D01*
X987D01*
X993Y371D01*
Y345D01*
X987Y339D01*
X974D01*
X967Y345D01*
X928Y339D02*
X954D01*
X928Y365D01*
Y371D01*
X934Y378D01*
X948D01*
X954Y371D01*
X888Y378D02*
X915D01*
Y358D01*
X902Y365D01*
X895D01*
X888Y358D01*
Y345D01*
X895Y339D01*
X908D01*
X915Y345D01*
X1265Y658D02*
X1272Y652D01*
Y638D01*
X1265Y632D01*
X1239D01*
X1232Y638D01*
Y652D01*
X1239Y658D01*
X1232Y671D02*
Y684D01*
Y678D01*
X1272D01*
X1265Y671D01*
X1239Y704D02*
X1232Y711D01*
Y724D01*
X1239Y730D01*
X1265D01*
X1272Y724D01*
Y711D01*
X1265Y704D01*
X1259D01*
X1252Y711D01*
Y730D01*
X1399Y658D02*
X1406Y652D01*
Y638D01*
X1399Y632D01*
X1373D01*
X1366Y638D01*
Y652D01*
X1373Y658D01*
X1366Y671D02*
Y684D01*
Y678D01*
X1406D01*
X1399Y671D01*
Y704D02*
X1406Y711D01*
Y724D01*
X1399Y730D01*
X1392D01*
X1386Y724D01*
X1379Y730D01*
X1373D01*
X1366Y724D01*
Y711D01*
X1373Y704D01*
X1379D01*
X1386Y711D01*
X1392Y704D01*
X1399D01*
X1386Y711D02*
Y724D01*
X1763Y234D02*
X1770Y240D01*
X1783D01*
X1789Y234D01*
Y207D01*
X1783Y201D01*
X1770D01*
X1763Y207D01*
X1750Y201D02*
X1737D01*
X1743D01*
Y240D01*
X1750Y234D01*
X1691Y240D02*
X1717D01*
Y220D01*
X1704Y227D01*
X1698D01*
X1691Y220D01*
Y207D01*
X1698Y201D01*
X1711D01*
X1717Y207D01*
X1649Y367D02*
X1656Y374D01*
X1669D01*
X1675Y367D01*
Y341D01*
X1669Y335D01*
X1656D01*
X1649Y341D01*
X1636Y335D02*
X1623D01*
X1629D01*
Y374D01*
X1636Y367D01*
X1577Y335D02*
X1603D01*
X1577Y361D01*
Y367D01*
X1583Y374D01*
X1596D01*
X1603Y367D01*
X1904Y686D02*
X1911Y693D01*
X1924D01*
X1930Y686D01*
Y660D01*
X1924Y654D01*
X1911D01*
X1904Y660D01*
X1871Y654D02*
Y693D01*
X1891Y673D01*
X1865D01*
X2062Y690D02*
X2068Y697D01*
X2081D01*
X2088Y690D01*
Y664D01*
X2081Y657D01*
X2068D01*
X2062Y664D01*
X2049Y690D02*
X2042Y697D01*
X2029D01*
X2022Y690D01*
Y684D01*
X2029Y677D01*
X2035D01*
X2029D01*
X2022Y671D01*
Y664D01*
X2029Y657D01*
X2042D01*
X2049Y664D01*
D15*
X1200Y2243D02*
G03*
X1200Y2243I-4J0D01*
G01*
X1251Y2414D02*
Y2441D01*
Y2195D02*
Y2221D01*
Y2195D02*
X1576D01*
Y2414D02*
Y2441D01*
X1251D02*
X1576D01*
Y2195D02*
Y2221D01*
D124*
X3783Y2366D02*
G03*
X3787Y2366I2J0D01*
G01*
D02*
G03*
X3783Y2366I-2J0D01*
G01*
X4006Y1703D02*
Y1990D01*
Y1703D02*
Y1990D01*
X4293Y1703D02*
Y1990D01*
Y1703D02*
Y1990D01*
X4228Y1703D02*
X4293D01*
X4228D02*
X4293D01*
X4219Y1990D02*
X4293D01*
X4219D02*
X4293D01*
X4006D02*
X4071D01*
X4006D02*
X4071D01*
X4006Y1703D02*
X4071D01*
X4006D02*
X4071D01*
X4006Y998D02*
X4071D01*
X4006D02*
X4071D01*
X4006Y1285D02*
X4071D01*
X4006D02*
X4071D01*
X4219D02*
X4293D01*
X4219D02*
X4293D01*
X4228Y998D02*
X4293D01*
X4228D02*
X4293D01*
Y1285D01*
Y998D02*
Y1285D01*
X4006Y998D02*
Y1285D01*
Y998D02*
Y1285D01*
X4006Y644D02*
Y931D01*
Y644D02*
Y931D01*
X4293Y644D02*
Y931D01*
Y644D02*
Y931D01*
X4228Y644D02*
X4293D01*
X4228D02*
X4293D01*
X4219Y931D02*
X4293D01*
X4219D02*
X4293D01*
X4006D02*
X4071D01*
X4006D02*
X4071D01*
X4006Y644D02*
X4071D01*
X4006D02*
X4071D01*
X4006Y1352D02*
Y1640D01*
Y1352D02*
Y1640D01*
X4293Y1352D02*
Y1640D01*
Y1352D02*
Y1640D01*
X4228Y1352D02*
X4293D01*
X4228D02*
X4293D01*
X4219Y1640D02*
X4293D01*
X4219D02*
X4293D01*
X4006D02*
X4071D01*
X4006D02*
X4071D01*
X4006Y1352D02*
X4071D01*
X4006D02*
X4071D01*
X4006Y2057D02*
Y2344D01*
Y2057D02*
Y2344D01*
X4293Y2057D02*
Y2344D01*
Y2057D02*
Y2344D01*
X4228Y2057D02*
X4293D01*
X4228D02*
X4293D01*
X4219Y2344D02*
X4293D01*
X4219D02*
X4293D01*
X4006D02*
X4071D01*
X4006D02*
X4071D01*
X4006Y2057D02*
X4071D01*
X4006D02*
X4071D01*
M02*
