G04*
G04 #@! TF.GenerationSoftware,Altium Limited,Altium Designer,20.2.6 (244)*
G04*
G04 Layer_Color=65535*
%FSLAX23Y23*%
%MOIN*%
G70*
G04*
G04 #@! TF.SameCoordinates,73FAD0BF-AACC-46A3-90AC-D22ED7FD95C1*
G04*
G04*
G04 #@! TF.FilePolarity,Positive*
G04*
G01*
G75*
%ADD10C,0.003*%
%ADD11C,0.008*%
%ADD12C,0.010*%
%ADD13C,0.010*%
%ADD14C,0.006*%
%ADD15C,0.001*%
%ADD16C,0.006*%
G36*
X1615Y291D02*
Y301D01*
X1630D01*
Y291D01*
X1615D01*
D02*
G37*
G36*
X989Y297D02*
Y307D01*
X1004D01*
Y297D01*
X989D01*
D02*
G37*
G36*
X772Y2228D02*
X732Y2189D01*
Y2228D01*
X772D01*
D02*
G37*
G36*
X4234Y396D02*
X4219D01*
Y386D01*
X4234D01*
Y396D01*
D02*
G37*
G36*
X4392Y510D02*
X4402D01*
Y495D01*
X4392D01*
Y510D01*
D02*
G37*
G36*
X4253Y629D02*
X4238D01*
Y639D01*
X4253D01*
Y629D01*
D02*
G37*
D10*
X705Y1031D02*
G03*
X708Y1031I2J0D01*
G01*
X708Y1031D02*
G03*
X705Y1031I-2J0D01*
G01*
X1145Y1200D02*
G03*
X1142Y1200I-2J0D01*
G01*
X1142Y1200D02*
G03*
X1145Y1200I2J0D01*
G01*
D11*
X4302Y2004D02*
G03*
X4302Y2004I-26J0D01*
G01*
Y2079D02*
G03*
X4302Y2079I-26J0D01*
G01*
X4943Y709D02*
G03*
X4943Y709I-26J0D01*
G01*
X4491Y534D02*
G03*
X4491Y534I2J-2D01*
G01*
X4124Y1934D02*
G03*
X4124Y1934I-6J0D01*
G01*
X4124Y1675D02*
G03*
X4124Y1675I-6J0D01*
G01*
X4124Y1545D02*
G03*
X4124Y1545I-6J0D01*
G01*
X4124Y1805D02*
G03*
X4124Y1805I-6J0D01*
G01*
X2317Y583D02*
G03*
X2317Y583I-26J0D01*
G01*
X2455Y657D02*
G03*
X2455Y657I-26J0D01*
G01*
X2317Y661D02*
G03*
X2317Y661I-26J0D01*
G01*
X2888Y661D02*
G03*
X2888Y661I-26J0D01*
G01*
X2384Y657D02*
G03*
X2384Y657I-26J0D01*
G01*
X2388Y587D02*
G03*
X2388Y587I-26J0D01*
G01*
X2455Y587D02*
G03*
X2455Y587I-26J0D01*
G01*
X4302Y1902D02*
G03*
X4302Y1902I-26J0D01*
G01*
Y1772D02*
G03*
X4302Y1772I-26J0D01*
G01*
Y1654D02*
G03*
X4302Y1654I-26J0D01*
G01*
Y1508D02*
G03*
X4302Y1508I-26J0D01*
G01*
X912Y1272D02*
G03*
X912Y1272I-26J0D01*
G01*
X1479Y984D02*
G03*
X1479Y984I-26J0D01*
G01*
X1479Y933D02*
G03*
X1479Y933I-26J0D01*
G01*
X1479Y882D02*
G03*
X1479Y882I-26J0D01*
G01*
X943Y1181D02*
G03*
X943Y1181I-26J0D01*
G01*
X975Y1114D02*
G03*
X975Y1114I-26J0D01*
G01*
X971Y1063D02*
G03*
X971Y1063I-26J0D01*
G01*
X4392Y331D02*
G03*
X4392Y331I-26J0D01*
G01*
X4943Y827D02*
G03*
X4943Y827I-26J0D01*
G01*
Y768D02*
G03*
X4943Y768I-26J0D01*
G01*
X4648Y1354D02*
G03*
X4648Y1354I-26J0D01*
G01*
X2097Y1307D02*
G03*
X2097Y1307I-26J0D01*
G01*
X1857Y1390D02*
G03*
X1857Y1390I-26J0D01*
G01*
X4648Y1409D02*
G03*
X4648Y1409I-26J0D01*
G01*
X3647Y2284D02*
X3732D01*
X3652Y1439D02*
X3736D01*
X3461Y1519D02*
X3506D01*
Y1439D02*
Y1519D01*
Y1439D02*
X3546D01*
X3461Y2205D02*
X3506D01*
Y2285D01*
X3546D01*
X1598Y2433D02*
Y2551D01*
X1094Y2433D02*
X1598Y2433D01*
X1094Y2433D02*
Y2551D01*
X1598D01*
X2874Y870D02*
X3496D01*
X2874Y622D02*
Y870D01*
X3496Y622D02*
Y870D01*
X2874Y67D02*
Y507D01*
X3496Y67D02*
X3496Y507D01*
X4875Y441D02*
Y466D01*
X4785Y441D02*
X4875D01*
X4785Y466D02*
X4875D01*
X4785Y571D02*
X4875D01*
Y596D01*
X4785D02*
X4875D01*
X4740Y506D02*
X4875Y496D01*
X4740Y506D02*
Y531D01*
X4875Y541D01*
X4577Y605D02*
Y676D01*
X4672D02*
X4786D01*
X4884Y361D02*
X4953D01*
Y676D01*
X4888D02*
X4953D01*
X4668Y361D02*
X4790D01*
X4546Y605D02*
X4577D01*
X4546Y431D02*
Y605D01*
Y431D02*
X4577D01*
Y361D02*
Y431D01*
X3088Y1759D02*
Y1909D01*
X1875Y1759D02*
Y1907D01*
Y1759D02*
X3088D01*
X821Y720D02*
Y835D01*
Y720D02*
X880D01*
Y835D01*
X821D02*
X880D01*
X4411Y378D02*
Y394D01*
X4383Y378D02*
Y394D01*
X4462Y693D02*
Y709D01*
X4435Y693D02*
Y709D01*
X4272Y650D02*
X4420D01*
X4272D02*
Y776D01*
X4407D01*
X4420Y763D01*
Y650D02*
Y763D01*
X4258Y697D02*
Y713D01*
X4230Y697D02*
Y713D01*
X4452Y506D02*
X4468D01*
X4452Y479D02*
X4468D01*
X4081Y2030D02*
X4137D01*
X4081Y1914D02*
X4138D01*
X4081Y1771D02*
X4137D01*
X4081Y1655D02*
X4138D01*
X4081Y1641D02*
X4137D01*
X4081Y1525D02*
X4138D01*
X4081Y1901D02*
X4137D01*
X4081Y1785D02*
X4138D01*
X4195Y1533D02*
Y1648D01*
Y1533D02*
X4254D01*
Y1648D01*
X4195D02*
X4254D01*
X4195Y1778D02*
X4254D01*
Y1663D02*
Y1778D01*
X4195Y1663D02*
X4254D01*
X4195D02*
Y1778D01*
Y1908D02*
X4254D01*
Y1793D02*
Y1908D01*
X4195Y1793D02*
X4254D01*
X4195D02*
Y1908D01*
X3768Y2026D02*
X3783D01*
X3768Y1998D02*
X3783D01*
X4195Y2038D02*
X4254D01*
Y1923D02*
Y2038D01*
X4195Y1923D02*
X4254D01*
X4195D02*
Y2038D01*
X3768Y1522D02*
X3783D01*
X3768Y1549D02*
X3783D01*
X3768Y1608D02*
X3783D01*
X3768Y1636D02*
X3783D01*
X3768Y1722D02*
X3783D01*
X3768Y1695D02*
X3783D01*
X3768Y1652D02*
X3783D01*
X3768Y1679D02*
X3783D01*
X3768Y1738D02*
X3783D01*
X3768Y1766D02*
X3783D01*
X3768Y1781D02*
X3783D01*
X3768Y1809D02*
X3783D01*
X3768Y1852D02*
X3783D01*
X3768Y1825D02*
X3783D01*
X3768Y1868D02*
X3783D01*
X3768Y1896D02*
X3783D01*
X3768Y1915D02*
X3783D01*
X3768Y1943D02*
X3783D01*
X3768Y1593D02*
X3783D01*
X3768Y1565D02*
X3783D01*
X3768Y1982D02*
X3783D01*
X3768Y1955D02*
X3783D01*
X1008Y1152D02*
X1024D01*
X1008Y1124D02*
X1024D01*
X1008Y1215D02*
X1024D01*
X1008Y1187D02*
X1024D01*
X1008Y1250D02*
X1024D01*
X1008Y1222D02*
X1024D01*
X1008Y1187D02*
X1024D01*
X1008Y1159D02*
X1024D01*
X1008Y1116D02*
X1024D01*
X1008Y1089D02*
X1024D01*
X47Y970D02*
X445D01*
X47Y573D02*
X445D01*
X47Y1018D02*
X445D01*
X47Y1415D02*
X445D01*
X732Y1022D02*
X748D01*
X732Y994D02*
X748D01*
X732Y963D02*
X748D01*
X732Y935D02*
X748D01*
X2157Y758D02*
X2173D01*
X2157Y785D02*
X2173D01*
X2157Y789D02*
X2173D01*
X2157Y817D02*
X2173D01*
X2157Y856D02*
X2173D01*
X2157Y829D02*
X2173D01*
X2157Y872D02*
X2173D01*
X2157Y900D02*
X2173D01*
X2157Y911D02*
X2173D01*
X2157Y939D02*
X2173D01*
X2157Y951D02*
X2173D01*
X2157Y978D02*
X2173D01*
X2157Y1018D02*
X2173D01*
X2157Y990D02*
X2173D01*
X1285Y652D02*
X1301D01*
X1285Y624D02*
X1301D01*
X947Y965D02*
Y980D01*
X974Y965D02*
Y980D01*
X974Y965D02*
Y980D01*
X1002Y965D02*
Y980D01*
X854Y589D02*
X870D01*
X854Y616D02*
X870D01*
X1002Y965D02*
Y980D01*
X1030Y965D02*
Y980D01*
X1030Y965D02*
Y980D01*
X1057Y965D02*
Y980D01*
Y965D02*
Y980D01*
X1085Y965D02*
Y980D01*
X1085Y965D02*
Y980D01*
X1112Y965D02*
Y980D01*
X1020Y380D02*
X1035D01*
X1020Y407D02*
X1035D01*
X953D02*
X969D01*
X953Y380D02*
X969D01*
X919Y295D02*
Y311D01*
X892Y295D02*
Y311D01*
X1112Y965D02*
Y980D01*
X1140Y965D02*
Y980D01*
Y965D02*
Y980D01*
X1167Y965D02*
Y980D01*
X1167Y965D02*
Y980D01*
X1195Y965D02*
Y980D01*
X1285Y872D02*
X1301D01*
X1285Y844D02*
X1301D01*
X1026Y96D02*
Y112D01*
X1053Y96D02*
Y112D01*
X1285Y844D02*
X1301D01*
X1285Y817D02*
X1301D01*
X990Y96D02*
Y112D01*
X1018Y96D02*
Y112D01*
X1285Y817D02*
X1301D01*
X1285Y789D02*
X1301D01*
X955Y96D02*
Y112D01*
X982Y96D02*
Y112D01*
X1285Y789D02*
X1301D01*
X1285Y762D02*
X1301D01*
X919Y96D02*
Y112D01*
X947Y96D02*
Y112D01*
X980Y26D02*
X996D01*
X980Y53D02*
X996D01*
X1285Y762D02*
X1301D01*
X1285Y734D02*
X1301D01*
X1285Y734D02*
X1301D01*
X1285Y707D02*
X1301D01*
X1285D02*
X1301D01*
X1285Y679D02*
X1301D01*
X1285D02*
X1301D01*
X1285Y652D02*
X1301D01*
X919Y366D02*
Y382D01*
X892Y366D02*
Y382D01*
X1202Y619D02*
X1239D01*
X1202Y582D02*
X1239Y619D01*
X1202Y582D02*
Y619D01*
X1293Y508D02*
Y524D01*
X1321Y508D02*
Y524D01*
X1164Y106D02*
Y122D01*
X1137Y106D02*
Y122D01*
X893Y476D02*
Y492D01*
X920Y476D02*
Y492D01*
X865Y687D02*
Y702D01*
X837Y687D02*
Y702D01*
X1115Y337D02*
X1131D01*
X1115Y309D02*
X1131D01*
X1114Y201D02*
X1130D01*
X1114Y173D02*
X1130D01*
X1114Y264D02*
X1130D01*
X1114Y236D02*
X1130D01*
X1108Y59D02*
Y75D01*
X1081Y59D02*
Y75D01*
X1046Y476D02*
Y492D01*
X1019Y476D02*
Y492D01*
X988Y335D02*
X1004D01*
X988Y362D02*
X1004D01*
X892Y59D02*
Y75D01*
X864Y59D02*
Y75D01*
X982Y476D02*
Y492D01*
X955Y476D02*
Y492D01*
X1282Y949D02*
Y965D01*
X1310Y949D02*
Y965D01*
X1222Y949D02*
Y965D01*
X1250Y949D02*
Y965D01*
X876Y943D02*
Y959D01*
X904Y943D02*
Y959D01*
X1115Y400D02*
X1131D01*
X1115Y372D02*
X1131D01*
X1939Y642D02*
X1955D01*
X1939Y669D02*
X1955D01*
X1939Y614D02*
X1955D01*
X1939Y642D02*
X1955D01*
X1939Y697D02*
X1955D01*
X1939Y724D02*
X1955D01*
X1939D02*
X1955D01*
X1939Y752D02*
X1955D01*
X1939Y780D02*
X1955D01*
X1939Y807D02*
X1955D01*
X1939Y807D02*
X1955D01*
X1939Y835D02*
X1955D01*
X1939Y669D02*
X1955D01*
X1939Y697D02*
X1955D01*
X1939Y752D02*
X1955D01*
X1939Y780D02*
X1955D01*
X1939Y835D02*
X1955D01*
X1939Y862D02*
X1955D01*
X1604Y970D02*
Y986D01*
X1577Y970D02*
Y986D01*
X1632Y970D02*
Y986D01*
X1604Y970D02*
Y986D01*
X1480Y610D02*
X1496D01*
X1480Y583D02*
X1496D01*
X1659Y970D02*
Y986D01*
X1632Y970D02*
Y986D01*
X1687Y970D02*
Y986D01*
X1659Y970D02*
Y986D01*
X1833Y609D02*
X1870D01*
X1833Y572D02*
X1870Y609D01*
X1833Y572D02*
Y609D01*
X1715Y970D02*
Y986D01*
X1687Y970D02*
Y986D01*
X1742Y970D02*
Y986D01*
X1715Y970D02*
Y986D01*
X1646Y374D02*
X1661D01*
X1646Y402D02*
X1661D01*
X1579Y402D02*
X1594D01*
X1579Y374D02*
X1594D01*
X1518Y289D02*
Y305D01*
X1545Y289D02*
Y305D01*
X1770Y970D02*
Y986D01*
X1742Y970D02*
Y986D01*
X1797Y970D02*
Y986D01*
X1770Y970D02*
Y986D01*
X1825Y970D02*
Y986D01*
X1797Y970D02*
Y986D01*
X1679Y91D02*
Y106D01*
X1652Y91D02*
Y106D01*
X1644Y91D02*
Y106D01*
X1616Y91D02*
Y106D01*
X1608Y91D02*
Y106D01*
X1581Y91D02*
Y106D01*
X1573Y91D02*
Y106D01*
X1545Y91D02*
Y106D01*
X1606Y47D02*
X1622D01*
X1606Y20D02*
X1622D01*
X1518Y360D02*
Y376D01*
X1545Y360D02*
Y376D01*
X1947Y502D02*
Y518D01*
X1919Y502D02*
Y518D01*
X1763Y100D02*
Y116D01*
X1790Y100D02*
Y116D01*
X1519Y470D02*
Y486D01*
X1546Y470D02*
Y486D01*
X1459Y706D02*
Y821D01*
Y706D02*
X1518D01*
Y821D01*
X1459D02*
X1518D01*
X1491Y681D02*
Y696D01*
X1463Y681D02*
Y696D01*
X1741Y331D02*
X1757D01*
X1741Y303D02*
X1757D01*
X1740Y195D02*
X1756D01*
X1740Y167D02*
X1756D01*
X1740Y258D02*
X1756D01*
X1740Y230D02*
X1756D01*
X1734Y53D02*
Y69D01*
X1707Y53D02*
Y69D01*
X1672Y470D02*
Y486D01*
X1645Y470D02*
Y486D01*
X1614Y356D02*
X1630D01*
X1614Y329D02*
X1630D01*
X1518Y53D02*
Y69D01*
X1490Y53D02*
Y69D01*
X1608Y470D02*
Y486D01*
X1581Y470D02*
Y486D01*
X1937Y892D02*
X1953D01*
X1937Y864D02*
X1953D01*
X1937Y923D02*
X1953D01*
X1937Y896D02*
X1953D01*
X1502Y937D02*
Y953D01*
X1530Y937D02*
Y953D01*
X1741Y394D02*
X1757D01*
X1741Y366D02*
X1757D01*
X1154Y2315D02*
X1169D01*
X1154Y2287D02*
X1169D01*
X2904Y2165D02*
Y2181D01*
X2931Y2165D02*
Y2181D01*
X2833Y2165D02*
Y2181D01*
X2860Y2165D02*
Y2181D01*
X2585Y2165D02*
Y2181D01*
X2612Y2165D02*
Y2181D01*
X2868Y2165D02*
Y2181D01*
X2896Y2165D02*
Y2181D01*
X2939Y2165D02*
Y2181D01*
X2967Y2165D02*
Y2181D01*
X2762Y2165D02*
Y2181D01*
X2789Y2165D02*
Y2181D01*
X2620Y2165D02*
Y2181D01*
X2648Y2165D02*
Y2181D01*
X2691Y2165D02*
Y2181D01*
X2719Y2165D02*
Y2181D01*
X2797Y2165D02*
Y2181D01*
X2825Y2165D02*
Y2181D01*
X2656Y2165D02*
Y2181D01*
X2683Y2165D02*
Y2181D01*
X2726Y2165D02*
Y2181D01*
X2754Y2165D02*
Y2181D01*
X2112Y2067D02*
Y2083D01*
X2140Y2067D02*
Y2083D01*
X2041Y2067D02*
Y2083D01*
X2069Y2067D02*
Y2083D01*
X2289Y2067D02*
Y2083D01*
X2317Y2067D02*
Y2083D01*
X2254Y2067D02*
Y2083D01*
X2281Y2067D02*
Y2083D01*
X2148Y2067D02*
Y2083D01*
X2175Y2067D02*
Y2083D01*
X2431Y2067D02*
Y2083D01*
X2459Y2067D02*
Y2083D01*
X2183Y2067D02*
Y2083D01*
X2211Y2067D02*
Y2083D01*
X2396Y2067D02*
Y2083D01*
X2423Y2067D02*
Y2083D01*
X2325Y2067D02*
Y2083D01*
X2352Y2067D02*
Y2083D01*
X2219Y2067D02*
Y2083D01*
X2246Y2067D02*
Y2083D01*
X2360Y2067D02*
Y2083D01*
X2388Y2067D02*
Y2083D01*
X2077Y2067D02*
Y2083D01*
X2104Y2067D02*
Y2083D01*
X2687Y2295D02*
Y2311D01*
X2715Y2295D02*
Y2311D01*
X2900Y2295D02*
Y2311D01*
X2927Y2295D02*
Y2311D01*
X2616Y2295D02*
Y2311D01*
X2644Y2295D02*
Y2311D01*
X2722Y2295D02*
Y2311D01*
X2750Y2295D02*
Y2311D01*
X2935Y2295D02*
Y2311D01*
X2963Y2295D02*
Y2311D01*
X2652Y2295D02*
Y2311D01*
X2679Y2295D02*
Y2311D01*
X2758Y2295D02*
Y2311D01*
X2785Y2295D02*
Y2311D01*
X2793Y2295D02*
Y2311D01*
X2821Y2295D02*
Y2311D01*
X2829Y2295D02*
Y2311D01*
X2856Y2295D02*
Y2311D01*
X2864Y2295D02*
Y2311D01*
X2892Y2295D02*
Y2311D01*
X2581Y2295D02*
Y2311D01*
X2608Y2295D02*
Y2311D01*
X1154Y2358D02*
X1169D01*
X1154Y2386D02*
X1169D01*
X2266Y2189D02*
Y2205D01*
X2293Y2189D02*
Y2205D01*
X2018Y2189D02*
Y2205D01*
X2045Y2189D02*
Y2205D01*
X2159Y2189D02*
Y2205D01*
X2187Y2189D02*
Y2205D01*
X2195Y2189D02*
Y2205D01*
X2222Y2189D02*
Y2205D01*
X2230Y2189D02*
Y2205D01*
X2258Y2189D02*
Y2205D01*
X2124Y2189D02*
Y2205D01*
X2152Y2189D02*
Y2205D01*
X2089Y2189D02*
Y2205D01*
X2116Y2189D02*
Y2205D01*
X1982Y2189D02*
Y2205D01*
X2010Y2189D02*
Y2205D01*
X2053Y2189D02*
Y2205D01*
X2081Y2189D02*
Y2205D01*
X1947Y2189D02*
Y2205D01*
X1974Y2189D02*
Y2205D01*
X1911Y2189D02*
Y2205D01*
X1939Y2189D02*
Y2205D01*
X2018Y2291D02*
Y2307D01*
X2045Y2291D02*
Y2307D01*
X2230Y2291D02*
Y2307D01*
X2258Y2291D02*
Y2307D01*
X2159Y2291D02*
Y2307D01*
X2187Y2291D02*
Y2307D01*
X2124Y2291D02*
Y2307D01*
X2152Y2291D02*
Y2307D01*
X1982Y2291D02*
Y2307D01*
X2010Y2291D02*
Y2307D01*
X1947Y2291D02*
Y2307D01*
X1974Y2291D02*
Y2307D01*
X1911Y2291D02*
Y2307D01*
X1939Y2291D02*
Y2307D01*
X2053Y2291D02*
Y2307D01*
X2081Y2291D02*
Y2307D01*
X2089Y2291D02*
Y2307D01*
X2116Y2291D02*
Y2307D01*
X2195Y2291D02*
Y2307D01*
X2222Y2291D02*
Y2307D01*
X2266Y2291D02*
Y2307D01*
X2293Y2291D02*
Y2307D01*
X1154Y2350D02*
X1169D01*
X1154Y2323D02*
X1169D01*
X2216Y1472D02*
Y1551D01*
X2194Y1472D02*
X2391D01*
X2194Y1551D02*
X2391D01*
X2194Y1472D02*
Y1551D01*
X2391Y1472D02*
Y1551D01*
X2215Y1693D02*
Y1709D01*
X2187Y1693D02*
Y1709D01*
X2337Y1693D02*
Y1709D01*
X2309Y1693D02*
Y1709D01*
X2230Y1693D02*
Y1709D01*
X2258Y1693D02*
Y1709D01*
X2270Y1693D02*
Y1709D01*
X2297Y1693D02*
Y1709D01*
X2211Y1303D02*
Y1319D01*
X2183Y1303D02*
Y1319D01*
X2458Y1472D02*
Y1551D01*
X2436Y1472D02*
X2632D01*
X2436Y1551D02*
X2632D01*
X2436Y1472D02*
Y1551D01*
X2632Y1472D02*
Y1551D01*
X1843Y1240D02*
X1991D01*
X1843D02*
Y1366D01*
X1978D01*
X1991Y1353D01*
Y1240D02*
Y1353D01*
X2091Y1404D02*
X2106D01*
X2091Y1431D02*
X2106D01*
X2091Y1396D02*
X2106D01*
X2091Y1368D02*
X2106D01*
X1866Y1614D02*
Y1630D01*
X1882D01*
X2053Y1423D02*
X2061Y1431D01*
X2077D01*
X1866Y1425D02*
Y1441D01*
Y1425D02*
X1882D01*
X2055Y1630D02*
X2071D01*
Y1614D02*
Y1630D01*
X732Y2189D02*
X772Y2228D01*
X732Y1323D02*
Y2228D01*
X1638Y1323D02*
Y2228D01*
X732D02*
X1638D01*
X732Y1323D02*
X1638D01*
X575Y2474D02*
X591D01*
X575Y2502D02*
X591D01*
X673Y2431D02*
X689D01*
X673Y2459D02*
X689D01*
X596Y1122D02*
Y1138D01*
X624Y1122D02*
Y1138D01*
X691Y1126D02*
X711D01*
X691Y1094D02*
X711D01*
X51Y1687D02*
X67D01*
X51Y1715D02*
X67D01*
X51Y2310D02*
X67D01*
X51Y2337D02*
X67D01*
X575Y2459D02*
X591D01*
X575Y2431D02*
X591D01*
X51Y2037D02*
X67D01*
X51Y2010D02*
X67D01*
X51Y1982D02*
X67D01*
X51Y2010D02*
X67D01*
X51Y1955D02*
X67D01*
X51Y1982D02*
X67D01*
X51Y2284D02*
X67D01*
X51Y2312D02*
X67D01*
X51Y2037D02*
X67D01*
X51Y2065D02*
X67D01*
X51Y1742D02*
X67D01*
X51Y1770D02*
X67D01*
X51Y2285D02*
X67D01*
X51Y2258D02*
X67D01*
X51Y1902D02*
X67D01*
X51Y1874D02*
X67D01*
X51Y2120D02*
X67D01*
X51Y2148D02*
X67D01*
X51Y1928D02*
X67D01*
X51Y1955D02*
X67D01*
X51Y1848D02*
X67D01*
X51Y1876D02*
X67D01*
X673Y2474D02*
X689D01*
X673Y2502D02*
X689D01*
X599Y1196D02*
Y1252D01*
X719Y1196D02*
Y1252D01*
X683Y1196D02*
X719D01*
X599D02*
X635D01*
X645Y1254D02*
X674D01*
X51Y1715D02*
X67D01*
X51Y1742D02*
X67D01*
X51Y2146D02*
X67D01*
X51Y2174D02*
X67D01*
X51Y1824D02*
X67D01*
X51Y1851D02*
X67D01*
X51Y2175D02*
X67D01*
X51Y2203D02*
X67D01*
X51Y1659D02*
X67D01*
X51Y1687D02*
X67D01*
X51Y1797D02*
X67D01*
X51Y1825D02*
X67D01*
X51Y2230D02*
X67D01*
X51Y2203D02*
X67D01*
X51Y1797D02*
X67D01*
X51Y1770D02*
X67D01*
X51Y2230D02*
X67D01*
X51Y2258D02*
X67D01*
X51Y2093D02*
X67D01*
X51Y2120D02*
X67D01*
X51Y1901D02*
X67D01*
X51Y1928D02*
X67D01*
X51Y2065D02*
X67D01*
X51Y2093D02*
X67D01*
X3110Y1671D02*
X3126D01*
X3110Y1699D02*
X3126D01*
X2685Y1671D02*
X2701D01*
X2685Y1699D02*
X2701D01*
X3262Y1472D02*
Y1551D01*
X3066Y1472D02*
Y1551D01*
X3262D01*
X3066Y1472D02*
X3262D01*
X3088D02*
Y1551D01*
X2841Y1472D02*
Y1551D01*
X2644Y1472D02*
Y1551D01*
X2841D01*
X2644Y1472D02*
X2841D01*
X2666D02*
Y1551D01*
X2898Y1671D02*
X2913D01*
X2898Y1699D02*
X2913D01*
X2476Y1671D02*
X2492D01*
X2476Y1699D02*
X2492D01*
X3054Y1472D02*
Y1551D01*
X2857Y1472D02*
Y1551D01*
X3054D01*
X2857Y1472D02*
X3054D01*
X2879D02*
Y1551D01*
X571Y963D02*
X587D01*
X571Y935D02*
X587D01*
X571Y1002D02*
X587D01*
X571Y974D02*
X587D01*
X571Y1041D02*
X587D01*
X571Y1014D02*
X587D01*
X4490Y378D02*
Y394D01*
X4517Y378D02*
Y394D01*
X4526Y378D02*
Y394D01*
X4553Y378D02*
Y394D01*
X4419Y378D02*
Y394D01*
X4446Y378D02*
Y394D01*
X2012Y1738D02*
X2028D01*
X2012Y1711D02*
X2028D01*
X2545Y1336D02*
X2561D01*
Y1246D02*
Y1336D01*
X2545Y1246D02*
X2561D01*
X2447Y1336D02*
X2463D01*
X2447Y1246D02*
Y1336D01*
Y1246D02*
X2463D01*
X1537Y2335D02*
Y2350D01*
X1510Y2335D02*
Y2350D01*
X2073Y1709D02*
X2093D01*
X2073Y1677D02*
X2093D01*
X2108Y1500D02*
Y1516D01*
X2136Y1500D02*
Y1516D01*
X2079Y1624D02*
X2094D01*
X2079Y1652D02*
X2094D01*
X2136Y1575D02*
Y1591D01*
X2108Y1575D02*
Y1591D01*
X2083Y1738D02*
X2098D01*
X2083Y1711D02*
X2098D01*
X4258Y351D02*
Y366D01*
X4230Y351D02*
Y366D01*
X4452Y439D02*
X4468D01*
X4452Y467D02*
X4468D01*
X4482Y378D02*
Y394D01*
X4454Y378D02*
Y394D01*
D12*
X780Y2253D02*
G03*
X780Y2253I-8J0D01*
G01*
X1041Y2502D02*
G03*
X1041Y2502I-8J0D01*
G01*
D13*
X533Y2289D02*
G03*
X533Y2289I-4J0D01*
G01*
D14*
X4172Y616D02*
X4188D01*
X4172Y409D02*
X4188D01*
X4379D02*
Y425D01*
X4362Y616D02*
X4379D01*
X4172Y599D02*
Y616D01*
Y409D02*
Y425D01*
X4362Y409D02*
X4379D01*
Y599D02*
Y616D01*
X922Y284D02*
X939D01*
X1050Y268D02*
Y284D01*
X1034Y156D02*
X1050D01*
X922D02*
X939D01*
X922Y268D02*
Y284D01*
X1034D02*
X1050D01*
Y156D02*
Y173D01*
X922Y156D02*
Y173D01*
X1548Y150D02*
Y167D01*
X1676Y150D02*
Y167D01*
X1660Y278D02*
X1676D01*
X1548Y262D02*
Y278D01*
Y150D02*
X1565D01*
X1660D02*
X1676D01*
Y262D02*
Y278D01*
X1548D02*
X1565D01*
X180Y1475D02*
Y1800D01*
Y1475D02*
X702D01*
Y1800D01*
X180D02*
X702D01*
X180Y2225D02*
X702D01*
Y1900D02*
Y2225D01*
X180Y1900D02*
X702D01*
X180D02*
Y2225D01*
X997Y2322D02*
X1014D01*
X724D02*
Y2533D01*
Y2322D02*
X741D01*
X1014D02*
Y2533D01*
X997D02*
X1014D01*
X897D02*
X941D01*
X797D02*
X841D01*
X724D02*
X741D01*
X797Y2322D02*
X841D01*
X897D02*
X941D01*
D15*
X551Y1795D02*
Y1805D01*
Y1470D02*
Y1480D01*
X394Y1795D02*
Y1805D01*
Y1470D02*
Y1480D01*
X236Y1795D02*
Y1805D01*
Y1470D02*
Y1480D01*
X697Y1638D02*
X707D01*
X175D02*
X185D01*
X175Y2063D02*
X185D01*
X697D02*
X707D01*
X236Y1895D02*
Y1905D01*
Y2220D02*
Y2230D01*
X394Y1895D02*
Y1905D01*
Y2220D02*
Y2230D01*
X551Y1895D02*
Y1905D01*
Y2220D02*
Y2230D01*
D16*
X3500Y2350D02*
X3526Y2311D01*
Y2350D02*
X3500Y2311D01*
X3559D02*
Y2350D01*
X3539Y2331D01*
X3566D01*
X3425Y1482D02*
X3432Y1488D01*
X3445D01*
X3451Y1482D01*
Y1475D01*
X3445Y1468D01*
X3438D01*
X3445D01*
X3451Y1462D01*
Y1455D01*
X3445Y1449D01*
X3432D01*
X3425Y1455D01*
X3484Y1449D02*
Y1488D01*
X3465Y1468D01*
X3491D01*
X3465Y2232D02*
X3478D01*
X3471D01*
Y2272D01*
X3465Y2265D01*
X1073Y2516D02*
X1060Y2509D01*
X1047Y2496D01*
Y2483D01*
X1054Y2476D01*
X1067D01*
X1073Y2483D01*
Y2489D01*
X1067Y2496D01*
X1047D01*
X1622Y2476D02*
X1635D01*
X1629D01*
Y2516D01*
X1622Y2509D01*
X1311Y2413D02*
X1337Y2374D01*
Y2413D02*
X1311Y2374D01*
X1350Y2413D02*
X1377D01*
Y2407D01*
X1350Y2381D01*
Y2374D01*
X3346Y919D02*
X3353Y925D01*
X3366D01*
X3373Y919D01*
Y912D01*
X3366Y906D01*
X3373Y899D01*
Y892D01*
X3366Y886D01*
X3353D01*
X3346Y892D01*
Y899D01*
X3353Y906D01*
X3346Y912D01*
Y919D01*
X3353Y906D02*
X3366D01*
X3520Y724D02*
X3546D01*
Y718D01*
X3520Y692D01*
Y685D01*
X2826Y677D02*
X2839D01*
X2833D01*
Y716D01*
X2826Y710D01*
X3070Y890D02*
X3043D01*
X3070Y916D01*
Y923D01*
X3063Y929D01*
X3050D01*
X3043Y923D01*
X3146Y925D02*
X3172Y886D01*
Y925D02*
X3146Y886D01*
X3211Y925D02*
X3185D01*
Y906D01*
X3198Y912D01*
X3205D01*
X3211Y906D01*
Y892D01*
X3205Y886D01*
X3192D01*
X3185Y892D01*
X4697Y740D02*
X4723Y701D01*
Y740D02*
X4697Y701D01*
X4762Y740D02*
X4749Y734D01*
X4736Y720D01*
Y707D01*
X4743Y701D01*
X4756D01*
X4762Y707D01*
Y714D01*
X4756Y720D01*
X4736D01*
X4562Y665D02*
X4535D01*
Y646D01*
X4549Y652D01*
X4555D01*
X4562Y646D01*
Y633D01*
X4555Y626D01*
X4542D01*
X4535Y633D01*
X4512Y445D02*
X4525D01*
X4518D01*
Y484D01*
X4512Y478D01*
X1799Y2016D02*
X1825Y1976D01*
Y2016D02*
X1799Y1976D01*
X1865D02*
X1839D01*
X1865Y2003D01*
Y2009D01*
X1858Y2016D01*
X1845D01*
X1839Y2009D01*
X1857Y1858D02*
X1831D01*
X1857Y1885D01*
Y1891D01*
X1850Y1898D01*
X1837D01*
X1831Y1891D01*
X3102D02*
X3109Y1898D01*
X3122D01*
X3129Y1891D01*
Y1885D01*
X3122Y1878D01*
X3115D01*
X3122D01*
X3129Y1871D01*
Y1865D01*
X3122Y1858D01*
X3109D01*
X3102Y1865D01*
X3142Y1891D02*
X3148Y1898D01*
X3161D01*
X3168Y1891D01*
Y1865D01*
X3161Y1858D01*
X3148D01*
X3142Y1865D01*
Y1891D01*
X1839Y1776D02*
X1852D01*
X1845D01*
Y1815D01*
X1839Y1808D01*
X3133Y1776D02*
X3106D01*
X3133Y1802D01*
Y1808D01*
X3126Y1815D01*
X3113D01*
X3106Y1808D01*
X3146Y1782D02*
X3152Y1776D01*
X3165D01*
X3172Y1782D01*
Y1808D01*
X3165Y1815D01*
X3152D01*
X3146Y1808D01*
Y1802D01*
X3152Y1795D01*
X3172D01*
X4445Y1894D02*
X4471D01*
X4458Y1907D02*
Y1881D01*
X4510Y1874D02*
X4484D01*
X4510Y1900D01*
Y1907D01*
X4504Y1913D01*
X4491D01*
X4484Y1907D01*
X4524Y1874D02*
Y1881D01*
X4530D01*
Y1874D01*
X4524D01*
X4556Y1907D02*
X4563Y1913D01*
X4576D01*
X4583Y1907D01*
Y1900D01*
X4576Y1894D01*
X4583Y1887D01*
Y1881D01*
X4576Y1874D01*
X4563D01*
X4556Y1881D01*
Y1887D01*
X4563Y1894D01*
X4556Y1900D01*
Y1907D01*
X4563Y1894D02*
X4576D01*
X4596Y1913D02*
Y1887D01*
X4609Y1874D01*
X4622Y1887D01*
Y1913D01*
X4445Y1768D02*
X4471D01*
X4458Y1781D02*
Y1755D01*
X4510Y1748D02*
X4484D01*
X4510Y1774D01*
Y1781D01*
X4504Y1787D01*
X4491D01*
X4484Y1781D01*
X4524Y1748D02*
Y1755D01*
X4530D01*
Y1748D01*
X4524D01*
X4556Y1787D02*
X4583D01*
Y1781D01*
X4556Y1755D01*
Y1748D01*
X4596Y1787D02*
Y1761D01*
X4609Y1748D01*
X4622Y1761D01*
Y1787D01*
X4449Y1654D02*
X4475D01*
X4462Y1667D02*
Y1640D01*
X4488Y1634D02*
X4501D01*
X4495D01*
Y1673D01*
X4488Y1667D01*
X4521Y1634D02*
Y1640D01*
X4528D01*
Y1634D01*
X4521D01*
X4554Y1667D02*
X4560Y1673D01*
X4573D01*
X4580Y1667D01*
Y1660D01*
X4573Y1654D01*
X4580Y1647D01*
Y1640D01*
X4573Y1634D01*
X4560D01*
X4554Y1640D01*
Y1647D01*
X4560Y1654D01*
X4554Y1660D01*
Y1667D01*
X4560Y1654D02*
X4573D01*
X4593Y1673D02*
Y1647D01*
X4606Y1634D01*
X4619Y1647D01*
Y1673D01*
X4445Y1508D02*
X4471D01*
X4458Y1521D02*
Y1495D01*
X4484Y1488D02*
X4497D01*
X4491D01*
Y1528D01*
X4484Y1521D01*
X4517Y1488D02*
Y1495D01*
X4524D01*
Y1488D01*
X4517D01*
X4576D02*
X4550D01*
X4576Y1514D01*
Y1521D01*
X4570Y1528D01*
X4556D01*
X4550Y1521D01*
X4589Y1528D02*
Y1501D01*
X4602Y1488D01*
X4615Y1501D01*
Y1528D01*
X192Y1852D02*
X218D01*
X205D01*
Y1813D01*
X661Y1815D02*
Y1841D01*
X675Y1854D01*
X688Y1841D01*
Y1815D01*
Y1835D01*
X661D01*
X147Y1736D02*
X160D01*
X154D01*
Y1775D01*
X147Y1769D01*
X140Y1495D02*
X146Y1488D01*
X159D01*
X166Y1495D01*
Y1521D01*
X159Y1528D01*
X146D01*
X140Y1521D01*
Y1514D01*
X146Y1508D01*
X166D01*
X140Y1920D02*
X146Y1913D01*
X159D01*
X166Y1920D01*
Y1946D01*
X159Y1953D01*
X146D01*
X140Y1946D01*
Y1940D01*
X146Y1933D01*
X166D01*
X147Y2161D02*
X160D01*
X154D01*
Y2200D01*
X147Y2194D01*
X661Y2240D02*
Y2266D01*
X675Y2280D01*
X688Y2266D01*
Y2240D01*
Y2260D01*
X661D01*
X192Y2278D02*
X218D01*
X205D01*
Y2238D01*
X979Y2316D02*
X965Y2310D01*
X952Y2296D01*
Y2283D01*
X959Y2277D01*
X972D01*
X979Y2283D01*
Y2290D01*
X972Y2296D01*
X952D01*
X770Y2276D02*
Y2315D01*
X751Y2295D01*
X777D01*
M02*
