G04*
G04 #@! TF.GenerationSoftware,Altium Limited,Altium Designer,20.2.6 (244)*
G04*
G04 Layer_Color=16711935*
%FSLAX23Y23*%
%MOIN*%
G70*
G04*
G04 #@! TF.SameCoordinates,73FAD0BF-AACC-46A3-90AC-D22ED7FD95C1*
G04*
G04*
G04 #@! TF.FilePolarity,Negative*
G04*
G01*
G75*
G04:AMPARAMS|DCode=21|XSize=21mil|YSize=10mil|CornerRadius=1mil|HoleSize=0mil|Usage=FLASHONLY|Rotation=0.000|XOffset=0mil|YOffset=0mil|HoleType=Round|Shape=RoundedRectangle|*
%AMROUNDEDRECTD21*
21,1,0.021,0.007,0,0,0.0*
21,1,0.018,0.010,0,0,0.0*
1,1,0.003,0.009,-0.003*
1,1,0.003,-0.009,-0.003*
1,1,0.003,-0.009,0.003*
1,1,0.003,0.009,0.003*
%
%ADD21ROUNDEDRECTD21*%
G04:AMPARAMS|DCode=22|XSize=21mil|YSize=10mil|CornerRadius=1mil|HoleSize=0mil|Usage=FLASHONLY|Rotation=270.000|XOffset=0mil|YOffset=0mil|HoleType=Round|Shape=RoundedRectangle|*
%AMROUNDEDRECTD22*
21,1,0.021,0.007,0,0,270.0*
21,1,0.018,0.010,0,0,270.0*
1,1,0.003,-0.003,-0.009*
1,1,0.003,-0.003,0.009*
1,1,0.003,0.003,0.009*
1,1,0.003,0.003,-0.009*
%
%ADD22ROUNDEDRECTD22*%
%ADD23R,0.038X0.032*%
G04:AMPARAMS|DCode=27|XSize=23mil|YSize=19mil|CornerRadius=5mil|HoleSize=0mil|Usage=FLASHONLY|Rotation=270.000|XOffset=0mil|YOffset=0mil|HoleType=Round|Shape=RoundedRectangle|*
%AMROUNDEDRECTD27*
21,1,0.023,0.009,0,0,270.0*
21,1,0.013,0.019,0,0,270.0*
1,1,0.009,-0.005,-0.007*
1,1,0.009,-0.005,0.007*
1,1,0.009,0.005,0.007*
1,1,0.009,0.005,-0.007*
%
%ADD27ROUNDEDRECTD27*%
G04:AMPARAMS|DCode=29|XSize=23mil|YSize=19mil|CornerRadius=5mil|HoleSize=0mil|Usage=FLASHONLY|Rotation=0.000|XOffset=0mil|YOffset=0mil|HoleType=Round|Shape=RoundedRectangle|*
%AMROUNDEDRECTD29*
21,1,0.023,0.009,0,0,0.0*
21,1,0.013,0.019,0,0,0.0*
1,1,0.009,0.007,-0.005*
1,1,0.009,-0.007,-0.005*
1,1,0.009,-0.007,0.005*
1,1,0.009,0.007,0.005*
%
%ADD29ROUNDEDRECTD29*%
%ADD33R,0.043X0.055*%
%ADD41R,0.055X0.043*%
G04:AMPARAMS|DCode=46|XSize=142mil|YSize=142mil|CornerRadius=17mil|HoleSize=0mil|Usage=FLASHONLY|Rotation=180.000|XOffset=0mil|YOffset=0mil|HoleType=Round|Shape=RoundedRectangle|*
%AMROUNDEDRECTD46*
21,1,0.142,0.107,0,0,180.0*
21,1,0.107,0.142,0,0,180.0*
1,1,0.035,-0.054,0.054*
1,1,0.035,0.054,0.054*
1,1,0.035,0.054,-0.054*
1,1,0.035,-0.054,-0.054*
%
%ADD46ROUNDEDRECTD46*%
G04:AMPARAMS|DCode=54|XSize=31mil|YSize=31mil|CornerRadius=8mil|HoleSize=0mil|Usage=FLASHONLY|Rotation=180.000|XOffset=0mil|YOffset=0mil|HoleType=Round|Shape=RoundedRectangle|*
%AMROUNDEDRECTD54*
21,1,0.031,0.015,0,0,180.0*
21,1,0.015,0.031,0,0,180.0*
1,1,0.015,-0.008,0.008*
1,1,0.015,0.008,0.008*
1,1,0.015,0.008,-0.008*
1,1,0.015,-0.008,-0.008*
%
%ADD54ROUNDEDRECTD54*%
%ADD57C,0.035*%
%ADD60R,0.067X0.067*%
%ADD61C,0.071*%
%ADD62C,0.063*%
%ADD63C,0.165*%
%ADD64C,0.094*%
%ADD65C,0.063*%
G04:AMPARAMS|DCode=66|XSize=59mil|YSize=59mil|CornerRadius=24mil|HoleSize=0mil|Usage=FLASHONLY|Rotation=0.000|XOffset=0mil|YOffset=0mil|HoleType=Round|Shape=RoundedRectangle|*
%AMROUNDEDRECTD66*
21,1,0.059,0.010,0,0,0.0*
21,1,0.010,0.059,0,0,0.0*
1,1,0.049,0.005,-0.005*
1,1,0.049,-0.005,-0.005*
1,1,0.049,-0.005,0.005*
1,1,0.049,0.005,0.005*
%
%ADD66ROUNDEDRECTD66*%
%ADD67C,0.039*%
%ADD68C,0.244*%
%ADD69C,0.028*%
%ADD70C,0.031*%
%ADD71C,0.024*%
%ADD94C,0.019*%
G04:AMPARAMS|DCode=96|XSize=69mil|YSize=69mil|CornerRadius=3mil|HoleSize=0mil|Usage=FLASHONLY|Rotation=90.000|XOffset=0mil|YOffset=0mil|HoleType=Round|Shape=RoundedRectangle|*
%AMROUNDEDRECTD96*
21,1,0.069,0.062,0,0,90.0*
21,1,0.062,0.069,0,0,90.0*
1,1,0.007,0.031,0.031*
1,1,0.007,0.031,-0.031*
1,1,0.007,-0.031,-0.031*
1,1,0.007,-0.031,0.031*
%
%ADD96ROUNDEDRECTD96*%
G04:AMPARAMS|DCode=97|XSize=31mil|YSize=12mil|CornerRadius=3mil|HoleSize=0mil|Usage=FLASHONLY|Rotation=90.000|XOffset=0mil|YOffset=0mil|HoleType=Round|Shape=RoundedRectangle|*
%AMROUNDEDRECTD97*
21,1,0.031,0.006,0,0,90.0*
21,1,0.026,0.012,0,0,90.0*
1,1,0.006,0.003,0.013*
1,1,0.006,0.003,-0.013*
1,1,0.006,-0.003,-0.013*
1,1,0.006,-0.003,0.013*
%
%ADD97ROUNDEDRECTD97*%
G04:AMPARAMS|DCode=98|XSize=31mil|YSize=12mil|CornerRadius=3mil|HoleSize=0mil|Usage=FLASHONLY|Rotation=180.000|XOffset=0mil|YOffset=0mil|HoleType=Round|Shape=RoundedRectangle|*
%AMROUNDEDRECTD98*
21,1,0.031,0.006,0,0,180.0*
21,1,0.026,0.012,0,0,180.0*
1,1,0.006,-0.013,0.003*
1,1,0.006,0.013,0.003*
1,1,0.006,0.013,-0.003*
1,1,0.006,-0.013,-0.003*
%
%ADD98ROUNDEDRECTD98*%
%ADD99R,0.087X0.059*%
G04:AMPARAMS|DCode=100|XSize=31mil|YSize=31mil|CornerRadius=8mil|HoleSize=0mil|Usage=FLASHONLY|Rotation=270.000|XOffset=0mil|YOffset=0mil|HoleType=Round|Shape=RoundedRectangle|*
%AMROUNDEDRECTD100*
21,1,0.031,0.015,0,0,270.0*
21,1,0.015,0.031,0,0,270.0*
1,1,0.015,-0.008,-0.008*
1,1,0.015,-0.008,0.008*
1,1,0.015,0.008,0.008*
1,1,0.015,0.008,-0.008*
%
%ADD100ROUNDEDRECTD100*%
%ADD101R,0.011X0.033*%
%ADD102R,0.033X0.011*%
%ADD103R,0.081X0.081*%
%ADD105O,0.059X0.011*%
%ADD106R,0.059X0.011*%
%ADD107R,0.032X0.038*%
%ADD108R,0.008X0.012*%
%ADD109R,0.008X0.014*%
%ADD110R,0.203X0.189*%
%ADD111R,0.032X0.017*%
%ADD112R,0.039X0.087*%
%ADD113R,0.130X0.087*%
G04:AMPARAMS|DCode=114|XSize=28mil|YSize=67mil|CornerRadius=7mil|HoleSize=0mil|Usage=FLASHONLY|Rotation=270.000|XOffset=0mil|YOffset=0mil|HoleType=Round|Shape=RoundedRectangle|*
%AMROUNDEDRECTD114*
21,1,0.028,0.053,0,0,270.0*
21,1,0.014,0.067,0,0,270.0*
1,1,0.014,-0.027,-0.007*
1,1,0.014,-0.027,0.007*
1,1,0.014,0.027,0.007*
1,1,0.014,0.027,-0.007*
%
%ADD114ROUNDEDRECTD114*%
%ADD115R,0.020X0.024*%
G04:AMPARAMS|DCode=116|XSize=39mil|YSize=110mil|CornerRadius=12mil|HoleSize=0mil|Usage=FLASHONLY|Rotation=90.000|XOffset=0mil|YOffset=0mil|HoleType=Round|Shape=RoundedRectangle|*
%AMROUNDEDRECTD116*
21,1,0.039,0.087,0,0,90.0*
21,1,0.016,0.110,0,0,90.0*
1,1,0.024,0.043,0.008*
1,1,0.024,0.043,-0.008*
1,1,0.024,-0.043,-0.008*
1,1,0.024,-0.043,0.008*
%
%ADD116ROUNDEDRECTD116*%
G04:AMPARAMS|DCode=117|XSize=55mil|YSize=55mil|CornerRadius=16mil|HoleSize=0mil|Usage=FLASHONLY|Rotation=270.000|XOffset=0mil|YOffset=0mil|HoleType=Round|Shape=RoundedRectangle|*
%AMROUNDEDRECTD117*
21,1,0.055,0.024,0,0,270.0*
21,1,0.024,0.055,0,0,270.0*
1,1,0.032,-0.012,-0.012*
1,1,0.032,-0.012,0.012*
1,1,0.032,0.012,0.012*
1,1,0.032,0.012,-0.012*
%
%ADD117ROUNDEDRECTD117*%
D21*
X3162Y1807D02*
D03*
Y1827D02*
D03*
Y1846D02*
D03*
X3208D02*
D03*
Y1827D02*
D03*
Y1807D02*
D03*
Y1713D02*
D03*
Y1732D02*
D03*
Y1752D02*
D03*
X3162D02*
D03*
Y1732D02*
D03*
Y1713D02*
D03*
D22*
X3185Y1850D02*
D03*
Y1804D02*
D03*
Y1709D02*
D03*
Y1755D02*
D03*
D23*
X2299Y437D02*
D03*
Y381D02*
D03*
X2366Y437D02*
D03*
Y381D02*
D03*
X2614Y437D02*
D03*
Y381D02*
D03*
X2681Y437D02*
D03*
Y381D02*
D03*
D27*
X3705Y709D02*
D03*
Y748D02*
D03*
X3760Y846D02*
D03*
Y886D02*
D03*
X3937Y677D02*
D03*
Y638D02*
D03*
X3898Y677D02*
D03*
Y638D02*
D03*
X3976Y677D02*
D03*
Y638D02*
D03*
X3870Y886D02*
D03*
Y925D02*
D03*
X3760Y748D02*
D03*
Y709D02*
D03*
X3705Y2122D02*
D03*
Y2161D02*
D03*
X3937Y2051D02*
D03*
Y2091D02*
D03*
X3795Y2260D02*
D03*
Y2299D02*
D03*
X3898Y2091D02*
D03*
Y2051D02*
D03*
X3760Y2299D02*
D03*
Y2260D02*
D03*
X3831Y2339D02*
D03*
Y2299D02*
D03*
X3976Y2051D02*
D03*
Y2091D02*
D03*
X3870Y2339D02*
D03*
Y2299D02*
D03*
X3760Y2122D02*
D03*
Y2161D02*
D03*
X3705Y1770D02*
D03*
Y1809D02*
D03*
X3898Y1699D02*
D03*
Y1738D02*
D03*
X3760Y1947D02*
D03*
Y1907D02*
D03*
X3976Y1699D02*
D03*
Y1738D02*
D03*
X3937Y1699D02*
D03*
Y1738D02*
D03*
X3870Y1986D02*
D03*
Y1947D02*
D03*
X3760Y1770D02*
D03*
Y1809D02*
D03*
X3705Y1417D02*
D03*
Y1457D02*
D03*
X3760Y1555D02*
D03*
Y1594D02*
D03*
X3898Y1346D02*
D03*
Y1386D02*
D03*
X3976Y1346D02*
D03*
Y1386D02*
D03*
X3937Y1386D02*
D03*
Y1346D02*
D03*
X3870Y1594D02*
D03*
Y1634D02*
D03*
X3760Y1457D02*
D03*
Y1417D02*
D03*
X3705Y1063D02*
D03*
Y1102D02*
D03*
X3760Y1201D02*
D03*
Y1240D02*
D03*
X3760Y1102D02*
D03*
Y1063D02*
D03*
X3870Y1240D02*
D03*
Y1280D02*
D03*
X3898Y1031D02*
D03*
Y992D02*
D03*
X3976Y1031D02*
D03*
Y992D02*
D03*
X3937Y992D02*
D03*
Y1031D02*
D03*
X303Y606D02*
D03*
Y646D02*
D03*
X232Y646D02*
D03*
Y606D02*
D03*
X339Y646D02*
D03*
Y606D02*
D03*
X409Y646D02*
D03*
Y606D02*
D03*
X457Y815D02*
D03*
Y854D02*
D03*
X268Y646D02*
D03*
Y606D02*
D03*
X197Y646D02*
D03*
Y606D02*
D03*
X161Y646D02*
D03*
Y606D02*
D03*
X374Y646D02*
D03*
Y606D02*
D03*
Y1091D02*
D03*
Y1051D02*
D03*
X409Y1051D02*
D03*
Y1091D02*
D03*
X303Y1091D02*
D03*
Y1051D02*
D03*
X232Y1051D02*
D03*
Y1091D02*
D03*
X339Y1051D02*
D03*
Y1091D02*
D03*
X457Y1260D02*
D03*
Y1299D02*
D03*
X268Y1091D02*
D03*
Y1051D02*
D03*
X197Y1051D02*
D03*
Y1091D02*
D03*
X161Y1051D02*
D03*
Y1091D02*
D03*
X126Y1051D02*
D03*
Y1091D02*
D03*
X91Y1051D02*
D03*
Y1091D02*
D03*
X2936Y1051D02*
D03*
Y1091D02*
D03*
X2938Y1016D02*
D03*
Y976D02*
D03*
X2938Y638D02*
D03*
Y598D02*
D03*
X2942Y799D02*
D03*
Y760D02*
D03*
X2938Y945D02*
D03*
Y906D02*
D03*
X3441Y1047D02*
D03*
Y1008D02*
D03*
X3126Y1047D02*
D03*
Y1008D02*
D03*
X3205Y1047D02*
D03*
Y1008D02*
D03*
X3087Y1047D02*
D03*
Y1008D02*
D03*
X3283Y1047D02*
D03*
Y1008D02*
D03*
X3323Y1047D02*
D03*
Y1008D02*
D03*
X3402Y1047D02*
D03*
Y1008D02*
D03*
X2161Y709D02*
D03*
Y669D02*
D03*
X2083Y713D02*
D03*
Y673D02*
D03*
X2122Y709D02*
D03*
Y669D02*
D03*
X3004Y1008D02*
D03*
Y1047D02*
D03*
X3043Y1008D02*
D03*
Y1047D02*
D03*
X2209Y705D02*
D03*
Y665D02*
D03*
X2940Y717D02*
D03*
Y677D02*
D03*
X2938Y831D02*
D03*
Y870D02*
D03*
X3480Y1008D02*
D03*
Y1047D02*
D03*
X3165Y1008D02*
D03*
Y1047D02*
D03*
X3244Y1008D02*
D03*
Y1047D02*
D03*
X3362Y1008D02*
D03*
Y1047D02*
D03*
X2406Y1303D02*
D03*
Y1343D02*
D03*
X1665Y1894D02*
D03*
Y1854D02*
D03*
X930Y2311D02*
D03*
Y2272D02*
D03*
X733Y2311D02*
D03*
Y2272D02*
D03*
X1013Y2445D02*
D03*
Y2406D02*
D03*
X851Y2272D02*
D03*
Y2311D02*
D03*
X773Y2272D02*
D03*
Y2311D02*
D03*
X1051Y2445D02*
D03*
Y2406D02*
D03*
X973Y2406D02*
D03*
Y2445D02*
D03*
X1051Y2370D02*
D03*
Y2331D02*
D03*
X840Y2386D02*
D03*
Y2425D02*
D03*
X1091Y2370D02*
D03*
Y2331D02*
D03*
X812Y2272D02*
D03*
Y2311D02*
D03*
X891D02*
D03*
Y2272D02*
D03*
X1626Y2280D02*
D03*
Y2319D02*
D03*
X685Y2398D02*
D03*
Y2358D02*
D03*
X685Y2272D02*
D03*
Y2311D02*
D03*
X950Y1567D02*
D03*
Y1606D02*
D03*
X2665Y1484D02*
D03*
Y1524D02*
D03*
X2878Y1528D02*
D03*
Y1488D02*
D03*
X3091Y1488D02*
D03*
Y1528D02*
D03*
X2461Y1488D02*
D03*
Y1528D02*
D03*
X2232Y429D02*
D03*
Y390D02*
D03*
X2543Y429D02*
D03*
Y390D02*
D03*
X1992Y1315D02*
D03*
Y1276D02*
D03*
D29*
X4118Y2413D02*
D03*
X4157D02*
D03*
X339Y874D02*
D03*
X299D02*
D03*
X217Y874D02*
D03*
X256D02*
D03*
X87Y854D02*
D03*
X126D02*
D03*
X299Y1319D02*
D03*
X339D02*
D03*
X256Y1319D02*
D03*
X217D02*
D03*
X126Y1299D02*
D03*
X87D02*
D03*
X2555Y575D02*
D03*
X2516D02*
D03*
X2083Y823D02*
D03*
X2043D02*
D03*
X2555Y622D02*
D03*
X2516D02*
D03*
Y665D02*
D03*
X2555D02*
D03*
X933Y315D02*
D03*
X972D02*
D03*
X1020Y315D02*
D03*
X1059D02*
D03*
X1598Y309D02*
D03*
X1559D02*
D03*
X1646D02*
D03*
X1685D02*
D03*
X3323Y1776D02*
D03*
X3283D02*
D03*
X3087Y1744D02*
D03*
X3126D02*
D03*
X3323Y1713D02*
D03*
X3283D02*
D03*
X3091Y1720D02*
D03*
X3130D02*
D03*
X3323Y1744D02*
D03*
X3283D02*
D03*
X3323Y1839D02*
D03*
X3283D02*
D03*
X3323Y1870D02*
D03*
X3283D02*
D03*
X3205Y1878D02*
D03*
X3165D02*
D03*
X3205Y1917D02*
D03*
X3165D02*
D03*
X3323Y1807D02*
D03*
X3283D02*
D03*
X1898Y1335D02*
D03*
X1937D02*
D03*
X1937Y1272D02*
D03*
X1898D02*
D03*
X1547Y2256D02*
D03*
X1587D02*
D03*
X1547Y2307D02*
D03*
X1587D02*
D03*
X1587Y2354D02*
D03*
X1547D02*
D03*
X1547Y2394D02*
D03*
X1587D02*
D03*
X1547Y2429D02*
D03*
X1587D02*
D03*
X528Y2051D02*
D03*
X488D02*
D03*
X441Y1543D02*
D03*
X402D02*
D03*
X402Y1969D02*
D03*
X441D02*
D03*
X3941Y2413D02*
D03*
X3980D02*
D03*
X4815Y599D02*
D03*
X4854D02*
D03*
X4811Y492D02*
D03*
X4850D02*
D03*
X4850Y378D02*
D03*
X4811D02*
D03*
D33*
X3978Y925D02*
D03*
X3919D02*
D03*
X3919Y2339D02*
D03*
X3978D02*
D03*
X3919Y1986D02*
D03*
X3978D02*
D03*
X3978Y1634D02*
D03*
X3919D02*
D03*
X3919Y1280D02*
D03*
X3978D02*
D03*
D41*
X3705Y813D02*
D03*
Y872D02*
D03*
X3705Y2285D02*
D03*
Y2226D02*
D03*
X3705Y1939D02*
D03*
Y1880D02*
D03*
X3705Y1522D02*
D03*
Y1581D02*
D03*
X3705Y1167D02*
D03*
Y1226D02*
D03*
X390Y821D02*
D03*
Y880D02*
D03*
Y1266D02*
D03*
Y1325D02*
D03*
X465Y648D02*
D03*
Y589D02*
D03*
D46*
X1969Y1528D02*
D03*
D54*
X4079Y2413D02*
D03*
X4024D02*
D03*
X3898Y2413D02*
D03*
X3843D02*
D03*
D57*
X2006Y1565D02*
D03*
Y1526D02*
D03*
Y1486D02*
D03*
X1966Y1565D02*
D03*
Y1526D02*
D03*
Y1486D02*
D03*
X1927D02*
D03*
Y1526D02*
D03*
Y1565D02*
D03*
D60*
X1539Y2492D02*
D03*
D61*
X1461D02*
D03*
X1224D02*
D03*
X1303D02*
D03*
X1382D02*
D03*
X1146D02*
D03*
D62*
X3024Y252D02*
D03*
X3310Y695D02*
D03*
X3210D02*
D03*
X3010D02*
D03*
X3060Y795D02*
D03*
X3110Y695D02*
D03*
X3160Y795D02*
D03*
X3260D02*
D03*
X3346Y252D02*
D03*
X2924D02*
D03*
X3360Y795D02*
D03*
X3446Y252D02*
D03*
D63*
X2960Y445D02*
D03*
X3410D02*
D03*
D64*
X3506Y565D02*
D03*
X2864D02*
D03*
D65*
X4719Y431D02*
D03*
Y605D02*
D03*
D66*
X3031Y1799D02*
D03*
Y1878D02*
D03*
X1929Y1799D02*
D03*
X2008D02*
D03*
X2087D02*
D03*
X2165D02*
D03*
X2244D02*
D03*
X2323D02*
D03*
X1929Y1878D02*
D03*
X2008D02*
D03*
X2087D02*
D03*
X2165D02*
D03*
X2244D02*
D03*
X2323D02*
D03*
X2402Y1799D02*
D03*
X2480D02*
D03*
X2559D02*
D03*
X2638D02*
D03*
X2402Y1878D02*
D03*
X2480D02*
D03*
X2559D02*
D03*
X2638D02*
D03*
X2717Y1799D02*
D03*
X2795D02*
D03*
X2874D02*
D03*
X2953D02*
D03*
X2717Y1878D02*
D03*
X2795D02*
D03*
X2874D02*
D03*
X2953D02*
D03*
D67*
X4276Y2004D02*
D03*
Y2079D02*
D03*
X3969Y886D02*
D03*
X4917Y709D02*
D03*
X4276Y1598D02*
D03*
X3972Y1217D02*
D03*
X409Y685D02*
D03*
X173Y874D02*
D03*
X409Y1126D02*
D03*
X173Y1319D02*
D03*
X2291Y583D02*
D03*
X2429Y657D02*
D03*
X2291Y661D02*
D03*
X2862Y661D02*
D03*
X2358Y657D02*
D03*
X2362Y587D02*
D03*
X2429D02*
D03*
X4276Y1902D02*
D03*
Y1772D02*
D03*
Y1654D02*
D03*
Y1508D02*
D03*
X886Y1272D02*
D03*
X2354Y252D02*
D03*
X2748Y248D02*
D03*
X1453Y984D02*
D03*
Y933D02*
D03*
X1453Y882D02*
D03*
X917Y1181D02*
D03*
X949Y1114D02*
D03*
X945Y1063D02*
D03*
X4366Y331D02*
D03*
X4917Y827D02*
D03*
Y768D02*
D03*
X4622Y1354D02*
D03*
X2071Y1307D02*
D03*
X1831Y1390D02*
D03*
X4622Y1409D02*
D03*
X4606Y2530D02*
D03*
Y2352D02*
D03*
X4518Y2441D02*
D03*
X4695D02*
D03*
X4547Y2372D02*
D03*
X4675Y2382D02*
D03*
X4547Y2510D02*
D03*
X4675Y2500D02*
D03*
Y177D02*
D03*
X4547Y187D02*
D03*
X4675Y59D02*
D03*
X4547Y49D02*
D03*
X4695Y118D02*
D03*
X4518D02*
D03*
X4606Y30D02*
D03*
Y207D02*
D03*
X354D02*
D03*
Y30D02*
D03*
X266Y118D02*
D03*
X443D02*
D03*
X295Y49D02*
D03*
X423Y59D02*
D03*
X295Y187D02*
D03*
X423Y177D02*
D03*
Y2500D02*
D03*
X295Y2510D02*
D03*
X423Y2382D02*
D03*
X295Y2372D02*
D03*
X443Y2441D02*
D03*
X266D02*
D03*
X354Y2352D02*
D03*
Y2530D02*
D03*
D68*
X4606Y2439D02*
D03*
Y117D02*
D03*
X354D02*
D03*
Y2439D02*
D03*
D69*
X3850Y765D02*
D03*
Y797D02*
D03*
X3882D02*
D03*
Y765D02*
D03*
X3850Y2179D02*
D03*
Y2210D02*
D03*
X3882D02*
D03*
Y2179D02*
D03*
X3850Y1826D02*
D03*
Y1858D02*
D03*
X3882D02*
D03*
Y1826D02*
D03*
X3882Y1474D02*
D03*
Y1505D02*
D03*
X3850D02*
D03*
Y1474D02*
D03*
X3882Y1120D02*
D03*
Y1151D02*
D03*
X3850D02*
D03*
Y1120D02*
D03*
D70*
X4220Y650D02*
D03*
X4146Y583D02*
D03*
X4413Y528D02*
D03*
X4260Y650D02*
D03*
X4322Y502D02*
D03*
X4279Y378D02*
D03*
X4322Y559D02*
D03*
X4232Y524D02*
D03*
X4413Y575D02*
D03*
X4320Y379D02*
D03*
X4244Y744D02*
D03*
X4543Y604D02*
D03*
X4811Y406D02*
D03*
X4299Y339D02*
D03*
X4508Y433D02*
D03*
X4469Y339D02*
D03*
X4539Y339D02*
D03*
X4543Y481D02*
D03*
X4543Y524D02*
D03*
X4448Y607D02*
D03*
Y650D02*
D03*
X4425Y1248D02*
D03*
X4421Y1098D02*
D03*
X2398Y177D02*
D03*
X807Y980D02*
D03*
Y1028D02*
D03*
X815Y1110D02*
D03*
X1559Y1051D02*
D03*
X1811Y1429D02*
D03*
X1248Y1012D02*
D03*
X1249Y893D02*
D03*
X1465Y835D02*
D03*
Y1031D02*
D03*
X1558Y1012D02*
D03*
Y894D02*
D03*
X1992Y894D02*
D03*
D71*
X969Y1402D02*
D03*
Y1362D02*
D03*
X996Y315D02*
D03*
X1244Y1598D02*
D03*
X1990Y656D02*
D03*
Y628D02*
D03*
Y683D02*
D03*
Y711D02*
D03*
Y737D02*
D03*
Y766D02*
D03*
Y792D02*
D03*
Y821D02*
D03*
Y848D02*
D03*
X1622Y309D02*
D03*
X969Y1441D02*
D03*
X1244Y1559D02*
D03*
X555Y2051D02*
D03*
X461D02*
D03*
X488Y2126D02*
D03*
X520Y2102D02*
D03*
X362Y2000D02*
D03*
Y1969D02*
D03*
X374Y2091D02*
D03*
X1205Y1520D02*
D03*
X1244Y1638D02*
D03*
X338Y1637D02*
D03*
X378Y1634D02*
D03*
X437Y1648D02*
D03*
X346Y1666D02*
D03*
X408Y1608D02*
D03*
X315Y1602D02*
D03*
X202Y1543D02*
D03*
X216Y1622D02*
D03*
X185Y1622D02*
D03*
X236Y1701D02*
D03*
X614Y2000D02*
D03*
X406Y2091D02*
D03*
X268Y2031D02*
D03*
X331Y2126D02*
D03*
Y2157D02*
D03*
X642Y2050D02*
D03*
X425Y2126D02*
D03*
X299Y1764D02*
D03*
X403Y1669D02*
D03*
X299Y1732D02*
D03*
X268Y1732D02*
D03*
X458Y1667D02*
D03*
X363Y1543D02*
D03*
X236Y1732D02*
D03*
X205Y1764D02*
D03*
X236D02*
D03*
X205Y1512D02*
D03*
X850Y1402D02*
D03*
X331Y1512D02*
D03*
X300Y1543D02*
D03*
X772Y1598D02*
D03*
X647Y1596D02*
D03*
X610D02*
D03*
X583Y1681D02*
D03*
X523Y1669D02*
D03*
X552Y1669D02*
D03*
X492Y1661D02*
D03*
X552Y1701D02*
D03*
X582Y1576D02*
D03*
X648Y1999D02*
D03*
X677Y1764D02*
D03*
X645Y1701D02*
D03*
X614Y1764D02*
D03*
X488Y1575D02*
D03*
X929Y1402D02*
D03*
X551Y1732D02*
D03*
X330Y1969D02*
D03*
Y1937D02*
D03*
X487D02*
D03*
X520Y1512D02*
D03*
X551D02*
D03*
Y1543D02*
D03*
X677Y1512D02*
D03*
Y1543D02*
D03*
X646Y1512D02*
D03*
X614Y1543D02*
D03*
X582Y1544D02*
D03*
X646Y1733D02*
D03*
Y1764D02*
D03*
X520Y1701D02*
D03*
X488Y1701D02*
D03*
X583Y1512D02*
D03*
X331Y1543D02*
D03*
X457Y1763D02*
D03*
X677Y1937D02*
D03*
Y1969D02*
D03*
X646D02*
D03*
X583Y1764D02*
D03*
Y1937D02*
D03*
X551D02*
D03*
X488Y1512D02*
D03*
X487Y2000D02*
D03*
Y1969D02*
D03*
X520Y2000D02*
D03*
X488Y2157D02*
D03*
X520D02*
D03*
X551D02*
D03*
X520Y2189D02*
D03*
X488D02*
D03*
X552Y2189D02*
D03*
X457Y2189D02*
D03*
Y2157D02*
D03*
X425D02*
D03*
X583Y1732D02*
D03*
X457Y1731D02*
D03*
X550Y1969D02*
D03*
X520Y1968D02*
D03*
X677Y2189D02*
D03*
X583Y2157D02*
D03*
Y1969D02*
D03*
X646Y2189D02*
D03*
X488Y1543D02*
D03*
X394Y2157D02*
D03*
X299Y2126D02*
D03*
X890Y1441D02*
D03*
Y1480D02*
D03*
X772Y1520D02*
D03*
Y2031D02*
D03*
Y2071D02*
D03*
Y2110D02*
D03*
X929Y1717D02*
D03*
D94*
X2362Y1063D02*
D03*
Y1024D02*
D03*
Y984D02*
D03*
Y945D02*
D03*
Y906D02*
D03*
Y866D02*
D03*
Y827D02*
D03*
Y787D02*
D03*
Y748D02*
D03*
X2402Y1063D02*
D03*
Y1024D02*
D03*
Y984D02*
D03*
Y945D02*
D03*
Y906D02*
D03*
Y866D02*
D03*
Y827D02*
D03*
Y787D02*
D03*
Y748D02*
D03*
X2441Y1063D02*
D03*
Y1024D02*
D03*
Y984D02*
D03*
Y945D02*
D03*
Y906D02*
D03*
Y866D02*
D03*
Y827D02*
D03*
Y787D02*
D03*
Y748D02*
D03*
X2480Y1063D02*
D03*
Y1024D02*
D03*
Y984D02*
D03*
Y945D02*
D03*
Y906D02*
D03*
Y866D02*
D03*
Y827D02*
D03*
Y787D02*
D03*
Y748D02*
D03*
X2520Y1063D02*
D03*
Y1024D02*
D03*
Y984D02*
D03*
Y945D02*
D03*
Y906D02*
D03*
Y866D02*
D03*
Y827D02*
D03*
Y787D02*
D03*
Y748D02*
D03*
X2559Y1063D02*
D03*
Y1024D02*
D03*
Y984D02*
D03*
Y945D02*
D03*
Y906D02*
D03*
Y866D02*
D03*
Y827D02*
D03*
Y787D02*
D03*
Y748D02*
D03*
X2598Y1063D02*
D03*
Y1024D02*
D03*
Y984D02*
D03*
Y945D02*
D03*
Y906D02*
D03*
Y866D02*
D03*
Y827D02*
D03*
Y787D02*
D03*
Y748D02*
D03*
X2638Y1063D02*
D03*
Y1024D02*
D03*
Y984D02*
D03*
Y945D02*
D03*
Y906D02*
D03*
Y866D02*
D03*
Y827D02*
D03*
Y787D02*
D03*
Y748D02*
D03*
X2677Y1063D02*
D03*
Y1024D02*
D03*
Y984D02*
D03*
Y945D02*
D03*
Y906D02*
D03*
Y866D02*
D03*
Y827D02*
D03*
Y787D02*
D03*
Y748D02*
D03*
X2717Y1063D02*
D03*
Y1024D02*
D03*
Y984D02*
D03*
Y945D02*
D03*
Y906D02*
D03*
Y866D02*
D03*
Y827D02*
D03*
Y787D02*
D03*
Y748D02*
D03*
X2756Y1063D02*
D03*
Y1024D02*
D03*
Y984D02*
D03*
Y945D02*
D03*
Y906D02*
D03*
Y866D02*
D03*
Y827D02*
D03*
Y787D02*
D03*
Y748D02*
D03*
X2795Y1063D02*
D03*
Y1024D02*
D03*
Y984D02*
D03*
Y945D02*
D03*
Y906D02*
D03*
Y866D02*
D03*
Y827D02*
D03*
Y787D02*
D03*
Y748D02*
D03*
X2835Y1063D02*
D03*
Y1024D02*
D03*
Y984D02*
D03*
Y945D02*
D03*
Y906D02*
D03*
Y866D02*
D03*
Y827D02*
D03*
Y787D02*
D03*
Y748D02*
D03*
D96*
X3866Y781D02*
D03*
X3866Y2194D02*
D03*
X3866Y1842D02*
D03*
X3866Y1490D02*
D03*
X3866Y1135D02*
D03*
D97*
X3896Y840D02*
D03*
X3876D02*
D03*
X3856D02*
D03*
X3837D02*
D03*
Y722D02*
D03*
X3856D02*
D03*
X3876D02*
D03*
X3896D02*
D03*
X3896Y2254D02*
D03*
X3876D02*
D03*
X3856D02*
D03*
X3837D02*
D03*
Y2135D02*
D03*
X3856D02*
D03*
X3876D02*
D03*
X3896D02*
D03*
X3896Y1901D02*
D03*
X3876D02*
D03*
X3856D02*
D03*
X3837D02*
D03*
Y1783D02*
D03*
X3856D02*
D03*
X3876D02*
D03*
X3896D02*
D03*
X3896Y1431D02*
D03*
X3876D02*
D03*
X3856D02*
D03*
X3837D02*
D03*
Y1549D02*
D03*
X3856D02*
D03*
X3876D02*
D03*
X3896D02*
D03*
X3896Y1076D02*
D03*
X3876D02*
D03*
X3856D02*
D03*
X3837D02*
D03*
Y1194D02*
D03*
X3856D02*
D03*
X3876D02*
D03*
X3896D02*
D03*
D98*
X3807Y811D02*
D03*
Y791D02*
D03*
Y771D02*
D03*
Y752D02*
D03*
X3925D02*
D03*
Y771D02*
D03*
Y791D02*
D03*
Y811D02*
D03*
X3807Y2224D02*
D03*
Y2204D02*
D03*
Y2185D02*
D03*
Y2165D02*
D03*
X3925D02*
D03*
Y2185D02*
D03*
Y2204D02*
D03*
Y2224D02*
D03*
X3807Y1872D02*
D03*
Y1852D02*
D03*
Y1832D02*
D03*
Y1813D02*
D03*
X3925D02*
D03*
Y1832D02*
D03*
Y1852D02*
D03*
Y1872D02*
D03*
X3925Y1519D02*
D03*
Y1500D02*
D03*
Y1480D02*
D03*
Y1460D02*
D03*
X3807D02*
D03*
Y1480D02*
D03*
Y1500D02*
D03*
Y1519D02*
D03*
X3925Y1165D02*
D03*
Y1145D02*
D03*
Y1126D02*
D03*
Y1106D02*
D03*
X3807D02*
D03*
Y1126D02*
D03*
Y1145D02*
D03*
Y1165D02*
D03*
D99*
X4150Y913D02*
D03*
Y661D02*
D03*
X4138Y1720D02*
D03*
Y1972D02*
D03*
X4150Y2327D02*
D03*
Y2075D02*
D03*
X4150Y1622D02*
D03*
Y1370D02*
D03*
X4150Y1268D02*
D03*
Y1016D02*
D03*
D100*
X4889Y378D02*
D03*
Y433D02*
D03*
Y599D02*
D03*
Y654D02*
D03*
X2161Y575D02*
D03*
Y630D02*
D03*
X2083Y575D02*
D03*
Y630D02*
D03*
X2122Y579D02*
D03*
Y634D02*
D03*
X2205Y571D02*
D03*
Y626D02*
D03*
X1626Y2378D02*
D03*
Y2433D02*
D03*
X4889Y548D02*
D03*
Y492D02*
D03*
D101*
X274Y828D02*
D03*
Y692D02*
D03*
X215D02*
D03*
Y828D02*
D03*
Y1273D02*
D03*
Y1137D02*
D03*
X274D02*
D03*
Y1273D02*
D03*
D102*
X312Y799D02*
D03*
Y780D02*
D03*
Y760D02*
D03*
Y740D02*
D03*
Y720D02*
D03*
X176D02*
D03*
Y740D02*
D03*
Y760D02*
D03*
Y780D02*
D03*
Y799D02*
D03*
Y1244D02*
D03*
Y1224D02*
D03*
Y1205D02*
D03*
Y1185D02*
D03*
Y1165D02*
D03*
X312D02*
D03*
Y1185D02*
D03*
Y1205D02*
D03*
Y1224D02*
D03*
Y1244D02*
D03*
D103*
X244Y760D02*
D03*
X244Y1205D02*
D03*
D105*
X1197Y1287D02*
D03*
Y1268D02*
D03*
Y1248D02*
D03*
Y1228D02*
D03*
Y1209D02*
D03*
Y1189D02*
D03*
Y1169D02*
D03*
Y1150D02*
D03*
Y1130D02*
D03*
Y1110D02*
D03*
Y1091D02*
D03*
Y1071D02*
D03*
Y1051D02*
D03*
Y1031D02*
D03*
Y1012D02*
D03*
Y992D02*
D03*
Y972D02*
D03*
Y953D02*
D03*
Y933D02*
D03*
Y913D02*
D03*
Y894D02*
D03*
Y874D02*
D03*
Y854D02*
D03*
Y835D02*
D03*
X1512D02*
D03*
Y854D02*
D03*
Y874D02*
D03*
Y894D02*
D03*
Y913D02*
D03*
Y933D02*
D03*
Y953D02*
D03*
Y972D02*
D03*
Y992D02*
D03*
Y1012D02*
D03*
Y1031D02*
D03*
Y1051D02*
D03*
Y1071D02*
D03*
Y1091D02*
D03*
Y1110D02*
D03*
Y1130D02*
D03*
Y1150D02*
D03*
Y1169D02*
D03*
Y1189D02*
D03*
Y1209D02*
D03*
Y1228D02*
D03*
Y1248D02*
D03*
Y1268D02*
D03*
D106*
Y1287D02*
D03*
D107*
X2126Y1350D02*
D03*
X2070D02*
D03*
X2264Y1350D02*
D03*
X2320D02*
D03*
X2264Y1413D02*
D03*
X2320D02*
D03*
X1807Y1469D02*
D03*
X1863D02*
D03*
X1863Y1520D02*
D03*
X1807D02*
D03*
X2070Y1413D02*
D03*
X2126D02*
D03*
X1858Y1701D02*
D03*
X1802D02*
D03*
X1859Y1768D02*
D03*
X1803D02*
D03*
D108*
X2087Y1709D02*
D03*
X2067D02*
D03*
X2047D02*
D03*
Y1685D02*
D03*
X2067D02*
D03*
D109*
X2087Y1686D02*
D03*
D110*
X1335Y2325D02*
D03*
D111*
X1484Y2250D02*
D03*
Y2300D02*
D03*
Y2350D02*
D03*
Y2400D02*
D03*
X1185D02*
D03*
Y2350D02*
D03*
Y2300D02*
D03*
Y2250D02*
D03*
D112*
X2264Y55D02*
D03*
X2173D02*
D03*
X2083D02*
D03*
X2657Y51D02*
D03*
X2567D02*
D03*
X2476D02*
D03*
D113*
X2173Y291D02*
D03*
X2567Y287D02*
D03*
D114*
X4571Y1248D02*
D03*
Y1198D02*
D03*
Y1148D02*
D03*
Y1098D02*
D03*
X4366Y1248D02*
D03*
Y1198D02*
D03*
Y1148D02*
D03*
Y1098D02*
D03*
D115*
X3701Y2366D02*
D03*
X3756D02*
D03*
D116*
X732Y878D02*
D03*
Y628D02*
D03*
X591D02*
D03*
Y678D02*
D03*
Y778D02*
D03*
Y878D02*
D03*
Y928D02*
D03*
Y1028D02*
D03*
Y1078D02*
D03*
Y1178D02*
D03*
Y1278D02*
D03*
Y578D02*
D03*
Y728D02*
D03*
Y828D02*
D03*
Y978D02*
D03*
Y1128D02*
D03*
Y1228D02*
D03*
X732Y578D02*
D03*
Y728D02*
D03*
Y778D02*
D03*
Y828D02*
D03*
Y928D02*
D03*
Y978D02*
D03*
Y1028D02*
D03*
Y1078D02*
D03*
Y1128D02*
D03*
Y1178D02*
D03*
Y1228D02*
D03*
Y1278D02*
D03*
Y678D02*
D03*
X4744Y1052D02*
D03*
Y1102D02*
D03*
Y1152D02*
D03*
Y1202D02*
D03*
Y1252D02*
D03*
Y1302D02*
D03*
Y1352D02*
D03*
Y1402D02*
D03*
Y1452D02*
D03*
Y1502D02*
D03*
X4886Y1102D02*
D03*
Y1252D02*
D03*
Y1352D02*
D03*
Y1502D02*
D03*
Y1052D02*
D03*
Y1152D02*
D03*
Y1202D02*
D03*
Y1302D02*
D03*
Y1402D02*
D03*
Y1452D02*
D03*
D117*
X2669Y654D02*
D03*
Y567D02*
D03*
X2606D02*
D03*
Y654D02*
D03*
M02*
